<?xml version="1.0" standalone="no"?>
<!DOCTYPE svg PUBLIC "-//W3C//DTD SVG 1.1//EN" "http://www.w3.org/Graphics/SVG/1.1/DTD/svg11.dtd" >
<svg xmlns="http://www.w3.org/2000/svg" xmlns:xlink="http://www.w3.org/1999/xlink" version="1.1">
<metadata>
Created by FontForge 20200427 at Mon Apr 25 03:17:15 2016
 By www
Published by Die Gestalten Verlag GmbH &#38; Co. KG, 2012. Copyright (c) 2011 by Sofie Beier. All rights reserved.
</metadata>
<defs>
<font id="OvinkW00-SemiBold" horiz-adv-x="626" >
  <font-face 
    font-family="OvinkW00-SemiBold"
    font-weight="600"
    font-stretch="normal"
    units-per-em="1000"
    panose-1="1 0 0 0 0 0 0 0 0 0"
    ascent="800"
    descent="-200"
    x-height="509"
    cap-height="692"
    bbox="-44 -309 1371 937"
    underline-thickness="50"
    underline-position="-125"
    unicode-range="U+000D-FB02"
  />
<missing-glyph horiz-adv-x="0" 
 />
    <glyph glyph-name="onequarter" unicode="&#x31;&#x2f;&#x34;" horiz-adv-x="801" 
d="M694 705q0 -14 -13 -32l-475 -692q-3 -4 -11 -9.5t-41 -5.5q-25 0 -36.5 2t-11.5 10q0 10 15 31l471 692q3 4 9.5 10t46.5 6q46 0 46 -12zM580 141v113q0 3 -3 4l-6 -4l-75 -113h84zM669 79v-77q0 -13 -45 -13q-46 0 -46 13v77h-159q-12 0 -17 4t-5 16q0 11 16 36
l131 192q6 9 19.5 13t42.5 4q63 0 63 -20v-182h54q5 0 8.5 -11.5t3.5 -20.5t-3.5 -20t-8.5 -11h-54zM79 395h60v207l-62 -19q-3 0 -6.5 7t-3.5 22q0 22 17 32q43 24 71 32q39 11 49 11q12 0 19 -5t7 -20v-267h47q5 0 8.5 -11.5t3.5 -20.5t-3.5 -20t-8.5 -11h-198
q-5 0 -9 11.5t-4 19.5q0 9 4 20.5t9 11.5z" />
    <glyph glyph-name="onehalf" unicode="&#x31;&#x2f;&#x32;" horiz-adv-x="823" 
d="M605 356q34 0 67 -9.5t54.5 -35.5t21.5 -59q0 -42 -43 -88t-124 -96h165q4 0 7.5 -10t3.5 -26q0 -9 -3 -20t-8 -11h-253q-14 0 -22.5 4t-8.5 21v14q0 14 18 26q90 61 133.5 106t43.5 79q0 19 -16.5 30t-38.5 11q-13 0 -29 -4t-34.5 -13t-20.5 -9q-7 0 -16 7t-16.5 21
t-7.5 19t14 16q48 27 113 27zM79 395h60v207l-62 -19q-3 0 -6.5 7t-3.5 22q0 22 17 32q43 24 71 32q39 11 49 11q12 0 19 -5t7 -20v-267h47q5 0 8.5 -11.5t3.5 -20.5t-3.5 -20t-8.5 -11h-198q-5 0 -9 11.5t-4 19.5q0 9 4 20.5t9 11.5zM694 705q0 -14 -13 -32l-475 -692
q-3 -4 -11 -9.5t-41 -5.5q-25 0 -36.5 2t-11.5 10q0 10 15 31l471 692q3 4 9.5 10t46.5 6q46 0 46 -12z" />
    <glyph glyph-name="threequarters" unicode="&#x33;&#x2f;&#x34;" horiz-adv-x="818" 
d="M188 394q25 0 41.5 9.5t22 20.5t5.5 18q0 17 -12 30.5t-37 19.5t-54 6q-10 0 -10 29q0 28 10 28q20 0 41 6t30.5 16t9.5 20q0 29 -44 29q-13 0 -28 -3.5t-30.5 -11.5t-17.5 -8q-14 0 -26.5 16.5t-12.5 24.5q0 12 40 27.5t85 15.5q49 0 87 -22t38 -64q0 -25 -15 -42.5
t-36 -24.5v-4q31 -8 51.5 -30.5t20.5 -55.5q0 -40 -25.5 -68t-63 -38.5t-69.5 -10.5q-46 0 -84.5 16t-38.5 29q0 11 10 32.5t23 21.5q3 0 22 -11t36 -16t31 -5zM597 141v113q0 3 -3 4l-6 -4l-75 -113h84zM686 79v-77q0 -13 -45 -13q-46 0 -46 13v77h-159q-12 0 -17 4t-5 16
q0 11 16 36l131 192q6 9 19.5 13t42.5 4q63 0 63 -20v-182h54q5 0 8.5 -11.5t3.5 -20.5t-3.5 -20t-8.5 -11h-54zM712 705q0 -14 -13 -32l-475 -692q-3 -4 -11 -9.5t-41 -5.5q-25 0 -36.5 2t-11.5 10q0 10 15 31l471 692q3 4 9.5 10t46.5 6q46 0 46 -12z" />
    <glyph glyph-name="onethird" unicode="&#x33;&#x2f;&#x33;" horiz-adv-x="816" 
d="M591 57q25 0 41.5 9.5t22 20.5t5.5 18q0 17 -12 30.5t-37 19.5t-54 6q-10 0 -10 29q0 28 10 28q20 0 41 6t30.5 16t9.5 20q0 29 -44 29q-13 0 -28 -3.5t-30.5 -11.5t-17.5 -8q-14 0 -26.5 16.5t-12.5 24.5q0 12 40 27.5t85 15.5q49 0 87 -22t38 -64q0 -25 -15 -42.5
t-36 -24.5v-4q31 -8 51.5 -30.5t20.5 -55.5q0 -40 -25.5 -68t-63 -38.5t-69.5 -10.5q-46 0 -84.5 16t-38.5 29q0 11 10 32.5t23 21.5q3 0 22 -11t36 -16t31 -5zM79 395h60v207l-62 -19q-3 0 -6.5 7t-3.5 22q0 22 17 32q43 24 71 32q39 11 49 11q12 0 19 -5t7 -20v-267h47
q5 0 8.5 -11.5t3.5 -20.5t-3.5 -20t-8.5 -11h-198q-5 0 -9 11.5t-4 19.5q0 9 4 20.5t9 11.5zM694 705q0 -14 -13 -32l-475 -692q-3 -4 -11 -9.5t-41 -5.5q-25 0 -36.5 2t-11.5 10q0 10 15 31l471 692q3 4 9.5 10t46.5 6q46 0 46 -12z" />
    <glyph glyph-name="twothirds" unicode="&#x32;&#x2f;&#x33;" horiz-adv-x="875" 
d="M209 687q34 0 67 -9.5t54.5 -35.5t21.5 -59q0 -42 -43 -88t-124 -96h165q4 0 7.5 -10t3.5 -26q0 -9 -3 -20t-8 -11h-253q-14 0 -22.5 4t-8.5 21v14q0 14 18 26q90 61 133.5 106t43.5 79q0 19 -16.5 30t-38.5 11q-13 0 -29 -4t-34.5 -13t-20.5 -9q-7 0 -16 7t-16.5 21
t-7.5 19t14 16q48 27 113 27zM753 705q0 -14 -13 -32l-475 -692q-3 -4 -11 -9.5t-41 -5.5q-25 0 -36.5 2t-11.5 10q0 10 15 31l471 692q3 4 9.5 10t46.5 6q46 0 46 -12zM650 57q25 0 41.5 9.5t22 20.5t5.5 18q0 17 -12 30.5t-37 19.5t-54 6q-10 0 -10 29q0 28 10 28
q20 0 41 6t30.5 16t9.5 20q0 29 -44 29q-13 0 -28 -3.5t-30.5 -11.5t-17.5 -8q-14 0 -26.5 16.5t-12.5 24.5q0 12 40 27.5t85 15.5q49 0 87 -22t38 -64q0 -25 -15 -42.5t-36 -24.5v-4q31 -8 51.5 -30.5t20.5 -55.5q0 -40 -25.5 -68t-63 -38.5t-69.5 -10.5q-46 0 -84.5 16
t-38.5 29q0 11 10 32.5t23 21.5q3 0 22 -11t36 -16t31 -5z" />
    <glyph glyph-name="oneeighth" unicode="&#x31;&#x2f;&#x38;" horiz-adv-x="825" 
d="M604 -11q-71 0 -113.5 32.5t-42.5 83.5q0 29 20 54.5t59 38.5q-27 10 -40.5 28t-13.5 38q0 39 36 62t95 23t94.5 -22.5t35.5 -62.5q0 -18 -13.5 -37.5t-40.5 -28.5q39 -11 59 -37t20 -56q0 -51 -42 -83.5t-113 -32.5zM604 160q-31 0 -48 -13t-17 -40q0 -26 18 -40.5
t47 -14.5t47 14.5t18 40.5t-17.5 39.5t-47.5 13.5zM559 265q0 -15 13 -23.5t32 -8.5t32 8.5t13 23.5q0 14 -12.5 22.5t-32.5 8.5t-32.5 -8.5t-12.5 -22.5zM79 395h60v207l-62 -19q-3 0 -6.5 7t-3.5 22q0 22 17 32q43 24 71 32q39 11 49 11q12 0 19 -5t7 -20v-267h47
q5 0 8.5 -11.5t3.5 -20.5t-3.5 -20t-8.5 -11h-198q-5 0 -9 11.5t-4 19.5q0 9 4 20.5t9 11.5zM694 705q0 -14 -13 -32l-475 -692q-3 -4 -11 -9.5t-41 -5.5q-25 0 -36.5 2t-11.5 10q0 10 15 31l471 692q3 4 9.5 10t46.5 6q46 0 46 -12z" />
    <glyph glyph-name="threeeighths" unicode="&#x33;&#x2f;&#x38;" horiz-adv-x="841" 
d="M709 705q0 -14 -13 -32l-475 -692q-3 -4 -11 -9.5t-41 -5.5q-25 0 -36.5 2t-11.5 10q0 10 15 31l471 692q3 4 9.5 10t46.5 6q46 0 46 -12zM620 -11q-71 0 -113.5 32.5t-42.5 83.5q0 29 20 54.5t59 38.5q-27 10 -40.5 28t-13.5 38q0 39 36 62t95 23t94.5 -22.5t35.5 -62.5
q0 -18 -13.5 -37.5t-40.5 -28.5q39 -11 59 -37t20 -56q0 -51 -42 -83.5t-113 -32.5zM620 160q-31 0 -48 -13t-17 -40q0 -26 18 -40.5t47 -14.5t47 14.5t18 40.5t-17.5 39.5t-47.5 13.5zM575 265q0 -15 13 -23.5t32 -8.5t32 8.5t13 23.5q0 14 -12.5 22.5t-32.5 8.5
t-32.5 -8.5t-12.5 -22.5zM188 394q25 0 41.5 9.5t22 20.5t5.5 18q0 17 -12 30.5t-37 19.5t-54 6q-10 0 -10 29q0 28 10 28q20 0 41 6t30.5 16t9.5 20q0 29 -44 29q-13 0 -28 -3.5t-30.5 -11.5t-17.5 -8q-14 0 -26.5 16.5t-12.5 24.5q0 12 40 27.5t85 15.5q49 0 87 -22
t38 -64q0 -25 -15 -42.5t-36 -24.5v-4q31 -8 51.5 -30.5t20.5 -55.5q0 -40 -25.5 -68t-63 -38.5t-69.5 -10.5q-46 0 -84.5 16t-38.5 29q0 11 10 32.5t23 21.5q3 0 22 -11t36 -16t31 -5z" />
    <glyph glyph-name="fiveeighths" unicode="&#x35;&#x2f;&#x38;" horiz-adv-x="851" 
d="M145 682h191q5 0 8 -10t3 -20q0 -8 -3 -20.5t-8 -12.5h-155l-10 -54q19 4 44 4q71 0 106.5 -32t35.5 -85q0 -39 -20.5 -67t-59.5 -44t-89 -16q-23 0 -51 6.5t-49.5 19t-21.5 20.5q0 7 5.5 22t13 23t14.5 8q3 0 24 -12t38 -15.5t31 -3.5q30 0 51.5 15.5t21.5 40.5
q0 23 -16.5 38t-54.5 15q-27 0 -50 -5l-13 -4q-9 0 -29.5 14t-20.5 19l24 135q2 10 9.5 15.5t30.5 5.5zM719 705q0 -14 -13 -32l-475 -692q-3 -4 -11 -9.5t-41 -5.5q-25 0 -36.5 2t-11.5 10q0 10 15 31l471 692q3 4 9.5 10t46.5 6q46 0 46 -12zM630 -11q-71 0 -113.5 32.5
t-42.5 83.5q0 29 20 54.5t59 38.5q-27 10 -40.5 28t-13.5 38q0 39 36 62t95 23t94.5 -22.5t35.5 -62.5q0 -18 -13.5 -37.5t-40.5 -28.5q39 -11 59 -37t20 -56q0 -51 -42 -83.5t-113 -32.5zM630 160q-31 0 -48 -13t-17 -40q0 -26 18 -40.5t47 -14.5t47 14.5t18 40.5
t-17.5 39.5t-47.5 13.5zM585 265q0 -15 13 -23.5t32 -8.5t32 8.5t13 23.5q0 14 -12.5 22.5t-32.5 8.5t-32.5 -8.5t-12.5 -22.5z" />
    <glyph glyph-name="seveneighths" unicode="&#x37;&#x2f;&#x38;" horiz-adv-x="786" 
d="M359 662q0 -19 -10 -37l-156 -282q-2 -4 -9 -9t-38 -5q-48 0 -48 17q0 5 12 24l148 241h-168q-4 0 -8 11.5t-4 25.5q0 9 3 21.5t9 12.5h236q33 0 33 -20zM654 705q0 -14 -13 -32l-475 -692q-3 -4 -11 -9.5t-41 -5.5q-25 0 -36.5 2t-11.5 10q0 10 15 31l471 692
q3 4 9.5 10t46.5 6q46 0 46 -12zM565 -11q-71 0 -113.5 32.5t-42.5 83.5q0 29 20 54.5t59 38.5q-27 10 -40.5 28t-13.5 38q0 39 36 62t95 23t94.5 -22.5t35.5 -62.5q0 -18 -13.5 -37.5t-40.5 -28.5q39 -11 59 -37t20 -56q0 -51 -42 -83.5t-113 -32.5zM565 160q-31 0 -48 -13
t-17 -40q0 -26 18 -40.5t47 -14.5t47 14.5t18 40.5t-17.5 39.5t-47.5 13.5zM520 265q0 -15 13 -23.5t32 -8.5t32 8.5t13 23.5q0 14 -12.5 22.5t-32.5 8.5t-32.5 -8.5t-12.5 -22.5z" />
    <glyph glyph-name="uniFB01" unicode="fi" horiz-adv-x="652" 
d="M49 498l57 13q0 64 24.5 104.5t66 61t96.5 20.5q44 0 92 -12q27 -7 27 -27q0 -11 -6 -33t-15.5 -33t-18.5 -11q-3 0 -23 5t-35 5q-38 0 -54.5 -19t-16.5 -59l96 -12q22 -2 22 -37q0 -45 -18 -47l-103 -14v-386q0 -10 -14.5 -15t-51.5 -5q-68 0 -68 20v386l-61 13
q-6 1 -10.5 12.5t-4.5 27.5q0 40 19 42zM581 493v-476q0 -21 -66 -21q-69 0 -69 20v477q0 21 68 21q37 0 52 -5.5t15 -15.5zM435 635q0 35 18 48.5t61 13.5q41 0 59.5 -14t18.5 -48q0 -35 -18 -47t-60 -12q-43 0 -61 12t-18 47z" />
    <glyph glyph-name="uniFB02" unicode="fl" horiz-adv-x="695" 
d="M243 523l116 -12q22 -2 22 -37q0 -45 -18 -47l-123 -14v-396q0 -10 -14.5 -15t-51.5 -5q-68 0 -68 20v396l-61 13q-6 1 -10.5 13t-4.5 27q0 38 19 42l57 14q0 175 247 175q96 0 179 -5.5t92 -15.5v-660q0 -21 -67 -21q-68 0 -68 21v562q-48 12 -135 12q-54 0 -81 -12.5
t-30 -54.5z" />
    <glyph glyph-name=".notdef" horiz-adv-x="0" 
 />
    <glyph glyph-name="glyph1" horiz-adv-x="0" 
 />
    <glyph glyph-name="glyph1" horiz-adv-x="0" 
 />
    <glyph glyph-name="uni000D" unicode="&#xd;" horiz-adv-x="306" 
 />
    <glyph glyph-name="space" unicode=" " horiz-adv-x="295" 
 />
    <glyph glyph-name="exclam" unicode="!" horiz-adv-x="316" 
d="M157 692q42 0 59 -8t17 -24v-25q0 -41 -4.5 -211t-6.5 -197q-4 -31 -65 -31q-60 0 -62 31q-4 60 -8 178t-4 229v26q0 16 15.5 24t58.5 8zM78 52q0 35 18.5 48.5t61.5 13.5q41 0 59.5 -14t18.5 -48q0 -35 -18.5 -47.5t-59.5 -12.5q-44 0 -62 12.5t-18 47.5z" />
    <glyph glyph-name="quotedbl" unicode="&#x22;" horiz-adv-x="535" 
d="M390 432q-25 0 -39 5.5t-16 20.5q0 3 -1 12t-10 85.5t-9 106.5q0 18 16.5 27.5t58.5 9.5q41 0 57.5 -9.5t16.5 -27.5q0 -3 -0.5 -12.5t-4.5 -66t-14 -125.5q-2 -11 -13 -18.5t-42 -7.5zM145 432q-25 0 -39 5.5t-16 20.5q0 3 -1 12t-10 85.5t-9 106.5q0 18 16.5 27.5
t58.5 9.5q41 0 57.5 -9.5t16.5 -27.5q0 -3 -0.5 -12.5t-4.5 -66t-14 -125.5q-2 -11 -13 -18.5t-42 -7.5z" />
    <glyph glyph-name="numbersign" unicode="#" 
d="M359 4q0 32 11 134h-135l-12 -136q-1 -14 -36 -14q-12 0 -23.5 3.5t-11.5 12.5l11 134h-114q-17 0 -17 29q0 14 6 28t15 14h116l10 120h-103q-8 0 -12.5 9t-4.5 21q0 14 5.5 27.5t15.5 13.5h105l12 119q2 12 36 12q36 0 36 -13l-10 -118h133l12 119q1 12 36 12
q34 0 34 -14l-10 -117h113q7 0 11.5 -7.5t4.5 -23.5q0 -11 -6 -25.5t-15 -14.5h-114l-11 -120h108q7 0 11 -9t4 -18q0 -20 -5.5 -32t-13.5 -12h-111l-10 -136q-2 -13 -36 -13q-11 0 -23 3.5t-12 11.5zM386 329h-133l-12 -120h134z" />
    <glyph glyph-name="dollar" unicode="$" 
d="M353 812v-116q53 -4 97 -17.5t73 -32.5t29 -32q0 -5 -7 -27t-20.5 -46t-25.5 -24q-6 0 -39 15.5t-59 24.5t-48 13v-147q82 -22 128 -47.5t71 -65.5t25 -99q0 -35 -11 -71.5t-38 -67t-70.5 -52t-104.5 -27.5v-85q0 -15 -31 -15q-33 0 -33 15v83q-42 1 -97.5 12.5
t-98.5 35.5t-43 43q0 7 8.5 29.5t25 48t28.5 25.5q5 0 22.5 -10.5t26.5 -15.5q29 -15 63 -26t65 -15v169q-82 24 -125 53.5t-63 69.5t-20 97q0 84 52.5 134t155.5 56v115q0 5 3 10t30 5q31 0 31 -15zM427 196q0 23 -16 40t-58 32v-148q35 6 54.5 25.5t19.5 50.5zM231 513
q0 -25 13 -40.5t45 -28.5v129q-58 -6 -58 -60z" />
    <glyph glyph-name="percent" unicode="%" horiz-adv-x="1124" 
d="M255 697q44 0 82.5 -11t67.5 -33.5t45 -55.5t16 -75q0 -53 -24.5 -93t-72 -64.5t-114.5 -24.5q-43 0 -81.5 12t-67 35.5t-44.5 57.5t-16 77q0 52 24.5 90.5t71 61.5t113.5 23zM256 421q37 0 59.5 28.5t22.5 73.5q0 42 -22.5 69t-59.5 27q-36 0 -60 -26.5t-24 -69.5
q0 -32 13.5 -57.5t33.5 -35t37 -9.5zM814 676q0 -10 -20 -50l-344 -606q-6 -12 -19 -18t-52 -6q-33 0 -51 5.5t-18 19.5q0 7 11 27l355 627q5 10 18.5 16t52.5 6q29 0 48 -5.5t19 -15.5zM867 347q44 0 82.5 -11.5t67.5 -34t45 -56t16 -75.5q0 -53 -24.5 -92.5t-72 -63.5
t-114.5 -24q-55 0 -105 20.5t-77 63.5t-27 96t24.5 91.5t71.5 62t113 23.5zM868 70q36 0 59.5 28.5t23.5 73.5q0 42 -23 69t-60 27t-60 -26t-23 -70t23 -73t60 -29z" />
    <glyph glyph-name="ampersand" unicode="&#x26;" horiz-adv-x="741" 
d="M44 177q0 64 40.5 112t112.5 86q-80 92 -80 167q0 45 26.5 80.5t73.5 55t113 19.5q55 0 104.5 -16.5t79 -48.5t29.5 -80q0 -59 -42 -108t-133 -90q58 -60 154 -134q19 22 32 61t13 72q0 8 9.5 13t45.5 5q18 0 31.5 -1.5t18 -6.5t4.5 -14q0 -98 -73 -194l102 -74
q13 -9 13 -30v-30q0 -10 -5 -15.5t-19 -5.5h-27q-23 0 -37 11l-97 71q-108 -90 -249 -90q-72 0 -126 22.5t-84 63t-30 99.5zM300 92q82 0 142 58q-125 101 -170 147q-46 -24 -72.5 -53.5t-26.5 -60.5q0 -47 35 -69t92 -22zM242 530q0 -17 13 -44t45 -60q56 27 88 57t32 56
q0 31 -23.5 49.5t-65.5 18.5q-26 0 -47 -8.5t-31.5 -27t-10.5 -41.5z" />
    <glyph glyph-name="quotesingle" unicode="'" horiz-adv-x="290" 
d="M145 432q-25 0 -39 5.5t-16 20.5q0 3 -1 12t-10 85.5t-9 106.5q0 18 16.5 27.5t58.5 9.5q41 0 57.5 -9.5t16.5 -27.5q0 -3 -0.5 -12.5t-4.5 -66t-14 -125.5q-2 -11 -13 -18.5t-42 -7.5z" />
    <glyph glyph-name="parenleft" unicode="(" horiz-adv-x="380" 
d="M205 294q0 -92 12.5 -170t37.5 -134.5t64 -100.5q15 -17 15.5 -18t0.5 -3q0 -5 -6.5 -16.5t-21 -23t-30.5 -11.5q-3 0 -14.5 3.5t-24.5 12.5q-168 132 -168 461q0 56 12 117t32.5 115t52.5 101.5t71 76.5q6 5 18.5 10.5t20.5 5.5q10 0 23.5 -7t24 -21.5t10.5 -22.5
q0 -1 -0.5 -3.5t-15.5 -18.5q-52 -55 -83 -158.5t-31 -194.5z" />
    <glyph glyph-name="parenright" unicode=")" horiz-adv-x="380" 
d="M175 294q0 91 -31 194.5t-83 158.5q-2 2 -9 9.5t-7 12.5t6.5 16.5t21 23t30.5 11.5q3 0 14 -3.5t24 -12.5q49 -36 86 -99.5t60 -145.5t23 -165q0 -329 -169 -461q-7 -5 -19 -10.5t-19 -5.5q-10 0 -23.5 7t-24 21.5t-10.5 22.5q0 2 2 5t7.5 8.5t6.5 7.5q33 38 56.5 84.5
t40.5 126.5t17 194z" />
    <glyph glyph-name="asterisk" unicode="*" horiz-adv-x="423" 
d="M243 681l-9 -106q19 26 43.5 55t32.5 30q11 3 27.5 -13t13.5 -27q-1 -5 -13 -17t-41 -35t-31 -24l105 9q9 0 14 -6.5t5 -25.5q0 -32 -19 -32q-68 4 -105 9q26 -19 55 -43.5t30 -32.5q1 -5 -3.5 -15t-17 -19t-20.5 -7q-12 2 -76 86l9 -106q0 -9 -6.5 -13.5t-24.5 -5.5
q-32 1 -32 19q0 5 3 43.5t6 61.5q-46 -57 -58.5 -70.5t-18.5 -14.5q-5 -1 -14.5 4t-18.5 17t-7 20q3 13 85 76q-18 -2 -57 -5.5t-49 -3.5q-18 0 -18 32t19 32l104 -9q-82 62 -84 76q-3 10 13.5 26.5t26.5 13.5q18 -5 76 -85l-9 106q0 18 32 18t32 -18z" />
    <glyph glyph-name="plus" unicode="+" 
d="M356 500v-155h176q6 0 12 -11t6 -31q0 -12 -5 -28t-13 -16h-176v-167q0 -6 -11.5 -12t-32.5 -6q-12 0 -28.5 5t-16.5 13v167h-172q-6 0 -12 12.5t-6 31.5q0 20 6 31t12 11h172v155q0 6 13 12t32 6q14 0 29 -4.5t15 -13.5z" />
    <glyph glyph-name="comma" unicode="," horiz-adv-x="262" 
d="M49 -115q0 27 31 201q10 47 38 47q21 0 54 -9q24 -8 36 -16.5t12 -24.5t-11 -40q0 -1 -1 -3.5t-19.5 -52.5t-34 -87.5t-20.5 -40.5l-11 -2q-17 0 -45.5 8.5t-28.5 19.5z" />
    <glyph glyph-name="hyphen" unicode="-" horiz-adv-x="423" 
d="M61 347h300q6 0 12 -14t6 -36q0 -13 -5 -32.5t-13 -19.5h-300q-8 0 -13 19.5t-5 32.5q0 14 5 32t13 18z" />
    <glyph glyph-name="period" unicode="." horiz-adv-x="266" 
d="M54 51q0 35 18.5 48.5t61.5 13.5q41 0 59.5 -14t18.5 -48q0 -35 -18.5 -47.5t-59.5 -12.5q-44 0 -62 12.5t-18 47.5z" />
    <glyph glyph-name="slash" unicode="/" horiz-adv-x="474" 
d="M450 677q0 -2 -1 -7.5t-9.5 -23t-10.5 -22.5l-273 -605q-6 -12 -18 -17.5t-50 -5.5q-33 0 -50.5 5.5t-17.5 19.5q0 4 5 15.5t6 13.5l283 626q5 10 17 15.5t52 5.5q30 0 48.5 -5t18.5 -15z" />
    <glyph glyph-name="zero" unicode="0" horiz-adv-x="622" 
d="M312 -9q-75 0 -128 22.5t-85.5 66.5t-47.5 110t-15 154t15 154t47.5 110t85.5 66.5t128 22.5q55 0 106.5 -15t88.5 -53.5t58 -106t21 -178.5q0 -88 -14.5 -154t-47 -110t-85.5 -66.5t-127 -22.5zM312 101q45 0 76 22t44.5 70t13.5 152q0 88 -10 137t-39.5 78.5
t-84.5 29.5q-45 0 -76 -22t-45 -71t-14 -152q0 -104 13 -152t44.5 -70t77.5 -22z" />
    <glyph glyph-name="one" unicode="1" horiz-adv-x="491" 
d="M67 109l121 1v443l-126 -40q-6 0 -10.5 14.5t-4.5 34.5q0 37 24 53q22 14 65 33.5t72 29.5q15 6 40.5 12.5t37.5 6.5q18 0 28.5 -7.5t10.5 -32.5v-548h116q6 0 12 -15.5t6 -38.5q0 -13 -5 -34t-13 -21h-374q-6 0 -12 16t-6 39q0 15 4.5 34.5t13.5 19.5z" />
    <glyph glyph-name="two" unicode="2" horiz-adv-x="565" 
d="M282 696q59 0 106 -14t78.5 -39.5t47.5 -60t16 -74.5q0 -187 -304 -399h302q6 0 12 -17.5t6 -41.5q0 -13 -5 -31.5t-13 -18.5h-450q-21 0 -34.5 7t-13.5 34v24q0 21 28 43q174 136 254 230t80 168q0 30 -19.5 51.5t-46.5 29t-48 7.5q-25 0 -55 -8.5t-63 -25.5t-36 -17
q-10 0 -23.5 11.5t-25 34t-11.5 30.5q0 13 21 26q76 51 197 51z" />
    <glyph glyph-name="three" unicode="3" horiz-adv-x="559" 
d="M252 99q36 0 68 13.5t50 45t18 61.5q0 118 -191 118q-6 0 -10.5 13.5t-4.5 36.5q0 59 15 59q40 0 75.5 9.5t56.5 29t21 49.5q0 26 -25.5 41t-67.5 15q-24 0 -52.5 -7.5t-59 -23t-33.5 -15.5q-10 0 -22.5 11.5t-22.5 33.5t-10 31q0 13 28.5 30.5t80 32.5t107.5 15
q64 0 112 -19.5t75 -55t27 -87.5q0 -27 -12 -56t-35.5 -49t-48.5 -30v-9q68 -19 101.5 -67t33.5 -107q0 -49 -20 -91.5t-57 -72.5t-87.5 -46.5t-108.5 -16.5q-37 0 -87 11t-90 33.5t-40 39.5q0 10 10.5 34t23.5 36.5t24 12.5q1 0 4.5 -1t26 -16t41.5 -23.5t40.5 -13.5
t45.5 -5z" />
    <glyph glyph-name="four" unicode="4" horiz-adv-x="613" 
d="M353 288v243q0 7 -6 7q-4 0 -9 -7l-160 -243h175zM487 179v-162q0 -7 -10 -14.5t-57 -7.5q-70 0 -70 22v162h-292q-16 0 -26 5t-10 30q0 18 28 63l244 383q12 18 33 25.5t65 7.5q95 0 95 -32v-372h102q6 0 12 -17.5t6 -41.5q0 -13 -5 -32t-13 -19h-102z" />
    <glyph glyph-name="five" unicode="5" horiz-adv-x="577" 
d="M165 688h337q6 0 12 -13t6 -34q0 -14 -5 -38t-13 -24h-283l-22 -131q50 11 85 11q61 0 109.5 -16.5t81 -47t48.5 -72.5t16 -91q0 -59 -22.5 -105t-62.5 -76t-92.5 -45t-112.5 -15q-40 0 -90.5 11t-88.5 34t-38 39q0 6 6.5 24.5t21 38.5t30.5 20q1 0 5 -1t21.5 -12.5
t36.5 -22t47.5 -17t54.5 -6.5q29 0 64 11.5t58.5 42.5t23.5 75q0 24 -9.5 52.5t-42 49t-90.5 20.5q-50 0 -95 -14q-5 -1 -13 -4t-11 -3q-13 0 -45 23t-32 32l42 269q3 16 15.5 25.5t46.5 9.5z" />
    <glyph glyph-name="six" unicode="6" horiz-adv-x="601" 
d="M475 595l-43 -9q-78 -16 -128.5 -55t-78.5 -107q36 20 115 20q105 0 166.5 -58.5t61.5 -153.5q0 -50 -18.5 -94t-53.5 -77t-85 -51.5t-110 -18.5q-58 0 -108 17t-86 50t-55.5 82t-19.5 111q0 71 24 142t69 131t111 103t145 62q53 12 74 12q6 0 13.5 -10.5t13.5 -32.5
t6 -34q0 -27 -13 -29zM432 230q0 55 -32.5 83.5t-87.5 28.5q-36 0 -72.5 -14t-53 -41.5t-16.5 -60.5q0 -25 11 -55.5t41.5 -52t77.5 -21.5q31 0 61.5 12.5t50.5 45.5t20 75z" />
    <glyph glyph-name="seven" unicode="7" horiz-adv-x="520" 
d="M513 656q0 -21 -6 -39t-9 -24q-180 -369 -284 -573q-6 -13 -17.5 -19t-52.5 -6q-36 0 -54 6.5t-18 21.5q0 11 19 42l272 510h-314q-8 0 -13 24t-5 38t5 32.5t13 18.5h415q49 0 49 -32z" />
    <glyph glyph-name="eight" unicode="8" horiz-adv-x="607" 
d="M304 -9q-45 0 -92.5 11t-91.5 42t-65 77.5t-21 93.5q0 42 15.5 80t47 65.5t78.5 41.5q-95 44 -95 134q0 73 60 117t163 44t163.5 -43.5t60.5 -117.5q0 -28 -12.5 -57.5t-36 -49t-47.5 -28.5q46 -11 78 -38.5t48 -66.5t16 -81q0 -47 -18 -88.5t-53 -71.5t-85.5 -47
t-112.5 -17zM303 341q-62 0 -97 -30.5t-35 -92.5q0 -61 38 -93t95 -32q58 0 95 32t37 93t-35.5 92t-97.5 31zM212 537q0 -28 16 -47t37.5 -25.5t39.5 -6.5q38 0 61 18t27 36t4 25q0 25 -15 42.5t-37 24t-42 6.5q-41 0 -66 -19.5t-25 -53.5z" />
    <glyph glyph-name="nine" unicode="9" horiz-adv-x="602" 
d="M126 92l43 9q77 16 128 55.5t79 107.5q-38 -21 -115 -21q-105 0 -166.5 58.5t-61.5 153.5q0 50 18.5 94t53.5 77t85 51.5t110 18.5q58 0 108 -17t86 -50t55.5 -82t19.5 -111q0 -71 -24 -142t-69 -131t-111 -103t-145 -62q-53 -12 -74 -12q-6 0 -13.5 10.5t-13.5 32.5
t-6 34q0 27 13 29zM169 457q0 -55 32.5 -83.5t87.5 -28.5q36 0 72.5 14t53 41.5t16.5 60.5q0 25 -11 55.5t-41.5 52t-77.5 21.5q-31 0 -61.5 -12.5t-50.5 -45.5t-20 -75z" />
    <glyph glyph-name="colon" unicode=":" horiz-adv-x="266" 
d="M54 393q0 35 18.5 48.5t61.5 13.5q41 0 59.5 -14t18.5 -48q0 -35 -18.5 -47.5t-59.5 -12.5q-44 0 -62 12.5t-18 47.5zM54 51q0 35 18.5 48.5t61.5 13.5q41 0 59.5 -14t18.5 -48q0 -35 -18.5 -47.5t-59.5 -12.5q-44 0 -62 12.5t-18 47.5z" />
    <glyph glyph-name="semicolon" unicode=";" horiz-adv-x="274" 
d="M46 -115q0 27 31 201q10 47 38 47q21 0 54 -9q24 -8 36 -16.5t12 -24.5t-11 -40q0 -1 -1 -3.5t-19.5 -52.5t-34 -87.5t-20.5 -40.5l-11 -2q-17 0 -45.5 8.5t-28.5 19.5zM74 393q0 35 18.5 48.5t61.5 13.5q41 0 59.5 -14t18.5 -48q0 -35 -18.5 -47.5t-59.5 -12.5
q-44 0 -62 12.5t-18 47.5z" />
    <glyph glyph-name="less" unicode="&#x3c;" horiz-adv-x="739" 
d="M58 278q0 7 7 18.5t19 21.5q5 4 21 18t145.5 127.5t137.5 113.5q18 0 43 -25q7 -7 15.5 -16t8.5 -20q0 -9 -98 -93.5t-110 -95.5h410q19 0 19 -49q0 -15 -4 -33t-15 -18h-414q37 -35 71.5 -66t87 -77.5t52.5 -53.5q0 -3 -2 -10.5t-21 -25.5q-24 -24 -43 -24
q-7 0 -93.5 75t-213.5 192q-23 22 -23 41z" />
    <glyph glyph-name="equal" unicode="=" 
d="M101 265h424q6 0 12 -11t6 -31q0 -12 -5 -28.5t-13 -16.5h-424q-6 0 -12 13t-6 32q0 20 6 31t12 11zM101 457h424q6 0 12 -11t6 -31q0 -12 -5 -28t-13 -16h-424q-6 0 -12 12.5t-6 31.5q0 20 6 31t12 11z" />
    <glyph glyph-name="greater" unicode="&#x3e;" horiz-adv-x="739" 
d="M681 278q0 -21 -23 -41q-1 -1 -4.5 -4t-95.5 -86.5t-147 -130t-60 -46.5q-17 0 -43 24q-11 10 -17 18t-6 18q0 7 48.5 50t77 68.5t85.5 78.5h-413q-8 0 -14 14t-6 37q0 24 6 36.5t14 12.5h410q-20 18 -85.5 73.5t-94.5 82.5t-29 33q0 3 2 10t22 26q27 25 43 25
q8 0 126.5 -102t180.5 -160q23 -22 23 -37z" />
    <glyph glyph-name="question" unicode="?" horiz-adv-x="513" 
d="M251 579q-26 0 -57 -7.5t-69 -23.5t-44 -16q-15 0 -31.5 35.5t-16.5 53.5q0 17 23 28q40 20 90 34t101 14q43 0 85.5 -9t75 -29.5t52.5 -54t20 -78.5q0 -61 -35 -101.5t-109 -74.5q-34 -15 -51 -33.5t-17 -48.5q0 -26 3 -50q0 -23 -70 -23t-71 22q-3 14 -3 62
q0 81 92 133q72 40 95.5 59.5t23.5 43.5q0 28 -24 46t-63 18zM120 54q0 35 18.5 48.5t61.5 13.5q41 0 59.5 -14t18.5 -48q0 -35 -18.5 -47.5t-59.5 -12.5q-44 0 -62 12.5t-18 47.5z" />
    <glyph glyph-name="at" unicode="@" horiz-adv-x="1111" 
d="M1073 324q0 -60 -17.5 -115.5t-51 -98t-84 -66.5t-112.5 -24q-37 0 -70.5 10.5t-55 31t-32.5 42.5q-33 -41 -75 -62t-87 -21q-43 0 -79.5 15.5t-61.5 43.5t-38.5 65.5t-13.5 79.5q0 41 11 81t30 72.5t47.5 59t70 42.5t92.5 16q33 0 61.5 -7.5t53 -22.5t28.5 -15
q7 0 14 10.5t11 19.5q7 8 37 8q22 0 36.5 -4t14.5 -12t-27 -117t-30 -125q-6 -26 -6 -41q0 -30 19.5 -49t52.5 -19q60 0 94.5 53.5t34.5 145.5q0 69 -24 123.5t-70 91.5t-111.5 56t-146.5 19q-100 0 -179 -26.5t-131 -75.5t-78.5 -117.5t-26.5 -149.5q0 -60 19 -117
t61.5 -102.5t113.5 -72.5t168 -27q33 0 71 4.5t77 14t43 9.5q9 0 18 -11t14.5 -33t5.5 -37q0 -21 -16 -25q-26 -9 -87 -18t-131 -9q-153 0 -265 50t-169.5 149t-57.5 220q0 78 20.5 148.5t61 128t104 102.5t157 71.5t207.5 26.5q134 0 245 -46.5t175.5 -137.5t64.5 -206z
M624 221q9 29 20.5 73t11.5 57q0 1 -1 4t-9.5 12.5t-32 20.5t-51.5 11q-37 0 -65 -17t-44.5 -43t-24.5 -58t-8 -59q0 -48 23 -75t60 -27q25 0 51.5 13t44 38t25.5 50z" />
    <glyph glyph-name="A" unicode="A" horiz-adv-x="594" 
d="M580 84v-61q0 -12 -6.5 -17.5t-24.5 -5.5h-58q-17 0 -27 3.5t-15 21.5l-59 186h-192l-58 -187q-4 -13 -10.5 -18.5t-17.5 -5.5h-78q-7 0 -13.5 4.5t-6.5 15.5v66q0 15 14 55l189 533q3 9 16 14t62 5q43 0 60.5 -3t21.5 -15l193 -543q10 -29 10 -48zM369 313l-65 218
q-3 9 -10 9q-6 0 -9 -9l-67 -218h151z" />
    <glyph glyph-name="B" unicode="B" horiz-adv-x="601" 
d="M268 0h-160q-34 0 -34 34v620q0 35 35 35h173q126 0 185 -38t59 -120q0 -43 -24.5 -82t-80.5 -59q26 -6 53 -19t50.5 -37.5t35 -58t11.5 -63.5q0 -45 -17.5 -84t-54 -67.5t-95 -44.5t-136.5 -16zM279 324l-69 5v-229q0 -2 1.5 -5t16.5 -3h26q91 0 135 29.5t44 92.5
q0 55 -35 79.5t-119 30.5zM281 601h-58q-13 0 -13 -7v-177l67 9q58 8 85 29t27 67q0 30 -17 48.5t-42.5 24.5t-48.5 6z" />
    <glyph glyph-name="C" unicode="C" horiz-adv-x="625" 
d="M354 697q109 0 190 -48q14 -9 24 -18.5t10 -15.5t-9 -24t-27.5 -37.5t-32.5 -19.5q-1 0 -2.5 0.5t-28.5 17t-60.5 25.5t-65.5 9q-85 0 -127.5 -56t-42.5 -186q0 -91 20.5 -143t59 -75.5t90.5 -23.5q36 0 73 11.5t73.5 32t40 22t6.5 1.5q7 0 17 -13t19.5 -38t9.5 -34
q0 -16 -30 -37t-96.5 -39t-116.5 -18q-150 0 -230 90t-80 265q0 174 80 263t236 89z" />
    <glyph glyph-name="D" unicode="D" horiz-adv-x="681" 
d="M316 588h-87q-14 0 -14 -7v-468q0 -6 14 -6h84q96 0 141 54.5t45 188.5q0 80 -16 130t-56 79t-111 29zM315 0h-206q-34 0 -34 34v620q0 35 34 35h209q77 0 138 -21t102.5 -63.5t63 -108t21.5 -150.5q0 -87 -22.5 -153.5t-65.5 -109t-103.5 -63t-136.5 -20.5z" />
    <glyph glyph-name="E" unicode="E" horiz-adv-x="576" 
d="M445 311l-223 -17q-7 0 -7 -9v-169q0 -7 13 -7h310q6 0 11.5 -17.5t5.5 -40.5q0 -13 -4 -29t-7.5 -19t-5.5 -3h-429q-18 0 -26 8.5t-8 25.5v619q0 35 32 35h396q6 0 12 -13t6 -34q0 -14 -5 -37.5t-13 -23.5h-276q-12 0 -12 -7v-146q0 -2 0.5 -5.5t8.5 -4.5l221 -16
q6 -1 11.5 -13.5t5.5 -32.5q0 -14 -4.5 -28.5t-12.5 -15.5z" />
    <glyph glyph-name="F" unicode="F" horiz-adv-x="526" 
d="M445 302l-223 -16q-7 0 -7 -9v-259q0 -7 -10.5 -14.5t-58.5 -7.5q-72 0 -72 22v635q0 35 33 35h396q6 0 12 -13t6 -34q0 -14 -5 -37.5t-13 -23.5h-277q-11 0 -11 -7v-154q0 -3 0.5 -6.5t7.5 -3.5l222 -17q4 -1 8.5 -7.5t6.5 -20t2 -18.5q0 -14 -5 -28.5t-12 -15.5z" />
    <glyph glyph-name="G" unicode="G" horiz-adv-x="655" 
d="M182 344q0 -91 20.5 -143t59 -75.5t90.5 -23.5q25 0 61.5 9.5t55.5 25.5v124h-125q-7 0 -12 14.5t-5 40.5q0 54 17 54h230q13 0 21 -6.5t8 -17.5v-258q0 -25 -49 -49q-100 -50 -202 -50q-154 0 -234 89.5t-80 266.5q0 352 322 352q107 0 184 -44q13 -7 23.5 -17.5
t10.5 -17.5q0 -6 -9 -23.5t-27 -37t-33 -19.5q-1 0 -31 16t-62.5 24t-62.5 8q-24 0 -50.5 -5.5t-48.5 -20.5t-36.5 -38.5t-25 -63.5t-10.5 -114z" />
    <glyph glyph-name="H" unicode="H" horiz-adv-x="724" 
d="M649 670v-652q0 -22 -69 -22q-72 0 -72 22v288l-134 -19l-12 -2l-13 2l-134 20v-289q0 -22 -68 -22q-72 0 -72 22v652q0 22 72 22q37 0 52.5 -5.5t15.5 -16.5v-259l136 20l13 1l12 -1l132 -20v259q0 22 72 22q39 0 54 -5.5t15 -16.5z" />
    <glyph glyph-name="I" unicode="I" horiz-adv-x="290" 
d="M216 670v-652q0 -22 -70 -22q-72 0 -72 22v652q0 22 72 22q38 0 54 -5.5t16 -16.5z" />
    <glyph glyph-name="J" unicode="J" horiz-adv-x="378" 
d="M86 688h186q31 0 31 -33v-517q0 -70 -27 -122.5t-83 -81t-136 -28.5q-6 0 -12.5 19t-6.5 45q0 27 5 43t13 16q57 1 81 24.5t24 78.5v449h-75q-6 0 -12 18t-6 41q0 14 5 31t13 17z" />
    <glyph glyph-name="K" unicode="K" horiz-adv-x="631" 
d="M384 357l214 -225q15 -14 15 -34v-74q0 -10 -6.5 -17t-23.5 -7h-50q-33 0 -47 20l-197 254q-22 27 -74 28v-284q0 -22 -68 -22q-72 0 -72 22v653q0 21 71 21q38 0 53.5 -5.5t15.5 -15.5v-251q54 3 76 34l166 214q4 5 11.5 13.5t32.5 8.5h52q29 0 29 -24v-56
q0 -20 -5.5 -33t-19.5 -27l-172 -168q-7 -7 -7 -13t6 -12z" />
    <glyph glyph-name="L" unicode="L" horiz-adv-x="526" 
d="M216 671v-557q0 -6 13 -6h279q6 0 11.5 -16.5t5.5 -38.5q0 -21 -6 -37t-11 -16h-399q-34 0 -34 34v637q0 22 71 22q38 0 54 -5.5t16 -16.5z" />
    <glyph glyph-name="M" unicode="M" horiz-adv-x="821" 
d="M209 474v-456q0 -22 -66 -22q-69 0 -69 22v638q0 23 11 28.5t41 5.5h72q24 0 40.5 -4t24.5 -22l135 -244q6 -7 12 -7q8 0 13 7l139 247q12 23 63 23h70q30 0 41 -5.5t11 -28.5v-638q0 -22 -67 -22q-68 0 -68 22v456q0 5 -10 5q-7 0 -10 -7l-111 -214q-9 -19 -70 -19
q-30 0 -46.5 3.5t-21.5 13.5l-115 218q-2 5 -9 5q-10 0 -10 -5z" />
    <glyph glyph-name="N" unicode="N" horiz-adv-x="761" 
d="M686 671v-637q0 -23 -11 -28.5t-42 -5.5h-62q-20 0 -36 3.5t-27 22.5l-276 432q-6 9 -15 9q-7 0 -7 -10v-439q0 -10 -15 -15.5t-52 -5.5q-68 0 -68 21v638q0 17 7 25.5t43 8.5h73q21 0 36.5 -4.5t27.5 -24.5l266 -431q5 -8 13 -8q10 0 10 9v440q0 22 68 22q37 0 52 -5.5
t15 -16.5z" />
    <glyph glyph-name="O" unicode="O" horiz-adv-x="702" 
d="M352 -9q-154 0 -234.5 89t-80.5 264t80 264t235 89q153 0 232.5 -89t79.5 -264q0 -176 -79.5 -264.5t-232.5 -88.5zM351 588q-59 0 -96 -26t-55 -78t-18 -140q0 -77 15 -128t52.5 -82t102.5 -31q84 0 126.5 56.5t42.5 184.5q0 92 -20.5 144.5t-59 76t-90.5 23.5z" />
    <glyph glyph-name="P" unicode="P" horiz-adv-x="570" 
d="M275 588h-47q-13 0 -13 -7v-262l48 6q49 6 80 20t47 42.5t16 73.5t-15 73t-44 41t-72 13zM109 689h161q277 0 277 -223q0 -48 -16.5 -93t-51.5 -80t-90.5 -55.5t-128.5 -20.5q-12 0 -45 5v-204q0 -22 -69 -22q-71 0 -71 22v637q0 34 34 34z" />
    <glyph glyph-name="Q" unicode="Q" horiz-adv-x="699" 
d="M350 -9q-154 0 -234.5 89t-80.5 264t80 264t235 89q153 0 232.5 -89t79.5 -264q0 -219 -123 -303l94 -70q21 -21 21 -38q0 -6 -10.5 -20t-33 -28.5t-41.5 -14.5q-7 0 -28.5 20.5t-59 62.5t-42.5 47q-40 -9 -89 -9zM349 588q-59 0 -96 -26t-55 -78t-18 -140q0 -77 15 -128
t52.5 -82t102.5 -31q84 0 126.5 56.5t42.5 184.5q0 92 -20.5 144.5t-59 76t-90.5 23.5z" />
    <glyph glyph-name="R" unicode="R" horiz-adv-x="617" 
d="M455 16l-149 252l-91 5v-255q0 -7 -10.5 -14.5t-58.5 -7.5q-71 0 -71 22v637q0 34 34 34h169q145 0 212.5 -46.5t67.5 -149.5q0 -134 -127 -182l141 -179q17 -21 17 -36v-70q0 -26 -29 -26h-52q-21 0 -34 3t-19 13zM288 588h-60q-13 0 -13 -7v-217l66 8q69 8 102.5 32.5
t33.5 80.5q0 55 -31 79t-98 24z" />
    <glyph glyph-name="S" unicode="S" horiz-adv-x="578" 
d="M288 697q50 0 104 -11.5t93 -34.5t39 -38q0 -5 -7 -27t-20.5 -46t-25.5 -24q-1 0 -6 1t-45.5 19.5t-75 27.5t-62.5 9q-39 0 -59 -14t-20 -47q0 -34 27 -53t111 -41q73 -19 116.5 -44.5t67.5 -65t24 -98.5q0 -39 -13.5 -78.5t-46.5 -71t-86 -51.5t-126 -20
q-60 0 -121.5 15t-97.5 38t-36 39q0 7 8.5 29.5t25 48t28.5 25.5q5 0 22.5 -10.5t26.5 -15.5q32 -16 74 -29t78 -13q53 0 83.5 20.5t30.5 58.5q0 34 -31 52t-78 31q-94 25 -143 55t-71.5 71.5t-22.5 101.5q0 90 59.5 140.5t175.5 50.5z" />
    <glyph glyph-name="T" unicode="T" horiz-adv-x="575" 
d="M26 689h523q6 0 12 -13t6 -34q0 -14 -5 -36.5t-13 -22.5h-183q-8 0 -8 -7v-558q0 -22 -69 -22q-72 0 -72 22v557q0 8 -9 8h-182q-8 0 -13 22.5t-5 36.5t5 30.5t13 16.5z" />
    <glyph glyph-name="U" unicode="U" horiz-adv-x="673" 
d="M615 670v-336q0 -179 -66 -261.5t-214 -82.5q-146 0 -211.5 81t-65.5 261v338q0 22 71 22q38 0 54 -5.5t16 -16.5v-313q0 -107 15 -158t46.5 -73t76.5 -22q44 0 75 22.5t46.5 75t15.5 158.5v310q0 22 71 22q39 0 54.5 -5.5t15.5 -16.5z" />
    <glyph glyph-name="V" unicode="V" horiz-adv-x="577" 
d="M301 181l140 484q3 13 12 19t30 6h59q30 0 30 -25v-59q0 -21 -9 -47l-194 -544q-3 -9 -17 -14t-66 -5q-40 0 -56.5 3.5t-20.5 15.5q-13 31 -88.5 245t-100.5 288q-14 40 -14 55v60q0 27 31 27h67q11 0 17.5 -5.5t10.5 -19.5l146 -485q4 -10 11 -10q9 0 12 11z" />
    <glyph glyph-name="W" unicode="W" horiz-adv-x="920" 
d="M666 196l119 469q1 5 6 15t23 10h70q31 0 31 -25v-59q0 -25 -12 -57l-175 -533q-3 -9 -16.5 -14.5t-61.5 -5.5q-38 0 -58.5 4t-23.5 15l-110 403l-116 -402q-5 -20 -82 -20q-49 0 -63.5 5t-17.5 14l-160 532q-13 42 -13 56v60q0 27 31 27h69q24 0 28 -25l117 -469
q1 -10 11 -10q9 0 11 10l122 470q3 9 10 16.5t23 7.5h57q24 0 30 -25l129 -469q1 -2 2.5 -6t7.5 -4q9 0 12 10z" />
    <glyph glyph-name="X" unicode="X" horiz-adv-x="598" 
d="M24 110l180 251l-151 193q-17 22 -17 43v66q0 10 6.5 18.5t22.5 8.5h63q15 0 26.5 -4.5t20.5 -21.5l117 -198q3 -4 7 -5q4 0 8 6l118 197q4 6 13 16t40 10h51q30 0 30 -24v-61q0 -20 -17 -45l-144 -198l169 -230q1 -1 9 -12t8 -24v-70q0 -26 -30 -26h-62q-15 0 -25.5 6
t-19.5 20l-143 234q-4 4 -7 4q-4 0 -6 -4l-137 -234q-16 -26 -43 -26h-70q-9 0 -18.5 6.5t-9.5 20.5v41q0 28 11 42z" />
    <glyph glyph-name="Y" unicode="Y" horiz-adv-x="542" 
d="M340 303v-285q0 -22 -70 -22q-71 0 -71 22v286l-181 267q-12 17 -12 41v51q0 10 6.5 18.5t24.5 8.5h51q15 0 25.5 -4t21.5 -22l127 -220q3 -6 10 -6q5 0 9 6l125 220q8 13 18 19.5t30 6.5h52q30 0 30 -25v-52q0 -24 -13 -44z" />
    <glyph glyph-name="Z" unicode="Z" horiz-adv-x="555" 
d="M509 562l-325 -439q-5 -5 -5 -9t7 -4h330q6 0 11.5 -18t5.5 -41q0 -13 -4.5 -32t-12.5 -19h-460q-20 0 -31.5 5.5t-11.5 36.5q0 41 2.5 61t9.5 29l320 435q3 3 3 8t-4 5h-286q-6 0 -11.5 18.5t-5.5 42.5q0 14 4.5 31t13.5 17h444q12 0 17.5 -7.5t5.5 -39.5
q0 -29 -2.5 -46t-14.5 -34z" />
    <glyph glyph-name="bracketleft" unicode="[" horiz-adv-x="391" 
d="M213 618v-624h82q13 0 13 -45q0 -42 -13 -42h-180q-15 0 -23.5 3.5t-8.5 23.5v745q0 12 4.5 19t27.5 7h180q13 0 13 -42q0 -45 -13 -45h-82z" />
    <glyph glyph-name="backslash" unicode="\" horiz-adv-x="491" 
d="M322 17l-285 633q-9 16 -9 28q0 21 68 21q31 0 46 -4.5t22 -20.5l287 -635q9 -20 9 -27q0 -19 -69 -19q-31 0 -47 4.5t-22 19.5z" />
    <glyph glyph-name="bracketright" unicode="]" horiz-adv-x="391" 
d="M177 -6v624h-81q-13 0 -13 45q0 42 13 42h180q15 0 23.5 -3.5t8.5 -22.5v-745q0 -12 -4.5 -19.5t-27.5 -7.5h-180q-13 0 -13 42q0 45 13 45h81z" />
    <glyph glyph-name="asciicircum" unicode="^" horiz-adv-x="629" 
d="M314 695q12 0 35.5 -7t30.5 -14l171 -193q29 -33 29 -39q0 -10 -22.5 -19t-48.5 -9q-40 0 -62 25q-2 3 -6.5 8t-55.5 65.5t-72 80.5q-14 -15 -38 -41t-56.5 -65.5t-39.5 -47.5q-23 -25 -61 -25q-26 0 -48.5 9t-22.5 19q0 3 10.5 17t26.5 31l163 184q7 8 30.5 14.5
t36.5 6.5z" />
    <glyph glyph-name="underscore" unicode="_" horiz-adv-x="531" 
d="M22 -79h488q8 0 12.5 -15t4.5 -29q0 -13 -4.5 -30t-12.5 -17h-488q-6 0 -12 13.5t-6 33.5q0 5 2 18.5t7 19.5t9 6z" />
    <glyph glyph-name="grave" unicode="`" horiz-adv-x="288" 
d="M62 624q-6 4 -18 12.5t-12 19.5q0 15 21 40.5t35 25.5q13 0 37 -17q59 -44 108 -88q31 -27 31 -34q0 -16 -17 -30.5t-30 -14.5q-8 0 -36 14q-22 12 -68 40.5t-51 31.5z" />
    <glyph glyph-name="a" unicode="a" horiz-adv-x="542" 
d="M251 95q28 0 50.5 12.5t35 37.5t12.5 65q-36 12 -71 12q-51 0 -78 -17.5t-27 -46.5q0 -28 19 -45.5t59 -17.5zM426 -7q-30 0 -34 12l-13 43q-4 10 -9 10t-15 -8q-62 -59 -140 -59q-25 0 -58.5 6t-63.5 27.5t-44 54.5t-14 68q0 49 28 87.5t78.5 60t123.5 21.5q33 0 79 -11
v30q0 36 -22 54.5t-74 18.5q-22 0 -47.5 -5t-53 -15t-31.5 -10q-13 0 -28.5 31t-15.5 45q0 9 3.5 15t13.5 12q32 16 82.5 26t93.5 10q71 0 117 -21t70.5 -61.5t24.5 -102.5v-320q0 -9 -9 -14t-42 -5z" />
    <glyph glyph-name="b" unicode="b" horiz-adv-x="590" 
d="M404 259q0 86 -26 116t-81 30q-26 0 -52.5 -14.5t-38 -43.5t-11.5 -63v-171q8 -9 28.5 -15t42.5 -6q46 0 76.5 21t46 57.5t15.5 88.5zM331 517q111 0 163.5 -60.5t52.5 -192.5q0 -60 -19.5 -111t-55.5 -87.5t-87 -56t-111 -19.5q-116 0 -175 17q-14 4 -21 9t-7 20v635
q0 7 10.5 14t57.5 7q37 0 52 -5.5t15 -15.5v-203q11 11 29.5 23t44.5 19t51 7z" />
    <glyph glyph-name="c" unicode="c" horiz-adv-x="518" 
d="M316 406q-66 0 -99.5 -38.5t-33.5 -107.5q0 -72 36 -111t102 -39q22 0 46 6.5t49 20t28 13.5q10 0 24.5 -36t14.5 -59q0 -12 -29.5 -29t-72 -25.5t-79.5 -8.5q-51 0 -98 17t-83.5 51t-57 85.5t-20.5 115.5q0 65 20 114t55.5 80.5t83.5 46.5t105 15q34 0 77 -8.5t71 -21.5
q20 -11 20 -21q0 -13 -16.5 -51.5t-30.5 -38.5q-4 0 -28 10t-45 15t-39 5z" />
    <glyph glyph-name="d" unicode="d" horiz-adv-x="596" 
d="M257 -9q-37 0 -74.5 12t-68.5 43t-51 83t-20 127q0 261 216 261q29 0 65.5 -10.5t58.5 -34.5v199q0 21 68 21q37 0 52 -5.5t15 -15.5v-659q0 -6 -5.5 -12.5t-45.5 -6.5q-30 0 -34 12l-13 43q-4 10 -9 10q-6 0 -15 -8q-65 -59 -139 -59zM393 233v64q0 54 -30.5 81
t-70.5 27q-57 0 -83 -36.5t-26 -106.5q0 -79 27 -120.5t77 -41.5q46 0 76 34.5t30 98.5z" />
    <glyph glyph-name="e" unicode="e" horiz-adv-x="555" 
d="M184 313h177q18 0 18 30q0 19 -9.5 37.5t-32 29t-47.5 10.5q-48 0 -76 -26.5t-30 -80.5zM315 104q24 0 49.5 6.5t55.5 20.5t38 14q4 0 12 -12t16 -36.5t8 -41.5q0 -12 -32 -29t-76 -25.5t-80 -8.5q-57 0 -105.5 16.5t-83.5 49.5t-54.5 83.5t-19.5 114.5q0 48 13 95.5
t44 84t79.5 59t112.5 22.5q46 0 86 -13t70 -40t47 -70t17 -99q0 -35 -9 -54.5t-45 -19.5h-273q2 -37 20.5 -66t48 -40t61.5 -11z" />
    <glyph glyph-name="f" unicode="f" horiz-adv-x="420" 
d="M49 498l57 13q0 64 24.5 104.5t66 61t96.5 20.5q44 0 92 -12q27 -7 27 -27q0 -11 -6 -33t-15.5 -33t-18.5 -11q-3 0 -23 5t-35 5q-38 0 -54.5 -19t-16.5 -59l96 -12q22 -2 22 -37q0 -45 -18 -47l-103 -14v-386q0 -10 -14.5 -15t-51.5 -5q-68 0 -68 20v386l-61 13
q-6 1 -10.5 12.5t-4.5 27.5q0 40 19 42z" />
    <glyph glyph-name="g" unicode="g" horiz-adv-x="583" 
d="M574 470q0 -25 -4.5 -41t-10.5 -16l-93 13q-9 0 -9 -6t8 -11q37 -30 37 -86q0 -66 -56.5 -107t-161.5 -41q-20 0 -53 5q-45 -20 -45 -45q0 -27 71 -27h105q91 0 142 -40t51 -103q0 -49 -32.5 -82t-93 -50t-153.5 -17q-123 0 -188 30.5t-65 85.5q0 29 21 53t62 35
q-29 8 -45 23.5t-20 30.5t-4 24q0 26 21.5 55.5t74.5 57.5q-37 20 -60 56t-23 80q0 74 65.5 122.5t166.5 48.5q23 0 62.5 -4.5t60.5 -4.5l147 3q9 0 15.5 -7t6.5 -35zM425 -43q0 21 -23.5 32t-65.5 11h-124q-22 -3 -36.5 -18t-14.5 -32q0 -22 33 -33t96 -11q75 0 105 14.5
t30 36.5zM180 347q0 -35 27 -58.5t76 -23.5q45 0 72.5 20.5t27.5 58.5q0 35 -26 57t-72 22t-75.5 -21t-29.5 -55z" />
    <glyph glyph-name="h" unicode="h" horiz-adv-x="606" 
d="M541 293v-278q0 -20 -66 -20q-69 0 -69 20v245q0 72 -20 108.5t-79 36.5q-19 0 -40 -8.5t-35.5 -29t-20 -46t-5.5 -52.5v-254q0 -10 -15 -15t-52 -5q-68 0 -68 20v657q0 10 15 15t53 5q67 0 67 -20v-205q23 23 57 37t68 14q115 0 162.5 -56t47.5 -169z" />
    <glyph glyph-name="i" unicode="i" horiz-adv-x="277" 
d="M206 493v-476q0 -21 -66 -21q-69 0 -69 20v477q0 21 68 21q37 0 52 -5.5t15 -15.5zM60 635q0 35 18 48.5t61 13.5q41 0 59.5 -14t18.5 -48q0 -35 -18 -47t-60 -12q-43 0 -61 12t-18 47z" />
    <glyph glyph-name="j" unicode="j" horiz-adv-x="298" 
d="M85 37v457q0 20 68 20q38 0 53 -5t15 -15v-479q0 -102 -60.5 -152t-182.5 -50q-22 0 -22 84q0 5 2 15t19 15q46 7 68.5 17.5t31 30t8.5 62.5zM74 635q0 35 18 48.5t61 13.5q41 0 59.5 -14t18.5 -48q0 -35 -18 -47t-60 -12q-43 0 -61 12t-18 47z" />
    <glyph glyph-name="k" unicode="k" horiz-adv-x="554" 
d="M489 402l-145 -96q-9 -7 -9 -13q0 -5 9 -14l179 -167q13 -12 13 -30v-55q0 -27 -30 -27h-66q-18 0 -30 15l-153 197q-7 9 -21 16.5t-30 8.5v-220q0 -21 -66 -21q-69 0 -69 20v656q0 20 68 20q67 0 67 -20v-322q33 2 53 22l123 124q14 14 31 14h73q22 0 22 -24v-55
q0 -6 -5 -14.5t-14 -14.5z" />
    <glyph glyph-name="l" unicode="l" horiz-adv-x="277" 
d="M206 672v-655q0 -21 -66 -21q-69 0 -69 20v656q0 20 68 20q67 0 67 -20z" />
    <glyph glyph-name="m" unicode="m" horiz-adv-x="880" 
d="M321 517q57 0 88.5 -20t51.5 -53q11 20 32.5 38t51.5 26.5t58 8.5q72 0 120.5 -29.5t70 -78.5t21.5 -112v-281q0 -20 -66 -20q-69 0 -69 20v253q0 76 -18.5 106.5t-62.5 30.5t-66 -29.5t-22 -102.5v-258q0 -20 -67 -20q-68 0 -68 20v253q0 77 -18.5 107t-65.5 30
q-25 0 -46.5 -15.5t-30.5 -46.5t-9 -67v-261q0 -20 -66 -20q-69 0 -69 20v481q0 6 5.5 12.5t45.5 6.5q31 0 35 -12l13 -42q4 -11 11 -11q3 0 7 3t6 5q24 29 57.5 43.5t69.5 14.5z" />
    <glyph glyph-name="n" unicode="n" horiz-adv-x="606" 
d="M193 459q62 58 142 58q113 0 159.5 -56t46.5 -168v-277q0 -20 -66 -20q-69 0 -69 20v244q0 80 -23.5 113t-73.5 33q-20 0 -44.5 -10t-41.5 -41.5t-17 -85.5v-253q0 -20 -67 -20q-68 0 -68 20v481q0 6 5.5 12.5t45.5 6.5q30 0 35 -12l12 -42q4 -11 9 -11q6 0 15 8z" />
    <glyph glyph-name="o" unicode="o" horiz-adv-x="593" 
d="M297 -8q-53 0 -99 16t-81 49t-54.5 83t-19.5 115t19.5 115.5t54.5 83t81 48.5t99 16t99.5 -16t80.5 -48.5t53.5 -83t19.5 -115.5t-19.5 -115t-54 -83t-80.5 -49t-99 -16zM297 97q115 0 115 160q0 32 -8 69t-34.5 61.5t-72.5 24.5q-115 0 -115 -155q0 -50 13 -86t38.5 -55
t63.5 -19z" />
    <glyph glyph-name="p" unicode="p" horiz-adv-x="590" 
d="M404 256q0 85 -26 117t-81 32q-30 0 -53 -14t-35.5 -40t-12.5 -66v-157q9 -12 32.5 -22.5t43.5 -10.5q62 0 97 40.5t35 120.5zM205 19l1 -182q0 -20 -67 -20q-68 0 -68 20v660q0 6 5.5 12.5t45.5 6.5q30 0 35 -12l13 -42q3 -11 9 -11t14 8q25 26 58.5 42t83.5 16
q110 0 161 -62t51 -198q0 -125 -64 -196t-178 -71q-24 0 -53 8.5t-47 20.5z" />
    <glyph glyph-name="q" unicode="q" horiz-adv-x="591" 
d="M395 231v60q0 56 -29 85.5t-75 29.5q-56 0 -80.5 -38t-24.5 -110q0 -153 106 -153q40 0 71.5 35t31.5 91zM256 518q85 0 142 -58q7 -9 14 -9t10 11l13 42q2 6 13 9t21 3q34 0 42.5 -4.5t8.5 -14.5v-482q0 -28 2 -46.5t8.5 -26.5t22.5 -15q5 -2 13 -7.5t8 -22.5
q0 -84 -22 -84q-85 0 -126 44t-41 122v53q0 9 -6 9q-2 0 -6.5 -3t-5.5 -4q-52 -43 -106 -43q-47 0 -87 16t-69.5 48t-45.5 82t-16 115q0 131 53.5 198.5t159.5 67.5z" />
    <glyph glyph-name="r" unicode="r" horiz-adv-x="386" 
d="M315 518l29 -1q15 0 15 -39q0 -31 -5.5 -55.5t-14.5 -24.5h-35q-26 0 -49 -15t-36 -41t-13 -65v-261q0 -20 -66 -20q-69 0 -69 20v481q0 6 5.5 12.5t45.5 6.5q31 0 35 -12l14 -46q1 -2 2.5 -6t7.5 -4q2 0 6.5 3t7.5 6q25 31 56.5 46t63.5 15z" />
    <glyph glyph-name="s" unicode="s" horiz-adv-x="466" 
d="M217 -8q-37 0 -79.5 8t-71.5 20.5t-40 23t-11 17.5t6.5 27t21.5 41.5t29 21.5q1 0 3.5 -1t29 -16.5t59 -24.5t58.5 -9q35 0 57 14t22 38q0 14 -16 24.5t-53.5 21.5t-53.5 16t-35 13.5t-34 17.5t-30 23.5t-27 38t-12 59.5q0 73 54 112.5t143 39.5q38 0 79.5 -6.5
t70.5 -19.5q33 -13 33 -27q0 -6 -6.5 -25t-19 -39.5t-22.5 -20.5q-3 0 -30.5 11.5t-54.5 17t-51 5.5q-33 0 -48.5 -9.5t-15.5 -29.5q0 -12 14 -22t65.5 -24t84.5 -27.5t56 -34.5t34 -47t11 -59q0 -50 -28 -90.5t-81 -59.5t-111 -19z" />
    <glyph glyph-name="t" unicode="t" horiz-adv-x="467" 
d="M96 197v208l-79 15q-14 2 -14 41q0 37 17 38l77 14v83q0 16 39 27.5t62 11.5q33 0 33 -17v-103l177 -15q11 -2 16.5 -9t5.5 -26q0 -39 -21 -43l-178 -18v-175q0 -60 22.5 -88.5t60.5 -28.5q19 0 38 4.5t38 13.5t22 9q6 0 14.5 -12t16.5 -36.5t8 -39.5q0 -14 -23 -27.5
t-72 -23t-82 -9.5q-91 0 -134.5 54t-43.5 152z" />
    <glyph glyph-name="u" unicode="u" horiz-adv-x="594" 
d="M523 493v-481q0 -6 -5.5 -12.5t-45.5 -6.5q-31 0 -35 12l-13 42q-2 11 -9 11q-5 0 -14 -8q-31 -31 -67.5 -45t-68.5 -14q-113 0 -157 56t-44 169v277q0 20 67 20q68 0 68 -20v-244q0 -82 21.5 -114.5t72.5 -32.5q41 0 68 33.5t27 105.5v252q0 10 15 15t51 5q69 0 69 -20z
" />
    <glyph glyph-name="v" unicode="v" horiz-adv-x="504" 
d="M20 420v62q0 29 30 29h58q16 0 27 -6t14 -15l92 -312q4 -14 11 -14q9 0 13 14l90 312q7 21 41 21h61q27 0 27 -26v-65q0 -21 -14 -54l-144 -350q-4 -10 -28.5 -15.5t-44.5 -5.5t-46 5t-31 16l-143 356q-13 30 -13 48z" />
    <glyph glyph-name="w" unicode="w" horiz-adv-x="766" 
d="M20 421v61q0 29 29 29h58q36 0 41 -23l76 -312q3 -13 11 -13t11 12l73 315q2 11 7.5 16t24.5 5h67q28 0 31 -21l76 -315q3 -12 12 -12q8 0 10 12l73 315q4 21 39 21h59q28 0 28 -25v-55q0 -31 -13 -66l-127 -349q-3 -8 -21.5 -14.5t-48.5 -6.5q-67 0 -75 21l-77 275
l-79 -275q-4 -10 -27 -15.5t-44 -5.5q-32 0 -51.5 6t-22.5 15l-118 325q-22 57 -22 80z" />
    <glyph glyph-name="x" unicode="x" horiz-adv-x="519" 
d="M248 174l-107 -159q-10 -15 -27 -15h-59q-31 0 -31 23v63q0 20 11 30l133 149l-117 132q-10 9 -10 26v60q0 27 31 27h72q18 0 28 -15l85 -134q6 -6 7 -6l7 7l83 133q9 15 27 15h66q29 0 29 -25v-57q0 -16 -10 -26l-115 -130l133 -159q10 -12 10 -28v-63q0 -12 -6.5 -17
t-24.5 -5h-72q-18 0 -27 15l-101 159q-7 7 -8 7q-2 0 -4 -2.5t-3 -4.5z" />
    <glyph glyph-name="y" unicode="y" horiz-adv-x="514" 
d="M495 486v-66q0 -16 -13 -49l-223 -536q-4 -9 -18.5 -14.5t-61.5 -5.5q-67 0 -67 23q0 5 5 17t5 13q1 2 2.5 5.5t25 59t31.5 81.5l-148 357q-13 30 -13 49v62q0 28 30 28h58q33 0 40 -20l99 -312q5 -16 13 -16q7 0 10 17l96 310q7 21 41 21h60q28 0 28 -24z" />
    <glyph glyph-name="z" unicode="z" horiz-adv-x="492" 
d="M202 111h256q14 0 14 -57q0 -26 -4 -40t-10 -14h-407q-16 0 -25.5 6t-9.5 34q0 23 5.5 43t30.5 49l228 264h-222q-13 0 -13 55q0 27 3.5 42.5t9.5 15.5h372q16 0 24 -6t8 -35q0 -26 -6 -45t-32 -50z" />
    <glyph glyph-name="braceleft" unicode="{" horiz-adv-x="410" 
d="M160 313v-14q26 -7 54 -26.5t45.5 -56t17.5 -76.5v-78q0 -45 19 -68.5t47 -23.5h25q12 0 12 -40q0 -39 -13 -39h-79q-149 0 -149 178v74q0 26 -10 54t-33.5 49t-49.5 28q-4 1 -10 6t-6 26q0 6 1.5 16.5t14.5 15.5q26 7 49.5 28t33.5 49t10 54v74q0 178 149 178h79
q13 0 13 -39q0 -40 -12 -40h-25q-28 0 -47 -23.5t-19 -68.5v-78q0 -39 -18.5 -76t-46.5 -57t-52 -26z" />
    <glyph glyph-name="bar" unicode="|" horiz-adv-x="302" 
d="M219 734v-899q0 -7 -10.5 -14t-56.5 -7q-38 0 -53.5 5.5t-15.5 15.5v899q0 10 15.5 15.5t53.5 5.5q37 0 52 -5.5t15 -15.5z" />
    <glyph glyph-name="braceright" unicode="}" horiz-adv-x="410" 
d="M250 299v14q-24 6 -52 26t-46.5 57t-18.5 76v78q0 45 -19 68.5t-48 23.5h-24q-12 0 -12 40q0 39 13 39h79q149 0 149 -178v-74q0 -26 10 -54t33.5 -49t49.5 -28q4 -1 10 -6t6 -26q0 -6 -1.5 -16.5t-14.5 -15.5q-26 -7 -49.5 -28t-33.5 -49t-10 -54v-74q0 -178 -149 -178
h-79q-13 0 -13 39q0 40 12 40h24q29 0 48 23.5t19 68.5v78q0 40 17.5 76.5t45.5 56t54 26.5z" />
    <glyph glyph-name="cent" unicode="&#xa2;" 
d="M390 599v-82q29 -2 61 -10t54 -18q20 -11 20 -21q0 -13 -16.5 -51.5t-30.5 -38.5q-4 0 -33.5 12t-54.5 16v-293q18 2 38 8.5t41 18.5t25 12q10 0 24.5 -36t14.5 -59q0 -15 -41.5 -35.5t-101.5 -25.5v-77q0 -15 -33 -15q-15 0 -24 4t-9 11v76q-47 4 -89 23t-74 53t-50 83
t-18 109q0 75 26 128.5t76.5 86.5t128.5 39v83q0 5 3 10t30 5q33 0 33 -16zM233 262q0 -57 23.5 -94.5t67.5 -49.5v285q-45 -11 -68 -48t-23 -93z" />
    <glyph glyph-name="sterling" unicode="&#xa3;" 
d="M128 378l1 86q1 43 11 85.5t35.5 75t69 52.5t109.5 20q60 0 111 -25t76.5 -62t25.5 -62q0 -7 -9.5 -13.5t-29 -11t-34.5 -4.5q-18 0 -29 4q-2 1 -5 4t-7.5 10.5t-6.5 9.5q-15 20 -34.5 31.5t-52.5 11.5q-45 0 -68.5 -32t-23.5 -108v-72h160q6 0 12 -14.5t6 -36.5
q0 -13 -5 -32t-13 -19h-160v-167h284q9 0 14 -21.5t5 -37.5q0 -13 -5 -31.5t-14 -18.5h-479q-8 0 -13 18t-5 32q0 7 2 24.5t7 25t9 7.5h57v169h-51q-6 0 -12 14.5t-6 36.5q0 14 5 32.5t13 18.5h50z" />
    <glyph glyph-name="section" unicode="&#xa7;" 
d="M350 606q-37 0 -71.5 -16t-50.5 -37.5t-20.5 -41t-4.5 -35.5t5 -44t34 -103t37 -108.5t8 -59.5q0 -44 -19 -79t-41.5 -47.5t-37.5 -12.5q-24 0 -49 10.5t-25 22.5q0 5 13.5 22.5t20.5 37.5t7 46q0 17 -5.5 47t-35 107.5t-37.5 112t-8 61.5q0 36 16 73.5t52.5 68
t92.5 50.5t125 20q53 0 100 -12t79 -28q26 -14 26 -30q0 -18 -15 -44.5t-26 -26.5q-4 0 -33 12t-51 19t-44 11t-42 4zM269 -84q38 0 72.5 16t50.5 37.5t20.5 41t4.5 35.5t-5 44t-34 103t-37 108.5t-8 59.5q0 44 19 79t41.5 48t37.5 13q24 0 49 -11t25 -22q0 -5 -13.5 -23
t-20.5 -38t-7 -46q0 -17 5.5 -47t34.5 -107.5t37 -112t8 -61.5q0 -36 -16 -73.5t-52.5 -68t-92.5 -50.5t-125 -20q-52 0 -99 12t-80 28q-25 14 -25 30q0 18 15 44.5t26 26.5q4 0 33 -12t51 -19t43.5 -11t41.5 -4z" />
    <glyph glyph-name="dieresis" unicode="&#xa8;" horiz-adv-x="450" 
d="M50 647q0 29 12.5 39t47.5 10q34 0 47.5 -10.5t13.5 -38.5q0 -29 -13 -39t-48 -10t-47.5 10t-12.5 39zM276 647q0 29 13 39t49 10q34 0 47 -10.5t13 -38.5q0 -29 -13 -39t-47 -10q-27 0 -44.5 7t-17.5 42z" />
    <glyph glyph-name="copyright" unicode="&#xa9;" horiz-adv-x="848" 
d="M426 673q82 0 150 -22.5t115.5 -67t73 -111t25.5 -149.5q0 -79 -26.5 -142.5t-75.5 -106t-117.5 -64t-148.5 -21.5q-82 0 -150 21.5t-115.5 64t-72.5 105.5t-25 143q0 84 26 150t74.5 110.5t116.5 67t150 22.5zM440 458q-52 0 -78.5 -32.5t-26.5 -89.5q0 -58 26 -91.5
t73 -33.5q19 0 39.5 4.5t41.5 13.5t24 9q12 0 24 -33q8 -17 8 -30q-10 -16 -57 -31t-87 -15t-75.5 13t-62 38.5t-41.5 65t-15 89.5q0 63 23 106t66.5 68t104.5 25q33 0 66 -6t56 -16q12 -6 12 -17q0 -8 -11.5 -32t-20.5 -24q-2 0 -32 9.5t-57 9.5zM425 627
q-70 0 -128.5 -19.5t-99.5 -58t-63 -96t-22 -129.5q0 -139 81 -213.5t229 -74.5q72 0 130.5 18.5t99.5 55.5t63 91t22 123q0 72 -21.5 129.5t-62.5 96t-99 58t-129 19.5z" />
    <glyph glyph-name="guillemotleft" unicode="&#xab;" horiz-adv-x="660" 
d="M448 281q18 -21 68.5 -75t70.5 -79.5t20 -34.5t-18.5 -16.5t-48.5 -7.5q-22 0 -39 2.5t-27 13.5q-56 61 -147 167q-17 21 -17 30q0 10 17 31l147 167q8 8 22.5 12t43.5 4q30 0 48.5 -7.5t18.5 -16.5q0 -14 -70.5 -92t-88.5 -98zM185 281q18 -21 68.5 -75t70.5 -79.5
t20 -34.5t-18.5 -16.5t-48.5 -7.5q-22 0 -39 2.5t-27 13.5q-56 61 -147 167q-17 21 -17 30q0 10 17 31l147 167q8 8 22.5 12t43.5 4q30 0 48.5 -7.5t18.5 -16.5q0 -14 -70.5 -92t-88.5 -98z" />
    <glyph glyph-name="registered" unicode="&#xae;" horiz-adv-x="516" 
d="M259 317q-47 0 -85.5 14.5t-65.5 40t-41 60t-14 73.5q0 40 13.5 75t40 61t65.5 40t87 14q97 0 151.5 -53t54.5 -137q0 -39 -14 -73.5t-40.5 -60t-65.5 -40t-86 -14.5zM298 431l-47 59h-13v-60q0 -6 -25 -6q-22 0 -22 6v164q0 9 10 9h49q90 0 90 -54q0 -11 -6 -22
t-16.5 -17t-20.5 -8l39 -34q8 -7 8 -17v-18q0 -6 -11 -6h-19q-13 0 -16 4zM234 572v-49h23q14 0 24 7t10 17q0 13 -10 19t-24 6h-23zM258 359q27 0 55 7.5t51 26t38 47t15 66.5q0 48 -21.5 81t-56 50t-81.5 17t-81.5 -17t-56 -50t-21.5 -81q0 -62 43.5 -104.5t115.5 -42.5z
" />
    <glyph glyph-name="macron" unicode="&#xaf;" horiz-adv-x="418" 
d="M49 690h320q6 0 12 -9.5t6 -28.5q0 -12 -5 -26.5t-13 -14.5h-320q-8 0 -13 14.5t-5 26.5q0 13 5 25.5t13 12.5z" />
    <glyph glyph-name="degree" unicode="&#xb0;" horiz-adv-x="474" 
d="M403 536q0 -26 -9 -54t-31 -53t-57.5 -42t-82.5 -17q-28 0 -58 7.5t-59.5 29t-44.5 56t-15 70.5q0 72 51.5 117.5t128.5 45.5t127 -44t50 -116zM355 534q0 40 -21 68.5t-51.5 39t-56.5 10.5q-41 0 -73 -18.5t-45.5 -45.5t-13.5 -55q0 -54 37 -87t93 -33q57 0 94 34t37 87
z" />
    <glyph glyph-name="uni00B2" unicode="&#xb2;" horiz-adv-x="373" 
d="M184 687q34 0 67 -9.5t54.5 -35.5t21.5 -59q0 -42 -43 -88t-124 -96h165q4 0 7.5 -10t3.5 -26q0 -9 -3 -20t-8 -11h-253q-14 0 -22.5 4t-8.5 21v14q0 14 18 26q90 61 133.5 106t43.5 79q0 19 -16.5 30t-38.5 11q-13 0 -29 -4t-34.5 -13t-20.5 -9q-7 0 -16 7t-16.5 21
t-7.5 19t14 16q48 27 113 27z" />
    <glyph glyph-name="uni00B3" unicode="&#xb3;" horiz-adv-x="369" 
d="M166 394q25 0 41.5 9.5t22 20.5t5.5 18q0 17 -12 30.5t-37 19.5t-54 6q-10 0 -10 29q0 28 10 28q20 0 41 6t30.5 16t9.5 20q0 29 -44 29q-13 0 -28 -3.5t-30.5 -11.5t-17.5 -8q-14 0 -26.5 16.5t-12.5 24.5q0 12 40 27.5t85 15.5q49 0 87 -22t38 -64q0 -25 -15 -42.5
t-36 -24.5v-4q31 -8 51.5 -30.5t20.5 -55.5q0 -40 -25.5 -68t-63 -38.5t-69.5 -10.5q-46 0 -84.5 16t-38.5 29q0 11 10 32.5t23 21.5q3 0 22 -11t36 -16t31 -5z" />
    <glyph glyph-name="acute" unicode="&#xb4;" horiz-adv-x="303" 
d="M241 624q-93 -58 -100.5 -62.5t-17.5 -9.5q-30 -14 -37 -14q-12 0 -29 14.5t-17 30.5q0 7 31 34q44 41 107 88q20 13 27 15t11 2q6 0 18 -9t24.5 -27.5t12.5 -29.5q0 -3 -3 -10.5t-27 -21.5z" />
    <glyph glyph-name="paragraph" unicode="&#xb6;" horiz-adv-x="814" 
d="M654 604v-592q0 -18 -55 -18q-56 0 -56 18v592h-106v-592q0 -18 -54 -18q-56 0 -56 18v286q-126 0 -192.5 51.5t-66.5 148.5q0 67 25 108t84 62t176 21h399q10 0 10 -43q0 -42 -10 -42h-98z" />
    <glyph glyph-name="periodcentered" unicode="&#xb7;" horiz-adv-x="238" 
d="M39 325q0 35 18.5 48.5t61.5 13.5q41 0 59.5 -14t18.5 -48q0 -35 -18.5 -47.5t-59.5 -12.5q-44 0 -62 12.5t-18 47.5z" />
    <glyph glyph-name="cedilla" unicode="&#xb8;" horiz-adv-x="283" 
d="M101 20l58 8q54 -36 73.5 -61t19.5 -47q0 -49 -41.5 -77t-112.5 -28q-59 0 -66 9t-7 30q0 16 5 30t11 14l37 -3q26 0 45.5 11t19.5 34q0 27 -42 80z" />
    <glyph glyph-name="uni00B9" unicode="&#xb9;" horiz-adv-x="323" 
d="M68 395h60v207l-62 -19q-3 0 -6.5 7t-3.5 22q0 22 17 32q43 24 71 32q39 11 49 11q12 0 19 -5t7 -20v-267h47q5 0 8.5 -11.5t3.5 -20.5t-3.5 -20t-8.5 -11h-198q-5 0 -9 11.5t-4 19.5q0 9 4 20.5t9 11.5z" />
    <glyph glyph-name="ordmasculine" unicode="&#xba;" horiz-adv-x="483" 
d="M241 686q99 0 152.5 -45t53.5 -131q0 -87 -54 -134t-152 -47q-97 0 -150.5 47t-53.5 134q0 86 53 131t151 45zM242 410q20 0 40.5 10t32 34.5t11.5 55.5q0 28 -11.5 51.5t-31.5 33.5t-41 10q-40 0 -61.5 -26.5t-21.5 -68.5q0 -19 5.5 -42t21 -37.5t30.5 -17.5t26 -3z" />
    <glyph glyph-name="guillemotright" unicode="&#xbb;" horiz-adv-x="659" 
d="M469 281q-8 9 -83.5 92t-75.5 98q0 9 19 16.5t49 7.5q49 0 65 -16q20 -21 147 -167q17 -21 17 -31q0 -9 -17 -30l-147 -167q-5 -7 -17 -11.5t-48 -4.5q-30 0 -49 7.5t-19 16.5q0 7 16.5 29.5t72 82.5t70.5 77zM208 281q-8 9 -83.5 92t-75.5 98q0 9 19 16.5t49 7.5
q49 0 65 -16q20 -21 147 -167q17 -21 17 -31q0 -9 -17 -30l-147 -167q-5 -7 -17 -11.5t-48 -4.5q-30 0 -49 7.5t-19 16.5q0 7 16.5 29.5t72 82.5t70.5 77z" />
    <glyph glyph-name="Agrave" unicode="&#xc0;" horiz-adv-x="594" 
d="M580 84v-61q0 -12 -6.5 -17.5t-24.5 -5.5h-58q-17 0 -27 3.5t-15 21.5l-59 186h-192l-58 -187q-4 -13 -10.5 -18.5t-17.5 -5.5h-78q-7 0 -13.5 4.5t-6.5 15.5v66q0 15 14 55l189 533q3 9 16 14t62 5q43 0 60.5 -3t21.5 -15l193 -543q10 -29 10 -48zM369 313l-65 218
q-3 9 -10 9q-6 0 -9 -9l-67 -218h151zM177 835q-6 4 -18 12.5t-12 19.5q0 15 21 40.5t35 25.5q13 0 37 -17q59 -44 108 -88q31 -27 31 -34q0 -16 -17 -30.5t-30 -14.5q-8 0 -36 14q-22 12 -68 40.5t-51 31.5z" />
    <glyph glyph-name="Aacute" unicode="&#xc1;" horiz-adv-x="594" 
d="M580 84v-61q0 -12 -6.5 -17.5t-24.5 -5.5h-58q-17 0 -27 3.5t-15 21.5l-59 186h-192l-58 -187q-4 -13 -10.5 -18.5t-17.5 -5.5h-78q-7 0 -13.5 4.5t-6.5 15.5v66q0 15 14 55l189 533q3 9 16 14t62 5q43 0 60.5 -3t21.5 -15l193 -543q10 -29 10 -48zM369 313l-65 218
q-3 9 -10 9q-6 0 -9 -9l-67 -218h151zM432 834q-93 -58 -100.5 -62.5t-17.5 -9.5q-30 -14 -37 -14q-12 0 -29 14.5t-17 30.5q0 7 31 34q44 41 107 88q20 13 27 15t11 2q6 0 18 -9t24.5 -27.5t12.5 -29.5q0 -3 -3 -10.5t-27 -21.5z" />
    <glyph glyph-name="Acircumflex" unicode="&#xc2;" horiz-adv-x="594" 
d="M580 84v-61q0 -12 -6.5 -17.5t-24.5 -5.5h-58q-17 0 -27 3.5t-15 21.5l-59 186h-192l-58 -187q-4 -13 -10.5 -18.5t-17.5 -5.5h-78q-7 0 -13.5 4.5t-6.5 15.5v66q0 15 14 55l189 533q3 9 16 14t62 5q43 0 60.5 -3t21.5 -15l193 -543q10 -29 10 -48zM369 313l-65 218
q-3 9 -10 9q-6 0 -9 -9l-67 -218h151zM295 905q14 0 33 -4.5t45 -26.5q54 -51 70.5 -68.5t16.5 -22.5q0 -15 -24 -27.5t-39 -12.5q-7 0 -15 3t-29 25l-58 59l-58 -60q-23 -27 -43 -27q-19 0 -41.5 13.5t-22.5 26.5q0 7 35 42t64 60q8 8 25 14t41 6z" />
    <glyph glyph-name="Atilde" unicode="&#xc3;" horiz-adv-x="594" 
d="M580 84v-61q0 -12 -6.5 -17.5t-24.5 -5.5h-58q-17 0 -27 3.5t-15 21.5l-59 186h-192l-58 -187q-4 -13 -10.5 -18.5t-17.5 -5.5h-78q-7 0 -13.5 4.5t-6.5 15.5v66q0 15 14 55l189 533q3 9 16 14t62 5q43 0 60.5 -3t21.5 -15l193 -543q10 -29 10 -48zM369 313l-65 218
q-3 9 -10 9q-6 0 -9 -9l-67 -218h151zM227 870q26 0 73.5 -22t66.5 -22q17 0 32.5 7.5t29 23.5t16.5 16q10 0 26.5 -22.5t16.5 -32.5q0 -16 -21.5 -34.5t-48.5 -27t-48 -8.5q-23 0 -66 21.5t-66 21.5q-13 0 -25 -6t-26.5 -19.5t-19.5 -13.5q-14 0 -35 18q-18 17 -18 34
q0 9 12 24t40.5 28.5t60.5 13.5z" />
    <glyph glyph-name="Adieresis" unicode="&#xc4;" horiz-adv-x="594" 
d="M580 84v-61q0 -12 -6.5 -17.5t-24.5 -5.5h-58q-17 0 -27 3.5t-15 21.5l-59 186h-192l-58 -187q-4 -13 -10.5 -18.5t-17.5 -5.5h-78q-7 0 -13.5 4.5t-6.5 15.5v66q0 15 14 55l189 533q3 9 16 14t62 5q43 0 60.5 -3t21.5 -15l193 -543q10 -29 10 -48zM369 313l-65 218
q-3 9 -10 9q-6 0 -9 -9l-67 -218h151zM119 808q0 29 12.5 39t47.5 10q34 0 47.5 -10.5t13.5 -38.5q0 -29 -13 -39t-48 -10t-47.5 10t-12.5 39zM345 808q0 29 13 39t49 10q34 0 47 -10.5t13 -38.5q0 -29 -13 -39t-47 -10q-27 0 -44.5 7t-17.5 42z" />
    <glyph glyph-name="Aring" unicode="&#xc5;" horiz-adv-x="594" 
d="M172 756q0 52 35.5 80.5t88.5 28.5t89 -28.5t36 -80.5q0 -57 -42 -88l191 -536q10 -29 10 -48v-61q0 -12 -6.5 -17.5t-24.5 -5.5h-58q-17 0 -27 3.5t-15 21.5l-59 186h-192l-58 -187q-4 -13 -10.5 -18.5t-17.5 -5.5h-78q-7 0 -13.5 4.5t-6.5 15.5v66q0 15 14 55l186 526
q-42 31 -42 89zM369 313l-65 218q-3 9 -10 9q-6 0 -9 -9l-67 -218h151zM234 756q0 -29 17.5 -45.5t44.5 -16.5q28 0 46 16.5t18 45.5q0 28 -18 43.5t-46 15.5q-27 0 -44.5 -15.5t-17.5 -43.5z" />
    <glyph glyph-name="AE" unicode="&#xc6;" horiz-adv-x="784" 
d="M352 314l-61 201q-3 9 -9 9q-8 0 -11 -10l-61 -200h142zM786 0h-301q-18 0 -28.5 4.5t-17.5 24.5l-63 182h-189l-58 -186q-5 -25 -28 -25h-75q-19 0 -19 19v67q0 5 1 11.5t3 14t5.5 17.5t4.5 13l183 527q3 10 16 15t63 5h285q6 0 12 -13t6 -35q0 -9 -3 -26t-7 -25.5
t-8 -8.5h-166q-7 0 -7 -7q0 -3 51 -162l157 -12q6 -1 11.5 -13t5.5 -33q0 -14 -4.5 -28t-11.5 -15l-119 -13l58 -180q4 -11 11 -11h230q8 0 14 -21t6 -35q0 -11 -5.5 -31t-12.5 -20z" />
    <glyph glyph-name="Ccedilla" unicode="&#xc7;" horiz-adv-x="625" 
d="M354 697q109 0 190 -48q14 -9 24 -18.5t10 -15.5t-9 -24t-27.5 -37.5t-32.5 -19.5q-1 0 -2.5 0.5t-28.5 17t-60.5 25.5t-65.5 9q-85 0 -127.5 -56t-42.5 -186q0 -91 20.5 -143t59 -75.5t90.5 -23.5q36 0 73 11.5t73.5 32t40 22t6.5 1.5q7 0 17 -13t19.5 -38t9.5 -34
q0 -15 -25 -34t-82.5 -36.5t-108.5 -21.5q60 -47 60 -86q0 -49 -41.5 -77t-112.5 -28q-59 0 -66 9t-7 30q0 16 5 30t11 14l37 -3q26 0 45.5 11t19.5 34q0 22 -32 67q-124 15 -190 104t-66 248q0 174 80 263t236 89z" />
    <glyph glyph-name="Egrave" unicode="&#xc8;" horiz-adv-x="576" 
d="M445 311l-223 -17q-7 0 -7 -9v-169q0 -7 13 -7h310q6 0 11.5 -17.5t5.5 -40.5q0 -13 -4 -29t-7.5 -19t-5.5 -3h-429q-18 0 -26 8.5t-8 25.5v619q0 35 32 35h396q6 0 12 -13t6 -34q0 -14 -5 -37.5t-13 -23.5h-276q-12 0 -12 -7v-146q0 -2 0.5 -5.5t8.5 -4.5l221 -16
q6 -1 11.5 -13.5t5.5 -32.5q0 -14 -4.5 -28.5t-12.5 -15.5zM189 835q-6 4 -18 12.5t-12 19.5q0 15 21 40.5t35 25.5q13 0 37 -17q59 -44 108 -88q31 -27 31 -34q0 -16 -17 -30.5t-30 -14.5q-8 0 -36 14q-22 12 -68 40.5t-51 31.5z" />
    <glyph glyph-name="Eacute" unicode="&#xc9;" horiz-adv-x="576" 
d="M445 311l-223 -17q-7 0 -7 -9v-169q0 -7 13 -7h310q6 0 11.5 -17.5t5.5 -40.5q0 -13 -4 -29t-7.5 -19t-5.5 -3h-429q-18 0 -26 8.5t-8 25.5v619q0 35 32 35h396q6 0 12 -13t6 -34q0 -14 -5 -37.5t-13 -23.5h-276q-12 0 -12 -7v-146q0 -2 0.5 -5.5t8.5 -4.5l221 -16
q6 -1 11.5 -13.5t5.5 -32.5q0 -14 -4.5 -28.5t-12.5 -15.5zM423 834q-93 -58 -100.5 -62.5t-17.5 -9.5q-30 -14 -37 -14q-12 0 -29 14.5t-17 30.5q0 7 31 34q44 41 107 88q20 13 27 15t11 2q6 0 18 -9t24.5 -27.5t12.5 -29.5q0 -3 -3 -10.5t-27 -21.5z" />
    <glyph glyph-name="Ecircumflex" unicode="&#xca;" horiz-adv-x="576" 
d="M445 311l-223 -17q-7 0 -7 -9v-169q0 -7 13 -7h310q6 0 11.5 -17.5t5.5 -40.5q0 -13 -4 -29t-7.5 -19t-5.5 -3h-429q-18 0 -26 8.5t-8 25.5v619q0 35 32 35h396q6 0 12 -13t6 -34q0 -14 -5 -37.5t-13 -23.5h-276q-12 0 -12 -7v-146q0 -2 0.5 -5.5t8.5 -4.5l221 -16
q6 -1 11.5 -13.5t5.5 -32.5q0 -14 -4.5 -28.5t-12.5 -15.5zM295 905q14 0 33 -4.5t45 -26.5q54 -51 70.5 -68.5t16.5 -22.5q0 -15 -24 -27.5t-39 -12.5q-7 0 -15 3t-29 25l-58 59l-58 -60q-23 -27 -43 -27q-19 0 -41.5 13.5t-22.5 26.5q0 7 35 42t64 60q8 8 25 14t41 6z" />
    <glyph glyph-name="Edieresis" unicode="&#xcb;" horiz-adv-x="576" 
d="M445 311l-223 -17q-7 0 -7 -9v-169q0 -7 13 -7h310q6 0 11.5 -17.5t5.5 -40.5q0 -13 -4 -29t-7.5 -19t-5.5 -3h-429q-18 0 -26 8.5t-8 25.5v619q0 35 32 35h396q6 0 12 -13t6 -34q0 -14 -5 -37.5t-13 -23.5h-276q-12 0 -12 -7v-146q0 -2 0.5 -5.5t8.5 -4.5l221 -16
q6 -1 11.5 -13.5t5.5 -32.5q0 -14 -4.5 -28.5t-12.5 -15.5zM125 808q0 29 12.5 39t47.5 10q34 0 47.5 -10.5t13.5 -38.5q0 -29 -13 -39t-48 -10t-47.5 10t-12.5 39zM351 808q0 29 13 39t49 10q34 0 47 -10.5t13 -38.5q0 -29 -13 -39t-47 -10q-27 0 -44.5 7t-17.5 42z" />
    <glyph glyph-name="Igrave" unicode="&#xcc;" horiz-adv-x="290" 
d="M216 670v-652q0 -22 -70 -22q-72 0 -72 22v652q0 22 72 22q38 0 54 -5.5t16 -16.5zM29 838q-6 4 -18 12.5t-12 19.5q0 15 21 40.5t35 25.5q13 0 37 -17q59 -44 108 -88q31 -27 31 -34q0 -16 -17 -30.5t-30 -14.5q-8 0 -36 14q-22 12 -68 40.5t-51 31.5z" />
    <glyph glyph-name="Iacute" unicode="&#xcd;" horiz-adv-x="290" 
d="M216 670v-652q0 -22 -70 -22q-72 0 -72 22v652q0 22 72 22q38 0 54 -5.5t16 -16.5zM281 835q-93 -58 -100.5 -62.5t-17.5 -9.5q-30 -14 -37 -14q-12 0 -29 14.5t-17 30.5q0 7 31 34q44 41 107 88q20 13 27 15t11 2q6 0 18 -9t24.5 -27.5t12.5 -29.5q0 -3 -3 -10.5
t-27 -21.5z" />
    <glyph glyph-name="Icircumflex" unicode="&#xce;" horiz-adv-x="290" 
d="M216 670v-652q0 -22 -70 -22q-72 0 -72 22v652q0 22 72 22q38 0 54 -5.5t16 -16.5zM143 906q14 0 33 -4.5t45 -26.5q54 -51 70.5 -68.5t16.5 -22.5q0 -15 -24 -27.5t-39 -12.5q-7 0 -15 3t-29 25l-58 59l-58 -60q-23 -27 -43 -27q-19 0 -41.5 13.5t-22.5 26.5q0 7 35 42
t64 60q8 8 25 14t41 6z" />
    <glyph glyph-name="Idieresis" unicode="&#xcf;" horiz-adv-x="290" 
d="M216 670v-652q0 -22 -70 -22q-72 0 -72 22v652q0 22 72 22q38 0 54 -5.5t16 -16.5zM-29 807q0 29 12.5 39t47.5 10q34 0 47.5 -10.5t13.5 -38.5q0 -29 -13 -39t-48 -10t-47.5 10t-12.5 39zM197 807q0 29 13 39t49 10q34 0 47 -10.5t13 -38.5q0 -29 -13 -39t-47 -10
q-27 0 -44.5 7t-17.5 42z" />
    <glyph glyph-name="Eth" unicode="&#xd0;" horiz-adv-x="703" 
d="M337 0h-206q-34 0 -34 34v268h-64q-15 0 -15 36q0 34 15 34h64v282q0 35 34 35h209q77 0 138 -21t102.5 -63.5t63 -108t21.5 -150.5q0 -87 -22.5 -153.5t-65.5 -109t-103.5 -63t-136.5 -20.5zM338 588h-87q-14 0 -14 -7v-209h117q14 0 14 -34q0 -36 -14 -36h-117v-189
q0 -6 14 -6h84q96 0 141 54.5t45 188.5q0 80 -16 130t-56 79t-111 29z" />
    <glyph glyph-name="Ntilde" unicode="&#xd1;" horiz-adv-x="761" 
d="M686 671v-637q0 -23 -11 -28.5t-42 -5.5h-62q-20 0 -36 3.5t-27 22.5l-276 432q-6 9 -15 9q-7 0 -7 -10v-439q0 -10 -15 -15.5t-52 -5.5q-68 0 -68 21v638q0 17 7 25.5t43 8.5h73q21 0 36.5 -4.5t27.5 -24.5l266 -431q5 -8 13 -8q10 0 10 9v440q0 22 68 22q37 0 52 -5.5
t15 -16.5zM324 857q26 0 73.5 -22t66.5 -22q17 0 32.5 7.5t29 23.5t16.5 16q10 0 26.5 -22.5t16.5 -32.5q0 -16 -21.5 -34.5t-48.5 -27t-48 -8.5q-23 0 -66 21.5t-66 21.5q-13 0 -25 -6t-26.5 -19.5t-19.5 -13.5q-14 0 -35 18q-18 17 -18 34q0 9 12 24t40.5 28.5t60.5 13.5z
" />
    <glyph glyph-name="Ograve" unicode="&#xd2;" horiz-adv-x="702" 
d="M352 -9q-154 0 -234.5 89t-80.5 264t80 264t235 89q153 0 232.5 -89t79.5 -264q0 -176 -79.5 -264.5t-232.5 -88.5zM351 588q-59 0 -96 -26t-55 -78t-18 -140q0 -77 15 -128t52.5 -82t102.5 -31q84 0 126.5 56.5t42.5 184.5q0 92 -20.5 144.5t-59 76t-90.5 23.5zM251 835
q-6 4 -18 12.5t-12 19.5q0 15 21 40.5t35 25.5q13 0 37 -17q59 -44 108 -88q31 -27 31 -34q0 -16 -17 -30.5t-30 -14.5q-8 0 -36 14q-22 12 -68 40.5t-51 31.5z" />
    <glyph glyph-name="Oacute" unicode="&#xd3;" horiz-adv-x="702" 
d="M352 -9q-154 0 -234.5 89t-80.5 264t80 264t235 89q153 0 232.5 -89t79.5 -264q0 -176 -79.5 -264.5t-232.5 -88.5zM351 588q-59 0 -96 -26t-55 -78t-18 -140q0 -77 15 -128t52.5 -82t102.5 -31q84 0 126.5 56.5t42.5 184.5q0 92 -20.5 144.5t-59 76t-90.5 23.5zM495 835
q-93 -58 -100.5 -62.5t-17.5 -9.5q-30 -14 -37 -14q-12 0 -29 14.5t-17 30.5q0 7 31 34q44 41 107 88q20 13 27 15t11 2q6 0 18 -9t24.5 -27.5t12.5 -29.5q0 -3 -3 -10.5t-27 -21.5z" />
    <glyph glyph-name="Ocircumflex" unicode="&#xd4;" horiz-adv-x="702" 
d="M352 -9q-154 0 -234.5 89t-80.5 264t80 264t235 89q153 0 232.5 -89t79.5 -264q0 -176 -79.5 -264.5t-232.5 -88.5zM351 588q-59 0 -96 -26t-55 -78t-18 -140q0 -77 15 -128t52.5 -82t102.5 -31q84 0 126.5 56.5t42.5 184.5q0 92 -20.5 144.5t-59 76t-90.5 23.5zM350 907
q14 0 33 -4.5t45 -26.5q54 -51 70.5 -68.5t16.5 -22.5q0 -15 -24 -27.5t-39 -12.5q-7 0 -15 3t-29 25l-58 59l-58 -60q-23 -27 -43 -27q-19 0 -41.5 13.5t-22.5 26.5q0 7 35 42t64 60q8 8 25 14t41 6z" />
    <glyph glyph-name="Otilde" unicode="&#xd5;" horiz-adv-x="702" 
d="M352 -9q-154 0 -234.5 89t-80.5 264t80 264t235 89q153 0 232.5 -89t79.5 -264q0 -176 -79.5 -264.5t-232.5 -88.5zM351 588q-59 0 -96 -26t-55 -78t-18 -140q0 -77 15 -128t52.5 -82t102.5 -31q84 0 126.5 56.5t42.5 184.5q0 92 -20.5 144.5t-59 76t-90.5 23.5zM282 871
q26 0 73.5 -22t66.5 -22q17 0 32.5 7.5t29 23.5t16.5 16q10 0 26.5 -22.5t16.5 -32.5q0 -16 -21.5 -34.5t-48.5 -27t-48 -8.5q-23 0 -66 21.5t-66 21.5q-13 0 -25 -6t-26.5 -19.5t-19.5 -13.5q-14 0 -35 18q-18 17 -18 34q0 9 12 24t40.5 28.5t60.5 13.5z" />
    <glyph glyph-name="Odieresis" unicode="&#xd6;" horiz-adv-x="702" 
d="M352 -9q-154 0 -234.5 89t-80.5 264t80 264t235 89q153 0 232.5 -89t79.5 -264q0 -176 -79.5 -264.5t-232.5 -88.5zM351 588q-59 0 -96 -26t-55 -78t-18 -140q0 -77 15 -128t52.5 -82t102.5 -31q84 0 126.5 56.5t42.5 184.5q0 92 -20.5 144.5t-59 76t-90.5 23.5zM178 808
q0 29 12.5 39t47.5 10q34 0 47.5 -10.5t13.5 -38.5q0 -29 -13 -39t-48 -10t-47.5 10t-12.5 39zM404 808q0 29 13 39t49 10q34 0 47 -10.5t13 -38.5q0 -29 -13 -39t-47 -10q-27 0 -44.5 7t-17.5 42z" />
    <glyph glyph-name="Oslash" unicode="&#xd8;" horiz-adv-x="702" 
d="M581 732q0 -12 -19 -46l-21 -39q123 -85 123 -303q0 -176 -79.5 -264.5t-232.5 -88.5q-81 0 -143 24l-16 -31q-4 -7 -9 -13t-31 -6q-31 0 -31 9q0 6 16 36l18 35q-119 85 -119 299q0 175 80 264t235 89q74 0 135 -22l26 50q2 4 8.5 10t28.5 6q31 0 31 -9zM521 344
q0 127 -42 185l-213 -407q35 -19 86 -19q84 0 126.5 56.5t42.5 184.5zM351 588q-59 0 -96 -26t-55 -78t-18 -140q0 -121 37 -178l213 404q-36 18 -81 18z" />
    <glyph glyph-name="Ugrave" unicode="&#xd9;" horiz-adv-x="673" 
d="M615 670v-336q0 -179 -66 -261.5t-214 -82.5q-146 0 -211.5 81t-65.5 261v338q0 22 71 22q38 0 54 -5.5t16 -16.5v-313q0 -107 15 -158t46.5 -73t76.5 -22q44 0 75 22.5t46.5 75t15.5 158.5v310q0 22 71 22q39 0 54.5 -5.5t15.5 -16.5zM232 835q-6 4 -18 12.5t-12 19.5
q0 15 21 40.5t35 25.5q13 0 37 -17q59 -44 108 -88q31 -27 31 -34q0 -16 -17 -30.5t-30 -14.5q-8 0 -36 14q-22 12 -68 40.5t-51 31.5z" />
    <glyph glyph-name="Uacute" unicode="&#xda;" horiz-adv-x="673" 
d="M615 670v-336q0 -179 -66 -261.5t-214 -82.5q-146 0 -211.5 81t-65.5 261v338q0 22 71 22q38 0 54 -5.5t16 -16.5v-313q0 -107 15 -158t46.5 -73t76.5 -22q44 0 75 22.5t46.5 75t15.5 158.5v310q0 22 71 22q39 0 54.5 -5.5t15.5 -16.5zM477 835q-93 -58 -100.5 -62.5
t-17.5 -9.5q-30 -14 -37 -14q-12 0 -29 14.5t-17 30.5q0 7 31 34q44 41 107 88q20 13 27 15t11 2q6 0 18 -9t24.5 -27.5t12.5 -29.5q0 -3 -3 -10.5t-27 -21.5z" />
    <glyph glyph-name="Ucircumflex" unicode="&#xdb;" horiz-adv-x="673" 
d="M615 670v-336q0 -179 -66 -261.5t-214 -82.5q-146 0 -211.5 81t-65.5 261v338q0 22 71 22q38 0 54 -5.5t16 -16.5v-313q0 -107 15 -158t46.5 -73t76.5 -22q44 0 75 22.5t46.5 75t15.5 158.5v310q0 22 71 22q39 0 54.5 -5.5t15.5 -16.5zM337 906q14 0 33 -4.5t45 -26.5
q54 -51 70.5 -68.5t16.5 -22.5q0 -15 -24 -27.5t-39 -12.5q-7 0 -15 3t-29 25l-58 59l-58 -60q-23 -27 -43 -27q-19 0 -41.5 13.5t-22.5 26.5q0 7 35 42t64 60q8 8 25 14t41 6z" />
    <glyph glyph-name="Udieresis" unicode="&#xdc;" horiz-adv-x="673" 
d="M615 670v-336q0 -179 -66 -261.5t-214 -82.5q-146 0 -211.5 81t-65.5 261v338q0 22 71 22q38 0 54 -5.5t16 -16.5v-313q0 -107 15 -158t46.5 -73t76.5 -22q44 0 75 22.5t46.5 75t15.5 158.5v310q0 22 71 22q39 0 54.5 -5.5t15.5 -16.5zM167 808q0 29 12.5 39t47.5 10
q34 0 47.5 -10.5t13.5 -38.5q0 -29 -13 -39t-48 -10t-47.5 10t-12.5 39zM393 808q0 29 13 39t49 10q34 0 47 -10.5t13 -38.5q0 -29 -13 -39t-47 -10q-27 0 -44.5 7t-17.5 42z" />
    <glyph glyph-name="Yacute" unicode="&#xdd;" horiz-adv-x="542" 
d="M340 303v-285q0 -22 -70 -22q-71 0 -71 22v286l-181 267q-12 17 -12 41v51q0 10 6.5 18.5t24.5 8.5h51q15 0 25.5 -4t21.5 -22l127 -220q3 -6 10 -6q5 0 9 6l125 220q8 13 18 19.5t30 6.5h52q30 0 30 -25v-52q0 -24 -13 -44zM422 832q-93 -58 -100.5 -62.5t-17.5 -9.5
q-30 -14 -37 -14q-12 0 -29 14.5t-17 30.5q0 7 31 34q44 41 107 88q20 13 27 15t11 2q6 0 18 -9t24.5 -27.5t12.5 -29.5q0 -3 -3 -10.5t-27 -21.5z" />
    <glyph glyph-name="Thorn" unicode="&#xde;" horiz-adv-x="570" 
d="M268 486h-40q-13 0 -13 -8v-246l48 6q78 10 110.5 41.5t32.5 93.5q0 113 -138 113zM215 671v-84h81q123 0 187 -54.5t64 -159.5q0 -45 -16 -88t-50.5 -78t-90 -56t-130.5 -21q-15 0 -45 5v-117q0 -22 -69 -22q-71 0 -71 22v653q0 21 71 21q38 0 53.5 -5.5t15.5 -15.5z
" />
    <glyph glyph-name="germandbls" unicode="&#xdf;" 
d="M311 596q-48 0 -76.5 -34.5t-28.5 -108.5v-436q0 -10 -14.5 -15t-52.5 -5q-68 0 -68 19v463q0 68 27 115.5t80 75.5t131 28q99 0 159.5 -47.5t60.5 -130.5q0 -28 -12 -57t-33.5 -49.5t-43.5 -31.5v-9q45 -8 76.5 -29.5t48.5 -55t17 -73.5q0 -46 -17.5 -86.5t-53.5 -70.5
t-90.5 -47t-124.5 -17q-4 0 -8.5 6t-4.5 40q0 19 2.5 39t8.5 21q51 3 84 17t49.5 39t16.5 59q0 22 -12 45.5t-46 38.5t-83 16q-4 1 -8.5 16.5t-4.5 41.5q0 46 11 51q23 2 46.5 12.5t39 30t15.5 50.5q0 34 -23.5 56.5t-67.5 22.5z" />
    <glyph glyph-name="agrave" unicode="&#xe0;" horiz-adv-x="542" 
d="M251 95q28 0 50.5 12.5t35 37.5t12.5 65q-36 12 -71 12q-51 0 -78 -17.5t-27 -46.5q0 -28 19 -45.5t59 -17.5zM426 -7q-30 0 -34 12l-13 43q-4 10 -9 10t-15 -8q-62 -59 -140 -59q-25 0 -58.5 6t-63.5 27.5t-44 54.5t-14 68q0 49 28 87.5t78.5 60t123.5 21.5q33 0 79 -11
v30q0 36 -22 54.5t-74 18.5q-22 0 -47.5 -5t-53 -15t-31.5 -10q-13 0 -28.5 31t-15.5 45q0 9 3.5 15t13.5 12q32 16 82.5 26t93.5 10q71 0 117 -21t70.5 -61.5t24.5 -102.5v-320q0 -9 -9 -14t-42 -5zM162 661q-6 4 -18 12.5t-12 19.5q0 15 21 40.5t35 25.5q13 0 37 -17
q59 -44 108 -88q31 -27 31 -34q0 -16 -17 -30.5t-30 -14.5q-8 0 -36 14q-22 12 -68 40.5t-51 31.5z" />
    <glyph glyph-name="aacute" unicode="&#xe1;" horiz-adv-x="542" 
d="M251 95q28 0 50.5 12.5t35 37.5t12.5 65q-36 12 -71 12q-51 0 -78 -17.5t-27 -46.5q0 -28 19 -45.5t59 -17.5zM426 -7q-30 0 -34 12l-13 43q-4 10 -9 10t-15 -8q-62 -59 -140 -59q-25 0 -58.5 6t-63.5 27.5t-44 54.5t-14 68q0 49 28 87.5t78.5 60t123.5 21.5q33 0 79 -11
v30q0 36 -22 54.5t-74 18.5q-22 0 -47.5 -5t-53 -15t-31.5 -10q-13 0 -28.5 31t-15.5 45q0 9 3.5 15t13.5 12q32 16 82.5 26t93.5 10q71 0 117 -21t70.5 -61.5t24.5 -102.5v-320q0 -9 -9 -14t-42 -5zM403 664q-93 -58 -100.5 -62.5t-17.5 -9.5q-30 -14 -37 -14
q-12 0 -29 14.5t-17 30.5q0 7 31 34q44 41 107 88q20 13 27 15t11 2q6 0 18 -9t24.5 -27.5t12.5 -29.5q0 -3 -3 -10.5t-27 -21.5z" />
    <glyph glyph-name="acircumflex" unicode="&#xe2;" horiz-adv-x="542" 
d="M251 95q28 0 50.5 12.5t35 37.5t12.5 65q-36 12 -71 12q-51 0 -78 -17.5t-27 -46.5q0 -28 19 -45.5t59 -17.5zM426 -7q-30 0 -34 12l-13 43q-4 10 -9 10t-15 -8q-62 -59 -140 -59q-25 0 -58.5 6t-63.5 27.5t-44 54.5t-14 68q0 49 28 87.5t78.5 60t123.5 21.5q33 0 79 -11
v30q0 36 -22 54.5t-74 18.5q-22 0 -47.5 -5t-53 -15t-31.5 -10q-13 0 -28.5 31t-15.5 45q0 9 3.5 15t13.5 12q32 16 82.5 26t93.5 10q71 0 117 -21t70.5 -61.5t24.5 -102.5v-320q0 -9 -9 -14t-42 -5zM266 734q14 0 33 -4.5t45 -26.5q54 -51 70.5 -68.5t16.5 -22.5
q0 -15 -24 -27.5t-39 -12.5q-7 0 -15 3t-29 25l-58 59l-58 -60q-23 -27 -43 -27q-19 0 -41.5 13.5t-22.5 26.5q0 7 35 42t64 60q8 8 25 14t41 6z" />
    <glyph glyph-name="atilde" unicode="&#xe3;" horiz-adv-x="542" 
d="M251 95q28 0 50.5 12.5t35 37.5t12.5 65q-36 12 -71 12q-51 0 -78 -17.5t-27 -46.5q0 -28 19 -45.5t59 -17.5zM426 -7q-30 0 -34 12l-13 43q-4 10 -9 10t-15 -8q-62 -59 -140 -59q-25 0 -58.5 6t-63.5 27.5t-44 54.5t-14 68q0 49 28 87.5t78.5 60t123.5 21.5q33 0 79 -11
v30q0 36 -22 54.5t-74 18.5q-22 0 -47.5 -5t-53 -15t-31.5 -10q-13 0 -28.5 31t-15.5 45q0 9 3.5 15t13.5 12q32 16 82.5 26t93.5 10q71 0 117 -21t70.5 -61.5t24.5 -102.5v-320q0 -9 -9 -14t-42 -5zM194 702q26 0 73.5 -22t66.5 -22q17 0 32.5 7.5t29 23.5t16.5 16
q10 0 26.5 -22.5t16.5 -32.5q0 -16 -21.5 -34.5t-48.5 -27t-48 -8.5q-23 0 -66 21.5t-66 21.5q-13 0 -25 -6t-26.5 -19.5t-19.5 -13.5q-14 0 -35 18q-18 17 -18 34q0 9 12 24t40.5 28.5t60.5 13.5z" />
    <glyph glyph-name="adieresis" unicode="&#xe4;" horiz-adv-x="542" 
d="M251 95q28 0 50.5 12.5t35 37.5t12.5 65q-36 12 -71 12q-51 0 -78 -17.5t-27 -46.5q0 -28 19 -45.5t59 -17.5zM426 -7q-30 0 -34 12l-13 43q-4 10 -9 10t-15 -8q-62 -59 -140 -59q-25 0 -58.5 6t-63.5 27.5t-44 54.5t-14 68q0 49 28 87.5t78.5 60t123.5 21.5q33 0 79 -11
v30q0 36 -22 54.5t-74 18.5q-22 0 -47.5 -5t-53 -15t-31.5 -10q-13 0 -28.5 31t-15.5 45q0 9 3.5 15t13.5 12q32 16 82.5 26t93.5 10q71 0 117 -21t70.5 -61.5t24.5 -102.5v-320q0 -9 -9 -14t-42 -5zM92 645q0 29 12.5 39t47.5 10q34 0 47.5 -10.5t13.5 -38.5q0 -29 -13 -39
t-48 -10t-47.5 10t-12.5 39zM318 645q0 29 13 39t49 10q34 0 47 -10.5t13 -38.5q0 -29 -13 -39t-47 -10q-27 0 -44.5 7t-17.5 42z" />
    <glyph glyph-name="aring" unicode="&#xe5;" horiz-adv-x="542" 
d="M137 579q0 52 35.5 80.5t88.5 28.5t89 -28.5t36 -80.5q0 -21 -7.5 -41t-19.5 -34q40 -12 66 -36.5t39 -57.5t13 -78v-320q0 -9 -9 -14t-42 -5q-30 0 -34 12l-13 43q-4 10 -9 10t-15 -8q-62 -59 -140 -59q-25 0 -58.5 6t-63.5 27.5t-44 54.5t-14 68q0 49 28 87.5t78.5 60
t123.5 21.5q33 0 79 -11v30q0 36 -22 54.5t-74 18.5q-22 0 -47.5 -5t-53 -15t-31.5 -10q-13 0 -28.5 31t-15.5 45q0 9 3.5 15t13.5 12q29 14 74 24q-12 13 -19 33t-7 41zM251 95q28 0 50.5 12.5t35 37.5t12.5 65q-36 12 -71 12q-51 0 -78 -17.5t-27 -46.5q0 -28 19 -45.5
t59 -17.5zM199 579q0 -28 16 -44t41 -18h5h4h1q26 2 42.5 18t16.5 44t-18 43.5t-46 15.5q-27 0 -44.5 -15.5t-17.5 -43.5z" />
    <glyph glyph-name="ae" unicode="&#xe6;" horiz-adv-x="817" 
d="M580 95q22 0 47 6t56 19.5t39 13.5q5 0 13.5 -10.5t16.5 -32t8 -37.5q0 -18 -59.5 -39.5t-111.5 -21.5q-68 0 -117.5 23.5t-76.5 72.5q-30 -52 -78.5 -75t-98.5 -23q-60 0 -100.5 21.5t-62 57t-21.5 76.5q0 44 18 76.5t48.5 52.5t67 28.5t69.5 8.5q14 0 42 -3.5t43 -7.5
v31q0 42 -20.5 63t-71.5 21q-21 0 -45 -5t-48.5 -15t-26.5 -10q-7 0 -16 10t-16.5 29.5t-7.5 28.5q0 15 12 22q29 18 78 29.5t78 11.5q57 0 100 -19t63 -56q26 31 74 53t95 22q32 0 67 -10t69 -39t51 -75.5t17 -97.5q0 -32 -8.5 -53t-41.5 -21h-245q3 -69 25.5 -97.5
t75.5 -28.5zM477 304h146q9 0 13.5 8.5t4.5 19.5q0 24 -7.5 47.5t-26 36.5t-40.5 13q-35 0 -61 -30.5t-29 -94.5zM237 95q20 0 42.5 12t37 42.5t14.5 70.5q-30 11 -63 11q-48 0 -73.5 -20t-25.5 -51q0 -29 17 -47t51 -18z" />
    <glyph glyph-name="ccedilla" unicode="&#xe7;" horiz-adv-x="518" 
d="M316 406q-66 0 -99.5 -38.5t-33.5 -107.5q0 -72 36 -111t102 -39q22 0 46 6.5t49 20t28 13.5q10 0 24.5 -36t14.5 -59q0 -9 -17 -21.5t-51.5 -24.5t-82.5 -16q19 -15 32 -34t13 -39q0 -49 -41.5 -77t-112.5 -28q-59 0 -66 9t-7 30q0 16 5 30t11 14l37 -3q26 0 45.5 11
t19.5 34q0 21 -25 58q-42 8 -78.5 28.5t-64 54t-42.5 79.5t-15 101q0 65 20 114t55.5 80.5t83.5 46.5t105 15q34 0 77 -8.5t71 -21.5q20 -11 20 -21q0 -13 -16.5 -51.5t-30.5 -38.5q-4 0 -28 10t-45 15t-39 5z" />
    <glyph glyph-name="egrave" unicode="&#xe8;" horiz-adv-x="555" 
d="M184 313h177q18 0 18 30q0 19 -9.5 37.5t-32 29t-47.5 10.5q-48 0 -76 -26.5t-30 -80.5zM315 104q24 0 49.5 6.5t55.5 20.5t38 14q4 0 12 -12t16 -36.5t8 -41.5q0 -12 -32 -29t-76 -25.5t-80 -8.5q-57 0 -105.5 16.5t-83.5 49.5t-54.5 83.5t-19.5 114.5q0 48 13 95.5
t44 84t79.5 59t112.5 22.5q46 0 86 -13t70 -40t47 -70t17 -99q0 -35 -9 -54.5t-45 -19.5h-273q2 -37 20.5 -66t48 -40t61.5 -11zM180 661q-6 4 -18 12.5t-12 19.5q0 15 21 40.5t35 25.5q13 0 37 -17q59 -44 108 -88q31 -27 31 -34q0 -16 -17 -30.5t-30 -14.5q-8 0 -36 14
q-22 12 -68 40.5t-51 31.5z" />
    <glyph glyph-name="eacute" unicode="&#xe9;" horiz-adv-x="555" 
d="M184 313h177q18 0 18 30q0 19 -9.5 37.5t-32 29t-47.5 10.5q-48 0 -76 -26.5t-30 -80.5zM315 104q24 0 49.5 6.5t55.5 20.5t38 14q4 0 12 -12t16 -36.5t8 -41.5q0 -12 -32 -29t-76 -25.5t-80 -8.5q-57 0 -105.5 16.5t-83.5 49.5t-54.5 83.5t-19.5 114.5q0 48 13 95.5
t44 84t79.5 59t112.5 22.5q46 0 86 -13t70 -40t47 -70t17 -99q0 -35 -9 -54.5t-45 -19.5h-273q2 -37 20.5 -66t48 -40t61.5 -11zM417 664q-93 -58 -100.5 -62.5t-17.5 -9.5q-30 -14 -37 -14q-12 0 -29 14.5t-17 30.5q0 7 31 34q44 41 107 88q20 13 27 15t11 2q6 0 18 -9
t24.5 -27.5t12.5 -29.5q0 -3 -3 -10.5t-27 -21.5z" />
    <glyph glyph-name="ecircumflex" unicode="&#xea;" horiz-adv-x="555" 
d="M184 313h177q18 0 18 30q0 19 -9.5 37.5t-32 29t-47.5 10.5q-48 0 -76 -26.5t-30 -80.5zM315 104q24 0 49.5 6.5t55.5 20.5t38 14q4 0 12 -12t16 -36.5t8 -41.5q0 -12 -32 -29t-76 -25.5t-80 -8.5q-57 0 -105.5 16.5t-83.5 49.5t-54.5 83.5t-19.5 114.5q0 48 13 95.5
t44 84t79.5 59t112.5 22.5q46 0 86 -13t70 -40t47 -70t17 -99q0 -35 -9 -54.5t-45 -19.5h-273q2 -37 20.5 -66t48 -40t61.5 -11zM291 734q14 0 33 -4.5t45 -26.5q54 -51 70.5 -68.5t16.5 -22.5q0 -15 -24 -27.5t-39 -12.5q-7 0 -15 3t-29 25l-58 59l-58 -60q-23 -27 -43 -27
q-19 0 -41.5 13.5t-22.5 26.5q0 7 35 42t64 60q8 8 25 14t41 6z" />
    <glyph glyph-name="edieresis" unicode="&#xeb;" horiz-adv-x="555" 
d="M184 313h177q18 0 18 30q0 19 -9.5 37.5t-32 29t-47.5 10.5q-48 0 -76 -26.5t-30 -80.5zM315 104q24 0 49.5 6.5t55.5 20.5t38 14q4 0 12 -12t16 -36.5t8 -41.5q0 -12 -32 -29t-76 -25.5t-80 -8.5q-57 0 -105.5 16.5t-83.5 49.5t-54.5 83.5t-19.5 114.5q0 48 13 95.5
t44 84t79.5 59t112.5 22.5q46 0 86 -13t70 -40t47 -70t17 -99q0 -35 -9 -54.5t-45 -19.5h-273q2 -37 20.5 -66t48 -40t61.5 -11zM116 630q0 29 12.5 39t47.5 10q34 0 47.5 -10.5t13.5 -38.5q0 -29 -13 -39t-48 -10t-47.5 10t-12.5 39zM342 630q0 29 13 39t49 10
q34 0 47 -10.5t13 -38.5q0 -29 -13 -39t-47 -10q-27 0 -44.5 7t-17.5 42z" />
    <glyph glyph-name="igrave" unicode="&#xec;" horiz-adv-x="277" 
d="M20 661q-6 4 -18 12.5t-12 19.5q0 15 21 40.5t35 25.5q13 0 37 -17q59 -44 108 -88q31 -27 31 -34q0 -16 -17 -30.5t-30 -14.5q-8 0 -36 14q-22 12 -68 40.5t-51 31.5zM199 493v-476q0 -21 -66 -21q-69 0 -69 20v477q0 21 68 21q37 0 52 -5.5t15 -15.5z" />
    <glyph glyph-name="iacute" unicode="&#xed;" horiz-adv-x="277" 
d="M266 664q-93 -58 -100.5 -62.5t-17.5 -9.5q-30 -14 -37 -14q-12 0 -29 14.5t-17 30.5q0 7 31 34q44 41 107 88q20 13 27 15t11 2q6 0 18 -9t24.5 -27.5t12.5 -29.5q0 -3 -3 -10.5t-27 -21.5zM199 493v-476q0 -21 -66 -21q-69 0 -69 20v477q0 21 68 21q37 0 52 -5.5
t15 -15.5z" />
    <glyph glyph-name="icircumflex" unicode="&#xee;" horiz-adv-x="277" 
d="M199 493v-476q0 -21 -66 -21q-69 0 -69 20v477q0 21 68 21q37 0 52 -5.5t15 -15.5zM137 734q14 0 33 -4.5t45 -26.5q54 -51 70.5 -68.5t16.5 -22.5q0 -15 -24 -27.5t-39 -12.5q-7 0 -15 3t-29 25l-58 59l-58 -60q-23 -27 -43 -27q-19 0 -41.5 13.5t-22.5 26.5q0 7 35 42
t64 60q8 8 25 14t41 6z" />
    <glyph glyph-name="idieresis" unicode="&#xef;" horiz-adv-x="277" 
d="M-43 641q0 29 12.5 39t47.5 10q34 0 47.5 -10.5t13.5 -38.5q0 -29 -13 -39t-48 -10t-47.5 10t-12.5 39zM183 641q0 29 13 39t49 10q34 0 47 -10.5t13 -38.5q0 -29 -13 -39t-47 -10q-27 0 -44.5 7t-17.5 42zM199 493v-476q0 -21 -66 -21q-69 0 -69 20v477q0 21 68 21
q37 0 52 -5.5t15 -15.5z" />
    <glyph glyph-name="eth" unicode="&#xf0;" horiz-adv-x="593" 
d="M202 594l75 27l-22 17q-31 24 -37 29.5t-6 9.5q0 8 12.5 16t38 13.5t40.5 5.5q9 0 20.5 -2.5t29.5 -15.5l37 -30l94 34q7 0 12.5 -9t5.5 -26q0 -11 -5 -14l-70 -24q43 -50 72.5 -116.5t40 -130.5t10.5 -114q0 -59 -17 -109t-49.5 -86t-80.5 -56t-107 -20
q-55 0 -102.5 18.5t-81 52t-51.5 81t-18 103.5q0 57 17.5 105.5t49.5 82.5t78 52.5t101 18.5q25 0 53 -14t44 -44q-17 74 -72 137l-103 -37q-6 0 -9.5 9t-3.5 19q0 14 4 17zM182 249q0 -41 14.5 -76t40 -54.5t62.5 -19.5t60.5 20.5t36 56.5t12.5 80q0 35 -11.5 70.5
t-40.5 60t-60 24.5q-57 0 -85.5 -44.5t-28.5 -117.5z" />
    <glyph glyph-name="ntilde" unicode="&#xf1;" horiz-adv-x="606" 
d="M193 459q62 58 142 58q113 0 159.5 -56t46.5 -168v-277q0 -20 -66 -20q-69 0 -69 20v244q0 80 -23.5 113t-73.5 33q-20 0 -44.5 -10t-41.5 -41.5t-17 -85.5v-253q0 -20 -67 -20q-68 0 -68 20v481q0 6 5.5 12.5t45.5 6.5q30 0 35 -12l12 -42q4 -11 9 -11q6 0 15 8z
M238 702q26 0 73.5 -22t66.5 -22q17 0 32.5 7.5t29 23.5t16.5 16q10 0 26.5 -22.5t16.5 -32.5q0 -16 -21.5 -34.5t-48.5 -27t-48 -8.5q-23 0 -66 21.5t-66 21.5q-13 0 -25 -6t-26.5 -19.5t-19.5 -13.5q-14 0 -35 18q-18 17 -18 34q0 9 12 24t40.5 28.5t60.5 13.5z" />
    <glyph glyph-name="ograve" unicode="&#xf2;" horiz-adv-x="593" 
d="M297 -8q-53 0 -99 16t-81 49t-54.5 83t-19.5 115t19.5 115.5t54.5 83t81 48.5t99 16t99.5 -16t80.5 -48.5t53.5 -83t19.5 -115.5t-19.5 -115t-54 -83t-80.5 -49t-99 -16zM297 97q115 0 115 160q0 32 -8 69t-34.5 61.5t-72.5 24.5q-115 0 -115 -155q0 -50 13 -86t38.5 -55
t63.5 -19zM199 663q-6 4 -18 12.5t-12 19.5q0 15 21 40.5t35 25.5q13 0 37 -17q59 -44 108 -88q31 -27 31 -34q0 -16 -17 -30.5t-30 -14.5q-8 0 -36 14q-22 12 -68 40.5t-51 31.5z" />
    <glyph glyph-name="oacute" unicode="&#xf3;" horiz-adv-x="593" 
d="M297 -8q-53 0 -99 16t-81 49t-54.5 83t-19.5 115t19.5 115.5t54.5 83t81 48.5t99 16t99.5 -16t80.5 -48.5t53.5 -83t19.5 -115.5t-19.5 -115t-54 -83t-80.5 -49t-99 -16zM297 97q115 0 115 160q0 32 -8 69t-34.5 61.5t-72.5 24.5q-115 0 -115 -155q0 -50 13 -86t38.5 -55
t63.5 -19zM442 663q-93 -58 -100.5 -62.5t-17.5 -9.5q-30 -14 -37 -14q-12 0 -29 14.5t-17 30.5q0 7 31 34q44 41 107 88q20 13 27 15t11 2q6 0 18 -9t24.5 -27.5t12.5 -29.5q0 -3 -3 -10.5t-27 -21.5z" />
    <glyph glyph-name="ocircumflex" unicode="&#xf4;" horiz-adv-x="593" 
d="M297 -8q-53 0 -99 16t-81 49t-54.5 83t-19.5 115t19.5 115.5t54.5 83t81 48.5t99 16t99.5 -16t80.5 -48.5t53.5 -83t19.5 -115.5t-19.5 -115t-54 -83t-80.5 -49t-99 -16zM297 97q115 0 115 160q0 32 -8 69t-34.5 61.5t-72.5 24.5q-115 0 -115 -155q0 -50 13 -86t38.5 -55
t63.5 -19zM296 735q14 0 33 -4.5t45 -26.5q54 -51 70.5 -68.5t16.5 -22.5q0 -15 -24 -27.5t-39 -12.5q-7 0 -15 3t-29 25l-58 59l-58 -60q-23 -27 -43 -27q-19 0 -41.5 13.5t-22.5 26.5q0 7 35 42t64 60q8 8 25 14t41 6z" />
    <glyph glyph-name="otilde" unicode="&#xf5;" horiz-adv-x="593" 
d="M297 -8q-53 0 -99 16t-81 49t-54.5 83t-19.5 115t19.5 115.5t54.5 83t81 48.5t99 16t99.5 -16t80.5 -48.5t53.5 -83t19.5 -115.5t-19.5 -115t-54 -83t-80.5 -49t-99 -16zM297 97q115 0 115 160q0 32 -8 69t-34.5 61.5t-72.5 24.5q-115 0 -115 -155q0 -50 13 -86t38.5 -55
t63.5 -19zM224 701q26 0 73.5 -22t66.5 -22q17 0 32.5 7.5t29 23.5t16.5 16q10 0 26.5 -22.5t16.5 -32.5q0 -16 -21.5 -34.5t-48.5 -27t-48 -8.5q-23 0 -66 21.5t-66 21.5q-13 0 -25 -6t-26.5 -19.5t-19.5 -13.5q-14 0 -35 18q-18 17 -18 34q0 9 12 24t40.5 28.5t60.5 13.5z
" />
    <glyph glyph-name="odieresis" unicode="&#xf6;" horiz-adv-x="593" 
d="M297 -8q-53 0 -99 16t-81 49t-54.5 83t-19.5 115t19.5 115.5t54.5 83t81 48.5t99 16t99.5 -16t80.5 -48.5t53.5 -83t19.5 -115.5t-19.5 -115t-54 -83t-80.5 -49t-99 -16zM297 97q115 0 115 160q0 32 -8 69t-34.5 61.5t-72.5 24.5q-115 0 -115 -155q0 -50 13 -86t38.5 -55
t63.5 -19zM122 649q0 29 12.5 39t47.5 10q34 0 47.5 -10.5t13.5 -38.5q0 -29 -13 -39t-48 -10t-47.5 10t-12.5 39zM348 649q0 29 13 39t49 10q34 0 47 -10.5t13 -38.5q0 -29 -13 -39t-47 -10q-27 0 -44.5 7t-17.5 42z" />
    <glyph glyph-name="oslash" unicode="&#xf8;" horiz-adv-x="587" 
d="M294 -8q-56 0 -104 17l-18 -33q-7 -16 -39 -16q-24 0 -24 10l7 16l25 48q-47 32 -74 88.5t-27 132.5q0 65 19.5 115.5t54.5 83t81 48.5t99 16q52 0 95 -15l24 45q2 3 6 7t24 4q34 0 34 -11q0 -8 -22 -50l-11 -21q48 -32 75.5 -88.5t27.5 -133.5q0 -65 -19.5 -115t-54 -83
t-80.5 -49t-99 -16zM294 97q115 0 115 160q0 31 -6.5 61t-18.5 49l-141 -260q20 -10 51 -10zM179 257q0 -69 22 -109l136 257q-23 7 -43 7q-115 0 -115 -155z" />
    <glyph glyph-name="ugrave" unicode="&#xf9;" horiz-adv-x="594" 
d="M523 493v-481q0 -6 -5.5 -12.5t-45.5 -6.5q-31 0 -35 12l-13 42q-2 11 -9 11q-5 0 -14 -8q-31 -31 -67.5 -45t-68.5 -14q-113 0 -157 56t-44 169v277q0 20 67 20q68 0 68 -20v-244q0 -82 21.5 -114.5t72.5 -32.5q41 0 68 33.5t27 105.5v252q0 10 15 15t51 5q69 0 69 -20z
M190 663q-6 4 -18 12.5t-12 19.5q0 15 21 40.5t35 25.5q13 0 37 -17q59 -44 108 -88q31 -27 31 -34q0 -16 -17 -30.5t-30 -14.5q-8 0 -36 14q-22 12 -68 40.5t-51 31.5z" />
    <glyph glyph-name="uacute" unicode="&#xfa;" horiz-adv-x="594" 
d="M523 493v-481q0 -6 -5.5 -12.5t-45.5 -6.5q-31 0 -35 12l-13 42q-2 11 -9 11q-5 0 -14 -8q-31 -31 -67.5 -45t-68.5 -14q-113 0 -157 56t-44 169v277q0 20 67 20q68 0 68 -20v-244q0 -82 21.5 -114.5t72.5 -32.5q41 0 68 33.5t27 105.5v252q0 10 15 15t51 5q69 0 69 -20z
M443 663q-93 -58 -100.5 -62.5t-17.5 -9.5q-30 -14 -37 -14q-12 0 -29 14.5t-17 30.5q0 7 31 34q44 41 107 88q20 13 27 15t11 2q6 0 18 -9t24.5 -27.5t12.5 -29.5q0 -3 -3 -10.5t-27 -21.5z" />
    <glyph glyph-name="ucircumflex" unicode="&#xfb;" horiz-adv-x="594" 
d="M523 493v-481q0 -6 -5.5 -12.5t-45.5 -6.5q-31 0 -35 12l-13 42q-2 11 -9 11q-5 0 -14 -8q-31 -31 -67.5 -45t-68.5 -14q-113 0 -157 56t-44 169v277q0 20 67 20q68 0 68 -20v-244q0 -82 21.5 -114.5t72.5 -32.5q41 0 68 33.5t27 105.5v252q0 10 15 15t51 5q69 0 69 -20z
M299 735q14 0 33 -4.5t45 -26.5q54 -51 70.5 -68.5t16.5 -22.5q0 -15 -24 -27.5t-39 -12.5q-7 0 -15 3t-29 25l-58 59l-58 -60q-23 -27 -43 -27q-19 0 -41.5 13.5t-22.5 26.5q0 7 35 42t64 60q8 8 25 14t41 6z" />
    <glyph glyph-name="udieresis" unicode="&#xfc;" horiz-adv-x="594" 
d="M523 493v-481q0 -6 -5.5 -12.5t-45.5 -6.5q-31 0 -35 12l-13 42q-2 11 -9 11q-5 0 -14 -8q-31 -31 -67.5 -45t-68.5 -14q-113 0 -157 56t-44 169v277q0 20 67 20q68 0 68 -20v-244q0 -82 21.5 -114.5t72.5 -32.5q41 0 68 33.5t27 105.5v252q0 10 15 15t51 5q69 0 69 -20z
M119 642q0 29 12.5 39t47.5 10q34 0 47.5 -10.5t13.5 -38.5q0 -29 -13 -39t-48 -10t-47.5 10t-12.5 39zM345 642q0 29 13 39t49 10q34 0 47 -10.5t13 -38.5q0 -29 -13 -39t-47 -10q-27 0 -44.5 7t-17.5 42z" />
    <glyph glyph-name="yacute" unicode="&#xfd;" horiz-adv-x="514" 
d="M495 486v-66q0 -16 -13 -49l-223 -536q-4 -9 -18.5 -14.5t-61.5 -5.5q-67 0 -67 23q0 5 5 17t5 13q1 2 2.5 5.5t25 59t31.5 81.5l-148 357q-13 30 -13 49v62q0 28 30 28h58q33 0 40 -20l99 -312q5 -16 13 -16q7 0 10 17l96 310q7 21 41 21h60q28 0 28 -24zM403 663
q-93 -58 -100.5 -62.5t-17.5 -9.5q-30 -14 -37 -14q-12 0 -29 14.5t-17 30.5q0 7 31 34q44 41 107 88q20 13 27 15t11 2q6 0 18 -9t24.5 -27.5t12.5 -29.5q0 -3 -3 -10.5t-27 -21.5z" />
    <glyph glyph-name="thorn" unicode="&#xfe;" horiz-adv-x="590" 
d="M404 257q0 85 -26 116.5t-81 31.5q-40 0 -70.5 -30.5t-30.5 -89.5v-157q9 -12 32.5 -23t43.5 -11q62 0 97 39.5t35 123.5zM337 517q210 0 210 -259q0 -125 -64 -196t-178 -71q-24 0 -54.5 8.5t-44.5 19.5v-182q0 -20 -67 -20q-68 0 -68 20v837q0 10 15 15t53 5
q37 0 52 -5t15 -15v-214q43 57 131 57z" />
    <glyph glyph-name="ydieresis" unicode="&#xff;" horiz-adv-x="514" 
d="M495 486v-66q0 -16 -13 -49l-223 -536q-4 -9 -18.5 -14.5t-61.5 -5.5q-67 0 -67 23q0 5 5 17t5 13q1 2 2.5 5.5t25 59t31.5 81.5l-148 357q-13 30 -13 49v62q0 28 30 28h58q33 0 40 -20l99 -312q5 -16 13 -16q7 0 10 17l96 310q7 21 41 21h60q28 0 28 -24zM85 641
q0 29 12.5 39t47.5 10q34 0 47.5 -10.5t13.5 -38.5q0 -29 -13 -39t-48 -10t-47.5 10t-12.5 39zM311 641q0 29 13 39t49 10q34 0 47 -10.5t13 -38.5q0 -29 -13 -39t-47 -10q-27 0 -44.5 7t-17.5 42z" />
    <glyph glyph-name="Amacron" unicode="&#x100;" horiz-adv-x="594" 
d="M580 84v-61q0 -12 -6.5 -17.5t-24.5 -5.5h-58q-17 0 -27 3.5t-15 21.5l-59 186h-192l-58 -187q-4 -13 -10.5 -18.5t-17.5 -5.5h-78q-7 0 -13.5 4.5t-6.5 15.5v66q0 15 14 55l189 533q3 9 16 14t62 5q43 0 60.5 -3t21.5 -15l193 -543q10 -29 10 -48zM369 313l-65 218
q-3 9 -10 9q-6 0 -9 -9l-67 -218h151zM136 851h320q6 0 12 -9.5t6 -28.5q0 -12 -5 -26.5t-13 -14.5h-320q-8 0 -13 14.5t-5 26.5q0 13 5 25.5t13 12.5z" />
    <glyph glyph-name="amacron" unicode="&#x101;" horiz-adv-x="542" 
d="M251 95q28 0 50.5 12.5t35 37.5t12.5 65q-36 12 -71 12q-51 0 -78 -17.5t-27 -46.5q0 -28 19 -45.5t59 -17.5zM426 -7q-30 0 -34 12l-13 43q-4 10 -9 10t-15 -8q-62 -59 -140 -59q-25 0 -58.5 6t-63.5 27.5t-44 54.5t-14 68q0 49 28 87.5t78.5 60t123.5 21.5q33 0 79 -11
v30q0 36 -22 54.5t-74 18.5q-22 0 -47.5 -5t-53 -15t-31.5 -10q-13 0 -28.5 31t-15.5 45q0 9 3.5 15t13.5 12q32 16 82.5 26t93.5 10q71 0 117 -21t70.5 -61.5t24.5 -102.5v-320q0 -9 -9 -14t-42 -5zM112 675h320q6 0 12 -9.5t6 -28.5q0 -12 -5 -26.5t-13 -14.5h-320
q-8 0 -13 14.5t-5 26.5q0 13 5 25.5t13 12.5z" />
    <glyph glyph-name="Aogonek" unicode="&#x104;" horiz-adv-x="594" 
d="M580 84v-61q0 -12 -6.5 -17.5t-24.5 -5.5h-34q-18 -37 -18 -66q0 -39 60 -39q13 0 31.5 4.5t20.5 4.5q9 0 9 -26q0 -30 -5 -41q-3 -6 -30.5 -14.5t-59.5 -8.5q-71 0 -107.5 22.5t-36.5 73.5q0 28 20 57.5t51 52.5l-1 5l-59 186h-192l-58 -187q-4 -13 -10.5 -18.5
t-17.5 -5.5h-78q-7 0 -13.5 4.5t-6.5 15.5v66q0 15 14 55l189 533q3 9 16 14t62 5q43 0 60.5 -3t21.5 -15l193 -543q10 -29 10 -48zM369 313l-65 218q-3 9 -10 9q-6 0 -9 -9l-67 -218h151z" />
    <glyph glyph-name="aogonek" unicode="&#x105;" horiz-adv-x="542" 
d="M477 332v-320q0 -8 -6.5 -13t-29.5 -6q-15 -32 -15 -59q0 -39 60 -39q13 0 31.5 4.5t20.5 4.5q9 0 9 -26q0 -30 -5 -41q-3 -6 -30.5 -14.5t-59.5 -8.5q-71 0 -107.5 22.5t-36.5 73.5q0 29 22.5 60.5t55.5 54.5l-7 23q-4 10 -9 10t-15 -8q-62 -59 -140 -59q-25 0 -58.5 6
t-63.5 27.5t-44 54.5t-14 68q0 49 28 87.5t78.5 60t123.5 21.5q33 0 79 -11v30q0 36 -22 54.5t-74 18.5q-22 0 -47.5 -5t-53 -15t-31.5 -10q-13 0 -28.5 31t-15.5 45q0 9 3.5 15t13.5 12q32 16 82.5 26t93.5 10q71 0 117 -21t70.5 -61.5t24.5 -102.5zM251 95q28 0 50.5 12.5
t35 37.5t12.5 65q-36 12 -71 12q-51 0 -78 -17.5t-27 -46.5q0 -28 19 -45.5t59 -17.5z" />
    <glyph glyph-name="Cacute" unicode="&#x106;" horiz-adv-x="625" 
d="M354 697q109 0 190 -48q14 -9 24 -18.5t10 -15.5t-9 -24t-27.5 -37.5t-32.5 -19.5q-1 0 -2.5 0.5t-28.5 17t-60.5 25.5t-65.5 9q-85 0 -127.5 -56t-42.5 -186q0 -91 20.5 -143t59 -75.5t90.5 -23.5q36 0 73 11.5t73.5 32t40 22t6.5 1.5q7 0 17 -13t19.5 -38t9.5 -34
q0 -16 -30 -37t-96.5 -39t-116.5 -18q-150 0 -230 90t-80 265q0 174 80 263t236 89zM483 839q-93 -58 -100.5 -62.5t-17.5 -9.5q-30 -14 -37 -14q-12 0 -29 14.5t-17 30.5q0 7 31 34q44 41 107 88q20 13 27 15t11 2q6 0 18 -9t24.5 -27.5t12.5 -29.5q0 -3 -3 -10.5
t-27 -21.5z" />
    <glyph glyph-name="cacute" unicode="&#x107;" horiz-adv-x="518" 
d="M316 406q-66 0 -99.5 -38.5t-33.5 -107.5q0 -72 36 -111t102 -39q22 0 46 6.5t49 20t28 13.5q10 0 24.5 -36t14.5 -59q0 -12 -29.5 -29t-72 -25.5t-79.5 -8.5q-51 0 -98 17t-83.5 51t-57 85.5t-20.5 115.5q0 65 20 114t55.5 80.5t83.5 46.5t105 15q34 0 77 -8.5t71 -21.5
q20 -11 20 -21q0 -13 -16.5 -51.5t-30.5 -38.5q-4 0 -28 10t-45 15t-39 5zM425 664q-93 -58 -100.5 -62.5t-17.5 -9.5q-30 -14 -37 -14q-12 0 -29 14.5t-17 30.5q0 7 31 34q44 41 107 88q20 13 27 15t11 2q6 0 18 -9t24.5 -27.5t12.5 -29.5q0 -3 -3 -10.5t-27 -21.5z" />
    <glyph glyph-name="Ccaron" unicode="&#x10c;" horiz-adv-x="625" 
d="M354 697q109 0 190 -48q14 -9 24 -18.5t10 -15.5t-9 -24t-27.5 -37.5t-32.5 -19.5q-1 0 -2.5 0.5t-28.5 17t-60.5 25.5t-65.5 9q-85 0 -127.5 -56t-42.5 -186q0 -91 20.5 -143t59 -75.5t90.5 -23.5q36 0 73 11.5t73.5 32t40 22t6.5 1.5q7 0 17 -13t19.5 -38t9.5 -34
q0 -16 -30 -37t-96.5 -39t-116.5 -18q-150 0 -230 90t-80 265q0 174 80 263t236 89zM339 750q-44 0 -66 19q-30 27 -64.5 61.5t-34.5 41.5q0 12 25 26t39 14q6 0 14 -3.5t28 -23.5l59 -61l58 61q15 15 23 21t21 6q15 0 39 -12.5t24 -27.5q0 -4 -8.5 -14t-22.5 -24t-33.5 -32
t-22.5 -21q-19 -18 -37.5 -24.5t-40.5 -6.5z" />
    <glyph glyph-name="ccaron" unicode="&#x10d;" horiz-adv-x="518" 
d="M316 406q-66 0 -99.5 -38.5t-33.5 -107.5q0 -72 36 -111t102 -39q22 0 46 6.5t49 20t28 13.5q10 0 24.5 -36t14.5 -59q0 -12 -29.5 -29t-72 -25.5t-79.5 -8.5q-51 0 -98 17t-83.5 51t-57 85.5t-20.5 115.5q0 65 20 114t55.5 80.5t83.5 46.5t105 15q34 0 77 -8.5t71 -21.5
q20 -11 20 -21q0 -13 -16.5 -51.5t-30.5 -38.5q-4 0 -28 10t-45 15t-39 5zM285 574q-44 0 -66 19q-30 27 -64.5 61.5t-34.5 41.5q0 12 25 26t39 14q6 0 14 -3.5t28 -23.5l59 -61l58 61q15 15 23 21t21 6q15 0 39 -12.5t24 -27.5q0 -4 -8.5 -14t-22.5 -24t-33.5 -32
t-22.5 -21q-19 -18 -37.5 -24.5t-40.5 -6.5z" />
    <glyph glyph-name="Dcaron" unicode="&#x10e;" horiz-adv-x="689" 
d="M324 588h-87q-14 0 -14 -7v-468q0 -6 14 -6h84q96 0 141 54.5t45 188.5q0 80 -16 130t-56 79t-111 29zM323 0h-206q-34 0 -34 34v620q0 35 34 35h209q77 0 138 -21t102.5 -63.5t63 -108t21.5 -150.5q0 -87 -22.5 -153.5t-65.5 -109t-103.5 -63t-136.5 -20.5zM281 748
q-44 0 -66 19q-30 27 -64.5 61.5t-34.5 41.5q0 12 25 26t39 14q6 0 14 -3.5t28 -23.5l59 -61l58 61q15 15 23 21t21 6q15 0 39 -12.5t24 -27.5q0 -4 -8.5 -14t-22.5 -24t-33.5 -32t-22.5 -21q-19 -18 -37.5 -24.5t-40.5 -6.5z" />
    <glyph glyph-name="dcaron" unicode="&#x10f;" horiz-adv-x="760" 
d="M257 -9q-37 0 -74.5 12t-68.5 43t-51 83t-20 127q0 261 216 261q29 0 65.5 -10.5t58.5 -34.5v199q0 21 68 21q37 0 52 -5.5t15 -15.5v-659q0 -6 -5.5 -12.5t-45.5 -6.5q-30 0 -34 12l-13 43q-4 10 -9 10q-6 0 -15 -8q-65 -59 -139 -59zM393 233v64q0 54 -30.5 81
t-70.5 27q-57 0 -83 -36.5t-26 -106.5q0 -79 27 -120.5t77 -41.5q46 0 76 34.5t30 98.5zM589 444q0 15 9 73.5t22 127.5q10 47 38 47q5 0 21.5 -2t32.5 -8q23 -7 35.5 -15.5t12.5 -24.5q0 -18 -11 -40q0 -1 -1 -3.5t-22 -59.5t-34.5 -88t-17.5 -33q-6 -3 -11 -3q-11 0 -32 5
t-31.5 11.5t-10.5 12.5z" />
    <glyph glyph-name="Dcroat" unicode="&#x110;" horiz-adv-x="703" 
d="M337 0h-206q-34 0 -34 34v268h-64q-15 0 -15 36q0 34 15 34h64v282q0 35 34 35h209q77 0 138 -21t102.5 -63.5t63 -108t21.5 -150.5q0 -87 -22.5 -153.5t-65.5 -109t-103.5 -63t-136.5 -20.5zM338 588h-87q-14 0 -14 -7v-209h117q14 0 14 -34q0 -36 -14 -36h-117v-189
q0 -6 14 -6h84q96 0 141 54.5t45 188.5q0 80 -16 130t-56 79t-111 29z" />
    <glyph glyph-name="dcroat" unicode="&#x111;" horiz-adv-x="596" 
d="M257 -9q-37 0 -74.5 12t-68.5 43t-51 83t-20 127q0 261 216 261q29 0 65.5 -10.5t58.5 -34.5v82h-76q-5 0 -9 9.5t-4 20.5q0 12 4 19.5t9 7.5h76v60q0 21 68 21q37 0 52 -5.5t15 -15.5v-60h57q5 0 8.5 -7.5t3.5 -19.5q0 -11 -4 -20.5t-8 -9.5h-57v-542q0 -6 -5.5 -12.5
t-45.5 -6.5q-30 0 -34 12l-13 43q-4 10 -9 10q-6 0 -15 -8q-65 -59 -139 -59zM393 233v64q0 54 -30.5 81t-70.5 27q-57 0 -83 -36.5t-26 -106.5q0 -79 27 -120.5t77 -41.5q46 0 76 34.5t30 98.5z" />
    <glyph glyph-name="Emacron" unicode="&#x112;" horiz-adv-x="576" 
d="M445 311l-223 -17q-7 0 -7 -9v-169q0 -7 13 -7h310q6 0 11.5 -17.5t5.5 -40.5q0 -13 -4 -29t-7.5 -19t-5.5 -3h-429q-18 0 -26 8.5t-8 25.5v619q0 35 32 35h396q6 0 12 -13t6 -34q0 -14 -5 -37.5t-13 -23.5h-276q-12 0 -12 -7v-146q0 -2 0.5 -5.5t8.5 -4.5l221 -16
q6 -1 11.5 -13.5t5.5 -32.5q0 -14 -4.5 -28.5t-12.5 -15.5zM134 851h320q6 0 12 -9.5t6 -28.5q0 -12 -5 -26.5t-13 -14.5h-320q-8 0 -13 14.5t-5 26.5q0 13 5 25.5t13 12.5z" />
    <glyph glyph-name="emacron" unicode="&#x113;" horiz-adv-x="555" 
d="M184 313h177q18 0 18 30q0 19 -9.5 37.5t-32 29t-47.5 10.5q-48 0 -76 -26.5t-30 -80.5zM315 104q24 0 49.5 6.5t55.5 20.5t38 14q4 0 12 -12t16 -36.5t8 -41.5q0 -12 -32 -29t-76 -25.5t-80 -8.5q-57 0 -105.5 16.5t-83.5 49.5t-54.5 83.5t-19.5 114.5q0 48 13 95.5
t44 84t79.5 59t112.5 22.5q46 0 86 -13t70 -40t47 -70t17 -99q0 -35 -9 -54.5t-45 -19.5h-273q2 -37 20.5 -66t48 -40t61.5 -11zM133 676h320q6 0 12 -9.5t6 -28.5q0 -12 -5 -26.5t-13 -14.5h-320q-8 0 -13 14.5t-5 26.5q0 13 5 25.5t13 12.5z" />
    <glyph glyph-name="Edotaccent" unicode="&#x116;" horiz-adv-x="576" 
d="M445 311l-223 -17q-7 0 -7 -9v-169q0 -7 13 -7h310q6 0 11.5 -17.5t5.5 -40.5q0 -13 -4 -29t-7.5 -19t-5.5 -3h-429q-18 0 -26 8.5t-8 25.5v619q0 35 32 35h396q6 0 12 -13t6 -34q0 -14 -5 -37.5t-13 -23.5h-276q-12 0 -12 -7v-146q0 -2 0.5 -5.5t8.5 -4.5l221 -16
q6 -1 11.5 -13.5t5.5 -32.5q0 -14 -4.5 -28.5t-12.5 -15.5zM223 842q0 35 18 48.5t61 13.5q41 0 59.5 -14t18.5 -48q0 -35 -18 -47t-60 -12q-43 0 -61 12t-18 47z" />
    <glyph glyph-name="edotaccent" unicode="&#x117;" horiz-adv-x="555" 
d="M184 313h177q18 0 18 30q0 19 -9.5 37.5t-32 29t-47.5 10.5q-48 0 -76 -26.5t-30 -80.5zM315 104q24 0 49.5 6.5t55.5 20.5t38 14q4 0 12 -12t16 -36.5t8 -41.5q0 -12 -32 -29t-76 -25.5t-80 -8.5q-57 0 -105.5 16.5t-83.5 49.5t-54.5 83.5t-19.5 114.5q0 48 13 95.5
t44 84t79.5 59t112.5 22.5q46 0 86 -13t70 -40t47 -70t17 -99q0 -35 -9 -54.5t-45 -19.5h-273q2 -37 20.5 -66t48 -40t61.5 -11zM202 655q0 35 18 48.5t61 13.5q41 0 59.5 -14t18.5 -48q0 -35 -18 -47t-60 -12q-43 0 -61 12t-18 47z" />
    <glyph glyph-name="Eogonek" unicode="&#x118;" horiz-adv-x="556" 
d="M442 311l-223 -17q-7 0 -7 -9v-169q0 -7 13 -7h310q6 0 11.5 -17.5t5.5 -40.5q0 -13 -4 -29t-7.5 -19t-5.5 -3h-61q-18 -37 -18 -66q0 -39 60 -39q13 0 31.5 4.5t20.5 4.5q9 0 9 -26q0 -30 -5 -41q-3 -6 -30.5 -14.5t-59.5 -8.5q-71 0 -107.5 22.5t-36.5 73.5q0 23 14 47
t33 43h-279q-18 0 -26 8.5t-8 25.5v619q0 35 32 35h396q6 0 12 -13t6 -34q0 -14 -5 -37.5t-13 -23.5h-276q-12 0 -12 -7v-146q0 -2 0.5 -5.5t8.5 -4.5l221 -16q6 -1 11.5 -13.5t5.5 -32.5q0 -14 -4.5 -28.5t-12.5 -15.5z" />
    <glyph glyph-name="eogonek" unicode="&#x119;" horiz-adv-x="555" 
d="M315 104q24 0 49.5 6.5t55.5 20.5t38 14q4 0 12 -12t16 -36.5t8 -41.5q0 -8 -14 -18.5t-37 -19.5q-27 -38 -27 -83q0 -39 60 -39q13 0 31.5 4.5t20.5 4.5q9 0 9 -26q0 -30 -5 -41q-3 -6 -30.5 -14.5t-59.5 -8.5q-71 0 -107.5 22.5t-36.5 73.5q0 42 47 83l-39 -1
q-57 0 -105.5 16.5t-83.5 49.5t-54.5 83.5t-19.5 114.5q0 48 13 95.5t44 84t79.5 59t112.5 22.5q46 0 86 -13t70 -40t47 -70t17 -99q0 -35 -9 -54.5t-45 -19.5h-273q2 -37 20.5 -66t48 -40t61.5 -11zM184 313h177q18 0 18 30q0 19 -9.5 37.5t-32 29t-47.5 10.5
q-48 0 -76 -26.5t-30 -80.5z" />
    <glyph glyph-name="Ecaron" unicode="&#x11a;" horiz-adv-x="576" 
d="M445 311l-223 -17q-7 0 -7 -9v-169q0 -7 13 -7h310q6 0 11.5 -17.5t5.5 -40.5q0 -13 -4 -29t-7.5 -19t-5.5 -3h-429q-18 0 -26 8.5t-8 25.5v619q0 35 32 35h396q6 0 12 -13t6 -34q0 -14 -5 -37.5t-13 -23.5h-276q-12 0 -12 -7v-146q0 -2 0.5 -5.5t8.5 -4.5l221 -16
q6 -1 11.5 -13.5t5.5 -32.5q0 -14 -4.5 -28.5t-12.5 -15.5zM294 749q-44 0 -66 19q-30 27 -64.5 61.5t-34.5 41.5q0 12 25 26t39 14q6 0 14 -3.5t28 -23.5l59 -61l58 61q15 15 23 21t21 6q15 0 39 -12.5t24 -27.5q0 -4 -8.5 -14t-22.5 -24t-33.5 -32t-22.5 -21
q-19 -18 -37.5 -24.5t-40.5 -6.5z" />
    <glyph glyph-name="ecaron" unicode="&#x11b;" horiz-adv-x="555" 
d="M184 313h177q18 0 18 30q0 19 -9.5 37.5t-32 29t-47.5 10.5q-48 0 -76 -26.5t-30 -80.5zM315 104q24 0 49.5 6.5t55.5 20.5t38 14q4 0 12 -12t16 -36.5t8 -41.5q0 -12 -32 -29t-76 -25.5t-80 -8.5q-57 0 -105.5 16.5t-83.5 49.5t-54.5 83.5t-19.5 114.5q0 48 13 95.5
t44 84t79.5 59t112.5 22.5q46 0 86 -13t70 -40t47 -70t17 -99q0 -35 -9 -54.5t-45 -19.5h-273q2 -37 20.5 -66t48 -40t61.5 -11zM294 574q-44 0 -66 19q-30 27 -64.5 61.5t-34.5 41.5q0 12 25 26t39 14q6 0 14 -3.5t28 -23.5l59 -61l58 61q15 15 23 21t21 6q15 0 39 -12.5
t24 -27.5q0 -4 -8.5 -14t-22.5 -24t-33.5 -32t-22.5 -21q-19 -18 -37.5 -24.5t-40.5 -6.5z" />
    <glyph glyph-name="Gcommaaccent" unicode="&#x122;" horiz-adv-x="655" 
d="M182 344q0 -91 20.5 -143t59 -75.5t90.5 -23.5q25 0 61.5 9.5t55.5 25.5v124h-125q-7 0 -12 14.5t-5 40.5q0 54 17 54h230q13 0 21 -6.5t8 -17.5v-258q0 -25 -49 -49q-100 -50 -202 -50q-154 0 -234 89.5t-80 266.5q0 352 322 352q107 0 184 -44q13 -7 23.5 -17.5
t10.5 -17.5q0 -6 -9 -23.5t-27 -37t-33 -19.5q-1 0 -31 16t-62.5 24t-62.5 8q-24 0 -50.5 -5.5t-48.5 -20.5t-36.5 -38.5t-25 -63.5t-10.5 -114zM243 -281q0 27 31 201q10 47 38 47q21 0 54 -9q24 -8 36 -16.5t12 -24.5t-11 -40q0 -1 -1 -3.5t-19.5 -52.5t-34 -87.5
t-20.5 -40.5l-11 -2q-17 0 -45.5 8.5t-28.5 19.5z" />
    <glyph glyph-name="gcommaaccent" unicode="&#x123;" horiz-adv-x="583" 
d="M574 470q0 -25 -4.5 -41t-10.5 -16l-93 13q-9 0 -9 -6t8 -11q37 -30 37 -86q0 -66 -56.5 -107t-161.5 -41q-20 0 -53 5q-45 -20 -45 -45q0 -27 71 -27h105q91 0 142 -40t51 -103q0 -49 -32.5 -82t-93 -50t-153.5 -17q-123 0 -188 30.5t-65 85.5q0 29 21 53t62 35
q-29 8 -45 23.5t-20 30.5t-4 24q0 26 21.5 55.5t74.5 57.5q-37 20 -60 56t-23 80q0 74 65.5 122.5t166.5 48.5q23 0 62.5 -4.5t60.5 -4.5l147 3q9 0 15.5 -7t6.5 -35zM425 -43q0 21 -23.5 32t-65.5 11h-124q-22 -3 -36.5 -18t-14.5 -32q0 -22 33 -33t96 -11q75 0 105 14.5
t30 36.5zM180 347q0 -35 27 -58.5t76 -23.5q45 0 72.5 20.5t27.5 58.5q0 35 -26 57t-72 22t-75.5 -21t-29.5 -55zM161 661q-6 4 -18 12.5t-12 19.5q0 15 21 40.5t35 25.5q13 0 37 -17q59 -44 108 -88q31 -27 31 -34q0 -16 -17 -30.5t-30 -14.5q-8 0 -36 14q-22 12 -68 40.5
t-51 31.5z" />
    <glyph glyph-name="Imacron" unicode="&#x12a;" horiz-adv-x="290" 
d="M216 670v-652q0 -22 -70 -22q-72 0 -72 22v652q0 22 72 22q38 0 54 -5.5t16 -16.5zM-15 853h320q6 0 12 -9.5t6 -28.5q0 -12 -5 -26.5t-13 -14.5h-320q-8 0 -13 14.5t-5 26.5q0 13 5 25.5t13 12.5z" />
    <glyph glyph-name="imacron" unicode="&#x12b;" horiz-adv-x="277" 
d="M206 493v-476q0 -21 -66 -21q-69 0 -69 20v477q0 21 68 21q37 0 52 -5.5t15 -15.5zM-15 674h320q6 0 12 -9.5t6 -28.5q0 -12 -5 -26.5t-13 -14.5h-320q-8 0 -13 14.5t-5 26.5q0 13 5 25.5t13 12.5z" />
    <glyph glyph-name="Iogonek" unicode="&#x12e;" horiz-adv-x="307" 
d="M224 670v-652q0 -19 -47 -21q-16 -34 -16 -63q0 -39 60 -39q13 0 31.5 4.5t20.5 4.5q9 0 9 -26q0 -30 -5 -41q-3 -6 -30.5 -14.5t-59.5 -8.5q-71 0 -107.5 22.5t-36.5 73.5q0 17 11 41.5t40 51.5q-12 5 -12 15v652q0 22 72 22q38 0 54 -5.5t16 -16.5z" />
    <glyph glyph-name="iogonek" unicode="&#x12f;" horiz-adv-x="277" 
d="M206 493v-476q0 -16 -36 -20q-17 -37 -17 -63q0 -39 60 -39q13 0 31.5 4.5t20.5 4.5q9 0 9 -26q0 -30 -5 -41q-3 -6 -30.5 -14.5t-59.5 -8.5q-71 0 -107.5 22.5t-36.5 73.5q0 11 5.5 28.5t20.5 36.5t23 26q-13 5 -13 15v477q0 21 68 21q37 0 52 -5.5t15 -15.5zM72 655
q0 35 18 48.5t61 13.5q41 0 59.5 -14t18.5 -48q0 -35 -18 -47t-60 -12q-43 0 -61 12t-18 47z" />
    <glyph glyph-name="dotlessi" unicode="&#x131;" horiz-adv-x="277" 
d="M206 493v-476q0 -21 -66 -21q-69 0 -69 20v477q0 21 68 21q37 0 52 -5.5t15 -15.5z" />
    <glyph glyph-name="Kcommaaccent" unicode="&#x136;" horiz-adv-x="631" 
d="M384 357l214 -225q15 -14 15 -34v-74q0 -10 -6.5 -17t-23.5 -7h-50q-33 0 -47 20l-197 254q-22 27 -74 28v-284q0 -22 -68 -22q-72 0 -72 22v653q0 21 71 21q38 0 53.5 -5.5t15.5 -15.5v-251q54 3 76 34l166 214q4 5 11.5 13.5t32.5 8.5h52q29 0 29 -24v-56
q0 -20 -5.5 -33t-19.5 -27l-172 -168q-7 -7 -7 -13t6 -12zM254 -281q0 27 31 201q10 47 38 47q21 0 54 -9q24 -8 36 -16.5t12 -24.5t-11 -40q0 -1 -1 -3.5t-19.5 -52.5t-34 -87.5t-20.5 -40.5l-11 -2q-17 0 -45.5 8.5t-28.5 19.5z" />
    <glyph glyph-name="kcommaaccent" unicode="&#x137;" horiz-adv-x="554" 
d="M489 402l-145 -96q-9 -7 -9 -13q0 -5 9 -14l179 -167q13 -12 13 -30v-55q0 -27 -30 -27h-66q-18 0 -30 15l-153 197q-7 9 -21 16.5t-30 8.5v-220q0 -21 -66 -21q-69 0 -69 20v656q0 20 68 20q67 0 67 -20v-322q33 2 53 22l123 124q14 14 31 14h73q22 0 22 -24v-55
q0 -6 -5 -14.5t-14 -14.5zM199 -281q0 27 31 201q10 47 38 47q21 0 54 -9q24 -8 36 -16.5t12 -24.5t-11 -40q0 -1 -1 -3.5t-19.5 -52.5t-34 -87.5t-20.5 -40.5l-11 -2q-17 0 -45.5 8.5t-28.5 19.5z" />
    <glyph glyph-name="Lacute" unicode="&#x139;" horiz-adv-x="526" 
d="M216 671v-557q0 -6 13 -6h279q6 0 11.5 -16.5t5.5 -38.5q0 -21 -6 -37t-11 -16h-399q-34 0 -34 34v637q0 22 71 22q38 0 54 -5.5t16 -16.5zM294 839q-93 -58 -100.5 -62.5t-17.5 -9.5q-30 -14 -37 -14q-12 0 -29 14.5t-17 30.5q0 7 31 34q44 41 107 88q20 13 27 15t11 2
q6 0 18 -9t24.5 -27.5t12.5 -29.5q0 -3 -3 -10.5t-27 -21.5z" />
    <glyph glyph-name="lacute" unicode="&#x13a;" horiz-adv-x="284" 
d="M210 672v-655q0 -21 -66 -21q-69 0 -69 20v656q0 20 68 20q67 0 67 -20zM289 839q-93 -58 -100.5 -62.5t-17.5 -9.5q-30 -14 -37 -14q-12 0 -29 14.5t-17 30.5q0 7 31 34q44 41 107 88q20 13 27 15t11 2q6 0 18 -9t24.5 -27.5t12.5 -29.5q0 -3 -3 -10.5t-27 -21.5z" />
    <glyph glyph-name="Lcommaaccent" unicode="&#x13b;" horiz-adv-x="526" 
d="M216 671v-557q0 -6 13 -6h279q6 0 11.5 -16.5t5.5 -38.5q0 -21 -6 -37t-11 -16h-399q-34 0 -34 34v637q0 22 71 22q38 0 54 -5.5t16 -16.5zM213 -281q0 27 31 201q10 47 38 47q21 0 54 -9q24 -8 36 -16.5t12 -24.5t-11 -40q0 -1 -1 -3.5t-19.5 -52.5t-34 -87.5
t-20.5 -40.5l-11 -2q-17 0 -45.5 8.5t-28.5 19.5z" />
    <glyph glyph-name="lcommaaccent" unicode="&#x13c;" horiz-adv-x="277" 
d="M206 672v-655q0 -21 -66 -21q-69 0 -69 20v656q0 20 68 20q67 0 67 -20zM28 -281q0 27 31 201q10 47 38 47q21 0 54 -9q24 -8 36 -16.5t12 -24.5t-11 -40q0 -1 -1 -3.5t-19.5 -52.5t-34 -87.5t-20.5 -40.5l-11 -2q-17 0 -45.5 8.5t-28.5 19.5z" />
    <glyph glyph-name="Lcaron" unicode="&#x13d;" horiz-adv-x="526" 
d="M216 671v-557q0 -6 13 -6h279q6 0 11.5 -16.5t5.5 -38.5q0 -21 -6 -37t-11 -16h-399q-34 0 -34 34v637q0 22 71 22q38 0 54 -5.5t16 -16.5zM341 449q0 15 9 73.5t22 127.5q10 47 38 47q5 0 21.5 -2t32.5 -8q23 -7 35.5 -15.5t12.5 -24.5q0 -18 -11 -40q0 -1 -1 -3.5
t-22 -59.5t-34.5 -88t-17.5 -33q-6 -3 -11 -3q-11 0 -32 5t-31.5 11.5t-10.5 12.5z" />
    <glyph glyph-name="lcaron" unicode="&#x13e;" horiz-adv-x="442" 
d="M206 672v-655q0 -21 -66 -21q-69 0 -69 20v656q0 20 68 20q67 0 67 -20zM271 443q0 15 9 73.5t22 127.5q10 47 38 47q5 0 21.5 -2t32.5 -8q23 -7 35.5 -15.5t12.5 -24.5q0 -18 -11 -40q0 -1 -1 -3.5t-22 -59.5t-34.5 -88t-17.5 -33q-6 -3 -11 -3q-11 0 -32 5t-31.5 11.5
t-10.5 12.5z" />
    <glyph glyph-name="Lslash" unicode="&#x141;" horiz-adv-x="569" 
d="M251 670v-256q122 49 127 49q6 0 10.5 -9.5t4.5 -27.5q0 -9 -2 -17.5t-5 -9.5l-135 -54v-232q0 -6 13 -6h279q6 0 11.5 -16.5t5.5 -38.5q0 -21 -6 -37t-11 -16h-399q-34 0 -34 34v257l-69 -26q-6 0 -11.5 10.5t-5.5 28.5q0 6 1.5 13.5t4.5 8.5l80 32v313q0 22 71 22
q38 0 54 -5.5t16 -16.5z" />
    <glyph glyph-name="lslash" unicode="&#x142;" horiz-adv-x="353" 
d="M241 672v-250q94 38 96 38q5 0 9.5 -10t4.5 -27q0 -9 -2 -17.5t-5 -9.5q-18 -9 -103 -43v-336q0 -21 -66 -21q-69 0 -69 20v283l-90 -35q-6 0 -11.5 11t-5.5 28q0 7 1.5 14t4.5 8l101 41v306q0 20 68 20q67 0 67 -20z" />
    <glyph glyph-name="Nacute" unicode="&#x143;" horiz-adv-x="761" 
d="M686 671v-637q0 -23 -11 -28.5t-42 -5.5h-62q-20 0 -36 3.5t-27 22.5l-276 432q-6 9 -15 9q-7 0 -7 -10v-439q0 -10 -15 -15.5t-52 -5.5q-68 0 -68 21v638q0 17 7 25.5t43 8.5h73q21 0 36.5 -4.5t27.5 -24.5l266 -431q5 -8 13 -8q10 0 10 9v440q0 22 68 22q37 0 52 -5.5
t15 -16.5zM538 838q-93 -58 -100.5 -62.5t-17.5 -9.5q-30 -14 -37 -14q-12 0 -29 14.5t-17 30.5q0 7 31 34q44 41 107 88q20 13 27 15t11 2q6 0 18 -9t24.5 -27.5t12.5 -29.5q0 -3 -3 -10.5t-27 -21.5z" />
    <glyph glyph-name="nacute" unicode="&#x144;" horiz-adv-x="606" 
d="M193 459q62 58 142 58q113 0 159.5 -56t46.5 -168v-277q0 -20 -66 -20q-69 0 -69 20v244q0 80 -23.5 113t-73.5 33q-20 0 -44.5 -10t-41.5 -41.5t-17 -85.5v-253q0 -20 -67 -20q-68 0 -68 20v481q0 6 5.5 12.5t45.5 6.5q30 0 35 -12l12 -42q4 -11 9 -11q6 0 15 8z
M449 664q-93 -58 -100.5 -62.5t-17.5 -9.5q-30 -14 -37 -14q-12 0 -29 14.5t-17 30.5q0 7 31 34q44 41 107 88q20 13 27 15t11 2q6 0 18 -9t24.5 -27.5t12.5 -29.5q0 -3 -3 -10.5t-27 -21.5z" />
    <glyph glyph-name="Ncommaaccent" unicode="&#x145;" horiz-adv-x="761" 
d="M686 671v-637q0 -23 -11 -28.5t-42 -5.5h-62q-20 0 -36 3.5t-27 22.5l-276 432q-6 9 -15 9q-7 0 -7 -10v-439q0 -10 -15 -15.5t-52 -5.5q-68 0 -68 21v638q0 17 7 25.5t43 8.5h73q21 0 36.5 -4.5t27.5 -24.5l266 -431q5 -8 13 -8q10 0 10 9v440q0 22 68 22q37 0 52 -5.5
t15 -16.5zM282 -281q0 27 31 201q10 47 38 47q21 0 54 -9q24 -8 36 -16.5t12 -24.5t-11 -40q0 -1 -1 -3.5t-19.5 -52.5t-34 -87.5t-20.5 -40.5l-11 -2q-17 0 -45.5 8.5t-28.5 19.5z" />
    <glyph glyph-name="ncommaaccent" unicode="&#x146;" horiz-adv-x="606" 
d="M193 459q62 58 142 58q113 0 159.5 -56t46.5 -168v-277q0 -20 -66 -20q-69 0 -69 20v244q0 80 -23.5 113t-73.5 33q-20 0 -44.5 -10t-41.5 -41.5t-17 -85.5v-253q0 -20 -67 -20q-68 0 -68 20v481q0 6 5.5 12.5t45.5 6.5q30 0 35 -12l12 -42q4 -11 9 -11q6 0 15 8z
M218 -281q0 27 31 201q10 47 38 47q21 0 54 -9q24 -8 36 -16.5t12 -24.5t-11 -40q0 -1 -1 -3.5t-19.5 -52.5t-34 -87.5t-20.5 -40.5l-11 -2q-17 0 -45.5 8.5t-28.5 19.5z" />
    <glyph glyph-name="Ncaron" unicode="&#x147;" horiz-adv-x="761" 
d="M686 671v-637q0 -23 -11 -28.5t-42 -5.5h-62q-20 0 -36 3.5t-27 22.5l-276 432q-6 9 -15 9q-7 0 -7 -10v-439q0 -10 -15 -15.5t-52 -5.5q-68 0 -68 21v638q0 17 7 25.5t43 8.5h73q21 0 36.5 -4.5t27.5 -24.5l266 -431q5 -8 13 -8q10 0 10 9v440q0 22 68 22q37 0 52 -5.5
t15 -16.5zM397 749q-44 0 -66 19q-30 27 -64.5 61.5t-34.5 41.5q0 12 25 26t39 14q6 0 14 -3.5t28 -23.5l59 -61l58 61q15 15 23 21t21 6q15 0 39 -12.5t24 -27.5q0 -4 -8.5 -14t-22.5 -24t-33.5 -32t-22.5 -21q-19 -18 -37.5 -24.5t-40.5 -6.5z" />
    <glyph glyph-name="ncaron" unicode="&#x148;" horiz-adv-x="606" 
d="M193 459q62 58 142 58q113 0 159.5 -56t46.5 -168v-277q0 -20 -66 -20q-69 0 -69 20v244q0 80 -23.5 113t-73.5 33q-20 0 -44.5 -10t-41.5 -41.5t-17 -85.5v-253q0 -20 -67 -20q-68 0 -68 20v481q0 6 5.5 12.5t45.5 6.5q30 0 35 -12l12 -42q4 -11 9 -11q6 0 15 8z
M313 573q-44 0 -66 19q-30 27 -64.5 61.5t-34.5 41.5q0 12 25 26t39 14q6 0 14 -3.5t28 -23.5l59 -61l58 61q15 15 23 21t21 6q15 0 39 -12.5t24 -27.5q0 -4 -8.5 -14t-22.5 -24t-33.5 -32t-22.5 -21q-19 -18 -37.5 -24.5t-40.5 -6.5z" />
    <glyph glyph-name="Omacron" unicode="&#x14c;" horiz-adv-x="702" 
d="M352 -9q-154 0 -234.5 89t-80.5 264t80 264t235 89q153 0 232.5 -89t79.5 -264q0 -176 -79.5 -264.5t-232.5 -88.5zM351 588q-59 0 -96 -26t-55 -78t-18 -140q0 -77 15 -128t52.5 -82t102.5 -31q84 0 126.5 56.5t42.5 184.5q0 92 -20.5 144.5t-59 76t-90.5 23.5zM190 853
h320q6 0 12 -9.5t6 -28.5q0 -12 -5 -26.5t-13 -14.5h-320q-8 0 -13 14.5t-5 26.5q0 13 5 25.5t13 12.5z" />
    <glyph glyph-name="omacron" unicode="&#x14d;" horiz-adv-x="593" 
d="M297 -8q-53 0 -99 16t-81 49t-54.5 83t-19.5 115t19.5 115.5t54.5 83t81 48.5t99 16t99.5 -16t80.5 -48.5t53.5 -83t19.5 -115.5t-19.5 -115t-54 -83t-80.5 -49t-99 -16zM297 97q115 0 115 160q0 32 -8 69t-34.5 61.5t-72.5 24.5q-115 0 -115 -155q0 -50 13 -86t38.5 -55
t63.5 -19zM135 675h320q6 0 12 -9.5t6 -28.5q0 -12 -5 -26.5t-13 -14.5h-320q-8 0 -13 14.5t-5 26.5q0 13 5 25.5t13 12.5z" />
    <glyph glyph-name="Ohungarumlaut" unicode="&#x150;" horiz-adv-x="702" 
d="M352 -9q-154 0 -234.5 89t-80.5 264t80 264t235 89q153 0 232.5 -89t79.5 -264q0 -176 -79.5 -264.5t-232.5 -88.5zM351 588q-59 0 -96 -26t-55 -78t-18 -140q0 -77 15 -128t52.5 -82t102.5 -31q84 0 126.5 56.5t42.5 184.5q0 92 -20.5 144.5t-59 76t-90.5 23.5zM623 834
q-93 -58 -100.5 -62.5t-17.5 -9.5q-30 -14 -37 -14q-12 0 -29 14.5t-17 30.5q0 7 31 34q44 41 107 88q20 13 27 15t11 2q6 0 18 -9t24.5 -27.5t12.5 -29.5q0 -3 -3 -10.5t-27 -21.5zM350 834q-93 -58 -100.5 -62.5t-17.5 -9.5q-30 -14 -37 -14q-12 0 -29 14.5t-17 30.5
q0 7 31 34q44 41 107 88q20 13 27 15t11 2q6 0 18 -9t24.5 -27.5t12.5 -29.5q0 -3 -3 -10.5t-27 -21.5z" />
    <glyph glyph-name="ohungarumlaut" unicode="&#x151;" horiz-adv-x="593" 
d="M297 -8q-53 0 -99 16t-81 49t-54.5 83t-19.5 115t19.5 115.5t54.5 83t81 48.5t99 16t99.5 -16t80.5 -48.5t53.5 -83t19.5 -115.5t-19.5 -115t-54 -83t-80.5 -49t-99 -16zM297 97q115 0 115 160q0 32 -8 69t-34.5 61.5t-72.5 24.5q-115 0 -115 -155q0 -50 13 -86t38.5 -55
t63.5 -19zM572 664q-93 -58 -100.5 -62.5t-17.5 -9.5q-30 -14 -37 -14q-12 0 -29 14.5t-17 30.5q0 7 31 34q44 41 107 88q20 13 27 15t11 2q6 0 18 -9t24.5 -27.5t12.5 -29.5q0 -3 -3 -10.5t-27 -21.5zM310 664q-93 -58 -100.5 -62.5t-17.5 -9.5q-30 -14 -37 -14
q-12 0 -29 14.5t-17 30.5q0 7 31 34q44 41 107 88q20 13 27 15t11 2q6 0 18 -9t24.5 -27.5t12.5 -29.5q0 -3 -3 -10.5t-27 -21.5z" />
    <glyph glyph-name="OE" unicode="&#x152;" horiz-adv-x="850" 
d="M406 585h-23q-67 0 -113.5 -22.5t-67 -71.5t-20.5 -146q0 -87 18 -136.5t63 -77t126 -27.5h17q13 0 13 7v466q0 8 -13 8zM811 0h-418q-84 0 -150 19t-111.5 59.5t-69.5 107t-24 158.5q0 91 23.5 157.5t68 108t109.5 60.5t148 19h390q6 0 12 -13t6 -34q0 -14 -5 -37.5
t-13 -23.5h-204q-13 0 -13 -7v-148q0 -3 0.5 -6.5t7.5 -3.5l151 -15q8 -1 12.5 -17t4.5 -28q0 -14 -5 -29t-12 -16l-152 -16q-7 0 -7 -9v-173q0 -6 13 -6h238q9 0 14 -20.5t5 -35.5q0 -14 -5 -32.5t-14 -18.5z" />
    <glyph glyph-name="oe" unicode="&#x153;" horiz-adv-x="850" 
d="M266 -6q-47 0 -87.5 16.5t-71 49t-47.5 82.5t-17 114q0 54 14 101.5t42 83t71 55.5t97 20q56 0 98 -20t66 -60q71 81 178 81q40 0 76.5 -15t63.5 -43.5t42.5 -70.5t15.5 -93q0 -42 -12 -58t-39 -16h-244q2 -28 6.5 -53.5t17.5 -42.5t33 -23.5t43 -6.5t48.5 6t56 19.5
t38.5 13.5q5 0 13.5 -10.5t16.5 -32t8 -36.5q0 -9 -20.5 -22.5t-67.5 -26.5t-85 -13q-63 0 -114.5 23t-76.5 67q-52 -89 -163 -89zM266 98q48 0 72.5 42.5t24.5 117.5q0 51 -12.5 89t-35 52t-48.5 14q-51 0 -75 -40.5t-24 -113.5t24 -117t74 -44zM510 304h146q8 0 12.5 8.5
t4.5 19.5q0 24 -7.5 47.5t-26.5 36.5t-42 13q-34 0 -59 -30.5t-28 -94.5z" />
    <glyph glyph-name="Racute" unicode="&#x154;" horiz-adv-x="617" 
d="M455 16l-149 252l-91 5v-255q0 -7 -10.5 -14.5t-58.5 -7.5q-71 0 -71 22v637q0 34 34 34h169q145 0 212.5 -46.5t67.5 -149.5q0 -134 -127 -182l141 -179q17 -21 17 -36v-70q0 -26 -29 -26h-52q-21 0 -34 3t-19 13zM288 588h-60q-13 0 -13 -7v-217l66 8q69 8 102.5 32.5
t33.5 80.5q0 55 -31 79t-98 24zM391 839q-93 -58 -100.5 -62.5t-17.5 -9.5q-30 -14 -37 -14q-12 0 -29 14.5t-17 30.5q0 7 31 34q44 41 107 88q20 13 27 15t11 2q6 0 18 -9t24.5 -27.5t12.5 -29.5q0 -3 -3 -10.5t-27 -21.5z" />
    <glyph glyph-name="racute" unicode="&#x155;" horiz-adv-x="393" 
d="M322 518l29 -1q15 0 15 -39q0 -31 -5.5 -55.5t-14.5 -24.5h-35q-26 0 -49 -15t-36 -41t-13 -65v-261q0 -20 -66 -20q-69 0 -69 20v481q0 6 5.5 12.5t45.5 6.5q31 0 35 -12l14 -46q1 -2 2.5 -6t7.5 -4q2 0 6.5 3t7.5 6q25 31 56.5 46t63.5 15zM330 664
q-93 -58 -100.5 -62.5t-17.5 -9.5q-30 -14 -37 -14q-12 0 -29 14.5t-17 30.5q0 7 31 34q44 41 107 88q20 13 27 15t11 2q6 0 18 -9t24.5 -27.5t12.5 -29.5q0 -3 -3 -10.5t-27 -21.5z" />
    <glyph glyph-name="Rcommaaccent" unicode="&#x156;" horiz-adv-x="617" 
d="M455 16l-149 252l-91 5v-255q0 -7 -10.5 -14.5t-58.5 -7.5q-71 0 -71 22v637q0 34 34 34h169q145 0 212.5 -46.5t67.5 -149.5q0 -134 -127 -182l141 -179q17 -21 17 -36v-70q0 -26 -29 -26h-52q-21 0 -34 3t-19 13zM288 588h-60q-13 0 -13 -7v-217l66 8q69 8 102.5 32.5
t33.5 80.5q0 55 -31 79t-98 24zM243 -281q0 27 31 201q10 47 38 47q21 0 54 -9q24 -8 36 -16.5t12 -24.5t-11 -40q0 -1 -1 -3.5t-19.5 -52.5t-34 -87.5t-20.5 -40.5l-11 -2q-17 0 -45.5 8.5t-28.5 19.5z" />
    <glyph glyph-name="rcommaaccent" unicode="&#x157;" horiz-adv-x="386" 
d="M315 518l29 -1q15 0 15 -39q0 -31 -5.5 -55.5t-14.5 -24.5h-35q-26 0 -49 -15t-36 -41t-13 -65v-261q0 -20 -66 -20q-69 0 -69 20v481q0 6 5.5 12.5t45.5 6.5q31 0 35 -12l14 -46q1 -2 2.5 -6t7.5 -4q2 0 6.5 3t7.5 6q25 31 56.5 46t63.5 15zM33 -281q0 27 31 201
q10 47 38 47q21 0 54 -9q24 -8 36 -16.5t12 -24.5t-11 -40q0 -1 -1 -3.5t-19.5 -52.5t-34 -87.5t-20.5 -40.5l-11 -2q-17 0 -45.5 8.5t-28.5 19.5z" />
    <glyph glyph-name="Rcaron" unicode="&#x158;" horiz-adv-x="617" 
d="M455 16l-149 252l-91 5v-255q0 -7 -10.5 -14.5t-58.5 -7.5q-71 0 -71 22v637q0 34 34 34h169q145 0 212.5 -46.5t67.5 -149.5q0 -134 -127 -182l141 -179q17 -21 17 -36v-70q0 -26 -29 -26h-52q-21 0 -34 3t-19 13zM288 588h-60q-13 0 -13 -7v-217l66 8q69 8 102.5 32.5
t33.5 80.5q0 55 -31 79t-98 24zM276 749q-44 0 -66 19q-30 27 -64.5 61.5t-34.5 41.5q0 12 25 26t39 14q6 0 14 -3.5t28 -23.5l59 -61l58 61q15 15 23 21t21 6q15 0 39 -12.5t24 -27.5q0 -4 -8.5 -14t-22.5 -24t-33.5 -32t-22.5 -21q-19 -18 -37.5 -24.5t-40.5 -6.5z" />
    <glyph glyph-name="rcaron" unicode="&#x159;" horiz-adv-x="386" 
d="M315 518l29 -1q15 0 15 -39q0 -31 -5.5 -55.5t-14.5 -24.5h-35q-26 0 -49 -15t-36 -41t-13 -65v-261q0 -20 -66 -20q-69 0 -69 20v481q0 6 5.5 12.5t45.5 6.5q31 0 35 -12l14 -46q1 -2 2.5 -6t7.5 -4q2 0 6.5 3t7.5 6q25 31 56.5 46t63.5 15zM210 574q-44 0 -66 19
q-30 27 -64.5 61.5t-34.5 41.5q0 12 25 26t39 14q6 0 14 -3.5t28 -23.5l59 -61l58 61q15 15 23 21t21 6q15 0 39 -12.5t24 -27.5q0 -4 -8.5 -14t-22.5 -24t-33.5 -32t-22.5 -21q-19 -18 -37.5 -24.5t-40.5 -6.5z" />
    <glyph glyph-name="Sacute" unicode="&#x15a;" horiz-adv-x="578" 
d="M288 697q50 0 104 -11.5t93 -34.5t39 -38q0 -5 -7 -27t-20.5 -46t-25.5 -24q-1 0 -6 1t-45.5 19.5t-75 27.5t-62.5 9q-39 0 -59 -14t-20 -47q0 -34 27 -53t111 -41q73 -19 116.5 -44.5t67.5 -65t24 -98.5q0 -39 -13.5 -78.5t-46.5 -71t-86 -51.5t-126 -20
q-60 0 -121.5 15t-97.5 38t-36 39q0 7 8.5 29.5t25 48t28.5 25.5q5 0 22.5 -10.5t26.5 -15.5q32 -16 74 -29t78 -13q53 0 83.5 20.5t30.5 58.5q0 34 -31 52t-78 31q-94 25 -143 55t-71.5 71.5t-22.5 101.5q0 90 59.5 140.5t175.5 50.5zM427 838q-93 -58 -100.5 -62.5
t-17.5 -9.5q-30 -14 -37 -14q-12 0 -29 14.5t-17 30.5q0 7 31 34q44 41 107 88q20 13 27 15t11 2q6 0 18 -9t24.5 -27.5t12.5 -29.5q0 -3 -3 -10.5t-27 -21.5z" />
    <glyph glyph-name="sacute" unicode="&#x15b;" horiz-adv-x="466" 
d="M217 -8q-37 0 -79.5 8t-71.5 20.5t-40 23t-11 17.5t6.5 27t21.5 41.5t29 21.5q1 0 3.5 -1t29 -16.5t59 -24.5t58.5 -9q35 0 57 14t22 38q0 14 -16 24.5t-53.5 21.5t-53.5 16t-35 13.5t-34 17.5t-30 23.5t-27 38t-12 59.5q0 73 54 112.5t143 39.5q38 0 79.5 -6.5
t70.5 -19.5q33 -13 33 -27q0 -6 -6.5 -25t-19 -39.5t-22.5 -20.5q-3 0 -30.5 11.5t-54.5 17t-51 5.5q-33 0 -48.5 -9.5t-15.5 -29.5q0 -12 14 -22t65.5 -24t84.5 -27.5t56 -34.5t34 -47t11 -59q0 -50 -28 -90.5t-81 -59.5t-111 -19zM370 664q-93 -58 -100.5 -62.5
t-17.5 -9.5q-30 -14 -37 -14q-12 0 -29 14.5t-17 30.5q0 7 31 34q44 41 107 88q20 13 27 15t11 2q6 0 18 -9t24.5 -27.5t12.5 -29.5q0 -3 -3 -10.5t-27 -21.5z" />
    <glyph glyph-name="Scaron" unicode="&#x160;" horiz-adv-x="578" 
d="M288 697q50 0 104 -11.5t93 -34.5t39 -38q0 -5 -7 -27t-20.5 -46t-25.5 -24q-1 0 -6 1t-45.5 19.5t-75 27.5t-62.5 9q-39 0 -59 -14t-20 -47q0 -34 27 -53t111 -41q73 -19 116.5 -44.5t67.5 -65t24 -98.5q0 -39 -13.5 -78.5t-46.5 -71t-86 -51.5t-126 -20
q-60 0 -121.5 15t-97.5 38t-36 39q0 7 8.5 29.5t25 48t28.5 25.5q5 0 22.5 -10.5t26.5 -15.5q32 -16 74 -29t78 -13q53 0 83.5 20.5t30.5 58.5q0 34 -31 52t-78 31q-94 25 -143 55t-71.5 71.5t-22.5 101.5q0 90 59.5 140.5t175.5 50.5zM295 746q-44 0 -66 19
q-30 27 -64.5 61.5t-34.5 41.5q0 12 25 26t39 14q6 0 14 -3.5t28 -23.5l59 -61l58 61q15 15 23 21t21 6q15 0 39 -12.5t24 -27.5q0 -4 -8.5 -14t-22.5 -24t-33.5 -32t-22.5 -21q-19 -18 -37.5 -24.5t-40.5 -6.5z" />
    <glyph glyph-name="scaron" unicode="&#x161;" horiz-adv-x="466" 
d="M217 -8q-37 0 -79.5 8t-71.5 20.5t-40 23t-11 17.5t6.5 27t21.5 41.5t29 21.5q1 0 3.5 -1t29 -16.5t59 -24.5t58.5 -9q35 0 57 14t22 38q0 14 -16 24.5t-53.5 21.5t-53.5 16t-35 13.5t-34 17.5t-30 23.5t-27 38t-12 59.5q0 73 54 112.5t143 39.5q38 0 79.5 -6.5
t70.5 -19.5q33 -13 33 -27q0 -6 -6.5 -25t-19 -39.5t-22.5 -20.5q-3 0 -30.5 11.5t-54.5 17t-51 5.5q-33 0 -48.5 -9.5t-15.5 -29.5q0 -12 14 -22t65.5 -24t84.5 -27.5t56 -34.5t34 -47t11 -59q0 -50 -28 -90.5t-81 -59.5t-111 -19zM225 574q-44 0 -66 19q-30 27 -64.5 61.5
t-34.5 41.5q0 12 25 26t39 14q6 0 14 -3.5t28 -23.5l59 -61l58 61q15 15 23 21t21 6q15 0 39 -12.5t24 -27.5q0 -4 -8.5 -14t-22.5 -24t-33.5 -32t-22.5 -21q-19 -18 -37.5 -24.5t-40.5 -6.5z" />
    <glyph glyph-name="Tcaron" unicode="&#x164;" horiz-adv-x="575" 
d="M26 689h523q6 0 12 -13t6 -34q0 -14 -5 -36.5t-13 -22.5h-183q-8 0 -8 -7v-558q0 -22 -69 -22q-72 0 -72 22v557q0 8 -9 8h-182q-8 0 -13 22.5t-5 36.5t5 30.5t13 16.5zM287 749q-44 0 -66 19q-30 27 -64.5 61.5t-34.5 41.5q0 12 25 26t39 14q6 0 14 -3.5t28 -23.5
l59 -61l58 61q15 15 23 21t21 6q15 0 39 -12.5t24 -27.5q0 -4 -8.5 -14t-22.5 -24t-33.5 -32t-22.5 -21q-19 -18 -37.5 -24.5t-40.5 -6.5z" />
    <glyph glyph-name="tcaron" unicode="&#x165;" horiz-adv-x="467" 
d="M449 640q-36 -31 -102 -80q-7 -6 -17 -6q-8 0 -21.5 11.5t-13.5 24.5q0 6 42 54.5t44 51.5q9 11 19.5 17t17.5 6q8 0 12 -2q12 -6 25 -21.5t13 -24.5q0 -15 -19 -31zM96 197v208l-79 15q-14 2 -14 41q0 37 17 38l77 14v83q0 16 39 27.5t62 11.5q33 0 33 -17v-103l177 -15
q11 -2 16.5 -9t5.5 -26q0 -39 -21 -43l-178 -18v-175q0 -60 22.5 -88.5t60.5 -28.5q19 0 38 4.5t38 13.5t22 9q6 0 14.5 -12t16.5 -36.5t8 -39.5q0 -14 -23 -27.5t-72 -23t-82 -9.5q-91 0 -134.5 54t-43.5 152z" />
    <glyph glyph-name="Umacron" unicode="&#x16a;" horiz-adv-x="673" 
d="M615 670v-336q0 -179 -66 -261.5t-214 -82.5q-146 0 -211.5 81t-65.5 261v338q0 22 71 22q38 0 54 -5.5t16 -16.5v-313q0 -107 15 -158t46.5 -73t76.5 -22q44 0 75 22.5t46.5 75t15.5 158.5v310q0 22 71 22q39 0 54.5 -5.5t15.5 -16.5zM176 871h320q6 0 12 -9.5t6 -28.5
q0 -12 -5 -26.5t-13 -14.5h-320q-8 0 -13 14.5t-5 26.5q0 13 5 25.5t13 12.5z" />
    <glyph glyph-name="umacron" unicode="&#x16b;" horiz-adv-x="594" 
d="M523 493v-481q0 -6 -5.5 -12.5t-45.5 -6.5q-31 0 -35 12l-13 42q-2 11 -9 11q-5 0 -14 -8q-31 -31 -67.5 -45t-68.5 -14q-113 0 -157 56t-44 169v277q0 20 67 20q68 0 68 -20v-244q0 -82 21.5 -114.5t72.5 -32.5q41 0 68 33.5t27 105.5v252q0 10 15 15t51 5q69 0 69 -20z
M132 676h320q6 0 12 -9.5t6 -28.5q0 -12 -5 -26.5t-13 -14.5h-320q-8 0 -13 14.5t-5 26.5q0 13 5 25.5t13 12.5z" />
    <glyph glyph-name="Uring" unicode="&#x16e;" horiz-adv-x="673" 
d="M615 670v-336q0 -179 -66 -261.5t-214 -82.5q-146 0 -211.5 81t-65.5 261v338q0 22 71 22q38 0 54 -5.5t16 -16.5v-313q0 -107 15 -158t46.5 -73t76.5 -22q44 0 75 22.5t46.5 75t15.5 158.5v310q0 22 71 22q39 0 54.5 -5.5t15.5 -16.5zM212 816q0 52 35.5 80.5t88.5 28.5
t89 -28.5t36 -80.5t-36 -82t-89 -30t-88.5 29.5t-35.5 82.5zM274 816q0 -29 17.5 -45.5t44.5 -16.5q28 0 46 16.5t18 45.5q0 28 -18 43.5t-46 15.5q-27 0 -44.5 -15.5t-17.5 -43.5z" />
    <glyph glyph-name="uring" unicode="&#x16f;" horiz-adv-x="594" 
d="M523 493v-481q0 -6 -5.5 -12.5t-45.5 -6.5q-31 0 -35 12l-13 42q-2 11 -9 11q-5 0 -14 -8q-31 -31 -67.5 -45t-68.5 -14q-113 0 -157 56t-44 169v277q0 20 67 20q68 0 68 -20v-244q0 -82 21.5 -114.5t72.5 -32.5q41 0 68 33.5t27 105.5v252q0 10 15 15t51 5q69 0 69 -20z
M172 657q0 52 35.5 80.5t88.5 28.5t89 -28.5t36 -80.5t-36 -82t-89 -30t-88.5 29.5t-35.5 82.5zM234 657q0 -29 17.5 -45.5t44.5 -16.5q28 0 46 16.5t18 45.5q0 28 -18 43.5t-46 15.5q-27 0 -44.5 -15.5t-17.5 -43.5z" />
    <glyph glyph-name="Uhungarumlaut" unicode="&#x170;" horiz-adv-x="673" 
d="M615 670v-336q0 -179 -66 -261.5t-214 -82.5q-146 0 -211.5 81t-65.5 261v338q0 22 71 22q38 0 54 -5.5t16 -16.5v-313q0 -107 15 -158t46.5 -73t76.5 -22q44 0 75 22.5t46.5 75t15.5 158.5v310q0 22 71 22q39 0 54.5 -5.5t15.5 -16.5zM594 835q-93 -58 -100.5 -62.5
t-17.5 -9.5q-30 -14 -37 -14q-12 0 -29 14.5t-17 30.5q0 7 31 34q44 41 107 88q20 13 27 15t11 2q6 0 18 -9t24.5 -27.5t12.5 -29.5q0 -3 -3 -10.5t-27 -21.5zM339 835q-93 -58 -100.5 -62.5t-17.5 -9.5q-30 -14 -37 -14q-12 0 -29 14.5t-17 30.5q0 7 31 34q44 41 107 88
q20 13 27 15t11 2q6 0 18 -9t24.5 -27.5t12.5 -29.5q0 -3 -3 -10.5t-27 -21.5z" />
    <glyph glyph-name="uhungarumlaut" unicode="&#x171;" horiz-adv-x="594" 
d="M523 493v-481q0 -6 -5.5 -12.5t-45.5 -6.5q-31 0 -35 12l-13 42q-2 11 -9 11q-5 0 -14 -8q-31 -31 -67.5 -45t-68.5 -14q-113 0 -157 56t-44 169v277q0 20 67 20q68 0 68 -20v-244q0 -82 21.5 -114.5t72.5 -32.5q41 0 68 33.5t27 105.5v252q0 10 15 15t51 5q69 0 69 -20z
M541 664q-93 -58 -100.5 -62.5t-17.5 -9.5q-30 -14 -37 -14q-12 0 -29 14.5t-17 30.5q0 7 31 34q44 41 107 88q20 13 27 15t11 2q6 0 18 -9t24.5 -27.5t12.5 -29.5q0 -3 -3 -10.5t-27 -21.5zM279 664q-93 -58 -100.5 -62.5t-17.5 -9.5q-30 -14 -37 -14q-12 0 -29 14.5
t-17 30.5q0 7 31 34q44 41 107 88q20 13 27 15t11 2q6 0 18 -9t24.5 -27.5t12.5 -29.5q0 -3 -3 -10.5t-27 -21.5z" />
    <glyph glyph-name="Uogonek" unicode="&#x172;" horiz-adv-x="673" 
d="M615 670v-336q0 -167 -56.5 -249.5t-182.5 -92.5q-14 -32 -14 -58q0 -39 60 -39q13 0 31.5 4.5t20.5 4.5q9 0 9 -26q0 -30 -5 -41q-3 -6 -30.5 -14.5t-59.5 -8.5q-71 0 -107.5 22.5t-36.5 73.5q0 19 11.5 42t28.5 41q-118 13 -172 94t-54 245v338q0 22 71 22
q38 0 54 -5.5t16 -16.5v-313q0 -107 15 -158t46.5 -73t76.5 -22q44 0 75 22.5t46.5 75t15.5 158.5v310q0 22 71 22q39 0 54.5 -5.5t15.5 -16.5z" />
    <glyph glyph-name="uogonek" unicode="&#x173;" horiz-adv-x="594" 
d="M523 493v-481q0 -7 -7 -12.5t-29 -6.5q-15 -32 -15 -59q0 -39 60 -39q13 0 31.5 4.5t20.5 4.5q9 0 9 -26q0 -30 -5 -41q-3 -6 -30.5 -14.5t-59.5 -8.5q-71 0 -107.5 22.5t-36.5 73.5q0 28 23 60.5t55 54.5l-7 23q-2 10 -10 10q-5 0 -14 -8q-31 -31 -67.5 -45t-68.5 -14
q-113 0 -157 56t-44 169v277q0 20 67 20q68 0 68 -20v-244q0 -82 21.5 -114.5t72.5 -32.5q41 0 68 33.5t27 105.5v252q0 10 15 15t51 5q69 0 69 -20z" />
    <glyph glyph-name="Ydieresis" unicode="&#x178;" horiz-adv-x="542" 
d="M340 303v-285q0 -22 -70 -22q-71 0 -71 22v286l-181 267q-12 17 -12 41v51q0 10 6.5 18.5t24.5 8.5h51q15 0 25.5 -4t21.5 -22l127 -220q3 -6 10 -6q5 0 9 6l125 220q8 13 18 19.5t30 6.5h52q30 0 30 -25v-52q0 -24 -13 -44zM99 808q0 29 12.5 39t47.5 10
q34 0 47.5 -10.5t13.5 -38.5q0 -29 -13 -39t-48 -10t-47.5 10t-12.5 39zM325 808q0 29 13 39t49 10q34 0 47 -10.5t13 -38.5q0 -29 -13 -39t-47 -10q-27 0 -44.5 7t-17.5 42z" />
    <glyph glyph-name="Zacute" unicode="&#x179;" horiz-adv-x="555" 
d="M509 562l-325 -439q-5 -5 -5 -9t7 -4h330q6 0 11.5 -18t5.5 -41q0 -13 -4.5 -32t-12.5 -19h-460q-20 0 -31.5 5.5t-11.5 36.5q0 41 2.5 61t9.5 29l320 435q3 3 3 8t-4 5h-286q-6 0 -11.5 18.5t-5.5 42.5q0 14 4.5 31t13.5 17h444q12 0 17.5 -7.5t5.5 -39.5
q0 -29 -2.5 -46t-14.5 -34zM434 839q-93 -58 -100.5 -62.5t-17.5 -9.5q-30 -14 -37 -14q-12 0 -29 14.5t-17 30.5q0 7 31 34q44 41 107 88q20 13 27 15t11 2q6 0 18 -9t24.5 -27.5t12.5 -29.5q0 -3 -3 -10.5t-27 -21.5z" />
    <glyph glyph-name="zacute" unicode="&#x17a;" horiz-adv-x="492" 
d="M202 111h256q14 0 14 -57q0 -26 -4 -40t-10 -14h-407q-16 0 -25.5 6t-9.5 34q0 23 5.5 43t30.5 49l228 264h-222q-13 0 -13 55q0 27 3.5 42.5t9.5 15.5h372q16 0 24 -6t8 -35q0 -26 -6 -45t-32 -50zM379 664q-93 -58 -100.5 -62.5t-17.5 -9.5q-30 -14 -37 -14
q-12 0 -29 14.5t-17 30.5q0 7 31 34q44 41 107 88q20 13 27 15t11 2q6 0 18 -9t24.5 -27.5t12.5 -29.5q0 -3 -3 -10.5t-27 -21.5z" />
    <glyph glyph-name="Zdotaccent" unicode="&#x17b;" horiz-adv-x="555" 
d="M509 562l-325 -439q-5 -5 -5 -9t7 -4h330q6 0 11.5 -18t5.5 -41q0 -13 -4.5 -32t-12.5 -19h-460q-20 0 -31.5 5.5t-11.5 36.5q0 41 2.5 61t9.5 29l320 435q3 3 3 8t-4 5h-286q-6 0 -11.5 18.5t-5.5 42.5q0 14 4.5 31t13.5 17h444q12 0 17.5 -7.5t5.5 -39.5
q0 -29 -2.5 -46t-14.5 -34zM216 842q0 35 18 48.5t61 13.5q41 0 59.5 -14t18.5 -48q0 -35 -18 -47t-60 -12q-43 0 -61 12t-18 47z" />
    <glyph glyph-name="zdotaccent" unicode="&#x17c;" horiz-adv-x="492" 
d="M202 111h256q14 0 14 -57q0 -26 -4 -40t-10 -14h-407q-16 0 -25.5 6t-9.5 34q0 23 5.5 43t30.5 49l228 264h-222q-13 0 -13 55q0 27 3.5 42.5t9.5 15.5h372q16 0 24 -6t8 -35q0 -26 -6 -45t-32 -50zM175 655q0 35 18 48.5t61 13.5q41 0 59.5 -14t18.5 -48q0 -35 -18 -47
t-60 -12q-43 0 -61 12t-18 47z" />
    <glyph glyph-name="Zcaron" unicode="&#x17d;" horiz-adv-x="555" 
d="M509 562l-325 -439q-5 -5 -5 -9t7 -4h330q6 0 11.5 -18t5.5 -41q0 -13 -4.5 -32t-12.5 -19h-460q-20 0 -31.5 5.5t-11.5 36.5q0 41 2.5 61t9.5 29l320 435q3 3 3 8t-4 5h-286q-6 0 -11.5 18.5t-5.5 42.5q0 14 4.5 31t13.5 17h444q12 0 17.5 -7.5t5.5 -39.5
q0 -29 -2.5 -46t-14.5 -34zM285 746q-44 0 -66 19q-30 27 -64.5 61.5t-34.5 41.5q0 12 25 26t39 14q6 0 14 -3.5t28 -23.5l59 -61l58 61q15 15 23 21t21 6q15 0 39 -12.5t24 -27.5q0 -4 -8.5 -14t-22.5 -24t-33.5 -32t-22.5 -21q-19 -18 -37.5 -24.5t-40.5 -6.5z" />
    <glyph glyph-name="zcaron" unicode="&#x17e;" horiz-adv-x="492" 
d="M202 111h256q14 0 14 -57q0 -26 -4 -40t-10 -14h-407q-16 0 -25.5 6t-9.5 34q0 23 5.5 43t30.5 49l228 264h-222q-13 0 -13 55q0 27 3.5 42.5t9.5 15.5h372q16 0 24 -6t8 -35q0 -26 -6 -45t-32 -50zM259 573q-44 0 -66 19q-30 27 -64.5 61.5t-34.5 41.5q0 12 25 26t39 14
q6 0 14 -3.5t28 -23.5l59 -61l58 61q15 15 23 21t21 6q15 0 39 -12.5t24 -27.5q0 -4 -8.5 -14t-22.5 -24t-33.5 -32t-22.5 -21q-19 -18 -37.5 -24.5t-40.5 -6.5z" />
    <glyph glyph-name="florin" unicode="&#x192;" 
d="M136 427l59 7l11 92q6 48 26.5 81.5t50 53.5t64 28t66.5 8q34 0 69 -6t60 -16t25 -26q0 -12 -7 -32.5t-17 -31t-20 -10.5q-1 0 -3.5 0.5t-31.5 7.5t-64 7q-18 0 -36.5 -8.5t-30 -30t-15.5 -49.5l-9 -67l114 -6q10 -1 15 -8t5 -17q0 -47 -28 -49l-120 -10l-56 -463
q-1 -7 -12 -14.5t-56 -7.5q-66 0 -66 20q0 8 56 465l-60 7q-12 2 -12 27q0 21 7 34t16 14z" />
    <glyph glyph-name="circumflex" unicode="&#x2c6;" horiz-adv-x="390" 
d="M189 708q14 0 33 -4.5t45 -26.5q54 -51 70.5 -68.5t16.5 -22.5q0 -15 -24 -27.5t-39 -12.5q-7 0 -15 3t-29 25l-58 59l-58 -60q-23 -27 -43 -27q-19 0 -41.5 13.5t-22.5 26.5q0 7 35 42t64 60q8 8 25 14t41 6z" />
    <glyph glyph-name="caron" unicode="&#x2c7;" horiz-adv-x="392" 
d="M196 556q-44 0 -66 19q-30 27 -64.5 61.5t-34.5 41.5q0 12 25 26t39 14q6 0 14 -3.5t28 -23.5l59 -61l58 61q15 15 23 21t21 6q15 0 39 -12.5t24 -27.5q0 -4 -8.5 -14t-22.5 -24t-33.5 -32t-22.5 -21q-19 -18 -37.5 -24.5t-40.5 -6.5z" />
    <glyph glyph-name="breve" unicode="&#x2d8;" horiz-adv-x="435" 
d="M218 517q-38 0 -79.5 16.5t-71.5 53t-30 68.5q0 17 9.5 26t37.5 9q17 0 29.5 -4t16.5 -18q5 -15 19.5 -32t33 -25t35.5 -8q15 0 32.5 8t31 25t19.5 34q2 4 7 12t32 8q57 0 57 -34q0 -33 -29.5 -69.5t-70.5 -53t-79 -16.5z" />
    <glyph glyph-name="dotaccent" unicode="&#x2d9;" horiz-adv-x="221" 
d="M28 636q0 35 18 48.5t61 13.5q41 0 59.5 -14t18.5 -48q0 -35 -18 -47t-60 -12q-43 0 -61 12t-18 47z" />
    <glyph glyph-name="ring" unicode="&#x2da;" horiz-adv-x="348" 
d="M50 589q0 52 35.5 80.5t88.5 28.5t89 -28.5t36 -80.5t-36 -82t-89 -30t-88.5 29.5t-35.5 82.5zM112 589q0 -29 17.5 -45.5t44.5 -16.5q28 0 46 16.5t18 45.5q0 28 -18 43.5t-46 15.5q-27 0 -44.5 -15.5t-17.5 -43.5z" />
    <glyph glyph-name="ogonek" unicode="&#x2db;" horiz-adv-x="295" 
d="M121 37l61 -2q-16 -22 -27.5 -50.5t-11.5 -50.5q0 -39 60 -39q13 0 31.5 4.5t20.5 4.5q9 0 9 -26q0 -30 -5 -41q-3 -6 -30.5 -14.5t-59.5 -8.5q-71 0 -107.5 22.5t-36.5 73.5q0 16 10 39t34.5 47.5t51.5 40.5z" />
    <glyph glyph-name="tilde" unicode="&#x2dc;" horiz-adv-x="427" 
d="M134 684q26 0 73.5 -22t66.5 -22q17 0 32.5 7.5t29 23.5t16.5 16q10 0 26.5 -22.5t16.5 -32.5q0 -16 -21.5 -34.5t-48.5 -27t-48 -8.5q-23 0 -66 21.5t-66 21.5q-13 0 -25 -6t-26.5 -19.5t-19.5 -13.5q-14 0 -35 18q-18 17 -18 34q0 9 12 24t40.5 28.5t60.5 13.5z" />
    <glyph glyph-name="hungarumlaut" unicode="&#x2dd;" horiz-adv-x="561" 
d="M498 624q-93 -58 -100.5 -62.5t-17.5 -9.5q-30 -14 -37 -14q-12 0 -29 14.5t-17 30.5q0 7 31 34q44 41 107 88q20 13 27 15t11 2q6 0 18 -9t24.5 -27.5t12.5 -29.5q0 -3 -3 -10.5t-27 -21.5zM243 624q-93 -58 -100.5 -62.5t-17.5 -9.5q-30 -14 -37 -14q-12 0 -29 14.5
t-17 30.5q0 7 31 34q44 41 107 88q20 13 27 15t11 2q6 0 18 -9t24.5 -27.5t12.5 -29.5q0 -3 -3 -10.5t-27 -21.5z" />
    <glyph glyph-name="endash" unicode="&#x2013;" horiz-adv-x="531" 
d="M20 345h491q6 0 12 -13.5t6 -35.5q0 -13 -5 -32.5t-13 -19.5h-491q-8 0 -13 19.5t-5 32.5q0 14 5 31.5t13 17.5z" />
    <glyph glyph-name="emdash" unicode="&#x2014;" horiz-adv-x="808" 
d="M20 345h768q6 0 12 -13.5t6 -35.5q0 -13 -5 -32.5t-13 -19.5h-768q-8 0 -13 19.5t-5 32.5q0 14 5 31.5t13 17.5z" />
    <glyph glyph-name="quoteleft" unicode="&#x2018;" horiz-adv-x="312" 
d="M241 449q0 -6 -10.5 -12.5t-31 -11.5t-31.5 -5q-6 0 -11 3q-6 3 -32.5 67.5t-43.5 116.5q0 2 -4 12.5t-5.5 17t-1.5 10.5q0 13 9.5 22t39.5 18q9 3 26 6.5t28 3.5q27 0 37 -47q9 -48 20 -115t11 -86z" />
    <glyph glyph-name="quoteright" unicode="&#x2019;" horiz-adv-x="312" 
d="M70 449q0 15 9 73.5t22 127.5q10 47 38 47q5 0 21.5 -2t32.5 -8q23 -7 35.5 -15.5t12.5 -24.5q0 -18 -11 -40q0 -1 -1 -3.5t-22 -59.5t-34.5 -88t-17.5 -33q-6 -3 -11 -3q-11 0 -32 5t-31.5 11.5t-10.5 12.5z" />
    <glyph glyph-name="quotesinglbase" unicode="&#x201a;" horiz-adv-x="262" 
d="M49 -115q0 15 9 73.5t22 127.5q10 47 38 47q21 0 54 -9q30 -10 39 -19t9 -22q0 -18 -10 -40q0 -1 -12.5 -34.5t-25.5 -66.5t-23.5 -57t-14.5 -26l-11 -2q-17 0 -45.5 8.5t-28.5 19.5z" />
    <glyph glyph-name="quotedblleft" unicode="&#x201c;" horiz-adv-x="560" 
d="M489 449q0 -6 -10.5 -12.5t-31 -11.5t-31.5 -5q-6 0 -11 3q-6 3 -32.5 67.5t-43.5 116.5q0 2 -4 12.5t-5.5 17t-1.5 10.5q0 13 9.5 22t39.5 18q9 3 26 6.5t28 3.5q27 0 37 -47q9 -48 20 -115t11 -86zM241 449q0 -6 -10.5 -12.5t-31 -11.5t-31.5 -5q-6 0 -11 3
q-6 3 -32.5 67.5t-43.5 116.5q0 2 -4 12.5t-5.5 17t-1.5 10.5q0 13 9.5 22t39.5 18q9 3 26 6.5t28 3.5q27 0 37 -47q9 -48 20 -115t11 -86z" />
    <glyph glyph-name="quotedblright" unicode="&#x201d;" horiz-adv-x="558" 
d="M316 449q0 15 9 73.5t22 127.5q10 47 38 47q5 0 21.5 -2t32.5 -8q23 -7 35.5 -15.5t12.5 -24.5q0 -18 -11 -40q0 -1 -1 -3.5t-22 -59.5t-34.5 -88t-17.5 -33q-6 -3 -11 -3q-11 0 -32 5t-31.5 11.5t-10.5 12.5zM70 449q0 15 9 73.5t22 127.5q10 47 38 47q5 0 21.5 -2
t32.5 -8q23 -7 35.5 -15.5t12.5 -24.5q0 -18 -11 -40q0 -1 -1 -3.5t-22 -59.5t-34.5 -88t-17.5 -33q-6 -3 -11 -3q-11 0 -32 5t-31.5 11.5t-10.5 12.5z" />
    <glyph glyph-name="quotedblbase" unicode="&#x201e;" horiz-adv-x="508" 
d="M295 -115q0 15 9 73.5t22 127.5q10 47 38 47q21 0 54 -9q30 -10 39 -19t9 -22q0 -18 -10 -40q0 -1 -12.5 -34.5t-25.5 -66.5t-23.5 -57t-14.5 -26l-11 -2q-17 0 -45.5 8.5t-28.5 19.5zM41 -115q0 15 9 73.5t22 127.5q10 47 38 47q21 0 54 -9q30 -10 39 -19t9 -22
q0 -18 -10 -40q0 -1 -12.5 -34.5t-25.5 -66.5t-23.5 -57t-14.5 -26l-11 -2q-17 0 -45.5 8.5t-28.5 19.5z" />
    <glyph glyph-name="dagger" unicode="&#x2020;" horiz-adv-x="546" 
d="M266 698q31 0 44.5 -8t13.5 -18v-5t-3.5 -46.5t-9.5 -97.5q15 0 79 5t74 5q24 -1 24 -56q0 -16 -6.5 -36.5t-17.5 -20.5l-153 14l23 -89l-31 -390q-2 -10 -8.5 -15.5t-29.5 -5.5q-17 0 -27 3.5t-11 17.5l-30 390l23 89q-2 0 -9 -0.5t-74.5 -7t-70.5 -6.5q-12 1 -18 21
t-6 36q0 56 24 56l153 -10q-12 120 -12 149q0 26 59 26z" />
    <glyph glyph-name="daggerdbl" unicode="&#x2021;" horiz-adv-x="549" 
d="M311 287l23 -81l-31 -251q-3 -10 -9.5 -15.5t-28.5 -5.5q-17 0 -26 3.5t-12 17.5l-30 251l22 81l-153 -13q-12 0 -18 17.5t-6 32.5q0 51 24 51l156 -10v80q-2 0 -9 -0.5t-75 -7t-72 -6.5q-12 1 -18 18t-6 33q0 51 24 51l153 -10q-12 120 -12 149q0 26 59 26q31 0 44.5 -8
t13.5 -18v-5t-3.5 -46.5t-9.5 -97.5q15 0 79 5t74 5q24 -1 24 -51q0 -15 -6.5 -33t-17.5 -18q-4 0 -22.5 1.5t-72.5 6.5t-61 6v-80q15 0 80.5 5t75.5 5q24 -1 24 -51q0 -15 -6.5 -32.5t-17.5 -17.5z" />
    <glyph glyph-name="bullet" unicode="&#x2022;" horiz-adv-x="419" 
d="M68 315q0 121 143 121q68 0 104.5 -32t36.5 -89q0 -58 -36.5 -89t-104.5 -31q-143 0 -143 120z" />
    <glyph glyph-name="ellipsis" unicode="&#x2026;" horiz-adv-x="791" 
d="M53 51q0 35 18.5 48.5t61.5 13.5q41 0 59.5 -14t18.5 -48q0 -35 -18.5 -47.5t-59.5 -12.5q-44 0 -62 12.5t-18 47.5zM317 51q0 35 18.5 48.5t61.5 13.5q41 0 59.5 -14t18.5 -48q0 -35 -18.5 -47.5t-59.5 -12.5q-44 0 -62 12.5t-18 47.5zM581 51q0 35 18.5 48.5t61.5 13.5
q41 0 59.5 -14t18.5 -48q0 -35 -18.5 -47.5t-59.5 -12.5q-44 0 -62 12.5t-18 47.5z" />
    <glyph glyph-name="perthousand" unicode="&#x2030;" horiz-adv-x="1418" 
d="M1161 346q67 0 114 -23.5t71.5 -62t24.5 -90.5q0 -32 -11 -64t-36.5 -58t-66.5 -42.5t-96 -16.5q-45 0 -83 16t-64 44q-25 -28 -63 -43.5t-83 -15.5q-44 0 -82.5 11.5t-67 34.5t-44.5 57.5t-16 76.5q0 53 24.5 91.5t71.5 62t114 23.5q43 0 82 -16t64 -42q24 27 63 42
t84 15zM814 676q0 -14 -20 -50l-344 -606q-6 -12 -18.5 -18t-51.5 -6q-33 0 -51 5.5t-18 19.5q0 8 10 27l356 627q5 10 18 16t52 6q29 0 48 -5.5t19 -15.5zM255 697q68 0 115.5 -23t72 -61.5t24.5 -90.5q0 -32 -11 -64t-36.5 -58t-67 -43t-97.5 -17q-66 0 -112.5 24.5
t-71 64.5t-24.5 93q0 52 24 90.5t71 61.5t113 23zM257 428q37 0 59.5 25.5t22.5 69.5q0 42 -22.5 66t-59.5 24t-60.5 -23.5t-23.5 -66.5t23 -69t61 -26zM1162 77q37 0 59.5 25t22.5 69q0 42 -22.5 66t-59.5 24q-38 0 -61 -23.5t-23 -67.5q0 -30 12 -52.5t32 -31.5t40 -9z
M868 77q37 0 60 24.5t23 68.5q0 43 -22.5 67t-60.5 24q-37 0 -60 -23t-23 -66t23 -69t60 -26z" />
    <glyph glyph-name="guilsinglleft" unicode="&#x2039;" horiz-adv-x="397" 
d="M185 281q18 -21 68.5 -75t70.5 -79.5t20 -34.5t-18.5 -16.5t-48.5 -7.5q-22 0 -39 2.5t-27 13.5q-56 61 -147 167q-17 21 -17 30q0 10 17 31l147 167q8 8 22.5 12t43.5 4q30 0 48.5 -7.5t18.5 -16.5q0 -14 -70.5 -92t-88.5 -98z" />
    <glyph glyph-name="guilsinglright" unicode="&#x203a;" horiz-adv-x="398" 
d="M208 281q-8 9 -83.5 92t-75.5 98q0 9 19 16.5t49 7.5q49 0 65 -16q20 -21 147 -167q17 -21 17 -31q0 -9 -17 -30l-147 -167q-5 -7 -17 -11.5t-48 -4.5q-30 0 -49 7.5t-19 16.5q0 7 16.5 29.5t72 82.5t70.5 77z" />
    <glyph glyph-name="fraction" unicode="&#x2044;" horiz-adv-x="565" 
d="M572 705q0 -14 -13 -32l-475 -692q-3 -4 -11 -9.5t-41 -5.5q-25 0 -36.5 2t-11.5 10q0 10 15 31l471 692q3 4 9.5 10t46.5 6q46 0 46 -12z" />
    <glyph glyph-name="uni2070" unicode="&#x2070;" horiz-adv-x="409" 
d="M205 327q-85 0 -122.5 44.5t-37.5 135.5q0 90 37.5 134.5t122.5 44.5q84 0 121.5 -44.5t37.5 -134.5q0 -91 -37 -135.5t-122 -44.5zM205 394q23 0 39 11t21.5 36.5t5.5 65.5q0 68 -16.5 90.5t-49.5 22.5t-50 -22.5t-17 -90.5t16 -90.5t51 -22.5z" />
    <glyph glyph-name="uni2074" unicode="&#x2074;" horiz-adv-x="404" 
d="M219 481v113q0 3 -3 4l-6 -4l-75 -113h84zM308 419v-77q0 -13 -45 -13q-46 0 -46 13v77h-159q-12 0 -17 4t-5 16q0 11 16 36l131 192q6 9 19.5 13t42.5 4q63 0 63 -20v-182h54q5 0 8.5 -11.5t3.5 -20.5t-3.5 -20t-8.5 -11h-54z" />
    <glyph glyph-name="uni2075" unicode="&#x2075;" horiz-adv-x="379" 
d="M122 682h191q5 0 8 -10t3 -20q0 -8 -3 -20.5t-8 -12.5h-155l-10 -54q19 4 44 4q71 0 106.5 -32t35.5 -85q0 -39 -20.5 -67t-59.5 -44t-89 -16q-23 0 -51 6.5t-49.5 19t-21.5 20.5q0 7 5.5 22t13 23t14.5 8q3 0 24 -12t38 -15.5t31 -3.5q30 0 51.5 15.5t21.5 40.5
q0 23 -16.5 38t-54.5 15q-27 0 -50 -5l-13 -4q-9 0 -29.5 14t-20.5 19l24 135q2 10 9.5 15.5t30.5 5.5z" />
    <glyph glyph-name="uni2076" unicode="&#x2076;" horiz-adv-x="401" 
d="M302 625l-26 -4q-32 -8 -62 -24t-42 -41q19 8 59 8q58 0 92 -32t34 -81q0 -54 -43 -89t-113 -35q-30 0 -56.5 7.5t-47 21t-36.5 40t-16 66.5q0 26 9.5 58t32.5 64t63 59.5t96 39.5q28 7 42 7q9 0 16 -18t7 -31t-9 -16zM266 450q0 25 -16.5 38t-43.5 13q-17 0 -35.5 -6.5
t-27 -19.5t-8.5 -27q0 -24 17.5 -39.5t47.5 -15.5t48 16t18 41z" />
    <glyph glyph-name="uni2077" unicode="&#x2077;" horiz-adv-x="356" 
d="M321 662q0 -19 -10 -37l-156 -282q-2 -4 -9 -9t-38 -5q-48 0 -48 17q0 5 12 24l148 241h-168q-4 0 -8 11.5t-4 25.5q0 9 3 21.5t9 12.5h236q33 0 33 -20z" />
    <glyph glyph-name="uni2078" unicode="&#x2078;" horiz-adv-x="399" 
d="M200 326q-71 0 -113.5 32.5t-42.5 83.5q0 29 20 54.5t59 38.5q-27 10 -40.5 28t-13.5 38q0 39 36 62t95 23t94.5 -22.5t35.5 -62.5q0 -18 -13.5 -37.5t-40.5 -28.5q39 -11 59 -37t20 -56q0 -51 -42 -83.5t-113 -32.5zM200 497q-31 0 -48 -13t-17 -40q0 -26 18 -40.5
t47 -14.5t47 14.5t18 40.5t-17.5 39.5t-47.5 13.5zM155 602q0 -15 13 -23.5t32 -8.5t32 8.5t13 23.5q0 14 -12.5 22.5t-32.5 8.5t-32.5 -8.5t-12.5 -22.5z" />
    <glyph glyph-name="uni2079" unicode="&#x2079;" horiz-adv-x="401" 
d="M95 391l26 4q32 8 62 24t42 41q-19 -8 -59 -8q-58 0 -92 32t-34 81q0 54 43 89t113 35q30 0 56.5 -7.5t47 -21t36.5 -40t16 -66.5q0 -26 -9.5 -58t-32.5 -64t-63 -59.5t-96 -39.5q-28 -7 -42 -7q-9 0 -16 18t-7 31t9 16zM131 566q0 -25 16.5 -38t43.5 -13q17 0 35.5 6.5
t27 19.5t8.5 27q0 24 -17.5 39.5t-47.5 15.5t-48 -16t-18 -41z" />
    <glyph glyph-name="uni2080" unicode="&#x2080;" horiz-adv-x="450" 
d="M225 -6q-94 0 -135 51.5t-41 158.5q0 106 41 158t135 52t135 -52t41 -158q0 -107 -41 -158.5t-135 -51.5zM225 66q40 0 60 26.5t20 111.5q0 77 -17.5 108t-62.5 31q-39 0 -59.5 -27t-20.5 -112q0 -84 20 -111t60 -27z" />
    <glyph glyph-name="uni2081" unicode="&#x2081;" horiz-adv-x="345" 
d="M57 67l76 1v255l-78 -23q-3 0 -6.5 7t-3.5 23q0 24 16 35q37 21 87 38q44 11 51 11q13 0 20.5 -5t7.5 -21v-321h74q4 0 8 -9.5t4 -24.5q0 -8 -3 -20.5t-9 -12.5h-244q-4 0 -8 12.5t-4 20.5q0 10 3.5 22t8.5 12z" />
    <glyph glyph-name="uni2082" unicode="&#x2082;" horiz-adv-x="412" 
d="M203 414q76 0 118 -32.5t42 -85.5q0 -50 -51 -106t-146 -119h194q4 0 8 -11t4 -27q0 -8 -3.5 -20.5t-8.5 -12.5h-284q-14 0 -23.5 5t-9.5 22v16q0 3 4 11.5t16 15.5q106 77 155 130t49 94q0 24 -19.5 38.5t-46.5 14.5q-15 0 -33.5 -5t-39.5 -15.5t-23 -10.5
q-14 0 -27.5 20.5t-13.5 30.5q0 8 14 16q21 13 53 22t72 9z" />
    <glyph glyph-name="uni2083" unicode="&#x2083;" horiz-adv-x="407" 
d="M181 66q41 0 60.5 18.5t19.5 45.5q0 25 -15.5 39.5t-41.5 21.5t-60 7q-10 0 -10 32q0 28 9 28q24 0 49 8t36 21.5t11 26.5q0 18 -15 27.5t-41 9.5q-15 0 -31.5 -4.5t-34 -14t-19.5 -9.5q-15 0 -28.5 17.5t-13.5 26.5q0 13 45 30.5t93 17.5q25 0 57.5 -7.5t56.5 -30.5
t24 -61q0 -30 -17 -50t-40 -29v-5q35 -9 58 -35.5t23 -66.5q0 -61 -49 -99t-125 -38q-26 0 -57.5 6.5t-56 21t-24.5 24.5q0 7 5.5 23.5t13.5 25.5t16 9q1 0 3 -0.5t24 -14t41 -18t34 -4.5z" />
    <glyph glyph-name="uni2084" unicode="&#x2084;" horiz-adv-x="443" 
d="M245 170v146q0 3 -3 4q-4 -1 -7 -5l-93 -145h103zM338 104v-92q0 -15 -47 -15q-48 0 -48 15v92h-181q-13 0 -18 4.5t-5 17.5q0 10 17 40l150 225q7 11 21.5 15.5t44.5 4.5q66 0 66 -21v-219h62q5 0 9 -12t4 -22q0 -8 -3.5 -20.5t-9.5 -12.5h-62z" />
    <glyph glyph-name="uni2085" unicode="&#x2085;" horiz-adv-x="418" 
d="M132 409h214q5 0 8 -11t3 -21q0 -9 -3 -22.5t-8 -13.5h-176l-13 -71q27 5 49 5q79 0 120.5 -37.5t41.5 -98.5q0 -36 -18 -70t-63.5 -55t-104.5 -21q-26 0 -57 7t-55 21.5t-24 23.5q0 8 6 24t14 24.5t15 8.5q1 0 3 -0.5t23.5 -14t42 -18t36.5 -4.5q27 0 48.5 10.5t30 27.5
t8.5 33q0 30 -17 46t-37.5 19t-29.5 3q-25 0 -59 -8l-14 -4q-9 0 -30.5 14.5t-21.5 20.5l26 158q3 24 42 24z" />
    <glyph glyph-name="uni2086" unicode="&#x2086;" horiz-adv-x="440" 
d="M333 348l-25 -7q-52 -10 -85.5 -36t-40.5 -55q27 16 65 16q66 0 105.5 -35t39.5 -92q0 -22 -8 -46.5t-28 -46.5t-53.5 -37.5t-81.5 -15.5q-77 0 -124.5 42t-47.5 116q0 88 61 162t161 97q37 8 48 8q9 0 16 -20.5t7 -31.5q0 -15 -9 -18zM298 138q0 30 -19.5 47t-51.5 17
q-21 0 -42 -8t-31.5 -24t-10.5 -36q0 -30 20.5 -50t56.5 -20t57 21.5t21 52.5z" />
    <glyph glyph-name="uni2087" unicode="&#x2087;" horiz-adv-x="393" 
d="M350 388q0 -27 -7 -41q-13 -27 -86 -162.5t-91 -171.5q-2 -4 -9 -10t-39 -6q-49 0 -49 18q0 8 11 27l169 296h-192q-4 0 -8 12t-4 26q0 10 3.5 21.5t8.5 11.5h262q15 0 23 -4t8 -17z" />
    <glyph glyph-name="uni2088" unicode="&#x2088;" horiz-adv-x="439" 
d="M220 -7q-79 0 -125.5 38t-46.5 97q0 36 19.5 66t63.5 44q-55 22 -55 78q0 44 39 71t105 27q65 0 104 -26.5t39 -71.5q0 -31 -16.5 -50.5t-39.5 -27.5q22 -6 42.5 -20.5t31.5 -39t11 -50.5q0 -59 -46.5 -97t-125.5 -38zM219 197q-36 0 -56.5 -16.5t-20.5 -50.5
q0 -32 21.5 -50.5t56.5 -18.5t56.5 18t21.5 51q0 34 -21 50.5t-58 16.5zM166 317q0 -20 15.5 -30.5t39.5 -10.5q23 0 38 10.5t15 30.5q0 19 -15 29.5t-39 10.5t-39 -10.5t-15 -29.5z" />
    <glyph glyph-name="uni2089" unicode="&#x2089;" horiz-adv-x="440" 
d="M102 58l25 7q52 10 85.5 36t40.5 55q-27 -16 -65 -16q-66 0 -105.5 35t-39.5 92q0 22 8 46.5t28 46.5t53.5 37.5t81.5 15.5q77 0 124.5 -42t47.5 -116q0 -88 -61 -162t-161 -97q-37 -8 -48 -8q-9 0 -16 20.5t-7 31.5q0 15 9 18zM137 268q0 -30 19.5 -47t51.5 -17
q21 0 42 8t31.5 24t10.5 36q0 30 -20.5 50t-56.5 20t-57 -21.5t-21 -52.5z" />
    <glyph glyph-name="Euro" unicode="&#x20ac;" 
d="M51 295h59l-1 48v6h-57q-8 0 -11.5 9t-3.5 21q0 27 15 27h59q12 144 81.5 217t191.5 73q42 0 87 -9.5t77.5 -30t32.5 -36.5q0 -5 -8 -22t-24 -36t-28 -19q-1 0 -2 0.5t-22.5 13t-50 19.5t-56.5 7q-69 0 -104 -45t-44 -132h222q14 0 14 -27q0 -30 -14 -30h-224v-5
q0 -34 2 -49h221q15 0 15 -28q0 -12 -3.5 -20.5t-11.5 -8.5h-212q4 -18 13.5 -42.5t26.5 -44.5t43 -34t60 -14q26 0 57.5 9t65 27.5t36.5 18.5q8 0 17.5 -12t16 -34t8.5 -35q0 -12 -25 -31t-81.5 -37t-104.5 -18q-229 0 -268 247h-65q-8 0 -11.5 8.5t-3.5 20.5q0 28 15 28z
" />
    <glyph glyph-name="trademark" unicode="&#x2122;" horiz-adv-x="797" 
d="M30 690h296q4 0 7 -11t3 -19q0 -7 -3 -19t-7 -12h-103q-3 0 -5 -4v-286q0 -13 -39 -13q-41 0 -41 13v285q-2 5 -5 5h-103q-4 0 -6.5 11.5t-2.5 19.5t2.5 19t6.5 11zM452 572v-233q0 -13 -39 -13t-39 13v332q0 9 4.5 14t24.5 5h41q13 0 21.5 -2t14.5 -13l77 -135
q2 -3 7 -4q6 0 8 4l80 136q8 14 34 14h40q14 0 21 -3t7 -16v-332q0 -13 -39 -13t-39 13v233l-4 3l-5 -4l-67 -113q-4 -10 -36 -10q-30 0 -35 10l-68 113q-1 3 -5 4q-4 0 -4 -3z" />
    <glyph glyph-name="glyph9" horiz-adv-x="922" 
 />
    <glyph glyph-name="glyph100" horiz-adv-x="0" 
 />
    <glyph glyph-name="zero.oldstyle" horiz-adv-x="658" 
d="M330 -8q-61 0 -115 17.5t-94 51.5t-62.5 86t-22.5 118t22.5 118t62.5 86t94 51t115 17t107.5 -14.5t79 -37t56 -54t36.5 -74t13 -92.5q0 -32 -7.5 -70t-27.5 -73.5t-55 -65t-88 -47t-114 -17.5zM330 101q75 0 114 44.5t39 121.5q0 44 -16 83t-52.5 59.5t-84.5 20.5
q-77 0 -115.5 -43t-38.5 -120q0 -54 19 -90.5t53 -56t82 -19.5z" />
    <glyph glyph-name="one.oldstyle" horiz-adv-x="480" 
d="M65 109h123v280q-10 -4 -67 -26t-60 -22q-5 0 -9.5 18t-4.5 41q0 18 6.5 31.5t16.5 20.5q39 26 112 57.5t102 31.5q19 0 29.5 -8t10.5 -37v-387h106q6 0 12 -14.5t6 -36.5q0 -13 -5 -35.5t-13 -22.5h-365q-6 0 -12 18t-6 40q0 14 5 32.5t13 18.5z" />
    <glyph glyph-name="two.oldstyle" horiz-adv-x="591" 
d="M396 359q0 16 -10.5 33t-37.5 27.5t-62 10.5q-26 0 -57.5 -7t-65.5 -21.5t-35 -14.5q-11 0 -23.5 12t-22 34.5t-9.5 32.5q0 11 10 18q27 23 84 38.5t116 15.5q119 0 185 -48t66 -127q0 -50 -20 -87t-71 -74.5t-169 -95.5h269q6 0 12 -15.5t6 -39.5q0 -13 -4.5 -32
t-13.5 -19h-464q-20 0 -34.5 7.5t-14.5 33.5v33q0 30 42 48q161 81 218 116t81.5 64.5t24.5 56.5z" />
    <glyph glyph-name="three.oldstyle" horiz-adv-x="559" 
d="M252 -61q36 0 68 13.5t50 45t18 61.5q0 118 -191 118q-6 0 -10.5 13.5t-4.5 36.5q0 59 15 59q40 0 75.5 9.5t56.5 29t21 49.5q0 26 -25.5 41t-67.5 15q-24 0 -52.5 -7.5t-59 -23t-33.5 -15.5q-10 0 -22.5 11.5t-22.5 33.5t-10 31q0 13 28.5 30.5t80 32.5t107.5 15
q64 0 112 -19.5t75 -55t27 -87.5q0 -27 -12 -56t-35.5 -49t-48.5 -30v-9q68 -19 101.5 -67t33.5 -107q0 -49 -20 -91.5t-57 -72.5t-87.5 -46.5t-108.5 -16.5q-37 0 -87 11t-90 33.5t-40 39.5q0 10 10.5 34t23.5 36.5t24 12.5q1 0 4.5 -1t26 -16t41.5 -23.5t40.5 -13.5
t45.5 -5z" />
    <glyph glyph-name="four.oldstyle" horiz-adv-x="619" 
d="M356 113v265q0 5 -6 5t-9 -6l-165 -264h180zM490 4v-169q0 -7 -10.5 -14.5t-58.5 -7.5q-68 0 -68 22v169h-294q-16 0 -26.5 5t-10.5 30q0 19 44 87l242 383q9 15 26.5 21t61.5 6q94 0 94 -33v-389h105q8 0 13 -22.5t5 -37.5q0 -13 -5 -31.5t-13 -18.5h-105z" />
    <glyph glyph-name="five.oldstyle" horiz-adv-x="577" 
d="M165 527h337q6 0 12 -13t6 -34q0 -14 -5 -38t-13 -24h-283l-22 -131q50 11 85 11q61 0 109.5 -16.5t81 -47t48.5 -72.5t16 -91q0 -59 -22.5 -105t-62.5 -76t-92.5 -45t-112.5 -15q-40 0 -90.5 11t-88.5 34t-38 39q0 6 6.5 24.5t21 38.5t30.5 20q1 0 5 -1t21.5 -12.5
t36.5 -22t47.5 -17t54.5 -6.5q29 0 64 11.5t58.5 42.5t23.5 75q0 24 -9.5 52.5t-42 49t-90.5 20.5q-50 0 -95 -14q-5 -1 -13 -4t-11 -3q-13 0 -45 23t-32 32l42 269q3 16 15.5 25.5t46.5 9.5z" />
    <glyph glyph-name="six.oldstyle" horiz-adv-x="601" 
d="M475 595l-43 -9q-78 -16 -128.5 -55t-78.5 -107q36 20 115 20q105 0 166.5 -58.5t61.5 -153.5q0 -50 -18.5 -94t-53.5 -77t-85 -51.5t-110 -18.5q-58 0 -108 17t-86 50t-55.5 82t-19.5 111q0 71 24 142t69 131t111 103t145 62q53 12 74 12q6 0 13.5 -10.5t13.5 -32.5
t6 -34q0 -27 -13 -29zM432 230q0 55 -32.5 83.5t-87.5 28.5q-36 0 -72.5 -14t-53 -41.5t-16.5 -60.5q0 -25 11 -55.5t41.5 -52t77.5 -21.5q31 0 61.5 12.5t50.5 45.5t20 75z" />
    <glyph glyph-name="seven.oldstyle" horiz-adv-x="520" 
d="M513 495q0 -21 -6 -39t-9 -24q-180 -369 -284 -573q-6 -13 -17.5 -19t-52.5 -6q-36 0 -54 6.5t-18 21.5q0 11 19 42l272 510h-314q-8 0 -13 24t-5 38t5 32.5t13 18.5h415q49 0 49 -32z" />
    <glyph glyph-name="eight.oldstyle" horiz-adv-x="607" 
d="M304 -9q-45 0 -92.5 11t-91.5 42t-65 77.5t-21 93.5q0 42 15.5 80t47 65.5t78.5 41.5q-95 44 -95 134q0 73 60 117t163 44t163.5 -43.5t60.5 -117.5q0 -28 -12.5 -57.5t-36 -49t-47.5 -28.5q46 -11 78 -38.5t48 -66.5t16 -81q0 -47 -18 -88.5t-53 -71.5t-85.5 -47
t-112.5 -17zM303 341q-62 0 -97 -30.5t-35 -92.5q0 -61 38 -93t95 -32q58 0 95 32t37 93t-35.5 92t-97.5 31zM212 537q0 -28 16 -47t37.5 -25.5t39.5 -6.5q38 0 61 18t27 36t4 25q0 25 -15 42.5t-37 24t-42 6.5q-41 0 -66 -19.5t-25 -53.5z" />
    <glyph glyph-name="nine.oldstyle" horiz-adv-x="602" 
d="M126 -68l43 9q77 16 128 55.5t79 107.5q-38 -21 -115 -21q-105 0 -166.5 58.5t-61.5 153.5q0 50 18.5 94t53.5 77t85 51.5t110 18.5q58 0 108 -17t86 -50t55.5 -82t19.5 -111q0 -71 -24 -142t-69 -131t-111 -103t-145 -62q-53 -12 -74 -12q-6 0 -13.5 10.5t-13.5 32.5
t-6 34q0 27 13 29zM169 297q0 -55 32.5 -83.5t87.5 -28.5q36 0 72.5 14t53 41.5t16.5 60.5q0 25 -11 55.5t-41.5 52t-77.5 21.5q-31 0 -61.5 -12.5t-50.5 -45.5t-20 -75z" />
    <glyph glyph-name="i.ss01" horiz-adv-x="296" 
d="M76 655q0 35 18 48.5t61 13.5q41 0 59.5 -14t18.5 -48q0 -35 -18 -47t-60 -12q-43 0 -61 12t-18 47zM95 404h-58q-6 0 -11 15t-5 39q0 14 4 32.5t12 18.5h163q13 0 22 -6.5t9 -17.5v-469q0 -21 -67 -21q-69 0 -69 21v388z" />
    <glyph glyph-name="j.ss01" horiz-adv-x="325" 
d="M60 509h163q13 0 22 -6.5t9 -17.5v-491q0 -37 -10 -71t-36 -58.5t-72.5 -38t-124.5 -13.5q-10 0 -17 24t-7 63q0 13 4 21.5t17 9.5q37 3 61.5 11t37 27t12.5 69v366h-59q-6 0 -11 15.5t-5 38.5q0 14 4 32.5t12 18.5zM98 656q0 35 18 48.5t61 13.5q41 0 59.5 -14t18.5 -48
q0 -35 -18 -47t-60 -12q-43 0 -61 12t-18 47z" />
    <glyph glyph-name="l.ss01" horiz-adv-x="362" 
d="M71 131v542q0 20 68 20t68 -20v-503q0 -27 12.5 -43.5t39.5 -16.5q14 0 28.5 1.5t29 4t15.5 2.5q6 0 11.5 -17.5t5.5 -50.5q0 -18 -2 -25q-6 -16 -47 -24.5t-85 -8.5q-76 0 -110 32.5t-34 106.5z" />
    <glyph glyph-name="glyph294" horiz-adv-x="296" 
d="M95 404h-58q-6 0 -11 15t-5 39q0 14 4 32.5t12 18.5h163q13 0 22 -6.5t9 -17.5v-469q0 -21 -67 -21q-69 0 -69 21v388z" />
    <glyph glyph-name="iacute.ss01" horiz-adv-x="296" 
d="M276 663q-93 -58 -100.5 -62.5t-17.5 -9.5q-30 -14 -37 -14q-12 0 -29 14.5t-17 30.5q0 7 31 34q44 41 107 88q20 13 27 15t11 2q6 0 18 -9t24.5 -27.5t12.5 -29.5q0 -3 -3 -10.5t-27 -21.5zM95 404h-58q-6 0 -11 15t-5 39q0 14 4 32.5t12 18.5h163q13 0 22 -6.5t9 -17.5
v-469q0 -21 -67 -21q-69 0 -69 21v388z" />
    <glyph glyph-name="igrave.ss01" horiz-adv-x="296" 
d="M21 663q-6 4 -18 12.5t-12 19.5q0 15 21 40.5t35 25.5q13 0 37 -17q59 -44 108 -88q31 -27 31 -34q0 -16 -17 -30.5t-30 -14.5q-8 0 -36 14q-22 12 -68 40.5t-51 31.5zM95 404h-58q-6 0 -11 15t-5 39q0 14 4 32.5t12 18.5h163q13 0 22 -6.5t9 -17.5v-469q0 -21 -67 -21
q-69 0 -69 21v388z" />
    <glyph glyph-name="icircumflex.ss01" horiz-adv-x="296" 
d="M139 734q14 0 33 -4.5t45 -26.5q54 -51 70.5 -68.5t16.5 -22.5q0 -15 -24 -27.5t-39 -12.5q-7 0 -15 3t-29 25l-58 59l-58 -60q-23 -27 -43 -27q-19 0 -41.5 13.5t-22.5 26.5q0 7 35 42t64 60q8 8 25 14t41 6zM95 404h-58q-6 0 -11 15t-5 39q0 14 4 32.5t12 18.5h163
q13 0 22 -6.5t9 -17.5v-469q0 -21 -67 -21q-69 0 -69 21v388z" />
    <glyph glyph-name="idieresis.ss01" horiz-adv-x="296" 
d="M-35 642q0 29 12.5 39t47.5 10q34 0 47.5 -10.5t13.5 -38.5q0 -29 -13 -39t-48 -10t-47.5 10t-12.5 39zM191 642q0 29 13 39t49 10q34 0 47 -10.5t13 -38.5q0 -29 -13 -39t-47 -10q-27 0 -44.5 7t-17.5 42zM95 404h-58q-6 0 -11 15t-5 39q0 14 4 32.5t12 18.5h163
q13 0 22 -6.5t9 -17.5v-469q0 -21 -67 -21q-69 0 -69 21v388z" />
    <glyph glyph-name="iogonek.ss01" horiz-adv-x="296" 
d="M95 404h-58q-6 0 -11 15t-5 39q0 14 4 32.5t12 18.5h163q13 0 22 -6.5t9 -17.5v-469q0 -21 -67 -21h-2q-16 -33 -16 -61q0 -39 60 -39q13 0 31.5 4.5t20.5 4.5q9 0 9 -26q0 -30 -5 -41q-3 -6 -30.5 -14.5t-59.5 -8.5q-71 0 -107.5 22.5t-36.5 73.5q0 27 19 56t48 51v387z
M74 655q0 35 18 48.5t61 13.5q41 0 59.5 -14t18.5 -48q0 -35 -18 -47t-60 -12q-43 0 -61 12t-18 47z" />
    <glyph glyph-name="imacron.ss01" horiz-adv-x="296" 
d="M95 404h-58q-6 0 -11 15t-5 39q0 14 4 32.5t12 18.5h163q13 0 22 -6.5t9 -17.5v-469q0 -21 -67 -21q-69 0 -69 21v388zM-24 675h320q6 0 12 -9.5t6 -28.5q0 -12 -5 -26.5t-13 -14.5h-320q-8 0 -13 14.5t-5 26.5q0 13 5 25.5t13 12.5z" />
    <glyph glyph-name="lcommaaccent.ss01" horiz-adv-x="359" 
d="M68 131v542q0 20 68 20t68 -20v-503q0 -27 12.5 -43.5t39.5 -16.5q14 0 28.5 1.5t29 4t15.5 2.5q6 0 11.5 -17.5t5.5 -50.5q0 -18 -2 -25q-6 -16 -47 -24.5t-85 -8.5q-76 0 -110 32.5t-34 106.5zM93 -278q0 27 31 201q10 47 38 47q21 0 54 -9q24 -8 36 -16.5t12 -24.5
t-11 -40q0 -1 -1 -3.5t-19.5 -52.5t-34 -87.5t-20.5 -40.5l-11 -2q-17 0 -45.5 8.5t-28.5 19.5z" />
    <glyph glyph-name="lcaron.ss01" horiz-adv-x="431" 
d="M68 131v542q0 20 68 20t68 -20v-503q0 -27 12.5 -43.5t39.5 -16.5q14 0 28.5 1.5t29 4t15.5 2.5q6 0 11.5 -17.5t5.5 -50.5q0 -18 -2 -25q-6 -16 -47 -24.5t-85 -8.5q-76 0 -110 32.5t-34 106.5zM269 449q0 15 9 73.5t22 127.5q10 47 38 47q5 0 21.5 -2t32.5 -8
q23 -7 35.5 -15.5t12.5 -24.5q0 -18 -11 -40q0 -1 -1 -3.5t-22 -59.5t-34.5 -88t-17.5 -33q-6 -3 -11 -3q-11 0 -32 5t-31.5 11.5t-10.5 12.5z" />
    <glyph glyph-name="lacute.ss01" horiz-adv-x="359" 
d="M68 131v542q0 20 68 20t68 -20v-503q0 -27 12.5 -43.5t39.5 -16.5q14 0 28.5 1.5t29 4t15.5 2.5q6 0 11.5 -17.5t5.5 -50.5q0 -18 -2 -25q-6 -16 -47 -24.5t-85 -8.5q-76 0 -110 32.5t-34 106.5zM292 839q-93 -58 -100.5 -62.5t-17.5 -9.5q-30 -14 -37 -14
q-12 0 -29 14.5t-17 30.5q0 7 31 34q44 41 107 88q20 13 27 15t11 2q6 0 18 -9t24.5 -27.5t12.5 -29.5q0 -3 -3 -10.5t-27 -21.5z" />
    <glyph glyph-name="f_l.ss01.ss01" horiz-adv-x="779" 
d="M624 676v-505q0 -28 13 -44.5t40 -16.5q10 0 23.5 1.5t30.5 4t18 2.5q4 0 8 -8t7 -25.5t3 -34.5q0 -16 -3 -25q-3 -8 -20 -16t-49.5 -12.5t-61.5 -4.5q-76 0 -110 32.5t-34 106.5v447q-48 12 -135 12q-54 0 -81 -12.5t-30 -54.5l116 -12q22 -2 22 -37q0 -45 -18 -47
l-123 -14v-396q0 -10 -14.5 -15t-51.5 -5q-68 0 -68 20v396l-61 13q-6 1 -10.5 13t-4.5 27q0 38 19 42l57 14q0 175 247 175q96 0 179 -5.5t92 -15.5z" />
    <glyph glyph-name="perthousand.pnum" 
d="M463 680q0 -8 -7 -22.5t-9 -18.5l-293 -619q-6 -11 -16 -17.5t-37 -6.5q-30 0 -41.5 5t-11.5 20q0 6 4 13l306 641q5 11 14.5 16.5t44.5 5.5q46 0 46 -17zM487 180q46 0 74 -24.5t28 -68.5q0 -45 -28 -70.5t-74 -25.5q-21 0 -40.5 8.5t-32.5 22.5q-12 -14 -31 -22.5
t-40 -8.5q-46 0 -73.5 25.5t-27.5 70.5q0 44 27.5 68.5t73.5 24.5q17 0 36.5 -6t34.5 -24q13 14 31.5 22t41.5 8zM160 697q34 0 59.5 -13.5t35 -36t9.5 -43.5q0 -44 -28.5 -69.5t-75.5 -25.5q-45 0 -73.5 25.5t-28.5 69.5q0 21 9.5 43.5t34.5 36t58 13.5zM161 551
q19 0 29.5 14.5t10.5 39.5q0 52 -40 52q-39 0 -39 -52q0 -54 39 -54zM341 33q19 0 29 14.5t10 39.5q0 53 -39 53q-40 0 -40 -53q0 -25 10 -39.5t30 -14.5zM491 33q19 0 29 14.5t10 39.5q0 53 -39 53q-40 0 -40 -53q0 -54 40 -54z" />
    <glyph glyph-name="percent.pnum" 
d="M162 697q59 0 94 -30.5t35 -86.5q0 -57 -35 -88.5t-94 -31.5q-57 0 -92.5 32t-35.5 88t35 86.5t93 30.5zM163 517q50 0 50 64q0 60 -50 60q-49 0 -49 -60q0 -64 49 -64zM539 676q0 -8 -9 -26.5t-11 -23.5l-307 -608q-5 -11 -13 -16.5t-44 -5.5q-32 0 -45.5 5t-13.5 20
q0 6 10 26l317 629q5 11 14.5 16.5t43.5 5.5q58 0 58 -22zM461 228q58 0 94 -30.5t36 -86.5t-36 -88t-94 -32q-57 0 -92.5 32t-35.5 88t35 86.5t93 30.5zM462 48q50 0 50 64q0 61 -50 61t-50 -61q0 -64 50 -64z" />
    <glyph glyph-name="zero.pnum" 
d="M314 -9q-75 0 -128 22.5t-85.5 66.5t-47.5 110t-15 154t15 154t47.5 110t85.5 66.5t128 22.5q55 0 106.5 -15t88.5 -53.5t58 -106t21 -178.5q0 -88 -14.5 -154t-47 -110t-85.5 -66.5t-127 -22.5zM314 101q45 0 76 22t44.5 70t13.5 152q0 88 -10 137t-39.5 78.5
t-84.5 29.5q-45 0 -76 -22t-45 -71t-14 -152q0 -104 13 -152t44.5 -70t77.5 -22z" />
    <glyph glyph-name="one.pnum" 
d="M139 109l149 1v448q-2 -1 -10 -3.5t-73.5 -25t-69.5 -22.5q-6 0 -10.5 14t-4.5 34q0 10 4.5 26t19.5 27q19 13 74.5 37t93.5 36q17 6 39.5 11t33.5 5q18 0 28.5 -7.5t10.5 -32.5v-548h137q9 0 14 -20t5 -35q0 -13 -5 -33.5t-14 -20.5h-422q-6 0 -12 16.5t-6 37.5
q0 15 5 35t13 20z" />
    <glyph glyph-name="two.pnum" 
d="M306 696q59 0 106 -14t78.5 -39.5t47.5 -60t16 -74.5q0 -187 -304 -399h302q6 0 12 -17.5t6 -41.5q0 -13 -5 -31.5t-13 -18.5h-450q-21 0 -34.5 7t-13.5 34v24q0 21 28 43q174 136 254 230t80 168q0 30 -19.5 51.5t-46.5 29t-48 7.5q-25 0 -55 -8.5t-63 -25.5t-36 -17
q-10 0 -23.5 11.5t-25 34t-11.5 30.5q0 13 21 26q76 51 197 51z" />
    <glyph glyph-name="three.pnum" 
d="M282 99q36 0 68 13.5t50 45t18 61.5q0 118 -191 118q-6 0 -10.5 13.5t-4.5 36.5q0 59 15 59q40 0 75.5 9.5t56.5 29t21 49.5q0 26 -25.5 41t-67.5 15q-24 0 -52.5 -7.5t-59 -23t-33.5 -15.5q-10 0 -22.5 11.5t-22.5 33.5t-10 31q0 13 28.5 30.5t80 32.5t107.5 15
q64 0 112 -19.5t75 -55t27 -87.5q0 -27 -12 -56t-35.5 -49t-48.5 -30v-9q68 -19 101.5 -67t33.5 -107q0 -49 -20 -91.5t-57 -72.5t-87.5 -46.5t-108.5 -16.5q-37 0 -87 11t-90 33.5t-40 39.5q0 10 10.5 34t23.5 36.5t24 12.5q1 0 4.5 -1t26 -16t41.5 -23.5t40.5 -13.5
t45.5 -5z" />
    <glyph glyph-name="four.pnum" 
d="M357 288v243q0 7 -6 7q-4 0 -9 -7l-160 -243h175zM491 179v-162q0 -7 -10 -14.5t-57 -7.5q-70 0 -70 22v162h-292q-16 0 -26 5t-10 30q0 18 28 63l244 383q12 18 33 25.5t65 7.5q95 0 95 -32v-372h102q6 0 12 -17.5t6 -41.5q0 -13 -5 -32t-13 -19h-102z" />
    <glyph glyph-name="five.pnum" 
d="M187 688h337q6 0 12 -13t6 -34q0 -14 -5 -38t-13 -24h-283l-22 -131q50 11 85 11q61 0 109.5 -16.5t81 -47t48.5 -72.5t16 -91q0 -59 -22.5 -105t-62.5 -76t-92.5 -45t-112.5 -15q-40 0 -90.5 11t-88.5 34t-38 39q0 6 6.5 24.5t21 38.5t30.5 20q1 0 5 -1t21.5 -12.5
t36.5 -22t47.5 -17t54.5 -6.5q29 0 64 11.5t58.5 42.5t23.5 75q0 24 -9.5 52.5t-42 49t-90.5 20.5q-50 0 -95 -14q-5 -1 -13 -4t-11 -3q-13 0 -45 23t-32 32l42 269q3 16 15.5 25.5t46.5 9.5z" />
    <glyph glyph-name="six.pnum" 
d="M491 595l-43 -9q-78 -16 -128.5 -55t-78.5 -107q36 20 115 20q105 0 166.5 -58.5t61.5 -153.5q0 -50 -18.5 -94t-53.5 -77t-85 -51.5t-110 -18.5q-58 0 -108 17t-86 50t-55.5 82t-19.5 111q0 71 24 142t69 131t111 103t145 62q53 12 74 12q6 0 13.5 -10.5t13.5 -32.5
t6 -34q0 -27 -13 -29zM448 230q0 55 -32.5 83.5t-87.5 28.5q-36 0 -72.5 -14t-53 -41.5t-16.5 -60.5q0 -25 11 -55.5t41.5 -52t77.5 -21.5q31 0 61.5 12.5t50.5 45.5t20 75z" />
    <glyph glyph-name="nine.pnum" 
d="M118 92l43 9q77 16 128 55.5t79 107.5q-38 -21 -115 -21q-105 0 -166.5 58.5t-61.5 153.5q0 50 18.5 94t53.5 77t85 51.5t110 18.5q58 0 108 -17t86 -50t55.5 -82t19.5 -111q0 -71 -24 -142t-69 -131t-111 -103t-145 -62q-53 -12 -74 -12q-6 0 -13.5 10.5t-13.5 32.5
t-6 34q0 27 13 29zM161 457q0 -55 32.5 -83.5t87.5 -28.5q36 0 72.5 14t53 41.5t16.5 60.5q0 25 -11 55.5t-41.5 52t-77.5 21.5q-31 0 -61.5 -12.5t-50.5 -45.5t-20 -75z" />
    <glyph glyph-name="seven.pnum" 
d="M553 656q0 -21 -6 -39t-9 -24q-180 -369 -284 -573q-6 -13 -17.5 -19t-52.5 -6q-36 0 -54 6.5t-18 21.5q0 11 19 42l272 510h-314q-8 0 -13 24t-5 38t5 32.5t13 18.5h415q49 0 49 -32z" />
    <glyph glyph-name="eight.pnum" 
d="M314 -9q-45 0 -92.5 11t-91.5 42t-65 77.5t-21 93.5q0 42 15.5 80t47 65.5t78.5 41.5q-95 44 -95 134q0 73 60 117t163 44t163.5 -43.5t60.5 -117.5q0 -28 -12.5 -57.5t-36 -49t-47.5 -28.5q46 -11 78 -38.5t48 -66.5t16 -81q0 -47 -18 -88.5t-53 -71.5t-85.5 -47
t-112.5 -17zM313 341q-62 0 -97 -30.5t-35 -92.5q0 -61 38 -93t95 -32q58 0 95 32t37 93t-35.5 92t-97.5 31zM222 537q0 -28 16 -47t37.5 -25.5t39.5 -6.5q38 0 61 18t27 36t4 25q0 25 -15 42.5t-37 24t-42 6.5q-41 0 -66 -19.5t-25 -53.5z" />
    <glyph glyph-name="b.sc" horiz-adv-x="601" 
d="M271 0h-154q-32 0 -32 32v521q0 32 33 32h165q121 0 176 -32.5t55 -103.5q0 -25 -12 -50.5t-36 -42.5t-49 -25q31 -6 64.5 -23t54.5 -50.5t21 -75.5q0 -41 -16.5 -74.5t-51.5 -57.5t-90 -37t-128 -13zM282 270l-64 4v-180q0 -7 17 -7h23q83 0 123 23.5t40 72.5
q0 44 -30 63t-109 24zM281 502h-51q-12 0 -12 -5v-139l59 8q54 7 78 23.5t24 51.5q0 61 -98 61z" />
    <glyph glyph-name="a.sc" horiz-adv-x="585" 
d="M560 78v-57q0 -11 -6 -16t-24 -5h-58q-16 0 -25.5 3.5t-15.5 19.5l-54 151h-175l-53 -151q-4 -12 -10 -17.5t-18 -5.5h-77q-7 0 -13.5 4.5t-6.5 15.5v62q0 15 13 48l176 441q4 8 16.5 13t61.5 5q40 0 58.5 -3.5t22.5 -13.5l180 -453q8 -18 8 -41zM357 271l-59 165
q-3 8 -8 8q-2 0 -4.5 -0.5t-4.5 -7.5l-60 -165h136z" />
    <glyph glyph-name="o.sc" horiz-adv-x="697" 
d="M349 -8q-145 0 -221 75.5t-76 225.5q0 149 75.5 224.5t221.5 75.5q145 0 220.5 -75.5t75.5 -224.5q0 -150 -75.5 -225.5t-220.5 -75.5zM349 484q-55 0 -88.5 -19.5t-50 -60t-16.5 -111.5q0 -99 37 -144.5t118 -45.5q77 0 116 43t39 147q0 75 -18.5 115.5t-53.5 58
t-83 17.5z" />
    <glyph glyph-name="c.sc" horiz-adv-x="624" 
d="M351 593q102 0 178 -40q15 -8 25 -17.5t10 -15.5t-9 -24t-27 -38.5t-32 -20.5q-1 0 -3 1t-26.5 14.5t-56 21.5t-60.5 8q-79 0 -117.5 -43t-38.5 -146q0 -62 14 -102t48 -64t94 -24q31 0 66 9.5t68.5 27t38 19.5t7.5 2q14 0 30 -36t16 -50q0 -15 -28 -33.5t-91.5 -34
t-111.5 -15.5q-142 0 -217.5 76t-75.5 226q0 148 75.5 223.5t223.5 75.5z" />
    <glyph glyph-name="h.sc" horiz-adv-x="715" 
d="M630 568v-550q0 -7 -10.5 -14t-57.5 -7q-70 0 -70 21v237l-119 -18l-15 -2l-16 2l-118 18v-237q0 -21 -68 -21q-71 0 -71 21v550q0 21 70 21q38 0 53.5 -5.5t15.5 -15.5v-213l124 18l12 1l10 -1l122 -17v212q0 21 70 21q38 0 53 -5.5t15 -15.5z" />
    <glyph glyph-name="i.sc" horiz-adv-x="309" 
d="M224 568v-550q0 -21 -68 -21q-71 0 -71 21v550q0 21 70 21q38 0 53.5 -5.5t15.5 -15.5z" />
    <glyph glyph-name="m.sc" horiz-adv-x="808" 
d="M218 383v-365q0 -7 -10 -14t-56 -7q-67 0 -67 21v537q0 16 7.5 24t44.5 8h74q24 0 39 -3.5t25 -20.5l118 -193q3 -6 11 -6t12 6l120 194q14 23 61 23h75q29 0 40 -5.5t11 -26.5v-537q0 -7 -10 -14t-55 -7q-68 0 -68 21v365q0 4 -9 4q-8 0 -9 -5l-100 -165q-8 -18 -67 -18
q-60 0 -68 16l-101 168q-2 4 -10 4q-8 -1 -8 -4z" />
    <glyph glyph-name="d.sc" horiz-adv-x="677" 
d="M315 487h-79q-12 0 -12 -6v-371q0 -5 12 -5h75q89 0 130 42t41 151q0 78 -19.5 117t-57 55.5t-90.5 16.5zM313 0h-195q-33 0 -33 32v522q0 10 5.5 20.5t27.5 10.5h198q73 0 131 -17.5t97.5 -53.5t60 -91.5t20.5 -127.5q0 -74 -21.5 -130.5t-62.5 -93t-98.5 -54
t-129.5 -17.5z" />
    <glyph glyph-name="e.sc" horiz-adv-x="575" 
d="M437 259l-207 -16q-6 0 -6 -6v-126q0 -6 12 -6h287q8 0 13 -20t5 -34q0 -5 -2.5 -20t-7 -23t-8.5 -8h-406q-32 0 -32 32v521q0 32 32 32h375q6 0 11.5 -14t5.5 -34q0 -12 -5 -34t-12 -22h-256q-12 0 -12 -6v-107q0 -2 0.5 -5t6.5 -4l206 -15q6 -1 11.5 -12.5t5.5 -30.5
q0 -13 -4.5 -27t-12.5 -15z" />
    <glyph glyph-name="f.sc" horiz-adv-x="531" 
d="M437 251l-207 -14q-6 0 -6 -8v-212q0 -21 -68 -21q-71 0 -71 21v536q0 31 33 31h374q6 0 12 -13.5t6 -33.5q0 -13 -5 -34.5t-13 -21.5h-256q-12 0 -12 -6v-114q0 -2 0.5 -5t6.5 -4l206 -15q8 -1 12.5 -16t4.5 -27q0 -14 -4.5 -28t-12.5 -15z" />
    <glyph glyph-name="l.sc" horiz-adv-x="531" 
d="M225 567v-455q0 -6 12 -6h259q6 0 12 -15t6 -38q0 -12 -5 -32.5t-13 -20.5h-378q-18 0 -25.5 8t-7.5 24v535q0 21 71 21q38 0 53.5 -5.5t15.5 -15.5z" />
    <glyph glyph-name="k.sc" horiz-adv-x="630" 
d="M386 304l196 -174q14 -12 14 -32v-75q0 -23 -29 -23h-50q-29 0 -46 19l-179 207q-21 23 -68 23v-231q0 -22 -69 -22q-70 0 -70 22v550q0 21 70 21q69 0 69 -21v-203q48 2 70 28l149 173q8 10 16 15t27 5h53q29 0 29 -23v-53q0 -19 -5.5 -30.5t-19.5 -23.5l-156 -131
q-7 -5 -7 -11q0 -5 6 -10z" />
    <glyph glyph-name="g.sc" horiz-adv-x="651" 
d="M195 293q0 -74 18.5 -116t53.5 -60.5t83 -18.5q22 0 54.5 7t50.5 19v93h-114q-7 0 -11.5 12t-4.5 34q0 51 16 51h218q12 0 20.5 -6t8.5 -17v-214q0 -22 -48 -45q-91 -41 -190 -41q-146 0 -222 76t-76 227q0 299 305 299q48 0 95 -11t76 -27q14 -8 25 -17t11 -15
q0 -13 -25 -46.5t-44 -33.5q-1 0 -29 13.5t-58 20t-57 6.5q-56 0 -90 -19t-50 -59t-16 -112z" />
    <glyph glyph-name="j.sc" horiz-adv-x="392" 
d="M97 585h180q30 0 30 -33v-431q0 -61 -26 -106.5t-80.5 -70.5t-130.5 -25q-9 0 -14 19.5t-5 33.5q0 26 5 40.5t13 15.5q52 1 74.5 21t22.5 66v368h-69q-8 0 -13 21.5t-5 34.5t5 29.5t13 16.5z" />
    <glyph glyph-name="p.sc" horiz-adv-x="574" 
d="M277 490h-41q-12 0 -12 -6v-206l42 4q72 7 101 32.5t29 76.5q0 99 -119 99zM118 585h155q263 0 263 -189q0 -67 -33 -115.5t-92 -75t-145 -26.5l-42 3v-164q0 -21 -68 -21q-71 0 -71 21v535q0 32 33 32z" />
    <glyph glyph-name="r.sc" horiz-adv-x="617" 
d="M439 15l-134 204l-81 5v-207q0 -21 -68 -21q-71 0 -71 21v536q0 32 33 32h161q138 0 202.5 -40t64.5 -128q0 -53 -28 -94t-90 -62l129 -136q14 -15 14 -33v-68q0 -24 -28 -24h-53q-20 0 -32.5 3t-18.5 12zM289 490h-53q-12 0 -12 -6v-170l57 5q73 6 99 26t26 62
q0 45 -28.5 64t-88.5 19z" />
    <glyph glyph-name="s.sc" horiz-adv-x="579" 
d="M289 593q48 0 99.5 -9.5t88 -29t36.5 -32.5q0 -5 -6 -23t-18.5 -39t-23.5 -21q-1 0 -4.5 1t-39 15.5t-75 23t-69.5 8.5q-31 0 -51 -14t-20 -39q0 -26 27.5 -41t105.5 -36q69 -18 110 -38.5t63.5 -54t22.5 -84.5q0 -57 -29.5 -98.5t-86.5 -66t-141 -24.5q-43 0 -83 7
t-72 17.5t-58.5 26.5t-26.5 30q0 15 20.5 50t36.5 35q5 0 21 -9t24 -13q73 -35 167 -35q37 0 61.5 19t24.5 48q0 23 -23 41.5t-81 31.5q-92 21 -137 43.5t-66 56.5t-21 87q0 78 57 122t167 44z" />
    <glyph glyph-name="q.sc" horiz-adv-x="694" 
d="M347 -8q-145 0 -221 75.5t-76 225.5q0 149 75.5 224.5t221.5 75.5q145 0 220.5 -75.5t75.5 -224.5q0 -91 -29 -156t-84 -100l83 -59q21 -15 21 -36q0 -5 -10.5 -18t-32.5 -26.5t-42 -13.5q-11 0 -52.5 41t-68.5 74q-35 -7 -81 -7zM347 484q-55 0 -88.5 -19.5t-50 -60
t-16.5 -111.5q0 -99 37 -144.5t118 -45.5q77 0 116 43t39 147q0 75 -18.5 115.5t-53.5 58t-83 17.5z" />
    <glyph glyph-name="n.sc" horiz-adv-x="750" 
d="M665 568l1 -536q0 -22 -11 -27t-43 -5h-60q-20 0 -36 3t-28 20l-248 341q-8 11 -14 11q-8 0 -8 -11v-346q0 -22 -66 -22q-67 0 -67 22v536q0 17 7 24.5t43 7.5h72q21 0 35.5 -3.5t27.5 -22.5l240 -338q8 -10 13 -10q3 0 6 3t3 8v345q0 22 67 22q66 0 66 -22z" />
    <glyph glyph-name="t.sc" horiz-adv-x="578" 
d="M42 585h493q8 0 13 -15.5t5 -28.5t-5 -34.5t-13 -21.5h-169q-7 0 -7 -6v-461q0 -10 -15.5 -15.5t-53.5 -5.5q-70 0 -70 21v460q0 3 -3 5t-5 2h-170q-5 0 -11 17.5t-6 38.5q0 13 4.5 28.5t12.5 15.5z" />
    <glyph glyph-name="u.sc" horiz-adv-x="667" 
d="M597 567v-285q0 -153 -62.5 -222t-202.5 -69q-138 0 -200 68.5t-62 221.5v286q0 22 70 22q69 0 69 -22v-262q0 -74 9.5 -115t37 -65t78.5 -24q30 0 58.5 12.5t47 54t18.5 140.5v259q0 22 71 22q38 0 53 -5.5t15 -16.5z" />
    <glyph glyph-name="x.sc" horiz-adv-x="601" 
d="M40 103l167 202l-139 153q-18 17 -18 38v64q0 25 29 25h67q15 0 25.5 -4t21.5 -19l102 -158l6 -4q5 0 7 4l102 158q8 12 18.5 17.5t33.5 5.5h57q29 0 29 -22v-56q0 -22 -17 -42l-132 -159l157 -184q12 -14 12 -30v-68q0 -10 -6.5 -17t-22.5 -7h-69q-15 0 -25 5t-19 19
l-120 185q-3 4 -7 4q-3 0 -6 -3l-120 -186q-16 -24 -42 -24h-75q-9 0 -18 6t-9 19v41q0 26 11 37z" />
    <glyph glyph-name="v.sc" horiz-adv-x="581" 
d="M302 171l127 392q4 13 12.5 18t28.5 5h58q30 0 30 -23v-56q0 -21 -7 -40l-181 -454q-2 -6 -12 -11t-70 -5q-39 0 -56 3t-21 14l-175 442q-13 30 -13 48v56q0 26 30 26h67q11 0 17.5 -5.5t10.5 -17.5l132 -393q2 -8 11 -8q8 0 11 9z" />
    <glyph glyph-name="w.sc" horiz-adv-x="885" 
d="M635 187l103 376q4 12 10 17.5t18 5.5h66q30 0 30 -23v-57q0 -20 -11 -51l-146 -440q-3 -8 -16.5 -13t-60.5 -5q-38 0 -58 3t-23 13l-102 327l-101 -325q-2 -7 -17 -12.5t-63 -5.5q-38 0 -57.5 3.5t-22.5 13.5l-149 440q-12 36 -12 49v57q0 26 30 26h69q23 0 27 -23
l106 -376q3 -9 10 -9q8 0 12 9l110 376q8 23 32 23h61q11 0 18.5 -7t10.5 -16l105 -376q4 -9 10 -9q9 0 11 9z" />
    <glyph glyph-name="y.sc" horiz-adv-x="547" 
d="M341 255v-237q0 -21 -68 -21q-71 0 -71 21v238l-167 216q-13 16 -13 43v46q0 25 30 25h52q14 0 24.5 -4t22.5 -21l114 -172q4 -6 9 -6t9 7l113 172q4 5 13 14.5t34 9.5h53q29 0 29 -22v-50q0 -26 -13 -42z" />
    <glyph glyph-name="z.sc" horiz-adv-x="558" 
d="M497 466l-300 -353q-3 -4 -3 -8q2 -3 6 -3h304q6 0 12 -15.5t6 -37.5q0 -19 -6 -34t-11 -15h-433q-19 0 -31 5t-12 34q0 39 2.5 57t11.5 28l292 349l4 6q0 2 -1.5 3.5t-3.5 1.5h-262q-6 0 -11.5 17t-5.5 39q0 13 4.5 29t12.5 16h419q12 0 17.5 -6.5t5.5 -35.5t-2 -45.5
t-15 -31.5z" />
    <glyph glyph-name="zcaron.sc" horiz-adv-x="558" 
d="M497 466l-300 -353q-3 -4 -3 -8q2 -3 6 -3h304q6 0 12 -15.5t6 -37.5q0 -19 -6 -34t-11 -15h-433q-19 0 -31 5t-12 34q0 39 2.5 57t11.5 28l292 349l4 6q0 2 -1.5 3.5t-3.5 1.5h-262q-6 0 -11.5 17t-5.5 39q0 13 4.5 29t12.5 16h419q12 0 17.5 -6.5t5.5 -35.5t-2 -45.5
t-15 -31.5zM288 628q-44 0 -66 19q-30 27 -64.5 61.5t-34.5 41.5q0 12 25 26t39 14q6 0 14 -3.5t28 -23.5l59 -61l58 61q15 15 23 21t21 6q15 0 39 -12.5t24 -27.5q0 -4 -8.5 -14t-22.5 -24t-33.5 -32t-22.5 -21q-19 -18 -37.5 -24.5t-40.5 -6.5z" />
    <glyph glyph-name="agrave.sc" horiz-adv-x="585" 
d="M560 78v-57q0 -11 -6 -16t-24 -5h-58q-16 0 -25.5 3.5t-15.5 19.5l-54 151h-175l-53 -151q-4 -12 -10 -17.5t-18 -5.5h-77q-7 0 -13.5 4.5t-6.5 15.5v62q0 15 13 48l176 441q4 8 16.5 13t61.5 5q40 0 58.5 -3.5t22.5 -13.5l180 -453q8 -18 8 -41zM357 271l-59 165
q-3 8 -8 8q-2 0 -4.5 -0.5t-4.5 -7.5l-60 -165h136zM171 715q-6 4 -18 12.5t-12 19.5q0 15 21 40.5t35 25.5q13 0 37 -17q59 -44 108 -88q31 -27 31 -34q0 -16 -17 -30.5t-30 -14.5q-8 0 -36 14q-22 12 -68 40.5t-51 31.5z" />
    <glyph glyph-name="aacute.sc" horiz-adv-x="585" 
d="M560 78v-57q0 -11 -6 -16t-24 -5h-58q-16 0 -25.5 3.5t-15.5 19.5l-54 151h-175l-53 -151q-4 -12 -10 -17.5t-18 -5.5h-77q-7 0 -13.5 4.5t-6.5 15.5v62q0 15 13 48l176 441q4 8 16.5 13t61.5 5q40 0 58.5 -3.5t22.5 -13.5l180 -453q8 -18 8 -41zM357 271l-59 165
q-3 8 -8 8q-2 0 -4.5 -0.5t-4.5 -7.5l-60 -165h136zM423 718q-93 -58 -100.5 -62.5t-17.5 -9.5q-30 -14 -37 -14q-12 0 -29 14.5t-17 30.5q0 7 31 34q44 41 107 88q20 13 27 15t11 2q6 0 18 -9t24.5 -27.5t12.5 -29.5q0 -3 -3 -10.5t-27 -21.5z" />
    <glyph glyph-name="acircumflex.sc" horiz-adv-x="585" 
d="M560 78v-57q0 -11 -6 -16t-24 -5h-58q-16 0 -25.5 3.5t-15.5 19.5l-54 151h-175l-53 -151q-4 -12 -10 -17.5t-18 -5.5h-77q-7 0 -13.5 4.5t-6.5 15.5v62q0 15 13 48l176 441q4 8 16.5 13t61.5 5q40 0 58.5 -3.5t22.5 -13.5l180 -453q8 -18 8 -41zM357 271l-59 165
q-3 8 -8 8q-2 0 -4.5 -0.5t-4.5 -7.5l-60 -165h136zM289 787q14 0 33 -4.5t45 -26.5q54 -51 70.5 -68.5t16.5 -22.5q0 -15 -24 -27.5t-39 -12.5q-7 0 -15 3t-29 25l-58 59l-58 -60q-23 -27 -43 -27q-19 0 -41.5 13.5t-22.5 26.5q0 7 35 42t64 60q8 8 25 14t41 6z" />
    <glyph glyph-name="atilde.sc" horiz-adv-x="585" 
d="M560 78v-57q0 -11 -6 -16t-24 -5h-58q-16 0 -25.5 3.5t-15.5 19.5l-54 151h-175l-53 -151q-4 -12 -10 -17.5t-18 -5.5h-77q-7 0 -13.5 4.5t-6.5 15.5v62q0 15 13 48l176 441q4 8 16.5 13t61.5 5q40 0 58.5 -3.5t22.5 -13.5l180 -453q8 -18 8 -41zM357 271l-59 165
q-3 8 -8 8q-2 0 -4.5 -0.5t-4.5 -7.5l-60 -165h136zM222 750q26 0 73.5 -22t66.5 -22q17 0 32.5 7.5t29 23.5t16.5 16q10 0 26.5 -22.5t16.5 -32.5q0 -16 -21.5 -34.5t-48.5 -27t-48 -8.5q-23 0 -66 21.5t-66 21.5q-13 0 -25 -6t-26.5 -19.5t-19.5 -13.5q-14 0 -35 18
q-18 17 -18 34q0 9 12 24t40.5 28.5t60.5 13.5z" />
    <glyph glyph-name="adieresis.sc" horiz-adv-x="585" 
d="M560 78v-57q0 -11 -6 -16t-24 -5h-58q-16 0 -25.5 3.5t-15.5 19.5l-54 151h-175l-53 -151q-4 -12 -10 -17.5t-18 -5.5h-77q-7 0 -13.5 4.5t-6.5 15.5v62q0 15 13 48l176 441q4 8 16.5 13t61.5 5q40 0 58.5 -3.5t22.5 -13.5l180 -453q8 -18 8 -41zM357 271l-59 165
q-3 8 -8 8q-2 0 -4.5 -0.5t-4.5 -7.5l-60 -165h136zM114 690q0 29 12.5 39t47.5 10q34 0 47.5 -10.5t13.5 -38.5q0 -29 -13 -39t-48 -10t-47.5 10t-12.5 39zM340 690q0 29 13 39t49 10q34 0 47 -10.5t13 -38.5q0 -29 -13 -39t-47 -10q-27 0 -44.5 7t-17.5 42z" />
    <glyph glyph-name="aring.sc" horiz-adv-x="585" 
d="M167 652q0 52 35.5 80.5t88.5 28.5t89 -28.5t36 -80.5q0 -57 -41 -87l177 -446q8 -18 8 -41v-57q0 -11 -6 -16t-24 -5h-58q-16 0 -25.5 3.5t-15.5 19.5l-54 151h-175l-53 -151q-4 -12 -10 -17.5t-18 -5.5h-77q-7 0 -13.5 4.5t-6.5 15.5v62q0 15 13 48l173 433
q-43 31 -43 89zM357 271l-59 165q-3 8 -8 8q-2 0 -4.5 -0.5t-4.5 -7.5l-60 -165h136zM229 652q0 -29 17.5 -45.5t44.5 -16.5q28 0 46 16.5t18 45.5q0 28 -18 43.5t-46 15.5q-27 0 -44.5 -15.5t-17.5 -43.5z" />
    <glyph glyph-name="ccedilla.sc" horiz-adv-x="624" 
d="M351 593q102 0 178 -40q15 -8 25 -17.5t10 -15.5t-9 -24t-27 -38.5t-32 -20.5q-1 0 -3 1t-26.5 14.5t-56 21.5t-60.5 8q-79 0 -117.5 -43t-38.5 -146q0 -62 14 -102t48 -64t94 -24q31 0 66 9.5t68.5 27t38 19.5t7.5 2q14 0 30 -36t16 -50q0 -17 -27 -33t-74.5 -30
t-96.5 -18q57 -44 57 -83q0 -49 -41.5 -77t-112.5 -28q-59 0 -66 9t-7 30q0 16 5 30t11 14l37 -3q26 0 45.5 11t19.5 34q0 22 -29 64q-119 11 -182 86.5t-63 212.5q0 148 75.5 223.5t223.5 75.5z" />
    <glyph glyph-name="egrave.sc" horiz-adv-x="575" 
d="M437 259l-207 -16q-6 0 -6 -6v-126q0 -6 12 -6h287q8 0 13 -20t5 -34q0 -5 -2.5 -20t-7 -23t-8.5 -8h-406q-32 0 -32 32v521q0 32 32 32h375q6 0 11.5 -14t5.5 -34q0 -12 -5 -34t-12 -22h-256q-12 0 -12 -6v-107q0 -2 0.5 -5t6.5 -4l206 -15q6 -1 11.5 -12.5t5.5 -30.5
q0 -13 -4.5 -27t-12.5 -15zM189 715q-6 4 -18 12.5t-12 19.5q0 15 21 40.5t35 25.5q13 0 37 -17q59 -44 108 -88q31 -27 31 -34q0 -16 -17 -30.5t-30 -14.5q-8 0 -36 14q-22 12 -68 40.5t-51 31.5z" />
    <glyph glyph-name="eacute.sc" horiz-adv-x="575" 
d="M437 259l-207 -16q-6 0 -6 -6v-126q0 -6 12 -6h287q8 0 13 -20t5 -34q0 -5 -2.5 -20t-7 -23t-8.5 -8h-406q-32 0 -32 32v521q0 32 32 32h375q6 0 11.5 -14t5.5 -34q0 -12 -5 -34t-12 -22h-256q-12 0 -12 -6v-107q0 -2 0.5 -5t6.5 -4l206 -15q6 -1 11.5 -12.5t5.5 -30.5
q0 -13 -4.5 -27t-12.5 -15zM420 714q-93 -58 -100.5 -62.5t-17.5 -9.5q-30 -14 -37 -14q-12 0 -29 14.5t-17 30.5q0 7 31 34q44 41 107 88q20 13 27 15t11 2q6 0 18 -9t24.5 -27.5t12.5 -29.5q0 -3 -3 -10.5t-27 -21.5z" />
    <glyph glyph-name="ecircumflex.sc" horiz-adv-x="575" 
d="M437 259l-207 -16q-6 0 -6 -6v-126q0 -6 12 -6h287q8 0 13 -20t5 -34q0 -5 -2.5 -20t-7 -23t-8.5 -8h-406q-32 0 -32 32v521q0 32 32 32h375q6 0 11.5 -14t5.5 -34q0 -12 -5 -34t-12 -22h-256q-12 0 -12 -6v-107q0 -2 0.5 -5t6.5 -4l206 -15q6 -1 11.5 -12.5t5.5 -30.5
q0 -13 -4.5 -27t-12.5 -15zM294 787q14 0 33 -4.5t45 -26.5q54 -51 70.5 -68.5t16.5 -22.5q0 -15 -24 -27.5t-39 -12.5q-7 0 -15 3t-29 25l-58 59l-58 -60q-23 -27 -43 -27q-19 0 -41.5 13.5t-22.5 26.5q0 7 35 42t64 60q8 8 25 14t41 6z" />
    <glyph glyph-name="edieresis.sc" horiz-adv-x="575" 
d="M437 259l-207 -16q-6 0 -6 -6v-126q0 -6 12 -6h287q8 0 13 -20t5 -34q0 -5 -2.5 -20t-7 -23t-8.5 -8h-406q-32 0 -32 32v521q0 32 32 32h375q6 0 11.5 -14t5.5 -34q0 -12 -5 -34t-12 -22h-256q-12 0 -12 -6v-107q0 -2 0.5 -5t6.5 -4l206 -15q6 -1 11.5 -12.5t5.5 -30.5
q0 -13 -4.5 -27t-12.5 -15zM124 700q0 29 12.5 39t47.5 10q34 0 47.5 -10.5t13.5 -38.5q0 -29 -13 -39t-48 -10t-47.5 10t-12.5 39zM350 700q0 29 13 39t49 10q34 0 47 -10.5t13 -38.5q0 -29 -13 -39t-47 -10q-27 0 -44.5 7t-17.5 42z" />
    <glyph glyph-name="iacute.sc" horiz-adv-x="309" 
d="M224 568v-550q0 -21 -68 -21q-71 0 -71 21v550q0 21 70 21q38 0 53.5 -5.5t15.5 -15.5zM288 714q-93 -58 -100.5 -62.5t-17.5 -9.5q-30 -14 -37 -14q-12 0 -29 14.5t-17 30.5q0 7 31 34q44 41 107 88q20 13 27 15t11 2q6 0 18 -9t24.5 -27.5t12.5 -29.5q0 -3 -3 -10.5
t-27 -21.5z" />
    <glyph glyph-name="icircumflex.sc" horiz-adv-x="309" 
d="M224 568v-550q0 -21 -68 -21q-71 0 -71 21v550q0 21 70 21q38 0 53.5 -5.5t15.5 -15.5zM152 787q14 0 33 -4.5t45 -26.5q54 -51 70.5 -68.5t16.5 -22.5q0 -15 -24 -27.5t-39 -12.5q-7 0 -15 3t-29 25l-58 59l-58 -60q-23 -27 -43 -27q-19 0 -41.5 13.5t-22.5 26.5
q0 7 35 42t64 60q8 8 25 14t41 6z" />
    <glyph glyph-name="idieresis.sc" horiz-adv-x="309" 
d="M224 568v-550q0 -21 -68 -21q-71 0 -71 21v550q0 21 70 21q38 0 53.5 -5.5t15.5 -15.5zM-19 700q0 29 12.5 39t47.5 10q34 0 47.5 -10.5t13.5 -38.5q0 -29 -13 -39t-48 -10t-47.5 10t-12.5 39zM207 700q0 29 13 39t49 10q34 0 47 -10.5t13 -38.5q0 -29 -13 -39t-47 -10
q-27 0 -44.5 7t-17.5 42z" />
    <glyph glyph-name="ntilde.sc" horiz-adv-x="750" 
d="M665 568l1 -536q0 -22 -11 -27t-43 -5h-60q-20 0 -36 3t-28 20l-248 341q-8 11 -14 11q-8 0 -8 -11v-346q0 -22 -66 -22q-67 0 -67 22v536q0 17 7 24.5t43 7.5h72q21 0 35.5 -3.5t27.5 -22.5l240 -338q8 -10 13 -10q3 0 6 3t3 8v345q0 22 67 22q66 0 66 -22zM318 742
q26 0 73.5 -22t66.5 -22q17 0 32.5 7.5t29 23.5t16.5 16q10 0 26.5 -22.5t16.5 -32.5q0 -16 -21.5 -34.5t-48.5 -27t-48 -8.5q-23 0 -66 21.5t-66 21.5q-13 0 -25 -6t-26.5 -19.5t-19.5 -13.5q-14 0 -35 18q-18 17 -18 34q0 9 12 24t40.5 28.5t60.5 13.5z" />
    <glyph glyph-name="ograve.sc" horiz-adv-x="697" 
d="M349 -8q-145 0 -221 75.5t-76 225.5q0 149 75.5 224.5t221.5 75.5q145 0 220.5 -75.5t75.5 -224.5q0 -150 -75.5 -225.5t-220.5 -75.5zM349 484q-55 0 -88.5 -19.5t-50 -60t-16.5 -111.5q0 -99 37 -144.5t118 -45.5q77 0 116 43t39 147q0 75 -18.5 115.5t-53.5 58
t-83 17.5zM249 715q-6 4 -18 12.5t-12 19.5q0 15 21 40.5t35 25.5q13 0 37 -17q59 -44 108 -88q31 -27 31 -34q0 -16 -17 -30.5t-30 -14.5q-8 0 -36 14q-22 12 -68 40.5t-51 31.5z" />
    <glyph glyph-name="oacute.sc" horiz-adv-x="697" 
d="M349 -8q-145 0 -221 75.5t-76 225.5q0 149 75.5 224.5t221.5 75.5q145 0 220.5 -75.5t75.5 -224.5q0 -150 -75.5 -225.5t-220.5 -75.5zM349 484q-55 0 -88.5 -19.5t-50 -60t-16.5 -111.5q0 -99 37 -144.5t118 -45.5q77 0 116 43t39 147q0 75 -18.5 115.5t-53.5 58
t-83 17.5zM491 715q-93 -58 -100.5 -62.5t-17.5 -9.5q-30 -14 -37 -14q-12 0 -29 14.5t-17 30.5q0 7 31 34q44 41 107 88q20 13 27 15t11 2q6 0 18 -9t24.5 -27.5t12.5 -29.5q0 -3 -3 -10.5t-27 -21.5z" />
    <glyph glyph-name="ocircumflex.sc" horiz-adv-x="697" 
d="M349 -8q-145 0 -221 75.5t-76 225.5q0 149 75.5 224.5t221.5 75.5q145 0 220.5 -75.5t75.5 -224.5q0 -150 -75.5 -225.5t-220.5 -75.5zM349 484q-55 0 -88.5 -19.5t-50 -60t-16.5 -111.5q0 -99 37 -144.5t118 -45.5q77 0 116 43t39 147q0 75 -18.5 115.5t-53.5 58
t-83 17.5zM348 788q14 0 33 -4.5t45 -26.5q54 -51 70.5 -68.5t16.5 -22.5q0 -15 -24 -27.5t-39 -12.5q-7 0 -15 3t-29 25l-58 59l-58 -60q-23 -27 -43 -27q-19 0 -41.5 13.5t-22.5 26.5q0 7 35 42t64 60q8 8 25 14t41 6z" />
    <glyph glyph-name="otilde.sc" horiz-adv-x="697" 
d="M349 -8q-145 0 -221 75.5t-76 225.5q0 149 75.5 224.5t221.5 75.5q145 0 220.5 -75.5t75.5 -224.5q0 -150 -75.5 -225.5t-220.5 -75.5zM349 484q-55 0 -88.5 -19.5t-50 -60t-16.5 -111.5q0 -99 37 -144.5t118 -45.5q77 0 116 43t39 147q0 75 -18.5 115.5t-53.5 58
t-83 17.5zM279 751q26 0 73.5 -22t66.5 -22q17 0 32.5 7.5t29 23.5t16.5 16q10 0 26.5 -22.5t16.5 -32.5q0 -16 -21.5 -34.5t-48.5 -27t-48 -8.5q-23 0 -66 21.5t-66 21.5q-13 0 -25 -6t-26.5 -19.5t-19.5 -13.5q-14 0 -35 18q-18 17 -18 34q0 9 12 24t40.5 28.5t60.5 13.5z
" />
    <glyph glyph-name="odieresis.sc" horiz-adv-x="697" 
d="M349 -8q-145 0 -221 75.5t-76 225.5q0 149 75.5 224.5t221.5 75.5q145 0 220.5 -75.5t75.5 -224.5q0 -150 -75.5 -225.5t-220.5 -75.5zM349 484q-55 0 -88.5 -19.5t-50 -60t-16.5 -111.5q0 -99 37 -144.5t118 -45.5q77 0 116 43t39 147q0 75 -18.5 115.5t-53.5 58
t-83 17.5zM176 690q0 29 12.5 39t47.5 10q34 0 47.5 -10.5t13.5 -38.5q0 -29 -13 -39t-48 -10t-47.5 10t-12.5 39zM402 690q0 29 13 39t49 10q34 0 47 -10.5t13 -38.5q0 -29 -13 -39t-47 -10q-27 0 -44.5 7t-17.5 42z" />
    <glyph glyph-name="ugrave.sc" horiz-adv-x="667" 
d="M597 567v-285q0 -153 -62.5 -222t-202.5 -69q-138 0 -200 68.5t-62 221.5v286q0 22 70 22q69 0 69 -22v-262q0 -74 9.5 -115t37 -65t78.5 -24q30 0 58.5 12.5t47 54t18.5 140.5v259q0 22 71 22q38 0 53 -5.5t15 -16.5zM232 715q-6 4 -18 12.5t-12 19.5q0 15 21 40.5
t35 25.5q13 0 37 -17q59 -44 108 -88q31 -27 31 -34q0 -16 -17 -30.5t-30 -14.5q-8 0 -36 14q-22 12 -68 40.5t-51 31.5z" />
    <glyph glyph-name="uacute.sc" horiz-adv-x="667" 
d="M597 567v-285q0 -153 -62.5 -222t-202.5 -69q-138 0 -200 68.5t-62 221.5v286q0 22 70 22q69 0 69 -22v-262q0 -74 9.5 -115t37 -65t78.5 -24q30 0 58.5 12.5t47 54t18.5 140.5v259q0 22 71 22q38 0 53 -5.5t15 -16.5zM471 715q-93 -58 -100.5 -62.5t-17.5 -9.5
q-30 -14 -37 -14q-12 0 -29 14.5t-17 30.5q0 7 31 34q44 41 107 88q20 13 27 15t11 2q6 0 18 -9t24.5 -27.5t12.5 -29.5q0 -3 -3 -10.5t-27 -21.5z" />
    <glyph glyph-name="ucircumflex.sc" horiz-adv-x="667" 
d="M597 567v-285q0 -153 -62.5 -222t-202.5 -69q-138 0 -200 68.5t-62 221.5v286q0 22 70 22q69 0 69 -22v-262q0 -74 9.5 -115t37 -65t78.5 -24q30 0 58.5 12.5t47 54t18.5 140.5v259q0 22 71 22q38 0 53 -5.5t15 -16.5zM335 787q14 0 33 -4.5t45 -26.5q54 -51 70.5 -68.5
t16.5 -22.5q0 -15 -24 -27.5t-39 -12.5q-7 0 -15 3t-29 25l-58 59l-58 -60q-23 -27 -43 -27q-19 0 -41.5 13.5t-22.5 26.5q0 7 35 42t64 60q8 8 25 14t41 6z" />
    <glyph glyph-name="udieresis.sc" horiz-adv-x="667" 
d="M597 567v-285q0 -153 -62.5 -222t-202.5 -69q-138 0 -200 68.5t-62 221.5v286q0 22 70 22q69 0 69 -22v-262q0 -74 9.5 -115t37 -65t78.5 -24q30 0 58.5 12.5t47 54t18.5 140.5v259q0 22 71 22q38 0 53 -5.5t15 -16.5zM164 690q0 29 12.5 39t47.5 10q34 0 47.5 -10.5
t13.5 -38.5q0 -29 -13 -39t-48 -10t-47.5 10t-12.5 39zM390 690q0 29 13 39t49 10q34 0 47 -10.5t13 -38.5q0 -29 -13 -39t-47 -10q-27 0 -44.5 7t-17.5 42z" />
    <glyph glyph-name="yacute.sc" horiz-adv-x="547" 
d="M341 255v-237q0 -21 -68 -21q-71 0 -71 21v238l-167 216q-13 16 -13 43v46q0 25 30 25h52q14 0 24.5 -4t22.5 -21l114 -172q4 -6 9 -6t9 7l113 172q4 5 13 14.5t34 9.5h53q29 0 29 -22v-50q0 -26 -13 -42zM421 712q-93 -58 -100.5 -62.5t-17.5 -9.5q-30 -14 -37 -14
q-12 0 -29 14.5t-17 30.5q0 7 31 34q44 41 107 88q20 13 27 15t11 2q6 0 18 -9t24.5 -27.5t12.5 -29.5q0 -3 -3 -10.5t-27 -21.5z" />
    <glyph glyph-name="scaron.sc" horiz-adv-x="579" 
d="M289 593q48 0 99.5 -9.5t88 -29t36.5 -32.5q0 -5 -6 -23t-18.5 -39t-23.5 -21q-1 0 -4.5 1t-39 15.5t-75 23t-69.5 8.5q-31 0 -51 -14t-20 -39q0 -26 27.5 -41t105.5 -36q69 -18 110 -38.5t63.5 -54t22.5 -84.5q0 -57 -29.5 -98.5t-86.5 -66t-141 -24.5q-43 0 -83 7
t-72 17.5t-58.5 26.5t-26.5 30q0 15 20.5 50t36.5 35q5 0 21 -9t24 -13q73 -35 167 -35q37 0 61.5 19t24.5 48q0 23 -23 41.5t-81 31.5q-92 21 -137 43.5t-66 56.5t-21 87q0 78 57 122t167 44zM295 628q-44 0 -66 19q-30 27 -64.5 61.5t-34.5 41.5q0 12 25 26t39 14
q6 0 14 -3.5t28 -23.5l59 -61l58 61q15 15 23 21t21 6q15 0 39 -12.5t24 -27.5q0 -4 -8.5 -14t-22.5 -24t-33.5 -32t-22.5 -21q-19 -18 -37.5 -24.5t-40.5 -6.5z" />
    <glyph glyph-name="igrave.sc" horiz-adv-x="309" 
d="M224 568v-550q0 -21 -68 -21q-71 0 -71 21v550q0 21 70 21q38 0 53.5 -5.5t15.5 -15.5zM42 717q-6 4 -18 12.5t-12 19.5q0 15 21 40.5t35 25.5q13 0 37 -17q59 -44 108 -88q31 -27 31 -34q0 -16 -17 -30.5t-30 -14.5q-8 0 -36 14q-22 12 -68 40.5t-51 31.5z" />
    <glyph glyph-name="eth.sc" horiz-adv-x="714" 
d="M350 0h-195q-33 0 -33 32v220h-49q-13 0 -13 36q0 34 13 34h49v232q0 10 5.5 20.5t27.5 10.5h198q73 0 131 -17.5t97.5 -53.5t60 -91.5t20.5 -127.5q0 -74 -21.5 -130.5t-62.5 -93t-98.5 -54t-129.5 -17.5zM352 487h-79q-12 0 -12 -6v-159h107q14 0 14 -34q0 -36 -14 -36
h-107v-142q0 -5 12 -5h75q89 0 130 42t41 151q0 78 -19.5 117t-57 55.5t-90.5 16.5z" />
    <glyph glyph-name="lslash.sc" horiz-adv-x="574" 
d="M259 567v-208q111 40 117 40q5 0 9.5 -9.5t4.5 -24.5q0 -21 -7 -25q-8 -4 -124 -45v-183q0 -6 12 -6h259q6 0 12 -15t6 -38q0 -12 -5 -32.5t-13 -20.5h-378q-18 0 -25.5 8t-7.5 24v215l-63 -21q-6 0 -11.5 10t-5.5 27q0 5 1.5 11.5t5.5 7.5l73 26v259q0 21 71 21
q38 0 53.5 -5.5t15.5 -15.5z" />
    <glyph glyph-name="thorn.sc" horiz-adv-x="574" 
d="M270 405h-34q-12 0 -12 -6v-195l42 4q72 7 101 32t29 76q0 47 -31 68t-95 21zM224 568v-66h73q117 0 178 -48t61 -138q0 -61 -32 -108.5t-91.5 -75t-146.5 -27.5l-42 3v-90q0 -22 -68 -22q-71 0 -71 22v550q0 21 70 21q38 0 53.5 -5.5t15.5 -15.5z" />
    <glyph glyph-name="ae.sc" horiz-adv-x="754" 
d="M347 271l-53 149q-5 8 -10 8t-10 -9l-53 -148h126zM757 0h-283q-18 0 -28.5 4t-17.5 22l-57 148h-174l-52 -151q-4 -12 -10.5 -17.5t-17.5 -5.5h-75q-18 0 -18 18v64q0 12 13 47l171 438q2 6 11 12t67 6h268q9 0 13.5 -16t4.5 -30q0 -20 -6 -38t-12 -18h-152q-6 0 -6 -6
q0 -2 21 -58t25 -64l147 -12q8 -1 12.5 -16t4.5 -28t-4.5 -26.5t-11.5 -14.5l-111 -11l52 -136q4 -10 13 -10h212q8 0 13.5 -19.5t5.5 -33.5q0 -11 -5 -29.5t-13 -18.5z" />
    <glyph glyph-name="oslash.sc" horiz-adv-x="697" 
d="M349 -8q-68 0 -124 17l-14 -24q-9 -15 -17 -19t-34 -4q-36 0 -36 11q0 3 2 9.5t17 33.5l15 26q-106 73 -106 251q0 149 75.5 224.5t221.5 75.5q65 0 116 -15l22 37q3 6 11.5 13t35.5 7q28 0 32 -4.5t4 -7.5q0 -6 -8 -24.5t-16 -31.5l-12 -21q54 -35 82.5 -99.5
t28.5 -153.5q0 -150 -75.5 -225.5t-220.5 -75.5zM504 293q0 97 -34 142l-186 -323q27 -9 65 -9q77 0 116 43t39 147zM349 484q-55 0 -88.5 -19.5t-50 -60t-16.5 -111.5q0 -93 30 -136l183 319q-26 8 -58 8z" />
    <glyph glyph-name="oe.sc" horiz-adv-x="833" 
d="M398 486h-20q-76 0 -116.5 -23.5t-54 -62.5t-13.5 -106q0 -71 16.5 -111t57.5 -61.5t115 -21.5h15q12 0 12 5v376q0 5 -12 5zM781 0h-395q-79 0 -140.5 16t-105 51t-66 91.5t-22.5 134.5q0 77 22 133t64 91t103 51.5t139 16.5h369q9 0 14 -15.5t5 -28.5q0 -22 -6.5 -40
t-12.5 -18h-188q-13 0 -13 -6v-110q0 -2 0.5 -5.5t7.5 -3.5l140 -14q6 -1 11 -12.5t5 -29.5q0 -13 -5 -27.5t-12 -15.5l-140 -14q-7 -1 -7 -7v-131q0 -6 13 -6h220q6 0 12 -15.5t6 -37.5q0 -12 -5 -30t-13 -18z" />
    <glyph glyph-name="amacron.sc" horiz-adv-x="585" 
d="M560 78v-57q0 -11 -6 -16t-24 -5h-58q-16 0 -25.5 3.5t-15.5 19.5l-54 151h-175l-53 -151q-4 -12 -10 -17.5t-18 -5.5h-77q-7 0 -13.5 4.5t-6.5 15.5v62q0 15 13 48l176 441q4 8 16.5 13t61.5 5q40 0 58.5 -3.5t22.5 -13.5l180 -453q8 -18 8 -41zM357 271l-59 165
q-3 8 -8 8q-2 0 -4.5 -0.5t-4.5 -7.5l-60 -165h136zM129 729h320q6 0 12 -9.5t6 -28.5q0 -12 -5 -26.5t-13 -14.5h-320q-8 0 -13 14.5t-5 26.5q0 13 5 25.5t13 12.5z" />
    <glyph glyph-name="aogonek.sc" horiz-adv-x="584" 
d="M560 78v-57q0 -11 -6 -16t-24 -5h-36q-16 -36 -16 -62q0 -39 60 -39q13 0 31.5 4.5t20.5 4.5q9 0 9 -26q0 -30 -5 -41q-3 -6 -30.5 -14.5t-59.5 -8.5q-71 0 -107.5 22.5t-36.5 73.5q0 27 20 57t50 53l-53 150h-175l-53 -151q-4 -12 -10 -17.5t-18 -5.5h-77
q-7 0 -13.5 4.5t-6.5 15.5v62q0 15 13 48l176 441q4 8 16.5 13t61.5 5q40 0 58.5 -3.5t22.5 -13.5l180 -453q8 -18 8 -41zM357 271l-59 165q-3 8 -8 8q-2 0 -4.5 -0.5t-4.5 -7.5l-60 -165h136z" />
    <glyph glyph-name="ccaron.sc" horiz-adv-x="624" 
d="M351 593q102 0 178 -40q15 -8 25 -17.5t10 -15.5t-9 -24t-27 -38.5t-32 -20.5q-1 0 -3 1t-26.5 14.5t-56 21.5t-60.5 8q-79 0 -117.5 -43t-38.5 -146q0 -62 14 -102t48 -64t94 -24q31 0 66 9.5t68.5 27t38 19.5t7.5 2q14 0 30 -36t16 -50q0 -15 -28 -33.5t-91.5 -34
t-111.5 -15.5q-142 0 -217.5 76t-75.5 226q0 148 75.5 223.5t223.5 75.5zM337 630q-44 0 -66 19q-30 27 -64.5 61.5t-34.5 41.5q0 12 25 26t39 14q6 0 14 -3.5t28 -23.5l59 -61l58 61q15 15 23 21t21 6q15 0 39 -12.5t24 -27.5q0 -4 -8.5 -14t-22.5 -24t-33.5 -32t-22.5 -21
q-19 -18 -37.5 -24.5t-40.5 -6.5z" />
    <glyph glyph-name="cacute.sc" horiz-adv-x="624" 
d="M351 593q102 0 178 -40q15 -8 25 -17.5t10 -15.5t-9 -24t-27 -38.5t-32 -20.5q-1 0 -3 1t-26.5 14.5t-56 21.5t-60.5 8q-79 0 -117.5 -43t-38.5 -146q0 -62 14 -102t48 -64t94 -24q31 0 66 9.5t68.5 27t38 19.5t7.5 2q14 0 30 -36t16 -50q0 -15 -28 -33.5t-91.5 -34
t-111.5 -15.5q-142 0 -217.5 76t-75.5 226q0 148 75.5 223.5t223.5 75.5zM478 718q-93 -58 -100.5 -62.5t-17.5 -9.5q-30 -14 -37 -14q-12 0 -29 14.5t-17 30.5q0 7 31 34q44 41 107 88q20 13 27 15t11 2q6 0 18 -9t24.5 -27.5t12.5 -29.5q0 -3 -3 -10.5t-27 -21.5z" />
    <glyph glyph-name="emacron.sc" horiz-adv-x="575" 
d="M437 259l-207 -16q-6 0 -6 -6v-126q0 -6 12 -6h287q8 0 13 -20t5 -34q0 -5 -2.5 -20t-7 -23t-8.5 -8h-406q-32 0 -32 32v521q0 32 32 32h375q6 0 11.5 -14t5.5 -34q0 -12 -5 -34t-12 -22h-256q-12 0 -12 -6v-107q0 -2 0.5 -5t6.5 -4l206 -15q6 -1 11.5 -12.5t5.5 -30.5
q0 -13 -4.5 -27t-12.5 -15zM134 729h320q6 0 12 -9.5t6 -28.5q0 -12 -5 -26.5t-13 -14.5h-320q-8 0 -13 14.5t-5 26.5q0 13 5 25.5t13 12.5z" />
    <glyph glyph-name="edotaccent.sc" horiz-adv-x="575" 
d="M437 259l-207 -16q-6 0 -6 -6v-126q0 -6 12 -6h287q8 0 13 -20t5 -34q0 -5 -2.5 -20t-7 -23t-8.5 -8h-406q-32 0 -32 32v521q0 32 32 32h375q6 0 11.5 -14t5.5 -34q0 -12 -5 -34t-12 -22h-256q-12 0 -12 -6v-107q0 -2 0.5 -5t6.5 -4l206 -15q6 -1 11.5 -12.5t5.5 -30.5
q0 -13 -4.5 -27t-12.5 -15zM222 716q0 35 18 48.5t61 13.5q41 0 59.5 -14t18.5 -48q0 -35 -18 -47t-60 -12q-43 0 -61 12t-18 47z" />
    <glyph glyph-name="ecaron.sc" horiz-adv-x="575" 
d="M437 259l-207 -16q-6 0 -6 -6v-126q0 -6 12 -6h287q8 0 13 -20t5 -34q0 -5 -2.5 -20t-7 -23t-8.5 -8h-406q-32 0 -32 32v521q0 32 32 32h375q6 0 11.5 -14t5.5 -34q0 -12 -5 -34t-12 -22h-256q-12 0 -12 -6v-107q0 -2 0.5 -5t6.5 -4l206 -15q6 -1 11.5 -12.5t5.5 -30.5
q0 -13 -4.5 -27t-12.5 -15zM294 629q-44 0 -66 19q-30 27 -64.5 61.5t-34.5 41.5q0 12 25 26t39 14q6 0 14 -3.5t28 -23.5l59 -61l58 61q15 15 23 21t21 6q15 0 39 -12.5t24 -27.5q0 -4 -8.5 -14t-22.5 -24t-33.5 -32t-22.5 -21q-19 -18 -37.5 -24.5t-40.5 -6.5z" />
    <glyph glyph-name="eogonek.sc" horiz-adv-x="575" 
d="M437 259l-207 -16q-6 0 -6 -6v-126q0 -6 12 -6h287q8 0 13 -20t5 -34q0 -5 -2.5 -20t-7 -23t-8.5 -8h-60q-16 -36 -16 -62q0 -39 60 -39q13 0 31.5 4.5t20.5 4.5q9 0 9 -26q0 -30 -5 -41q-3 -6 -30.5 -14.5t-59.5 -8.5q-71 0 -107.5 22.5t-36.5 73.5q0 21 12.5 44.5
t30.5 41.5h-255q-32 0 -32 32v521q0 32 32 32h375q6 0 11.5 -14t5.5 -34q0 -12 -5 -34t-12 -22h-256q-12 0 -12 -6v-107q0 -2 0.5 -5t6.5 -4l206 -15q6 -1 11.5 -12.5t5.5 -30.5q0 -13 -4.5 -27t-12.5 -15z" />
    <glyph glyph-name="iogonek.sc" horiz-adv-x="309" 
d="M224 568v-550q0 -19 -47 -21q-15 -32 -15 -59q0 -39 60 -39q13 0 31.5 4.5t20.5 4.5q9 0 9 -26q0 -30 -5 -41q-3 -6 -30.5 -14.5t-59.5 -8.5q-71 0 -107.5 22.5t-36.5 73.5q0 11 5.5 28.5t20.5 36.5t23 26q-8 5 -8 13v550q0 21 70 21q38 0 53.5 -5.5t15.5 -15.5z" />
    <glyph glyph-name="nacute.sc" horiz-adv-x="750" 
d="M665 568l1 -536q0 -22 -11 -27t-43 -5h-60q-20 0 -36 3t-28 20l-248 341q-8 11 -14 11q-8 0 -8 -11v-346q0 -22 -66 -22q-67 0 -67 22v536q0 17 7 24.5t43 7.5h72q21 0 35.5 -3.5t27.5 -22.5l240 -338q8 -10 13 -10q3 0 6 3t3 8v345q0 22 67 22q66 0 66 -22zM530 717
q-93 -58 -100.5 -62.5t-17.5 -9.5q-30 -14 -37 -14q-12 0 -29 14.5t-17 30.5q0 7 31 34q44 41 107 88q20 13 27 15t11 2q6 0 18 -9t24.5 -27.5t12.5 -29.5q0 -3 -3 -10.5t-27 -21.5z" />
    <glyph glyph-name="ncaron.sc" horiz-adv-x="750" 
d="M665 568l1 -536q0 -22 -11 -27t-43 -5h-60q-20 0 -36 3t-28 20l-248 341q-8 11 -14 11q-8 0 -8 -11v-346q0 -22 -66 -22q-67 0 -67 22v536q0 17 7 24.5t43 7.5h72q21 0 35.5 -3.5t27.5 -22.5l240 -338q8 -10 13 -10q3 0 6 3t3 8v345q0 22 67 22q66 0 66 -22zM391 629
q-44 0 -66 19q-30 27 -64.5 61.5t-34.5 41.5q0 12 25 26t39 14q6 0 14 -3.5t28 -23.5l59 -61l58 61q15 15 23 21t21 6q15 0 39 -12.5t24 -27.5q0 -4 -8.5 -14t-22.5 -24t-33.5 -32t-22.5 -21q-19 -18 -37.5 -24.5t-40.5 -6.5z" />
    <glyph glyph-name="ncommaaccent.sc" horiz-adv-x="750" 
d="M665 568l1 -536q0 -22 -11 -27t-43 -5h-60q-20 0 -36 3t-28 20l-248 341q-8 11 -14 11q-8 0 -8 -11v-346q0 -22 -66 -22q-67 0 -67 22v536q0 17 7 24.5t43 7.5h72q21 0 35.5 -3.5t27.5 -22.5l240 -338q8 -10 13 -10q3 0 6 3t3 8v345q0 22 67 22q66 0 66 -22zM265 -281
q0 27 31 201q10 47 38 47q21 0 54 -9q24 -8 36 -16.5t12 -24.5t-11 -40q0 -1 -1 -3.5t-19.5 -52.5t-34 -87.5t-20.5 -40.5l-11 -2q-17 0 -45.5 8.5t-28.5 19.5z" />
    <glyph glyph-name="ohungarumlaut.sc" horiz-adv-x="697" 
d="M349 -8q-145 0 -221 75.5t-76 225.5q0 149 75.5 224.5t221.5 75.5q145 0 220.5 -75.5t75.5 -224.5q0 -150 -75.5 -225.5t-220.5 -75.5zM349 484q-55 0 -88.5 -19.5t-50 -60t-16.5 -111.5q0 -99 37 -144.5t118 -45.5q77 0 116 43t39 147q0 75 -18.5 115.5t-53.5 58
t-83 17.5zM609 714q-93 -58 -100.5 -62.5t-17.5 -9.5q-30 -14 -37 -14q-12 0 -29 14.5t-17 30.5q0 7 31 34q44 41 107 88q20 13 27 15t11 2q6 0 18 -9t24.5 -27.5t12.5 -29.5q0 -3 -3 -10.5t-27 -21.5zM351 714q-93 -58 -100.5 -62.5t-17.5 -9.5q-30 -14 -37 -14
q-12 0 -29 14.5t-17 30.5q0 7 31 34q44 41 107 88q20 13 27 15t11 2q6 0 18 -9t24.5 -27.5t12.5 -29.5q0 -3 -3 -10.5t-27 -21.5z" />
    <glyph glyph-name="omacron.sc" horiz-adv-x="697" 
d="M349 -8q-145 0 -221 75.5t-76 225.5q0 149 75.5 224.5t221.5 75.5q145 0 220.5 -75.5t75.5 -224.5q0 -150 -75.5 -225.5t-220.5 -75.5zM349 484q-55 0 -88.5 -19.5t-50 -60t-16.5 -111.5q0 -99 37 -144.5t118 -45.5q77 0 116 43t39 147q0 75 -18.5 115.5t-53.5 58
t-83 17.5zM188 732h320q6 0 12 -9.5t6 -28.5q0 -12 -5 -26.5t-13 -14.5h-320q-8 0 -13 14.5t-5 26.5q0 13 5 25.5t13 12.5z" />
    <glyph glyph-name="sacute.sc" horiz-adv-x="579" 
d="M289 593q48 0 99.5 -9.5t88 -29t36.5 -32.5q0 -5 -6 -23t-18.5 -39t-23.5 -21q-1 0 -4.5 1t-39 15.5t-75 23t-69.5 8.5q-31 0 -51 -14t-20 -39q0 -26 27.5 -41t105.5 -36q69 -18 110 -38.5t63.5 -54t22.5 -84.5q0 -57 -29.5 -98.5t-86.5 -66t-141 -24.5q-43 0 -83 7
t-72 17.5t-58.5 26.5t-26.5 30q0 15 20.5 50t36.5 35q5 0 21 -9t24 -13q73 -35 167 -35q37 0 61.5 19t24.5 48q0 23 -23 41.5t-81 31.5q-92 21 -137 43.5t-66 56.5t-21 87q0 78 57 122t167 44zM426 717q-93 -58 -100.5 -62.5t-17.5 -9.5q-30 -14 -37 -14q-12 0 -29 14.5
t-17 30.5q0 7 31 34q44 41 107 88q20 13 27 15t11 2q6 0 18 -9t24.5 -27.5t12.5 -29.5q0 -3 -3 -10.5t-27 -21.5z" />
    <glyph glyph-name="umacron.sc" horiz-adv-x="667" 
d="M597 567v-285q0 -153 -62.5 -222t-202.5 -69q-138 0 -200 68.5t-62 221.5v286q0 22 70 22q69 0 69 -22v-262q0 -74 9.5 -115t37 -65t78.5 -24q30 0 58.5 12.5t47 54t18.5 140.5v259q0 22 71 22q38 0 53 -5.5t15 -16.5zM173 743h320q6 0 12 -9.5t6 -28.5q0 -12 -5 -26.5
t-13 -14.5h-320q-8 0 -13 14.5t-5 26.5q0 13 5 25.5t13 12.5z" />
    <glyph glyph-name="uring.sc" horiz-adv-x="667" 
d="M597 567v-285q0 -153 -62.5 -222t-202.5 -69q-138 0 -200 68.5t-62 221.5v286q0 22 70 22q69 0 69 -22v-262q0 -74 9.5 -115t37 -65t78.5 -24q30 0 58.5 12.5t47 54t18.5 140.5v259q0 22 71 22q38 0 53 -5.5t15 -16.5zM209 707q0 52 35.5 80.5t88.5 28.5t89 -28.5
t36 -80.5t-36 -82t-89 -30t-88.5 29.5t-35.5 82.5zM271 707q0 -29 17.5 -45.5t44.5 -16.5q28 0 46 16.5t18 45.5q0 28 -18 43.5t-46 15.5q-27 0 -44.5 -15.5t-17.5 -43.5z" />
    <glyph glyph-name="uhungarumlaut.sc" horiz-adv-x="667" 
d="M597 567v-285q0 -153 -62.5 -222t-202.5 -69q-138 0 -200 68.5t-62 221.5v286q0 22 70 22q69 0 69 -22v-262q0 -74 9.5 -115t37 -65t78.5 -24q30 0 58.5 12.5t47 54t18.5 140.5v259q0 22 71 22q38 0 53 -5.5t15 -16.5zM582 715q-93 -58 -100.5 -62.5t-17.5 -9.5
q-30 -14 -37 -14q-12 0 -29 14.5t-17 30.5q0 7 31 34q44 41 107 88q20 13 27 15t11 2q6 0 18 -9t24.5 -27.5t12.5 -29.5q0 -3 -3 -10.5t-27 -21.5zM339 715q-93 -58 -100.5 -62.5t-17.5 -9.5q-30 -14 -37 -14q-12 0 -29 14.5t-17 30.5q0 7 31 34q44 41 107 88q20 13 27 15
t11 2q6 0 18 -9t24.5 -27.5t12.5 -29.5q0 -3 -3 -10.5t-27 -21.5z" />
    <glyph glyph-name="uogonek.sc" horiz-adv-x="667" 
d="M597 567v-285q0 -142 -54 -211.5t-173 -77.5q-13 -31 -13 -55q0 -39 60 -39q13 0 31.5 4.5t20.5 4.5q9 0 9 -26q0 -30 -5 -41q-3 -6 -30.5 -14.5t-59.5 -8.5q-71 0 -107.5 22.5t-36.5 73.5q0 18 10.5 40.5t26.5 39.5q-108 12 -157 81t-49 206v286q0 22 70 22q69 0 69 -22
v-262q0 -74 9.5 -115t37 -65t78.5 -24q30 0 58.5 12.5t47 54t18.5 140.5v259q0 22 71 22q38 0 53 -5.5t15 -16.5z" />
    <glyph glyph-name="zdotaccent.sc" horiz-adv-x="558" 
d="M497 466l-300 -353q-3 -4 -3 -8q2 -3 6 -3h304q6 0 12 -15.5t6 -37.5q0 -19 -6 -34t-11 -15h-433q-19 0 -31 5t-12 34q0 39 2.5 57t11.5 28l292 349l4 6q0 2 -1.5 3.5t-3.5 1.5h-262q-6 0 -11.5 17t-5.5 39q0 13 4.5 29t12.5 16h419q12 0 17.5 -6.5t5.5 -35.5t-2 -45.5
t-15 -31.5zM209 716q0 35 18 48.5t61 13.5q41 0 59.5 -14t18.5 -48q0 -35 -18 -47t-60 -12q-43 0 -61 12t-18 47z" />
    <glyph glyph-name="zacute.sc" horiz-adv-x="558" 
d="M497 466l-300 -353q-3 -4 -3 -8q2 -3 6 -3h304q6 0 12 -15.5t6 -37.5q0 -19 -6 -34t-11 -15h-433q-19 0 -31 5t-12 34q0 39 2.5 57t11.5 28l292 349l4 6q0 2 -1.5 3.5t-3.5 1.5h-262q-6 0 -11.5 17t-5.5 39q0 13 4.5 29t12.5 16h419q12 0 17.5 -6.5t5.5 -35.5t-2 -45.5
t-15 -31.5zM427 718q-93 -58 -100.5 -62.5t-17.5 -9.5q-30 -14 -37 -14q-12 0 -29 14.5t-17 30.5q0 7 31 34q44 41 107 88q20 13 27 15t11 2q6 0 18 -9t24.5 -27.5t12.5 -29.5q0 -3 -3 -10.5t-27 -21.5z" />
    <glyph glyph-name="dcaron.sc" horiz-adv-x="677" 
d="M315 487h-79q-12 0 -12 -6v-371q0 -5 12 -5h75q89 0 130 42t41 151q0 78 -19.5 117t-57 55.5t-90.5 16.5zM313 0h-195q-33 0 -33 32v522q0 10 5.5 20.5t27.5 10.5h198q73 0 131 -17.5t97.5 -53.5t60 -91.5t20.5 -127.5q0 -74 -21.5 -130.5t-62.5 -93t-98.5 -54
t-129.5 -17.5zM274 628q-44 0 -66 19q-30 27 -64.5 61.5t-34.5 41.5q0 12 25 26t39 14q6 0 14 -3.5t28 -23.5l59 -61l58 61q15 15 23 21t21 6q15 0 39 -12.5t24 -27.5q0 -4 -8.5 -14t-22.5 -24t-33.5 -32t-22.5 -21q-19 -18 -37.5 -24.5t-40.5 -6.5z" />
    <glyph glyph-name="dcroat.sc" horiz-adv-x="714" 
d="M350 0h-195q-33 0 -33 32v220h-49q-13 0 -13 36q0 34 13 34h49v232q0 10 5.5 20.5t27.5 10.5h198q73 0 131 -17.5t97.5 -53.5t60 -91.5t20.5 -127.5q0 -74 -21.5 -130.5t-62.5 -93t-98.5 -54t-129.5 -17.5zM352 487h-79q-12 0 -12 -6v-159h107q14 0 14 -34q0 -36 -14 -36
h-107v-142q0 -5 12 -5h75q89 0 130 42t41 151q0 78 -19.5 117t-57 55.5t-90.5 16.5z" />
    <glyph glyph-name="racute.sc" horiz-adv-x="617" 
d="M439 15l-134 204l-81 5v-207q0 -21 -68 -21q-71 0 -71 21v536q0 32 33 32h161q138 0 202.5 -40t64.5 -128q0 -53 -28 -94t-90 -62l129 -136q14 -15 14 -33v-68q0 -24 -28 -24h-53q-20 0 -32.5 3t-18.5 12zM289 490h-53q-12 0 -12 -6v-170l57 5q73 6 99 26t26 62
q0 45 -28.5 64t-88.5 19zM389 718q-93 -58 -100.5 -62.5t-17.5 -9.5q-30 -14 -37 -14q-12 0 -29 14.5t-17 30.5q0 7 31 34q44 41 107 88q20 13 27 15t11 2q6 0 18 -9t24.5 -27.5t12.5 -29.5q0 -3 -3 -10.5t-27 -21.5z" />
    <glyph glyph-name="rcaron.sc" horiz-adv-x="617" 
d="M439 15l-134 204l-81 5v-207q0 -21 -68 -21q-71 0 -71 21v536q0 32 33 32h161q138 0 202.5 -40t64.5 -128q0 -53 -28 -94t-90 -62l129 -136q14 -15 14 -33v-68q0 -24 -28 -24h-53q-20 0 -32.5 3t-18.5 12zM289 490h-53q-12 0 -12 -6v-170l57 5q73 6 99 26t26 62
q0 45 -28.5 64t-88.5 19zM278 629q-44 0 -66 19q-30 27 -64.5 61.5t-34.5 41.5q0 12 25 26t39 14q6 0 14 -3.5t28 -23.5l59 -61l58 61q15 15 23 21t21 6q15 0 39 -12.5t24 -27.5q0 -4 -8.5 -14t-22.5 -24t-33.5 -32t-22.5 -21q-19 -18 -37.5 -24.5t-40.5 -6.5z" />
    <glyph glyph-name="rcommaaccent.sc" horiz-adv-x="617" 
d="M439 15l-134 204l-81 5v-207q0 -21 -68 -21q-71 0 -71 21v536q0 32 33 32h161q138 0 202.5 -40t64.5 -128q0 -53 -28 -94t-90 -62l129 -136q14 -15 14 -33v-68q0 -24 -28 -24h-53q-20 0 -32.5 3t-18.5 12zM289 490h-53q-12 0 -12 -6v-170l57 5q73 6 99 26t26 62
q0 45 -28.5 64t-88.5 19zM232 -281q0 27 31 201q10 47 38 47q21 0 54 -9q24 -8 36 -16.5t12 -24.5t-11 -40q0 -1 -1 -3.5t-19.5 -52.5t-34 -87.5t-20.5 -40.5l-11 -2q-17 0 -45.5 8.5t-28.5 19.5z" />
    <glyph glyph-name="imacron.sc" horiz-adv-x="309" 
d="M224 568v-550q0 -21 -68 -21q-71 0 -71 21v550q0 21 70 21q38 0 53.5 -5.5t15.5 -15.5zM-6 732h320q6 0 12 -9.5t6 -28.5q0 -12 -5 -26.5t-13 -14.5h-320q-8 0 -13 14.5t-5 26.5q0 13 5 25.5t13 12.5z" />
    <glyph glyph-name="gcommaaccent.sc" horiz-adv-x="651" 
d="M195 293q0 -74 18.5 -116t53.5 -60.5t83 -18.5q22 0 54.5 7t50.5 19v93h-114q-7 0 -11.5 12t-4.5 34q0 51 16 51h218q12 0 20.5 -6t8.5 -17v-214q0 -22 -48 -45q-91 -41 -190 -41q-146 0 -222 76t-76 227q0 299 305 299q48 0 95 -11t76 -27q14 -8 25 -17t11 -15
q0 -13 -25 -46.5t-44 -33.5q-1 0 -29 13.5t-58 20t-57 6.5q-56 0 -90 -19t-50 -59t-16 -112zM254 -281q0 27 31 201q10 47 38 47q21 0 54 -9q24 -8 36 -16.5t12 -24.5t-11 -40q0 -1 -1 -3.5t-19.5 -52.5t-34 -87.5t-20.5 -40.5l-11 -2q-17 0 -45.5 8.5t-28.5 19.5z" />
    <glyph glyph-name="kcommaaccent.sc" horiz-adv-x="630" 
d="M386 304l196 -174q14 -12 14 -32v-75q0 -23 -29 -23h-50q-29 0 -46 19l-179 207q-21 23 -68 23v-231q0 -22 -69 -22q-70 0 -70 22v550q0 21 70 21q69 0 69 -21v-203q48 2 70 28l149 173q8 10 16 15t27 5h53q29 0 29 -23v-53q0 -19 -5.5 -30.5t-19.5 -23.5l-156 -131
q-7 -5 -7 -11q0 -5 6 -10zM246 -281q0 27 31 201q10 47 38 47q21 0 54 -9q24 -8 36 -16.5t12 -24.5t-11 -40q0 -1 -1 -3.5t-19.5 -52.5t-34 -87.5t-20.5 -40.5l-11 -2q-17 0 -45.5 8.5t-28.5 19.5z" />
    <glyph glyph-name="lcommaaccent.sc" horiz-adv-x="531" 
d="M225 567v-455q0 -6 12 -6h259q6 0 12 -15t6 -38q0 -12 -5 -32.5t-13 -20.5h-378q-18 0 -25.5 8t-7.5 24v535q0 21 71 21q38 0 53.5 -5.5t15.5 -15.5zM202 -281q0 27 31 201q10 47 38 47q21 0 54 -9q24 -8 36 -16.5t12 -24.5t-11 -40q0 -1 -1 -3.5t-19.5 -52.5t-34 -87.5
t-20.5 -40.5l-11 -2q-17 0 -45.5 8.5t-28.5 19.5z" />
    <glyph glyph-name="lcaron.sc" horiz-adv-x="531" 
d="M225 567v-455q0 -6 12 -6h259q6 0 12 -15t6 -38q0 -12 -5 -32.5t-13 -20.5h-378q-18 0 -25.5 8t-7.5 24v535q0 21 71 21q38 0 53.5 -5.5t15.5 -15.5zM335 371q0 15 9 73.5t22 127.5q10 47 38 47q5 0 21.5 -2t32.5 -8q23 -7 35.5 -15.5t12.5 -24.5q0 -18 -11 -40
q0 -1 -1 -3.5t-22 -59.5t-34.5 -88t-17.5 -33q-6 -3 -11 -3q-11 0 -32 5t-31.5 11.5t-10.5 12.5z" />
    <glyph glyph-name="lacute.sc" horiz-adv-x="531" 
d="M225 567v-455q0 -6 12 -6h259q6 0 12 -15t6 -38q0 -12 -5 -32.5t-13 -20.5h-378q-18 0 -25.5 8t-7.5 24v535q0 21 71 21q38 0 53.5 -5.5t15.5 -15.5zM299 718q-93 -58 -100.5 -62.5t-17.5 -9.5q-30 -14 -37 -14q-12 0 -29 14.5t-17 30.5q0 7 31 34q44 41 107 88
q20 13 27 15t11 2q6 0 18 -9t24.5 -27.5t12.5 -29.5q0 -3 -3 -10.5t-27 -21.5z" />
    <glyph glyph-name="tcaron.sc" horiz-adv-x="578" 
d="M42 585h493q8 0 13 -15.5t5 -28.5t-5 -34.5t-13 -21.5h-169q-7 0 -7 -6v-461q0 -10 -15.5 -15.5t-53.5 -5.5q-70 0 -70 21v460q0 3 -3 5t-5 2h-170q-5 0 -11 17.5t-6 38.5q0 13 4.5 28.5t12.5 15.5zM290 629q-44 0 -66 19q-30 27 -64.5 61.5t-34.5 41.5q0 12 25 26t39 14
q6 0 14 -3.5t28 -23.5l59 -61l58 61q15 15 23 21t21 6q15 0 39 -12.5t24 -27.5q0 -4 -8.5 -14t-22.5 -24t-33.5 -32t-22.5 -21q-19 -18 -37.5 -24.5t-40.5 -6.5z" />
    <glyph glyph-name="ydieresis.sc" horiz-adv-x="547" 
d="M341 255v-237q0 -21 -68 -21q-71 0 -71 21v238l-167 216q-13 16 -13 43v46q0 25 30 25h52q14 0 24.5 -4t22.5 -21l114 -172q4 -6 9 -6t9 7l113 172q4 5 13 14.5t34 9.5h53q29 0 29 -22v-50q0 -26 -13 -42zM100 699q0 29 12.5 39t47.5 10q34 0 47.5 -10.5t13.5 -38.5
q0 -29 -13 -39t-48 -10t-47.5 10t-12.5 39zM326 699q0 29 13 39t49 10q34 0 47 -10.5t13 -38.5q0 -29 -13 -39t-47 -10q-27 0 -44.5 7t-17.5 42z" />
    <glyph glyph-name="I.ss01" horiz-adv-x="396" 
d="M348 0h-300q-7 0 -12 14t-5 38q0 51 17 51h79v482h-68q-6 0 -11.5 14.5t-5.5 37.5q0 52 17 52h279q17 0 17 -52q0 -15 -4 -33.5t-13 -18.5h-69v-482h79q17 0 17 -51q0 -25 -5 -38.5t-12 -13.5z" />
    <glyph glyph-name="Iacute.ss01" horiz-adv-x="396" 
d="M348 0h-300q-7 0 -12 14t-5 38q0 51 17 51h79v482h-68q-6 0 -11.5 14.5t-5.5 37.5q0 52 17 52h279q17 0 17 -52q0 -15 -4 -33.5t-13 -18.5h-69v-482h79q17 0 17 -51q0 -25 -5 -38.5t-12 -13.5zM335 835q-93 -58 -100.5 -62.5t-17.5 -9.5q-30 -14 -37 -14q-12 0 -29 14.5
t-17 30.5q0 7 31 34q44 41 107 88q20 13 27 15t11 2q6 0 18 -9t24.5 -27.5t12.5 -29.5q0 -3 -3 -10.5t-27 -21.5z" />
    <glyph glyph-name="Icircumflex.ss01" horiz-adv-x="396" 
d="M348 0h-300q-7 0 -12 14t-5 38q0 51 17 51h79v482h-68q-6 0 -11.5 14.5t-5.5 37.5q0 52 17 52h279q17 0 17 -52q0 -15 -4 -33.5t-13 -18.5h-69v-482h79q17 0 17 -51q0 -25 -5 -38.5t-12 -13.5zM200 906q14 0 33 -4.5t45 -26.5q54 -51 70.5 -68.5t16.5 -22.5
q0 -15 -24 -27.5t-39 -12.5q-7 0 -15 3t-29 25l-58 59l-58 -60q-23 -27 -43 -27q-19 0 -41.5 13.5t-22.5 26.5q0 7 35 42t64 60q8 8 25 14t41 6z" />
    <glyph glyph-name="Idieresis.ss01" horiz-adv-x="396" 
d="M348 0h-300q-7 0 -12 14t-5 38q0 51 17 51h79v482h-68q-6 0 -11.5 14.5t-5.5 37.5q0 52 17 52h279q17 0 17 -52q0 -15 -4 -33.5t-13 -18.5h-69v-482h79q17 0 17 -51q0 -25 -5 -38.5t-12 -13.5zM28 823q0 29 12.5 39t47.5 10q34 0 47.5 -10.5t13.5 -38.5q0 -29 -13 -39
t-48 -10t-47.5 10t-12.5 39zM254 823q0 29 13 39t49 10q34 0 47 -10.5t13 -38.5q0 -29 -13 -39t-47 -10q-27 0 -44.5 7t-17.5 42z" />
    <glyph glyph-name="Igrave.ss01" horiz-adv-x="396" 
d="M348 0h-300q-7 0 -12 14t-5 38q0 51 17 51h79v482h-68q-6 0 -11.5 14.5t-5.5 37.5q0 52 17 52h279q17 0 17 -52q0 -15 -4 -33.5t-13 -18.5h-69v-482h79q17 0 17 -51q0 -25 -5 -38.5t-12 -13.5zM97 838q-6 4 -18 12.5t-12 19.5q0 15 21 40.5t35 25.5q13 0 37 -17
q59 -44 108 -88q31 -27 31 -34q0 -16 -17 -30.5t-30 -14.5q-8 0 -36 14q-22 12 -68 40.5t-51 31.5z" />
    <glyph glyph-name="Iogonek.ss01" horiz-adv-x="396" 
d="M348 0h-120q-18 -37 -18 -66q0 -39 60 -39q13 0 31.5 4.5t20.5 4.5q9 0 9 -26q0 -30 -5 -41q-3 -6 -30.5 -14.5t-59.5 -8.5q-71 0 -107.5 22.5t-36.5 73.5q0 23 14 47t33 43h-91q-7 0 -12 14t-5 38q0 51 17 51h79v482h-68q-6 0 -11.5 14.5t-5.5 37.5q0 52 17 52h279
q17 0 17 -52q0 -15 -4 -33.5t-13 -18.5h-69v-482h79q17 0 17 -51q0 -25 -5 -38.5t-12 -13.5z" />
    <glyph glyph-name="Imacron.ss01" horiz-adv-x="396" 
d="M348 0h-300q-7 0 -12 14t-5 38q0 51 17 51h79v482h-68q-6 0 -11.5 14.5t-5.5 37.5q0 52 17 52h279q17 0 17 -52q0 -15 -4 -33.5t-13 -18.5h-69v-482h79q17 0 17 -51q0 -25 -5 -38.5t-12 -13.5zM39 853h320q6 0 12 -9.5t6 -28.5q0 -12 -5 -26.5t-13 -14.5h-320
q-8 0 -13 14.5t-5 26.5q0 13 5 25.5t13 12.5z" />
    <glyph glyph-name="lslash.ss01" horiz-adv-x="396" 
d="M241 353v-183q0 -27 12.5 -43.5t39.5 -16.5q14 0 28.5 1.5t29 4t15.5 2.5q6 0 11.5 -17.5t5.5 -50.5q0 -18 -2 -25q-6 -16 -47 -24.5t-85 -8.5q-76 0 -109.5 32.5t-33.5 106.5v168l-90 -35q-6 0 -11.5 11t-5.5 28q0 7 1.5 14t4.5 8l101 41v306q0 20 68 20q67 0 67 -20
v-250q94 38 96 38q5 0 9.5 -10t4.5 -27q0 -9 -2 -17.5t-5 -9.5q-18 -9 -103 -43z" />
    </font>
</defs>
</svg>
