<?xml version="1.0" standalone="no"?>
<!DOCTYPE svg PUBLIC "-//W3C//DTD SVG 1.1//EN" "http://www.w3.org/Graphics/SVG/1.1/DTD/svg11.dtd" >
<svg xmlns="http://www.w3.org/2000/svg" xmlns:xlink="http://www.w3.org/1999/xlink" version="1.1">
<metadata>
Created by FontForge 20200427 at Tue Apr 19 02:55:21 2016
 By www
Published by Die Gestalten Verlag GmbH &#38; Co. KG, 2012. Copyright (c) 2011 by Sofie Beier. All rights reserved.
</metadata>
<defs>
<font id="OvinkW00-Medium" horiz-adv-x="606" >
  <font-face 
    font-family="OvinkW00-Medium"
    font-weight="500"
    font-stretch="normal"
    units-per-em="1000"
    panose-1="1 0 0 0 0 0 0 0 0 0"
    ascent="800"
    descent="-200"
    x-height="504"
    cap-height="692"
    bbox="-28 -291 1323 922"
    underline-thickness="50"
    underline-position="-125"
    unicode-range="U+000D-FB02"
  />
<missing-glyph horiz-adv-x="0" 
 />
    <glyph glyph-name="onequarter" unicode="&#x31;&#x2f;&#x34;" horiz-adv-x="801" 
d="M695 708q0 -6 -13 -26l-490 -702q-8 -12 -43 -12q-13 0 -21 1t-8 8q0 3 13 26l488 701q5 9 10.5 11t27.5 2q36 0 36 -9zM579 138v136l-3 4l-6 -4l-98 -136h107zM646 85v-85q0 -10 -33 -10q-36 0 -36 10v85h-167q-10 0 -14 4t-4 13t15 32l142 196q6 9 16 13t34 4
q47 0 47 -15v-193h58q4 0 6.5 -11t2.5 -18q0 -8 -2.5 -16.5t-6.5 -8.5h-58zM98 377h66v243l-69 -22q-7 0 -7 22q0 18 12 24q13 8 35 18t37 15q37 10 41 10q20 0 20 -21v-289h49q4 0 7 -8t3 -16q0 -7 -3 -15.5t-7 -8.5h-184q-4 0 -7 8.5t-3 15.5t3 15.5t7 8.5z" />
    <glyph glyph-name="onehalf" unicode="&#x31;&#x2f;&#x32;" horiz-adv-x="830" 
d="M597 358q48 0 80.5 -16t44 -39.5t11.5 -44.5q0 -25 -13.5 -51t-54.5 -64.5t-118 -89.5h187q2 0 5 -6t3 -22q0 -7 -2 -15.5t-6 -8.5h-254q-23 0 -23 19v12q0 11 15 21q105 75 149 120.5t44 83.5q0 24 -21 38.5t-48 14.5q-15 0 -32.5 -4.5t-35.5 -13t-20 -8.5
q-11 0 -21 14.5t-10 21.5q0 6 11 12q43 26 109 26zM98 377h66v243l-69 -22q-7 0 -7 22q0 18 12 24q13 8 35 18t37 15q37 10 41 10q20 0 20 -21v-289h49q4 0 7 -8t3 -16q0 -7 -3 -15.5t-7 -8.5h-184q-4 0 -7 8.5t-3 15.5t3 15.5t7 8.5zM695 708q0 -6 -13 -26l-490 -702
q-8 -12 -43 -12q-13 0 -21 1t-8 8q0 3 13 26l488 701q5 9 10.5 11t27.5 2q36 0 36 -9z" />
    <glyph glyph-name="threequarters" unicode="&#x33;&#x2f;&#x34;" horiz-adv-x="825" 
d="M208 376q21 0 41 7.5t31 24t11 30.5q0 27 -21 43t-46.5 20.5t-43.5 4.5q-9 0 -9 22t8 22q23 0 46 8t33 20.5t10 23.5q0 38 -56 38q-14 0 -30 -4t-33 -12t-18 -8q-11 0 -20.5 13t-9.5 19q0 11 39.5 24.5t78.5 13.5q49 0 83 -20.5t34 -60.5q0 -20 -13.5 -40t-42.5 -31v-3
q23 -6 42.5 -19.5t28 -33.5t8.5 -37q0 -53 -43.5 -84.5t-107.5 -31.5q-41 0 -80.5 15t-39.5 27q0 9 7.5 25t17.5 16q1 0 2.5 -0.5t23 -12t39 -15.5t30.5 -4zM603 138v136l-3 4l-6 -4l-98 -136h107zM670 85v-85q0 -10 -33 -10q-36 0 -36 10v85h-167q-10 0 -14 4t-4 13t15 32
l142 196q6 9 16 13t34 4q47 0 47 -15v-193h58q4 0 6.5 -11t2.5 -18q0 -8 -2.5 -16.5t-6.5 -8.5h-58zM719 708q0 -6 -13 -26l-490 -702q-8 -12 -43 -12q-13 0 -21 1t-8 8q0 3 13 26l488 701q5 9 10.5 11t27.5 2q36 0 36 -9z" />
    <glyph glyph-name="onethird" unicode="&#x33;&#x2f;&#x33;" horiz-adv-x="828" 
d="M589 42q21 0 41 7.5t31 24t11 30.5q0 27 -21 43t-46.5 20.5t-43.5 4.5q-9 0 -9 22t8 22q23 0 46 8t33 20.5t10 23.5q0 38 -56 38q-14 0 -30 -4t-33 -12t-18 -8q-11 0 -20.5 13t-9.5 19q0 11 39.5 24.5t78.5 13.5q49 0 83 -20.5t34 -60.5q0 -20 -13.5 -40t-42.5 -31v-3
q23 -6 42.5 -19.5t28 -33.5t8.5 -37q0 -53 -43.5 -84.5t-107.5 -31.5q-41 0 -80.5 15t-39.5 27q0 9 7.5 25t17.5 16q1 0 2.5 -0.5t23 -12t39 -15.5t30.5 -4zM98 377h66v243l-69 -22q-7 0 -7 22q0 18 12 24q13 8 35 18t37 15q37 10 41 10q20 0 20 -21v-289h49q4 0 7 -8t3 -16
q0 -7 -3 -15.5t-7 -8.5h-184q-4 0 -7 8.5t-3 15.5t3 15.5t7 8.5zM695 708q0 -6 -13 -26l-490 -702q-8 -12 -43 -12q-13 0 -21 1t-8 8q0 3 13 26l488 701q5 9 10.5 11t27.5 2q36 0 36 -9z" />
    <glyph glyph-name="twothirds" unicode="&#x32;&#x2f;&#x33;" horiz-adv-x="891" 
d="M228 686q48 0 80.5 -16t44 -39.5t11.5 -44.5q0 -25 -13.5 -51t-54.5 -64.5t-118 -89.5h187q2 0 5 -6t3 -22q0 -7 -2 -15.5t-6 -8.5h-254q-23 0 -23 19v12q0 11 15 21q105 75 149 120.5t44 83.5q0 24 -21 38.5t-48 14.5q-15 0 -32.5 -4.5t-35.5 -13t-20 -8.5
q-11 0 -21 14.5t-10 21.5q0 6 11 12q43 26 109 26zM758 708q0 -6 -13 -26l-490 -702q-8 -12 -43 -12q-13 0 -21 1t-8 8q0 3 13 26l488 701q5 9 10.5 11t27.5 2q36 0 36 -9zM652 42q21 0 41 7.5t31 24t11 30.5q0 27 -21 43t-46.5 20.5t-43.5 4.5q-9 0 -9 22t8 22q23 0 46 8
t33 20.5t10 23.5q0 38 -56 38q-14 0 -30 -4t-33 -12t-18 -8q-11 0 -20.5 13t-9.5 19q0 11 39.5 24.5t78.5 13.5q49 0 83 -20.5t34 -60.5q0 -20 -13.5 -40t-42.5 -31v-3q23 -6 42.5 -19.5t28 -33.5t8.5 -37q0 -53 -43.5 -84.5t-107.5 -31.5q-41 0 -80.5 15t-39.5 27
q0 9 7.5 25t17.5 16q1 0 2.5 -0.5t23 -12t39 -15.5t30.5 -4z" />
    <glyph glyph-name="oneeighth" unicode="&#x31;&#x2f;&#x38;" horiz-adv-x="833" 
d="M598 -11q-34 0 -68 11t-57 40t-23 65q0 22 11.5 43.5t31.5 34.5t41 18q-28 9 -43 27.5t-15 41.5q0 36 33 59t89 23q27 0 56 -7.5t47.5 -27.5t18.5 -47q0 -21 -16 -41t-44 -28q21 -4 41.5 -17t32 -35t11.5 -44q0 -23 -13 -50.5t-48 -46.5t-86 -19zM598 171
q-37 0 -58.5 -17t-21.5 -48t22 -49.5t58 -18.5t58 18t22 50q0 31 -22 48t-58 17zM541 270q0 -20 16.5 -30.5t40.5 -10.5t40.5 10.5t16.5 30.5q0 18 -16 29t-41 11q-26 0 -41.5 -11t-15.5 -29zM98 377h66v243l-69 -22q-7 0 -7 22q0 18 12 24q13 8 35 18t37 15q37 10 41 10
q20 0 20 -21v-289h49q4 0 7 -8t3 -16q0 -7 -3 -15.5t-7 -8.5h-184q-4 0 -7 8.5t-3 15.5t3 15.5t7 8.5zM695 708q0 -6 -13 -26l-490 -702q-8 -12 -43 -12q-13 0 -21 1t-8 8q0 3 13 26l488 701q5 9 10.5 11t27.5 2q36 0 36 -9z" />
    <glyph glyph-name="threeeighths" unicode="&#x33;&#x2f;&#x38;" horiz-adv-x="855" 
d="M718 708q0 -6 -13 -26l-490 -702q-8 -12 -43 -12q-13 0 -21 1t-8 8q0 3 13 26l488 701q5 9 10.5 11t27.5 2q36 0 36 -9zM620 -11q-34 0 -68 11t-57 40t-23 65q0 22 11.5 43.5t31.5 34.5t41 18q-28 9 -43 27.5t-15 41.5q0 36 33 59t89 23q27 0 56 -7.5t47.5 -27.5
t18.5 -47q0 -21 -16 -41t-44 -28q21 -4 41.5 -17t32 -35t11.5 -44q0 -23 -13 -50.5t-48 -46.5t-86 -19zM620 171q-37 0 -58.5 -17t-21.5 -48t22 -49.5t58 -18.5t58 18t22 50q0 31 -22 48t-58 17zM563 270q0 -20 16.5 -30.5t40.5 -10.5t40.5 10.5t16.5 30.5q0 18 -16 29
t-41 11q-26 0 -41.5 -11t-15.5 -29zM208 376q21 0 41 7.5t31 24t11 30.5q0 27 -21 43t-46.5 20.5t-43.5 4.5q-9 0 -9 22t8 22q23 0 46 8t33 20.5t10 23.5q0 38 -56 38q-14 0 -30 -4t-33 -12t-18 -8q-11 0 -20.5 13t-9.5 19q0 11 39.5 24.5t78.5 13.5q49 0 83 -20.5t34 -60.5
q0 -20 -13.5 -40t-42.5 -31v-3q23 -6 42.5 -19.5t28 -33.5t8.5 -37q0 -53 -43.5 -84.5t-107.5 -31.5q-41 0 -80.5 15t-39.5 27q0 9 7.5 25t17.5 16q1 0 2.5 -0.5t23 -12t39 -15.5t30.5 -4z" />
    <glyph glyph-name="fiveeighths" unicode="&#x35;&#x2f;&#x38;" horiz-adv-x="864" 
d="M159 682h186q4 0 6.5 -8t2.5 -15q0 -6 -2.5 -16t-6.5 -10h-160l-13 -75q22 7 55 7q42 0 72.5 -13.5t47.5 -40.5t17 -63q0 -38 -19 -66t-55.5 -44t-84.5 -16q-22 0 -49 6t-47.5 18t-20.5 20q0 3 3.5 15t10 18.5t11.5 6.5q1 0 3 -0.5t14.5 -8t24.5 -12.5t25.5 -7.5
t28.5 -2.5q37 0 61.5 20t24.5 50q0 19 -10 35t-30.5 23t-42.5 7q-32 0 -56 -6l-13 -4q-7 0 -23 10.5t-16 15.5l23 138q4 18 32 18zM726 708q0 -6 -13 -26l-490 -702q-8 -12 -43 -12q-13 0 -21 1t-8 8q0 3 13 26l488 701q5 9 10.5 11t27.5 2q36 0 36 -9zM629 -11
q-34 0 -68 11t-57 40t-23 65q0 22 11.5 43.5t31.5 34.5t41 18q-28 9 -43 27.5t-15 41.5q0 36 33 59t89 23q27 0 56 -7.5t47.5 -27.5t18.5 -47q0 -21 -16 -41t-44 -28q21 -4 41.5 -17t32 -35t11.5 -44q0 -23 -13 -50.5t-48 -46.5t-86 -19zM629 171q-37 0 -58.5 -17t-21.5 -48
t22 -49.5t58 -18.5t58 18t22 50q0 31 -22 48t-58 17zM572 270q0 -20 16.5 -30.5t40.5 -10.5t40.5 10.5t16.5 30.5q0 18 -16 29t-41 11q-26 0 -41.5 -11t-15.5 -29z" />
    <glyph glyph-name="seveneighths" unicode="&#x37;&#x2f;&#x38;" horiz-adv-x="801" 
d="M374 666q0 -15 -8 -31q-2 -4 -10 -18t-72 -131t-80 -148q-2 -3 -7.5 -7.5t-28.5 -4.5q-16 0 -26 3.5t-10 9.5q0 5 10 22l156 270h-183q-4 0 -6.5 10.5t-2.5 17.5t2.5 15t6.5 8h233q12 0 19 -4t7 -12zM663 708q0 -6 -13 -26l-490 -702q-8 -12 -43 -12q-13 0 -21 1t-8 8
q0 3 13 26l488 701q5 9 10.5 11t27.5 2q36 0 36 -9zM566 -11q-34 0 -68 11t-57 40t-23 65q0 22 11.5 43.5t31.5 34.5t41 18q-28 9 -43 27.5t-15 41.5q0 36 33 59t89 23q27 0 56 -7.5t47.5 -27.5t18.5 -47q0 -21 -16 -41t-44 -28q21 -4 41.5 -17t32 -35t11.5 -44
q0 -23 -13 -50.5t-48 -46.5t-86 -19zM566 171q-37 0 -58.5 -17t-21.5 -48t22 -49.5t58 -18.5t58 18t22 50q0 31 -22 48t-58 17zM509 270q0 -20 16.5 -30.5t40.5 -10.5t40.5 10.5t16.5 30.5q0 18 -16 29t-41 11q-26 0 -41.5 -11t-15.5 -29z" />
    <glyph glyph-name="uniFB01" unicode="fi" horiz-adv-x="646" 
d="M59 491l59 11q0 194 165 194q59 0 97 -13q19 -7 19 -20q0 -9 -5 -27t-12 -27.5t-14 -9.5q-1 0 -24.5 7.5t-46.5 7.5q-42 0 -61.5 -33.5t-19.5 -77.5l92 -10q16 -2 16 -27q0 -10 -3 -20t-11 -11l-96 -15v-408q0 -15 -47 -15q-49 0 -49 15v408l-61 14q-3 1 -7 7.5t-4 21.5
q0 27 13 28zM555 494v-483q0 -15 -47 -15q-49 0 -49 15v483q0 14 48 14t48 -14zM448 647q0 28 14 38.5t47 10.5q32 0 46 -10.5t14 -38.5q0 -21 -10 -34t-50 -13q-34 0 -47.5 9.5t-13.5 37.5z" />
    <glyph glyph-name="uniFB02" unicode="fl" horiz-adv-x="671" 
d="M216 513l122 -10q16 -1 16 -27q0 -10 -3 -20t-11 -11l-126 -15v-418q0 -15 -47 -15q-49 0 -49 15v418l-61 14q-3 1 -7 7.5t-4 21.5q0 26 13 28l59 11q0 184 226 184q76 0 151.5 -5t88.5 -13v-667q0 -14 -48 -14q-49 0 -49 14v593q-26 6 -68 9.5t-74 3.5q-69 0 -99 -25.5
t-30 -78.5z" />
    <glyph glyph-name=".notdef" horiz-adv-x="0" 
 />
    <glyph glyph-name="glyph1" horiz-adv-x="0" 
 />
    <glyph glyph-name="glyph1" horiz-adv-x="0" 
 />
    <glyph glyph-name="uni000D" unicode="&#xd;" horiz-adv-x="299" 
 />
    <glyph glyph-name="space" unicode=" " horiz-adv-x="293" 
 />
    <glyph glyph-name="exclam" unicode="!" horiz-adv-x="306" 
d="M152 692q31 0 43 -6.5t12 -18.5v-22q0 -40 -4 -227t-5 -208q-2 -22 -46 -22q-41 0 -44 22q-3 45 -6 188t-3 246v23q0 8 7.5 16.5t45.5 8.5zM92 41q0 28 14 38.5t48 10.5q31 0 45.5 -10.5t14.5 -38.5q0 -21 -10.5 -34.5t-49.5 -13.5q-34 0 -48 10t-14 38z" />
    <glyph glyph-name="quotedbl" unicode="&#x22;" horiz-adv-x="499" 
d="M363 441q-17 0 -27.5 4t-11.5 16q0 3 -5 50.5t-8.5 91t-3.5 64.5q0 15 12 22.5t44 7.5t44 -7.5t12 -22.5q0 -29 -6 -98t-11 -108q-1 -9 -8.5 -14.5t-30.5 -5.5zM136 441q-17 0 -27.5 4t-11.5 16q0 3 -5 50.5t-8.5 91t-3.5 64.5q0 15 12 22.5t44 7.5t44 -7.5t12 -22.5
q0 -29 -6 -98t-11 -108q-1 -9 -8.5 -14.5t-30.5 -5.5z" />
    <glyph glyph-name="numbersign" unicode="#" 
d="M358 3l11 143h-152l-14 -144q-1 -6 -9.5 -8.5t-18.5 -2.5q-26 0 -26 12l13 143h-123q-13 0 -13 21q0 11 5 21t11 10h124l12 144h-115q-12 0 -12 22q0 11 4.5 21t11.5 10h115l13 126q1 11 27 11q28 0 28 -11l-11 -126h152q9 110 12 126q1 11 27 11q10 0 18.5 -2.5
t8.5 -8.5l-11 -126h123q11 0 11 -23q0 -9 -4.5 -19.5t-10.5 -10.5h-124l-13 -144h119q5 0 8.5 -6t3.5 -14q0 -13 -4.5 -22.5t-10.5 -9.5h-121l-10 -144q-2 -10 -28 -10q-9 0 -18 2.5t-9 8.5zM386 342h-151l-14 -144h152z" />
    <glyph glyph-name="dollar" unicode="$" 
d="M333 812v-113q38 -2 83.5 -13t78.5 -29.5t33 -29.5q0 -4 -5 -18.5t-15 -31t-19 -16.5q-5 0 -38.5 15.5t-63 24.5t-54.5 12v-198q79 -23 123.5 -48t70 -63t25.5 -95q0 -33 -11 -68t-37.5 -65t-69 -52t-101.5 -28v-97q0 -11 -25 -11q-24 0 -24 11v95q-39 1 -92.5 12t-95 33
t-41.5 39q0 5 6 20.5t17.5 32.5t20.5 17q4 0 22.5 -11t30.5 -17q26 -14 63 -25t69 -13v240q-65 23 -110 49t-65.5 63.5t-20.5 86.5q0 77 49.5 125t146.5 53v114q0 3 2.5 7t21.5 4q25 0 25 -12zM446 198q0 34 -25 59t-88 48v-220q37 6 64.5 24t38 42.5t10.5 46.5zM190 526
q0 -54 94 -92v180q-42 -4 -68 -26.5t-26 -61.5z" />
    <glyph glyph-name="percent" unicode="%" horiz-adv-x="1077" 
d="M250 696q52 0 99 -19t72 -59.5t25 -91.5q0 -31 -10 -62t-34 -56.5t-62 -41.5t-90 -16q-63 0 -107 24t-66.5 62t-22.5 90q0 51 22.5 88t66.5 59.5t107 22.5zM250 421q35 0 60 14.5t34.5 40t9.5 51.5q0 49 -28.5 75t-75.5 26q-34 0 -59.5 -14t-35.5 -38.5t-10 -48.5
q0 -38 16.5 -63.5t41.5 -34t47 -8.5zM785 680q0 -11 -16 -37l-375 -627q-12 -20 -53 -20q-50 0 -50 18q0 5 10 22l383 642q10 17 53 17q48 0 48 -15zM826 337q63 0 107 -22.5t67 -60t23 -88.5q0 -31 -10 -62t-34 -56.5t-62.5 -41.5t-90.5 -16q-41 0 -77 11.5t-62.5 34
t-41.5 56t-15 74.5q0 30 10 61t34 55t62 39.5t90 15.5zM827 61q47 0 75.5 27t28.5 79q0 24 -9.5 48.5t-35 38.5t-59.5 14q-48 0 -76.5 -25t-28.5 -76t28.5 -78.5t76.5 -27.5z" />
    <glyph glyph-name="ampersand" unicode="&#x26;" horiz-adv-x="743" 
d="M54 175q0 60 41 108.5t116 89.5q-35 38 -58.5 82.5t-23.5 87.5q0 46 24 80t67 52.5t106 18.5q34 0 70.5 -8t64 -24t44.5 -43.5t17 -63.5q0 -57 -43.5 -106.5t-136.5 -93.5q35 -35 86 -79.5t97 -79.5q21 27 35.5 75.5t14.5 81.5q0 8 7 12.5t37 4.5q20 0 30.5 -3t10.5 -16
q0 -113 -70 -207l114 -81q10 -8 10 -24v-21q0 -19 -21 -19h-40q-17 0 -32 11l-94 66q-22 -19 -66.5 -40.5t-89.5 -31.5t-79 -10q-75 0 -127.5 21t-81.5 60.5t-29 99.5zM303 71q32 0 76 15t83 43q-126 104 -200 179q-36 -20 -63 -44t-37.5 -46.5t-10.5 -38.5q0 -36 18 -60
t52 -36t82 -12zM231 540q0 -26 16 -58t43 -62q139 70 139 128q0 34 -27.5 54.5t-74.5 20.5q-55 0 -75.5 -22.5t-20.5 -60.5z" />
    <glyph glyph-name="quotesingle" unicode="'" horiz-adv-x="272" 
d="M136 441q-17 0 -27.5 4t-11.5 16q0 3 -5 50.5t-8.5 91t-3.5 64.5q0 15 12 22.5t44 7.5t44 -7.5t12 -22.5q0 -29 -6 -98t-11 -108q-1 -9 -8.5 -14.5t-30.5 -5.5z" />
    <glyph glyph-name="parenleft" unicode="(" horiz-adv-x="371" 
d="M177 294q0 -139 29 -244.5t93 -176.5q14 -14 14 -18q0 -9 -13.5 -23t-28.5 -14q-13 0 -30 12q-77 65 -119 183t-42 282q0 82 22.5 166.5t58.5 148t80 97.5q17 12 30 12q15 0 28.5 -14t13.5 -23q0 -1 -1 -3.5t-13 -15.5q-55 -56 -88.5 -163t-33.5 -206z" />
    <glyph glyph-name="parenright" unicode=")" horiz-adv-x="371" 
d="M194 294q0 71 -19.5 153t-47.5 135t-56 81q-12 13 -13 15.5t-1 3.5q0 9 13.5 23t28.5 14q14 0 31 -12q26 -20 53.5 -57t53 -96t39.5 -129.5t14 -129.5q0 -164 -42 -282t-118 -183q-17 -12 -31 -12q-15 0 -28.5 14t-13.5 23q0 2 1.5 4.5t6.5 7.5l6 6q65 71 94 176.5
t29 244.5z" />
    <glyph glyph-name="asterisk" unicode="*" horiz-adv-x="412" 
d="M232 681l-10 -118q17 23 46.5 57t36.5 36l4 1q8 0 19 -10.5t11 -18.5l-1 -5q-2 -6 -29 -30.5t-64 -51.5q24 3 69.5 6t49.5 3q15 0 15 -26q0 -11 -2.5 -18t-12.5 -7q-7 0 -51.5 3t-67.5 6q22 -17 56.5 -46.5t37.5 -35.5l1 -4q0 -9 -11 -20t-20 -11l-4 1q-5 2 -34 35.5
t-49 59.5l10 -120q0 -15 -26 -16q-11 1 -18 3.5t-7 12.5q0 4 3 49.5t6 69.5q-22 -28 -49 -60t-33 -34l-4 -1q-9 0 -20 11t-11 20l1 4q2 5 28 28t65 54q-21 -3 -62.5 -6t-56.5 -3q-3 0 -9 2.5t-6 22.5q0 26 16 26q4 0 49 -3t69 -6q-24 18 -57.5 46.5t-35.5 35.5l-1 4
q0 9 11 19.5t20 10.5l4 -1q15 -7 81 -93q-4 37 -9 118q0 16 26 16t26 -16z" />
    <glyph glyph-name="plus" unicode="+" 
d="M332 500v-159h181q6 0 9.5 -10t3.5 -20t-3.5 -21.5t-9.5 -11.5h-181v-173q0 -5 -10.5 -9t-20.5 -4q-9 0 -21 4t-12 9v173h-175q-5 0 -9 11.5t-4 21.5q0 9 4 19.5t9 10.5h175v159q0 5 12 9t21 4q10 0 20.5 -4t10.5 -9z" />
    <glyph glyph-name="comma" unicode="," horiz-adv-x="242" 
d="M54 -126q0 11 10.5 73.5t22.5 123.5q8 40 29 40q20 0 41 -7q16 -5 26 -11.5t10 -18.5q0 -6 -9 -33q0 -1 -2 -5.5t-31 -90t-36 -89.5q-4 -3 -9 -3q-11 0 -31.5 6t-20.5 15z" />
    <glyph glyph-name="hyphen" unicode="-" horiz-adv-x="418" 
d="M67 346h282q5 0 9.5 -13.5t4.5 -31.5q0 -10 -4 -26t-10 -16h-282q-4 0 -8.5 13t-4.5 29q0 11 3.5 28t9.5 17z" />
    <glyph glyph-name="period" unicode="." horiz-adv-x="254" 
d="M66 40q0 28 14 38.5t48 10.5q31 0 45.5 -10.5t14.5 -38.5q0 -21 -10.5 -34.5t-49.5 -13.5q-34 0 -48 10t-14 38z" />
    <glyph glyph-name="slash" unicode="/" horiz-adv-x="469" 
d="M431 682q0 -8 -19 -49l-280 -618q-4 -9 -12.5 -14t-37.5 -5q-48 0 -48 18q0 3 10 25l289 640q5 11 17.5 14.5t33.5 3.5q18 0 32.5 -4t14.5 -11z" />
    <glyph glyph-name="zero" unicode="0" horiz-adv-x="600" 
d="M300 -9q-72 0 -122.5 22.5t-80.5 66.5t-43.5 110t-13.5 154t13.5 153.5t43.5 110t80.5 67t122.5 22.5q90 0 146 -35t84.5 -109.5t28.5 -208.5q0 -88 -13.5 -154t-43 -110t-80 -66.5t-122.5 -22.5zM300 71q54 0 90.5 25t53 80t16.5 168t-17 168.5t-53.5 80.5t-89.5 25
t-89.5 -25t-53 -80.5t-16.5 -168.5q0 -78 7 -125t26 -82t52.5 -50.5t73.5 -15.5z" />
    <glyph glyph-name="one" unicode="1" horiz-adv-x="467" 
d="M71 79h128v501l-133 -45q-4 0 -7.5 13.5t-3.5 29.5q0 27 17 38q46 28 132 63q51 17 65 17q13 0 20.5 -5.5t7.5 -25.5v-586h115q4 0 8.5 -11.5t4.5 -27.5q0 -15 -4.5 -27.5t-8.5 -12.5h-341q-4 0 -8.5 12t-4.5 28q0 11 3.5 25t9.5 14z" />
    <glyph glyph-name="two" unicode="2" horiz-adv-x="558" 
d="M283 696q41 0 82.5 -9t75 -30.5t55 -56.5t21.5 -83q0 -54 -18.5 -99t-54 -92t-99 -108.5t-166.5 -139.5h340q5 0 9.5 -12.5t4.5 -29.5q0 -9 -4 -22.5t-10 -13.5h-448q-14 0 -24 5t-10 24v20q0 15 21 32q198 158 280.5 255.5t82.5 178.5q0 49 -41.5 77.5t-98.5 28.5
q-28 0 -60.5 -8t-64 -24t-33 -16.5t-3.5 -0.5q-14 0 -28 22t-14 32t16 21q74 49 189 49z" />
    <glyph glyph-name="three" unicode="3" horiz-adv-x="552" 
d="M253 70q55 0 91 22t53 56.5t17 67.5q0 68 -54 102t-150 34q-5 0 -9 11t-4 29q0 19 3.5 30t8.5 11q45 0 87.5 16.5t60 42t17.5 51.5q0 77 -111 77q-25 0 -55 -8t-61 -24t-34 -16q-15 0 -29.5 22.5t-14.5 32.5q0 9 24 24.5t79 30.5t101 15q63 0 107 -18.5t68 -52t24 -82.5
q0 -29 -14 -58t-39.5 -48.5t-51.5 -30.5v-9q54 -14 87 -44.5t46.5 -67.5t13.5 -71q0 -47 -19 -88.5t-53.5 -71.5t-83 -47t-104.5 -17q-32 0 -80 10.5t-89 32t-41 37.5q0 8 8 25.5t18 26.5t18 9q3 0 24 -14t39 -23t39 -15.5t37.5 -8t25.5 -1.5z" />
    <glyph glyph-name="four" unicode="4" horiz-adv-x="594" 
d="M368 269v296q0 7 -5 7q-4 0 -9 -7l-202 -296h216zM463 189v-177q0 -16 -47 -16q-50 0 -50 16v177h-307q-12 0 -19.5 4.5t-7.5 22.5q0 15 26 56l262 389q11 18 27.5 25t48.5 7q67 0 67 -23v-401h108q5 0 9.5 -12.5t4.5 -29.5q0 -9 -4 -23.5t-10 -14.5h-108z" />
    <glyph glyph-name="five" unicode="5" horiz-adv-x="565" 
d="M158 689h327q5 0 9 -9.5t4 -25.5q0 -10 -3.5 -27.5t-9.5 -17.5h-289l-28 -172q48 15 107 15q57 0 102.5 -16.5t76.5 -46t46.5 -71t15.5 -90.5q0 -56 -20.5 -101t-57.5 -74.5t-86 -44.5t-105 -15q-38 0 -86 10.5t-84 32t-36 35.5q0 9 6.5 26.5t14.5 26.5t15 9q1 0 4.5 -1
t25.5 -15.5t44 -24.5t47 -15.5t52 -5.5q75 0 121 42.5t46 110.5q0 26 -7.5 52t-26.5 46.5t-51 32.5t-77 12q-54 0 -104 -15q-3 -1 -11.5 -4t-11.5 -3q-11 0 -34.5 17t-23.5 24l41 274q2 13 12 21t35 8z" />
    <glyph glyph-name="six" unicode="6" horiz-adv-x="577" 
d="M456 621l-39 -7q-64 -14 -111.5 -44t-78.5 -72t-45 -92q53 31 122 31q56 0 101 -15.5t75.5 -43.5t46 -66.5t15.5 -83.5q0 -48 -16.5 -91t-48.5 -76t-79.5 -51.5t-105.5 -18.5q-56 0 -102.5 16.5t-80 49t-51.5 81t-18 109.5q0 72 22 143t64 131t105 103.5t140 62.5
q14 3 38 7t33 4t16.5 -21t7.5 -34q0 -19 -10 -22zM444 227q0 25 -12.5 54t-45.5 51.5t-80 22.5t-85 -14.5t-60 -44.5t-22 -74q0 -26 9 -54t28 -50.5t48 -35.5t67 -13q46 0 79.5 19t53.5 54.5t20 84.5z" />
    <glyph glyph-name="seven" unicode="7" horiz-adv-x="534" 
d="M497 664q0 -27 -12 -51q-2 -4 -7.5 -16.5t-33 -69t-134.5 -275.5t-116 -237q-5 -10 -13 -15t-38 -5q-52 0 -52 20q0 7 17 39l280 550h-334q-4 0 -8.5 13.5t-4.5 30.5q0 11 3.5 25.5t9.5 14.5h406q37 0 37 -24z" />
    <glyph glyph-name="eight" unicode="8" horiz-adv-x="590" 
d="M295 -9q-59 0 -107.5 16.5t-81 46.5t-49.5 71t-17 87q0 45 15.5 84t48 67t82.5 40q-48 18 -73 54t-25 84q0 32 13 61t39 50t65.5 33t88.5 12q62 0 111.5 -20t73 -57.5t23.5 -78.5q0 -44 -25.5 -82.5t-75.5 -55.5q50 -11 83 -38.5t49.5 -67.5t16.5 -85q0 -46 -17 -87
t-49.5 -71t-80.5 -46.5t-108 -16.5zM295 353q-73 0 -115 -35.5t-42 -103.5t43 -106t114 -38q72 0 114 37t42 106t-41.5 104.5t-114.5 35.5zM183 542q0 -45 32.5 -68.5t80.5 -23.5t80 23.5t32 68.5q0 30 -18 50.5t-45 27.5t-51 7t-50.5 -7.5t-43.5 -28t-17 -49.5z" />
    <glyph glyph-name="nine" unicode="9" horiz-adv-x="577" 
d="M121 66l39 7q64 14 111.5 44t78.5 72t45 92q-53 -31 -122 -31q-56 0 -101 15.5t-75.5 43.5t-46 66.5t-15.5 83.5q0 48 16.5 91t48.5 76t79.5 51.5t105.5 18.5q56 0 102.5 -16.5t80 -49t51.5 -81t18 -109.5q0 -72 -22 -143t-64 -131t-105 -103.5t-140 -62.5q-14 -3 -38 -7
t-33 -4t-16.5 21t-7.5 34q0 19 10 22zM133 460q0 -25 12.5 -54t45.5 -51.5t80 -22.5t85 14.5t60 44.5t22 74q0 26 -9 54t-28 50.5t-48 35.5t-67 13q-46 0 -79.5 -19t-53.5 -54.5t-20 -84.5z" />
    <glyph glyph-name="colon" unicode=":" horiz-adv-x="254" 
d="M66 368q0 28 14 38.5t48 10.5q31 0 45.5 -10.5t14.5 -38.5q0 -21 -10.5 -34.5t-49.5 -13.5q-34 0 -48 10t-14 38zM66 40q0 28 14 38.5t48 10.5q31 0 45.5 -10.5t14.5 -38.5q0 -21 -10.5 -34.5t-49.5 -13.5q-34 0 -48 10t-14 38z" />
    <glyph glyph-name="semicolon" unicode=";" horiz-adv-x="267" 
d="M62 -126q0 11 10.5 73.5t22.5 123.5q8 40 29 40q20 0 41 -7q16 -5 26 -11.5t10 -18.5q0 -6 -9 -33q0 -1 -2 -5.5t-31 -90t-36 -89.5q-4 -3 -9 -3q-11 0 -31.5 6t-20.5 15zM90 368q0 28 14 38.5t48 10.5q31 0 45.5 -10.5t14.5 -38.5q0 -21 -10.5 -34.5t-49.5 -13.5
q-34 0 -48 10t-14 38z" />
    <glyph glyph-name="less" unicode="&#x3c;" horiz-adv-x="746" 
d="M62 277q0 15 18 29q122 117 205.5 191.5t92.5 74.5q12 0 31 -19l11 -11t7 -16q0 -2 -7.5 -10.5t-29.5 -29t-56 -51t-78.5 -70t-58.5 -51.5h470q6 0 10 -9t4 -27q0 -11 -3 -24.5t-11 -13.5h-473q13 -12 44.5 -42t62.5 -59t78 -72.5t47 -48.5q0 -14 -16 -28
q-19 -16 -33 -16q-8 0 -96.5 81t-200.5 191q-18 17 -18 31z" />
    <glyph glyph-name="equal" unicode="=" 
d="M101 260h404q5 0 9 -10.5t4 -19.5t-3.5 -21.5t-9.5 -12.5h-404q-4 0 -8.5 10t-4.5 24q0 9 4 19.5t9 10.5zM101 448h404q5 0 9 -10.5t4 -19.5t-3.5 -21.5t-9.5 -12.5h-404q-4 0 -8.5 10t-4.5 24q0 9 4 19.5t9 10.5z" />
    <glyph glyph-name="greater" unicode="&#x3e;" horiz-adv-x="746" 
d="M684 277q0 -15 -17 -31q-2 -2 -7.5 -7t-144 -135t-146.5 -130q-15 0 -33 16q-16 16 -16 28q0 2 6 9t81 77t145 136h-473q-6 0 -10 10.5t-4 27.5q0 11 3 23.5t11 12.5h471q-144 126 -187.5 166t-43.5 46q0 3 1.5 8t16.5 19q19 19 31 19q8 0 84 -66.5t215 -199.5
q17 -14 17 -29z" />
    <glyph glyph-name="question" unicode="?" horiz-adv-x="495" 
d="M245 611q-27 0 -59.5 -7.5t-69.5 -23.5t-41 -16q-11 0 -23 25.5t-12 38.5q0 10 19 22q92 47 183 47q40 0 79.5 -9t69 -30.5t47 -53.5t17.5 -75q0 -71 -40 -112.5t-111 -75.5q-44 -21 -56.5 -40t-12.5 -44q0 -13 4 -53q0 -17 -50 -17q-49 0 -51 16q-3 24 -3 62
q0 79 88 128q70 38 100.5 65t30.5 64q0 38 -31 63.5t-78 25.5zM127 44q0 28 14 38.5t48 10.5q31 0 45.5 -10.5t14.5 -38.5q0 -21 -10.5 -34.5t-49.5 -13.5q-34 0 -48 10t-14 38z" />
    <glyph glyph-name="at" unicode="@" horiz-adv-x="1081" 
d="M1029 322q0 -58 -15.5 -111t-46 -94.5t-77 -65.5t-105.5 -24q-71 0 -105.5 22.5t-48.5 58.5q-67 -80 -161 -80q-49 0 -92.5 25.5t-65.5 73t-22 97.5q0 40 15 93t51.5 96.5t82 61.5t93.5 18q76 0 123 -40q10 -8 16 -8q3 0 10.5 10.5t12.5 22.5q1 2 5.5 5t26.5 3
q38 0 38 -15q0 -5 -20.5 -91t-24.5 -102q-19 -77 -19 -99q0 -33 24 -54.5t62 -21.5q42 0 73 24.5t50.5 73t19.5 119.5q0 67 -23 123.5t-69 97t-115 62.5t-156 22q-101 0 -180.5 -27.5t-132.5 -78.5t-79.5 -120.5t-26.5 -151.5q0 -63 19 -123t62.5 -108.5t116.5 -77.5
t174 -29q81 0 169 22q17 5 24 5q10 0 18.5 -17t8.5 -42q0 -6 -3.5 -13.5t-9.5 -9.5q-34 -10 -90 -18.5t-120 -8.5q-65 0 -129 11t-127.5 40t-114 85.5t-74.5 129.5t-24 149q0 96 32.5 181t97.5 148.5t163 98.5t226 35q104 0 190.5 -28t147.5 -79t93 -122t32 -154zM613 219
q34 117 34 139q0 7 -16.5 23t-41 24t-46.5 8q-30 0 -59.5 -12.5t-53 -42.5t-34 -69t-10.5 -67q0 -51 26.5 -80.5t68.5 -29.5q28 0 57.5 14.5t48 40.5t26.5 52z" />
    <glyph glyph-name="A" unicode="A" horiz-adv-x="576" 
d="M555 61v-44q0 -17 -22 -17h-41q-12 0 -19 2.5t-11 15.5l-65 207h-222l-64 -207q-4 -10 -8.5 -14t-12.5 -4h-53q-16 0 -16 15v47q0 4 1 10.5t11 37.5l196 568q3 7 12 11t46 4q31 0 44 -2.5t16 -11.5l199 -575q9 -28 9 -43zM380 299l-85 273q-2 8 -9 8q-6 0 -8 -8l-87 -273
h189z" />
    <glyph glyph-name="B" unicode="B" horiz-adv-x="596" 
d="M261 0h-140q-29 0 -29 25v638q0 26 29 26h159q119 0 175 -38t56 -116q0 -53 -27.5 -91t-84.5 -56q59 -10 96.5 -41.5t49 -69.5t11.5 -68q0 -68 -33.5 -114t-98 -70.5t-163.5 -24.5zM275 340l-86 6v-260q0 -2 2 -5.5t17 -3.5h36q85 0 129 14t64 44.5t20 74.5
q0 33 -11.5 59t-48 45.5t-122.5 25.5zM278 617h-73q-16 0 -16 -8v-203l85 9q48 5 81.5 20.5t46 40.5t12.5 53q0 50 -36 69t-100 19z" />
    <glyph glyph-name="C" unicode="C" horiz-adv-x="612" 
d="M345 697q104 0 185 -49q26 -16 26 -26q0 -4 -6.5 -18t-20 -29t-23.5 -15q-1 0 -3 1t-22 13t-43 20.5t-46 13t-48 4.5q-97 0 -146 -62t-49 -205q0 -100 23 -158t67 -84.5t105 -26.5q37 0 73.5 11t73.5 32.5t38.5 22t2.5 0.5q11 0 24 -27t13 -38q0 -14 -27 -32.5t-89 -36
t-112 -17.5q-145 0 -219.5 89t-74.5 264q0 353 298 353z" />
    <glyph glyph-name="D" unicode="D" horiz-adv-x="669" 
d="M317 616h-108q-17 0 -17 -7v-525q0 -7 17 -7h105q104 0 154.5 62t50.5 209q0 105 -24 162t-69.5 81.5t-108.5 24.5zM316 0h-195q-29 0 -29 25v638q0 26 29 26h197q304 0 304 -343q0 -87 -20.5 -153t-59.5 -108.5t-96 -63.5t-130 -21z" />
    <glyph glyph-name="E" unicode="E" horiz-adv-x="572" 
d="M433 327l-233 -14q-8 0 -8 -10v-216q0 -8 15 -8h323q4 0 8.5 -12t4.5 -29q0 -10 -3.5 -24t-9.5 -14h-409q-29 0 -29 26v636q0 27 28 27h374q5 0 9 -9.5t4 -25.5q0 -10 -3.5 -27t-9.5 -17h-288q-3 0 -8.5 -0.5t-5.5 -7.5v-186q0 -3 0.5 -7t8.5 -4l232 -14q5 -1 9 -12
t4 -20q0 -11 -4 -21t-9 -11z" />
    <glyph glyph-name="F" unicode="F" horiz-adv-x="517" 
d="M433 317l-233 -13q-8 0 -8 -11v-281q0 -16 -49 -16q-51 0 -51 16v650q0 26 28 26h374q5 0 9 -9t4 -25q0 -10 -3.5 -27t-9.5 -17h-289q-3 0 -8 -0.5t-5 -7.5v-195q0 -3 0.5 -7.5t7.5 -4.5l233 -14q5 -1 9 -11.5t4 -20.5t-4 -20.5t-9 -11.5z" />
    <glyph glyph-name="G" unicode="G" horiz-adv-x="644" 
d="M149 345q0 -100 23 -158t67 -84.5t105 -26.5q41 0 83 13t58 27v159h-146q-5 0 -8.5 10t-3.5 27q0 40 12 40h220q9 0 15.5 -5.5t6.5 -13.5v-252q0 -20 -41 -41q-101 -49 -196 -49q-147 0 -222 89t-75 265q0 352 302 352q100 0 181 -49q26 -16 26 -26q0 -11 -18 -36.5
t-31 -25.5q-1 0 -2.5 0.5t-30 17t-63 25.5t-66.5 9q-97 0 -146.5 -60t-49.5 -207z" />
    <glyph glyph-name="H" unicode="H" horiz-adv-x="721" 
d="M629 676v-664q0 -15 -50 -15t-50 15v310l-154 -16l-15 -2l-15 2l-153 17v-311q0 -15 -49 -15q-51 0 -51 15v664q0 16 51 16q49 0 49 -16v-281l155 17l15 1l13 -1l154 -16v280q0 16 51 16q49 0 49 -16z" />
    <glyph glyph-name="I" unicode="I" horiz-adv-x="285" 
d="M193 676v-664q0 -15 -50 -15q-51 0 -51 15v664q0 16 51 16q50 0 50 -16z" />
    <glyph glyph-name="J" unicode="J" horiz-adv-x="374" 
d="M103 689h154q8 0 16.5 -5t8.5 -20v-548q0 -65 -22.5 -112.5t-70 -72t-123.5 -24.5q-6 0 -10 13.5t-4 25.5q0 43 13 43q58 1 87 31.5t29 102.5v487h-78q-4 0 -8.5 13t-4.5 30q0 11 3.5 23.5t9.5 12.5z" />
    <glyph glyph-name="K" unicode="K" horiz-adv-x="614" 
d="M332 356l249 -261q11 -12 11 -26v-51q0 -8 -5.5 -13.5t-15.5 -5.5h-35q-5 0 -14.5 1.5t-20.5 14.5l-231 277q-25 27 -78 29v-309q0 -15 -49 -15q-51 0 -51 15v665q0 15 51 15q49 0 49 -15v-278q57 5 81 35l194 240q8 9 13.5 12.5t17.5 3.5h38q20 0 20 -17v-35
q0 -8 -2 -19t-17 -26l-204 -212q-8 -11 -8 -13q0 -3 7 -12z" />
    <glyph glyph-name="L" unicode="L" horiz-adv-x="514" 
d="M193 677v-592q0 -7 16 -7h290q5 0 8.5 -14.5t3.5 -25.5q0 -9 -3.5 -23.5t-8.5 -14.5h-377q-12 0 -20.5 4.5t-8.5 20.5v652q0 15 50 15t50 -15z" />
    <glyph glyph-name="M" unicode="M" horiz-adv-x="810" 
d="M188 530v-518q0 -15 -46 -15q-50 0 -50 15v653q0 12 5.5 18.5t29.5 6.5h52q17 0 29 -3.5t19 -17.5l166 -285q6 -7 11 -7q8 0 13 7l168 287q10 19 47 19h51q20 0 27.5 -4.5t7.5 -20.5v-653q0 -5 -7 -10t-41 -5q-48 0 -48 15v518q0 5 -8 5q-6 0 -11 -8l-147 -263
q-3 -4 -11 -8.5t-40 -4.5q-21 0 -33 2.5t-16 9.5l-150 265q-3 6 -9 6q-9 0 -9 -4z" />
    <glyph glyph-name="N" unicode="N" horiz-adv-x="755" 
d="M662 678v-653q0 -13 -5 -19t-31 -6h-46q-18 0 -28.5 4.5t-18.5 16.5l-324 497q-6 10 -14 10q-6 0 -6 -8v-508q0 -15 -47 -15q-50 0 -50 15v653q0 12 5 18.5t30 6.5h53q16 0 26 -3.5t21 -19.5l318 -495q8 -11 13 -11q8 0 8 7v510q0 15 48 15t48 -15z" />
    <glyph glyph-name="O" unicode="O" horiz-adv-x="686" 
d="M344 -9q-148 0 -223 89t-75 264t75 264t223 89q147 0 221.5 -89t74.5 -264t-74.5 -264t-221.5 -89zM343 612q-95 0 -144.5 -61.5t-49.5 -207.5q0 -98 23.5 -155.5t67.5 -83.5t104 -26q97 0 145 63t48 202q0 100 -23 158t-66.5 84.5t-104.5 26.5z" />
    <glyph glyph-name="P" unicode="P" horiz-adv-x="554" 
d="M272 614h-64q-16 0 -16 -8v-303l62 5q87 7 128.5 48.5t41.5 108.5q0 149 -152 149zM121 689h145q259 0 259 -220q0 -45 -15.5 -88t-48.5 -77t-85 -54t-120 -20q-7 0 -30.5 2.5t-33.5 4.5v-225q0 -15 -49 -15q-51 0 -51 15v652q0 25 29 25z" />
    <glyph glyph-name="Q" unicode="Q" horiz-adv-x="682" 
d="M342 -9q-148 0 -223 89t-75 264t75 264t223 89q147 0 221.5 -89t74.5 -264q0 -230 -127 -310l113 -71q16 -14 16 -27q0 -4 -7.5 -15t-24 -23t-30.5 -12q-2 0 -10.5 5t-29.5 22.5t-56 48.5t-45 40q-46 -11 -95 -11zM341 612q-95 0 -144.5 -61.5t-49.5 -207.5
q0 -98 23.5 -155.5t67.5 -83.5t104 -26q97 0 145 63t48 202q0 100 -23 158t-66.5 84.5t-104.5 26.5z" />
    <glyph glyph-name="R" unicode="R" horiz-adv-x="607" 
d="M475 12l-161 277q-19 0 -63.5 4t-58.5 5v-286q0 -16 -49 -16q-51 0 -51 16v652q0 25 29 25h159q132 0 193.5 -45t61.5 -142q0 -58 -30 -106.5t-104 -76.5l158 -224q11 -15 11 -28v-48q0 -20 -21 -20h-36q-31 0 -38 13zM286 614h-78q-16 0 -16 -8v-249l87 7q34 3 71 15
t60.5 41t23.5 76q0 63 -35.5 90.5t-112.5 27.5z" />
    <glyph glyph-name="S" unicode="S" horiz-adv-x="568" 
d="M281 696q45 0 95 -10t88.5 -30t38.5 -33q0 -4 -5 -18.5t-15 -31t-19 -16.5q-5 0 -35.5 14.5t-54 22.5t-47 12.5t-47.5 4.5q-36 0 -64 -12t-39.5 -32.5t-11.5 -44.5q0 -31 33.5 -59t130.5 -58q117 -35 157.5 -84t40.5 -116q0 -49 -19.5 -89.5t-54 -68.5t-82 -42.5
t-101.5 -14.5q-41 0 -86 8.5t-79 21.5t-54.5 28t-20.5 26q0 5 6 20.5t17.5 32.5t20.5 17q4 0 22.5 -11t30.5 -17q30 -15 70.5 -26.5t74.5 -11.5q65 0 107 31.5t42 84.5q0 36 -28.5 62.5t-98.5 49.5q-94 31 -140.5 58.5t-68.5 63.5t-22 89q0 82 55 130.5t163 48.5z" />
    <glyph glyph-name="T" unicode="T" horiz-adv-x="552" 
d="M26 689h501q4 0 8.5 -11t4.5 -26q0 -9 -4 -25.5t-9 -16.5h-192q-9 0 -9 -8v-590q0 -15 -49 -15q-51 0 -51 15v589q0 9 -10 9h-190q-4 0 -9 13t-5 29q0 10 4 23.5t10 13.5z" />
    <glyph glyph-name="U" unicode="U" horiz-adv-x="670" 
d="M598 676v-339q0 -88 -14.5 -153.5t-45.5 -108t-81.5 -63.5t-121.5 -21t-121.5 21t-81.5 63t-45.5 107t-14.5 154v340q0 16 51 16q49 0 49 -16v-323q0 -116 18.5 -173.5t55.5 -82t90 -24.5q51 0 87.5 24.5t55.5 83.5t19 174v321q0 16 51 16q49 0 49 -16z" />
    <glyph glyph-name="V" unicode="V" horiz-adv-x="561" 
d="M291 142l165 530q1 4 5.5 11t23.5 7h41q22 0 22 -18v-42q0 -19 -9 -43l-199 -576q-2 -5 -9 -9.5t-53 -4.5q-29 0 -41.5 2.5t-15.5 12.5l-195 568q-12 36 -12 47v44q0 8 5.5 13.5t16.5 5.5h47q15 0 21 -18l167 -530q4 -9 10 -9q7 0 10 9z" />
    <glyph glyph-name="W" unicode="W" horiz-adv-x="904" 
d="M659 142l140 530q3 18 21 18h48q23 0 23 -18v-42q0 -23 -11 -49l-177 -569q-2 -7 -11.5 -11t-45.5 -4q-29 0 -43.5 3t-16.5 11l-135 481l-137 -480q-5 -15 -61 -15q-28 0 -42.5 3t-16.5 11l-169 569q-11 35 -11 47v44q0 19 22 19h48q17 0 21 -18l140 -531q1 -8 10 -8
q7 0 9 9l142 531q6 17 25 17h38q19 0 23 -18l148 -531q3 -8 9 -8q7 0 10 9z" />
    <glyph glyph-name="X" unicode="X" horiz-adv-x="567" 
d="M24 81l192 286l-160 225q-13 19 -13 31v47q0 8 5.5 14.5t16.5 6.5h40q22 0 34 -20l137 -225q3 -4 7 -5q4 1 7 5l137 224q7 11 15 16t23 5h33q11 0 16.5 -5.5t5.5 -13.5v-44q0 -7 -4.5 -18t-10.5 -19l-153 -224l186 -270q13 -19 13 -28v-50q0 -20 -22 -20h-39
q-22 0 -33 20l-169 271q-4 4 -7 4t-6 -4l-162 -271q-11 -20 -31 -20h-45q-7 0 -14 5.5t-7 15.5v30q0 20 8 31z" />
    <glyph glyph-name="Y" unicode="Y" horiz-adv-x="524" 
d="M311 309v-297q0 -15 -49 -15q-51 0 -51 15v297l-188 294q-9 15 -9 30v37q0 8 5.5 14t16.5 6h36q6 0 16 -2t19 -17l147 -259q3 -5 9 -5q4 0 8 5l146 258q2 4 8.5 12t26.5 8h36q22 0 22 -18v-38q0 -17 -11 -34z" />
    <glyph glyph-name="Z" unicode="Z" horiz-adv-x="549" 
d="M500 590l-359 -497q-3 -4 -3 -9q0 -4 7 -4h358q4 0 8.5 -12.5t4.5 -29.5q0 -10 -3.5 -24t-9.5 -14h-451q-15 0 -24 4.5t-9 29.5q0 32 1.5 45t8.5 21l356 496q3 3 3 8q0 6 -5 6h-318q-4 0 -8.5 13.5t-4.5 30.5q0 10 3.5 22.5t9.5 12.5h430q9 0 14 -6t5 -32q0 -22 -2 -35.5
t-12 -25.5z" />
    <glyph glyph-name="bracketleft" unicode="[" horiz-adv-x="387" 
d="M191 643v-670h88q4 0 7 -8.5t3 -24.5q0 -11 -2.5 -21t-7.5 -10h-158q-13 0 -18 5t-5 16v756q0 12 5 16.5t18 4.5h158q5 0 7.5 -10t2.5 -21q0 -10 -2.5 -21.5t-7.5 -11.5h-88z" />
    <glyph glyph-name="backslash" unicode="\" horiz-adv-x="481" 
d="M339 13l-291 646q-8 16 -8 24q0 14 47 14q22 0 33.5 -3t17.5 -16l291 -646q9 -20 9 -24q0 -13 -49 -13q-8 0 -25.5 1.5t-24.5 16.5z" />
    <glyph glyph-name="bracketright" unicode="]" horiz-adv-x="387" 
d="M195 -27v670h-87q-10 0 -10 33q0 31 10 31h157q11 0 17.5 -3t6.5 -18v-756q0 -11 -4.5 -16t-19.5 -5h-157q-10 0 -10 31q0 33 10 33h87z" />
    <glyph glyph-name="asciicircum" unicode="^" horiz-adv-x="619" 
d="M308 695q34 0 52 -20l172 -197q29 -31 29 -38t-17 -13t-34 -6q-29 0 -45 18l-45 54t-58.5 69t-35.5 40t-18 18q-34 -34 -157 -181q-15 -18 -46 -18q-17 0 -33.5 6t-16.5 13q0 1 2.5 5.5t39.5 47.5l159 181q19 21 52 21z" />
    <glyph glyph-name="underscore" unicode="_" horiz-adv-x="531" 
d="M21 -106h489q5 0 9 -11t4 -22q0 -16 -4.5 -27.5t-8.5 -11.5h-489q-4 0 -8.5 11.5t-4.5 27.5q0 11 4 22t9 11z" />
    <glyph glyph-name="grave" unicode="`" horiz-adv-x="265" 
d="M63 641q-16 12 -20.5 16t-4.5 10q0 11 16 30.5t27 19.5q10 0 27 -13q45 -33 106 -85q25 -21 25 -26q0 -13 -13 -23.5t-21 -10.5q-4 0 -24 9q-80 46 -118 73z" />
    <glyph glyph-name="a" unicode="a" horiz-adv-x="539" 
d="M245 69q23 0 49.5 15t47.5 50t21 77q-51 17 -93 17q-62 0 -93.5 -21.5t-31.5 -54.5q0 -37 25 -60t75 -23zM424 -6q-23 0 -26 10l-12 44q-3 10 -7 10q-5 0 -13 -8q-65 -59 -144 -59q-36 0 -70 9.5t-57 30t-35.5 49.5t-12.5 64q0 46 25.5 82.5t73 57.5t116.5 21
q19 0 49.5 -5t53.5 -11v32q0 54 -25.5 82.5t-90.5 28.5q-23 0 -49 -5.5t-53.5 -16.5t-29.5 -11q-10 0 -21 23.5t-11 34.5q0 13 12 21q30 14 77.5 23.5t85.5 9.5q200 0 200 -180v-322q0 -7 -6.5 -11t-29.5 -4z" />
    <glyph glyph-name="b" unicode="b" horiz-adv-x="581" 
d="M428 255q0 101 -30.5 138.5t-96.5 37.5q-19 0 -41 -7t-41 -22.5t-31 -44t-12 -69.5v-198q11 -11 35.5 -18t54.5 -7q71 0 116.5 50t45.5 140zM323 511q107 0 156.5 -60t49.5 -192q0 -58 -18 -107.5t-51.5 -85.5t-82 -56t-105.5 -20q-99 0 -162 20q-7 2 -15 6t-8 17v644
q0 15 49 15q47 0 47 -15v-215q22 22 60.5 35.5t79.5 13.5z" />
    <glyph glyph-name="c" unicode="c" horiz-adv-x="494" 
d="M303 433q-47 0 -80.5 -20t-52.5 -59t-19 -98q0 -84 40 -134.5t115 -50.5q19 0 42.5 6.5t49.5 20t28 13.5q9 0 20.5 -23.5t11.5 -38.5q0 -10 -20.5 -22.5t-59.5 -23.5t-84 -11q-50 0 -94 16.5t-77 49.5t-52 83.5t-19 114.5q0 81 28 136.5t82 87t135 31.5q32 0 72 -8
t67 -20q14 -6 14 -16q0 -3 -4 -16.5t-13 -29t-17 -15.5q-1 0 -3.5 0.5t-27.5 10t-46 13t-36 3.5z" />
    <glyph glyph-name="d" unicode="d" horiz-adv-x="585" 
d="M259 -9q-63 0 -108 29t-72 87t-27 146q0 133 52 195.5t158 62.5q33 0 71.5 -11t63.5 -37v214q0 15 49 15q48 0 48 -15v-668q0 -7 -7 -11t-29 -4t-26 10l-12 44q-3 10 -8 10q-4 0 -12 -8q-65 -59 -141 -59zM400 241v53q0 34 -13.5 66t-44 51.5t-59.5 19.5q-64 0 -98 -39.5
t-34 -134.5q0 -89 32 -138t92 -49q52 0 88.5 47.5t36.5 123.5z" />
    <glyph glyph-name="e" unicode="e" horiz-adv-x="539" 
d="M153 302h217q10 0 15.5 4t5.5 21q0 51 -33 79t-75 28q-33 0 -62.5 -12.5t-48 -42t-19.5 -77.5zM302 67q25 0 51 7t53 21t33 14q8 0 17 -22.5t9 -37.5q0 -16 -54.5 -36.5t-114.5 -20.5q-52 0 -97 16t-78 48.5t-51 82t-18 113.5t18.5 113.5t50.5 82t74 48t89 15.5
q42 0 79 -13t65 -39.5t43.5 -66.5t15.5 -91q0 -34 -9.5 -54.5t-39.5 -20.5h-285q1 -40 17 -78t51 -59.5t81 -21.5z" />
    <glyph glyph-name="f" unicode="f" horiz-adv-x="400" 
d="M59 491l59 11q0 194 165 194q75 0 127 -21q19 -9 19 -20q0 -9 -5 -27t-12 -27.5t-14 -9.5q-1 0 -3 0.5t-23.5 8.5t-41 11t-33.5 3q-42 0 -61.5 -33.5t-19.5 -77.5l122 -10q16 -2 16 -27q0 -10 -3 -20t-11 -11l-126 -15v-408q0 -15 -47 -15q-49 0 -49 15v408l-61 14
q-3 1 -7 7.5t-4 21.5q0 27 13 28z" />
    <glyph glyph-name="g" unicode="g" horiz-adv-x="570" 
d="M560 474q0 -16 -4 -30.5t-9 -14.5l-93 7q-9 0 -9 -6q0 -1 8 -11q15 -18 22.5 -37t7.5 -54q0 -50 -27 -85.5t-72 -54t-107 -18.5q-8 0 -15.5 0.5t-16 1.5t-12.5 1q-16 -3 -36 -11.5t-29.5 -20.5t-9.5 -22q0 -16 16.5 -26t64.5 -10h123q87 0 130 -34.5t43 -93.5
q0 -45 -30.5 -75.5t-87 -46.5t-143.5 -16q-115 0 -177 29t-62 82q0 29 21 54t61 38q-29 7 -49 26.5t-20 47.5q0 27 20 53.5t73 54.5q-36 20 -58.5 58t-22.5 85q0 72 59.5 119.5t158.5 47.5q23 0 61.5 -4.5t60.5 -4.5l143 3q8 0 12.5 -8.5t4.5 -23.5zM438 -51q0 27 -29 41
t-77 14h-101q-14 -1 -34.5 -9t-37.5 -23.5t-17 -31.5q0 -20 19.5 -30t53 -12.5t69.5 -2.5q75 0 114.5 12t39.5 42zM162 346q0 -46 28 -74.5t86 -28.5q53 0 83 24.5t30 74.5q0 91 -109 91q-57 0 -87.5 -21.5t-30.5 -65.5z" />
    <glyph glyph-name="h" unicode="h" horiz-adv-x="602" 
d="M523 293v-283q0 -14 -47 -14q-49 0 -49 14v256q0 47 -8 82.5t-32 58.5t-81 23q-23 0 -52 -11t-50 -46t-21 -95v-268q0 -14 -48 -14t-48 14v668q0 14 48 14t48 -14v-214q21 22 59.5 35t79.5 13q108 0 154.5 -54t46.5 -165z" />
    <glyph glyph-name="i" unicode="i" horiz-adv-x="270" 
d="M179 494v-483q0 -15 -47 -15q-49 0 -49 15v483q0 14 48 14t48 -14zM72 647q0 28 14 38.5t47 10.5q32 0 46 -10.5t14 -38.5q0 -21 -10 -34t-50 -13q-34 0 -47.5 9.5t-13.5 37.5z" />
    <glyph glyph-name="j" unicode="j" horiz-adv-x="290" 
d="M101 12v482q0 15 48 15t48 -15v-500q0 -62 -22 -101.5t-67.5 -60t-123.5 -20.5q-5 0 -8.5 7t-3.5 36q0 35 15 39q39 4 65 13t37.5 29.5t11.5 75.5zM88 647q0 28 14 38.5t47 10.5q32 0 46 -10.5t14 -38.5q0 -21 -10 -34t-50 -13q-34 0 -47.5 9.5t-13.5 37.5z" />
    <glyph glyph-name="k" unicode="k" horiz-adv-x="528" 
d="M453 426l-162 -119q-9 -7 -9 -12q0 -7 9 -14l205 -199q10 -9 10 -23v-39q0 -21 -22 -21h-45q-12 0 -23 12l-181 221q-8 9 -22 17t-30 9v-246q0 -15 -47 -15q-49 0 -49 14v667q0 14 48 14t48 -14v-349q29 5 54 27l142 139q13 11 22 11h51q17 0 17 -17v-40q0 -10 -16 -23z
" />
    <glyph glyph-name="l" unicode="l" horiz-adv-x="270" 
d="M183 678v-666q0 -15 -47 -15q-49 0 -49 14v667q0 14 48 14t48 -14z" />
    <glyph glyph-name="m" unicode="m" horiz-adv-x="877" 
d="M310 511q62 0 94.5 -24t50.5 -63q12 28 35 49t53 29.5t59 8.5q94 0 145 -54t51 -163v-283q0 -14 -48 -14q-49 0 -49 14v261q0 85 -22.5 122t-79.5 37q-108 0 -108 -152v-268q0 -14 -47 -14q-49 0 -49 14v261q0 85 -23 122t-81 37q-29 0 -54 -16t-39.5 -49t-14.5 -82v-273
q0 -14 -47 -14q-49 0 -49 14v484q0 5 4 9.5t32 4.5q23 0 25 -10l13 -38q3 -10 8 -10q4 0 12 8q23 23 52.5 37.5t76.5 14.5z" />
    <glyph glyph-name="n" unicode="n" horiz-adv-x="602" 
d="M181 459q30 26 63 39t81 13q107 0 152.5 -54t45.5 -166v-280q0 -14 -47 -14q-49 0 -49 14v255q0 58 -12.5 96.5t-40 53.5t-66.5 15q-23 0 -43 -7t-37 -21t-31 -44.5t-14 -80.5v-267q0 -14 -48 -14t-48 14v484q0 5 4 9.5t32 4.5q21 0 25 -10l13 -38q4 -10 8 -10t12 8z" />
    <glyph glyph-name="o" unicode="o" horiz-adv-x="581" 
d="M290 -7q-50 0 -93.5 16t-76 48t-50.5 81.5t-18 113.5q0 48 12 95.5t41 84t75.5 58.5t109.5 22q51 0 94.5 -15.5t75.5 -48t50 -82t18 -114.5q0 -48 -12 -95t-44.5 -87.5t-81.5 -58.5t-100 -18zM290 79q140 0 140 175q0 171 -140 171q-72 0 -105.5 -43.5t-33.5 -127.5
q0 -60 16.5 -98t46.5 -57.5t76 -19.5z" />
    <glyph glyph-name="p" unicode="p" horiz-adv-x="581" 
d="M428 250q0 100 -31 140t-97 40q-22 0 -45.5 -10t-40.5 -29t-27.5 -48.5t-10.5 -66.5v-154q15 -21 42.5 -35t57.5 -14q71 0 111.5 44t40.5 133zM182 19l1 -187q0 -14 -47 -14q-49 0 -49 14v663q0 5 4 9.5t31 4.5q22 0 26 -10l13 -38q4 -10 8 -10t12 8q55 52 145 52
q107 0 155 -62t48 -198q0 -58 -15 -106.5t-44.5 -82.5t-73.5 -52.5t-99 -18.5q-29 0 -61 8.5t-54 19.5z" />
    <glyph glyph-name="q" unicode="q" horiz-adv-x="581" 
d="M401 241v54q0 34 -13 65.5t-44 51t-64 19.5q-63 0 -95 -41t-32 -138q0 -91 32 -136.5t91 -45.5q52 0 88.5 47.5t36.5 123.5zM257 512q39 0 78 -12t66 -41q8 -8 12 -8q5 0 8 10l13 38q4 10 26 10q17 0 26 -2t9 -11v-509q0 -45 10 -64.5t36 -32.5q10 -5 10 -12
q0 -8 -4 -26.5t-9.5 -28t-11.5 -9.5q-39 0 -71 20.5t-44 51t-12 61.5v92q0 7 -5 7t-11 -6q-52 -48 -122 -48q-99 0 -154 66t-55 190q0 133 50 198.5t155 65.5z" />
    <glyph glyph-name="r" unicode="r" horiz-adv-x="358" 
d="M297 511h22q11 0 11 -29q0 -22 -4 -39t-10 -17h-26q-27 0 -55 -20.5t-40 -54t-12 -68.5v-272q0 -14 -47 -14q-49 0 -49 14v484q0 5 4 9.5t32 4.5q23 0 25 -10l14 -50q3 -10 8 -10t11 8q12 17 30.5 32.5t41.5 23.5t44 8z" />
    <glyph glyph-name="s" unicode="s" horiz-adv-x="453" 
d="M211 -8q-49 0 -98.5 13t-70 27t-20.5 24q0 6 4.5 20t14.5 29t20 15q1 0 3.5 -1t29 -15.5t59.5 -23t60 -8.5q22 0 48 7t44.5 26.5t18.5 45.5q0 23 -23.5 38.5t-100 39.5t-104.5 46.5t-39 44.5t-11 51q0 41 20.5 72t60.5 50t100 19q32 0 71.5 -5.5t64.5 -14.5
q35 -13 35 -27q0 -13 -9 -36.5t-18 -23.5q-2 0 -29.5 9.5t-54.5 14t-51 4.5q-45 0 -69.5 -13.5t-24.5 -40.5q0 -21 22 -33.5t79.5 -29.5t88.5 -32t50 -35.5t26.5 -44t7.5 -47.5q0 -28 -10.5 -57t-36 -53t-65.5 -39.5t-93 -15.5z" />
    <glyph glyph-name="t" unicode="t" horiz-adv-x="448" 
d="M105 187v233l-80 16q-3 1 -7 7.5t-4 22.5q0 9 3 17.5t10 9.5l78 12v94q0 6 10.5 12.5t30.5 11t31 4.5q23 0 23 -12v-109l193 -12q16 -2 16 -26q0 -10 -3.5 -19.5t-11.5 -10.5l-194 -19v-225q0 -67 23 -93.5t66 -26.5q22 0 42 4.5t37.5 14t20.5 9.5q9 0 22 -22t13 -36
q0 -12 -21 -24t-65.5 -20.5t-74.5 -8.5q-158 0 -158 196z" />
    <glyph glyph-name="u" unicode="u" horiz-adv-x="593" 
d="M506 493v-484q0 -7 -6.5 -11t-29.5 -4q-22 0 -25 10l-13 37q-4 11 -8 11t-12 -8q-8 -7 -29.5 -22.5t-48 -23t-63.5 -7.5q-69 0 -109 21.5t-61.5 69.5t-21.5 130v281q0 15 47 15q49 0 49 -15v-255q0 -93 26.5 -129.5t89.5 -36.5q30 0 58.5 15t44.5 52t16 87v267
q0 15 48 15t48 -15z" />
    <glyph glyph-name="v" unicode="v" horiz-adv-x="485" 
d="M30 441v44q0 21 21 21h42q23 0 28 -16l111 -358q4 -13 12 -13q7 0 10 13l109 358q6 16 29 16h44q10 0 14.5 -6t4.5 -14v-45q0 -11 -12 -44l-146 -385q-3 -6 -16.5 -11t-38.5 -5q-15 0 -33.5 3.5t-22.5 12.5l-144 385q-12 30 -12 44z" />
    <glyph glyph-name="w" unicode="w" horiz-adv-x="745" 
d="M30 442v43q0 8 5 14.5t15 6.5h42q25 0 28 -16l95 -361q2 -11 9 -11q8 0 10 11l93 361q2 8 6.5 12t16.5 4h47q19 0 22 -16l95 -362q2 -10 10 -10q7 0 9 11l93 361q3 16 28 16h41q20 0 20 -19v-38q0 -22 -13 -61l-126 -376q-3 -6 -16 -11t-37 -5q-49 0 -55 16l-95 332
l-97 -332q-2 -6 -14.5 -11t-37.5 -5q-49 0 -55 16l-114 340q-17 50 -21 65.5t-4 24.5z" />
    <glyph glyph-name="x" unicode="x" horiz-adv-x="501" 
d="M240 197l-126 -186q-8 -11 -20 -11h-42q-23 0 -23 17v43q0 10 9 23l152 182l-134 163q-8 10 -8 20v37q0 8 5.5 14t16.5 6h45q13 0 21 -11l110 -158q5 -5 6 -5q2 0 4 2t3 4l107 157q7 11 21 11h41q21 0 21 -19v-39q0 -9 -8 -20l-131 -156l153 -199q8 -11 8 -21v-35
q0 -17 -23 -17h-50q-12 0 -21 12l-123 186q-3 6 -7 6q-3 0 -7 -6z" />
    <glyph glyph-name="y" unicode="y" horiz-adv-x="491" 
d="M462 487v-46q0 -13 -13 -48l-217 -560q-3 -7 -14 -11.5t-45 -4.5q-47 0 -47 16q0 8 9 26q34 86 43 109.5t13 37.5l-150 391q-11 30 -11 44v43q0 21 21 21h41q24 0 29 -15l115 -358q3 -13 11 -13q6 0 11 14l113 357q4 15 28 15h43q20 0 20 -18z" />
    <glyph glyph-name="z" unicode="z" horiz-adv-x="474" 
d="M149 83h292q10 0 10 -42q0 -41 -11 -41h-393q-12 0 -19 5.5t-7 26.5q0 18 6.5 36t34.5 52l254 300h-254q-12 0 -12 42q0 18 3.5 30t8.5 12h357q12 0 17.5 -4.5t5.5 -25.5q0 -14 -4.5 -32t-38.5 -60z" />
    <glyph glyph-name="braceleft" unicode="{" horiz-adv-x="397" 
d="M136 312v-12q56 -14 85.5 -59.5t29.5 -105.5v-79q0 -53 22 -80t57 -27h23q9 0 9 -31q0 -29 -10 -29h-59q-69 0 -104.5 43.5t-35.5 129.5v76q0 29 -10 59.5t-35 52.5t-56 30q-12 5 -12 26q0 11 2.5 17t9.5 8q31 8 56 30.5t35 53t10 59.5v76q0 172 140 172h59q10 0 10 -28
q0 -31 -9 -31h-23q-35 0 -57 -27t-22 -80v-79q0 -59 -30.5 -105.5t-84.5 -59.5z" />
    <glyph glyph-name="bar" unicode="|" horiz-adv-x="294" 
d="M196 740v-911q0 -14 -49 -14t-49 14v911q0 14 49 14t49 -14z" />
    <glyph glyph-name="braceright" unicode="}" horiz-adv-x="397" 
d="M261 300v12q-54 13 -84.5 59.5t-30.5 105.5v79q0 53 -21.5 80t-56.5 27h-24q-9 0 -9 31q0 28 10 28h59q140 0 140 -172v-76q0 -29 10 -59.5t35 -53t56 -30.5q3 -1 7.5 -4.5t4.5 -20.5q0 -5 -1 -13.5t-11 -12.5q-31 -8 -56 -30t-35 -52.5t-10 -59.5v-76
q0 -86 -35.5 -129.5t-104.5 -43.5h-59q-10 0 -10 29q0 31 9 31h24q35 0 56.5 27t21.5 80v79q0 60 29.5 105.5t85.5 59.5z" />
    <glyph glyph-name="cent" unicode="&#xa2;" 
d="M362 599v-84q28 -2 63 -9t59 -18q14 -6 14 -16q0 -3 -4 -16.5t-13 -29t-17 -15.5q-3 0 -24.5 8t-41 12.5t-36.5 5.5v-361q18 1 39.5 7.5t45.5 19.5t27 13q9 0 20.5 -23.5t11.5 -38.5t-44.5 -34t-99.5 -22v-87q0 -11 -24 -11q-23 0 -23 11v87q-57 5 -108.5 36t-79 91.5
t-27.5 135.5t24 128t71.5 86t119.5 39v85q0 3 2 7t21 4q24 0 24 -11zM199 261q0 -72 30 -120.5t86 -60.5v354q-59 -11 -87.5 -58.5t-28.5 -114.5z" />
    <glyph glyph-name="sterling" unicode="&#xa3;" 
d="M134 366v100q0 113 52 171.5t155 58.5q55 0 102.5 -23.5t71.5 -57t24 -54.5q0 -9 -21 -16t-37 -7l-10 1q-2 1 -5 4.5t-9.5 12.5t-8.5 11q-14 16 -37 33t-68 17q-58 0 -84 -40.5t-26 -119.5v-92h156q4 0 8 -10.5t4 -25.5q0 -16 -4 -27t-8 -11h-156v-212h294q4 0 8.5 -12.5
t4.5 -29.5q0 -10 -3.5 -23.5t-9.5 -13.5h-456q-5 0 -9 10t-4 26q0 14 3.5 28.5t9.5 14.5h63v212h-55q-4 0 -8 11t-4 27q0 9 3.5 23t8.5 14h55z" />
    <glyph glyph-name="section" unicode="&#xa7;" 
d="M330 629q-26 0 -62.5 -12t-64 -46t-27.5 -84q0 -18 6.5 -49.5t41 -111.5t44 -115t9.5 -62q0 -26 -9.5 -56.5t-30.5 -52t-39 -21.5q-16 0 -35 7t-19 16q0 1 1 4t12 18.5t17 30.5t8 28.5t2 24.5q0 18 -6.5 49.5t-41.5 113t-45 118.5t-10 66q0 42 19.5 80t54 65.5t81.5 43
t99 15.5q38 0 83.5 -9.5t87.5 -31.5q20 -11 20 -24q0 -11 -10.5 -31t-18.5 -20q-1 0 -4.5 1t-36.5 15t-67 22t-59 8zM272 -100q26 0 62 11t63.5 43.5t27.5 82.5q0 18 -6.5 49.5t-41 111.5t-44 115t-9.5 62q0 54 27 92t53 38q16 0 34.5 -7.5t18.5 -16.5q0 -1 -1 -3.5
t-12 -18.5t-16.5 -30.5t-7.5 -28t-2 -24.5q0 -18 6.5 -49.5t41 -113t44.5 -118.5t10 -66q0 -42 -19 -80t-54 -65.5t-81.5 -43t-98.5 -15.5q-92 0 -172 41q-19 10 -19 24q0 12 8.5 30.5t13.5 22t7 3.5q1 0 4 -1t36 -15t67.5 -22t59.5 -8z" />
    <glyph glyph-name="dieresis" unicode="&#xa8;" horiz-adv-x="434" 
d="M53 653q0 23 11.5 33t38.5 10q20 0 35.5 -7.5t15.5 -35.5q0 -18 -8.5 -30.5t-42.5 -12.5q-28 0 -39 9.5t-11 33.5zM278 653q0 23 11.5 33t40.5 10q26 0 37.5 -10t11.5 -33q0 -18 -8 -30.5t-41 -12.5q-22 0 -37 6.5t-15 36.5z" />
    <glyph glyph-name="copyright" unicode="&#xa9;" horiz-adv-x="873" 
d="M438 681q83 0 151.5 -23t116 -68t73 -111.5t25.5 -150.5q0 -81 -27 -145t-76 -106.5t-117 -64t-149 -21.5q-82 0 -150 21.5t-116 64t-74 106.5t-26 145q0 84 26.5 151t75 111.5t117 67.5t150.5 23zM447 488q-39 0 -68.5 -18t-42.5 -53t-13 -77q0 -70 30 -110t90 -40
q20 0 42 4.5t43.5 14t23.5 9.5q3 0 8.5 -5.5t10.5 -22.5q4 -10 4 -21q-15 -15 -58.5 -28.5t-78.5 -13.5q-39 0 -74 13t-61 39.5t-40.5 67t-14.5 92.5q0 65 22.5 110t64.5 70.5t103 25.5q28 0 61 -5.5t56 -15.5q9 -4 9 -13q0 -7 -8.5 -24t-15.5 -17q-1 0 -32.5 9t-60.5 9z
M437 643q-73 0 -133 -20.5t-102.5 -60.5t-65.5 -99.5t-23 -134.5q0 -145 84.5 -222t238.5 -77q75 0 135.5 19.5t102.5 57t64.5 94t22.5 128.5q0 75 -22.5 134.5t-65 99.5t-103 60.5t-133.5 20.5z" />
    <glyph glyph-name="guillemotleft" unicode="&#xab;" horiz-adv-x="623" 
d="M390 283q20 -23 60.5 -67t57 -63.5t31.5 -38t15 -24.5q0 -8 -13 -13t-35 -5q-17 0 -29.5 1.5t-19.5 9.5l-153 176q-12 13 -12 24q0 3 4 10.5t8 12.5q11 12 54.5 61t65.5 75t33 40q9 12 49 12q16 0 32 -4.5t16 -13.5q0 -8 -23 -35t-72 -81t-69 -77zM154 283
q20 -23 60.5 -67t57 -63.5t31.5 -38t15 -24.5q0 -8 -13 -13t-35 -5q-17 0 -29.5 1.5t-19.5 9.5l-153 176q-12 13 -12 24q0 3 4 10.5t8 12.5q11 12 54.5 61t65.5 75t33 40q9 12 49 12q16 0 32 -4.5t16 -13.5q0 -8 -23 -35t-72 -81t-69 -77z" />
    <glyph glyph-name="registered" unicode="&#xae;" horiz-adv-x="519" 
d="M261 333q-45 0 -78 12t-58 31t-43.5 54.5t-18.5 82.5q0 80 52 130.5t146 50.5q58 0 101 -20.5t69.5 -61t26.5 -99.5q0 -18 -4.5 -40.5t-16.5 -46t-34.5 -45t-59.5 -35t-82 -13.5zM304 438l-53 64h-17v-65q0 -5 -20 -5q-18 0 -18 5v166q0 7 9 7h49q83 0 83 -53
q0 -11 -6.5 -21.5t-17.5 -16.5t-22 -8l42 -41q10 -8 10 -16v-14q0 -5 -10 -5h-16q-10 0 -13 3zM231 584v-54h27q15 0 27 7t12 20q0 14 -11.5 20.5t-26.5 6.5h-28zM260 367q73 0 116.5 42t43.5 105q0 65 -42 106.5t-118 41.5q-48 0 -83 -17t-56 -50t-21 -81q0 -46 22 -79
t57 -50.5t81 -17.5z" />
    <glyph glyph-name="macron" unicode="&#xaf;" horiz-adv-x="406" 
d="M55 690h295q6 0 9.5 -9t3.5 -19t-3.5 -20.5t-9.5 -10.5h-295q-5 0 -9 10.5t-4 20.5t4 19t9 9z" />
    <glyph glyph-name="degree" unicode="&#xb0;" horiz-adv-x="469" 
d="M398 540q0 -71 -49.5 -116t-123.5 -45q-45 0 -86 19t-62.5 57t-21.5 83q0 71 49 114t123 43q75 0 123 -42t48 -113zM356 538q0 55 -36 87t-92 32q-58 0 -95 -32t-37 -88q0 -28 12 -56.5t44.5 -47.5t73.5 -19q57 0 93.5 34t36.5 90z" />
    <glyph glyph-name="uni00B2" unicode="&#xb2;" horiz-adv-x="372" 
d="M185 686q48 0 80.5 -16t44 -39.5t11.5 -44.5q0 -25 -13.5 -51t-54.5 -64.5t-118 -89.5h187q2 0 5 -6t3 -22q0 -7 -2 -15.5t-6 -8.5h-254q-23 0 -23 19v12q0 11 15 21q105 75 149 120.5t44 83.5q0 24 -21 38.5t-48 14.5q-15 0 -32.5 -4.5t-35.5 -13t-20 -8.5
q-11 0 -21 14.5t-10 21.5q0 6 11 12q43 26 109 26z" />
    <glyph glyph-name="uni00B3" unicode="&#xb3;" horiz-adv-x="370" 
d="M169 376q21 0 41 7.5t31 24t11 30.5q0 27 -21 43t-46.5 20.5t-43.5 4.5q-9 0 -9 22t8 22q23 0 46 8t33 20.5t10 23.5q0 38 -56 38q-14 0 -30 -4t-33 -12t-18 -8q-11 0 -20.5 13t-9.5 19q0 11 39.5 24.5t78.5 13.5q49 0 83 -20.5t34 -60.5q0 -20 -13.5 -40t-42.5 -31v-3
q23 -6 42.5 -19.5t28 -33.5t8.5 -37q0 -53 -43.5 -84.5t-107.5 -31.5q-41 0 -80.5 15t-39.5 27q0 9 7.5 25t17.5 16q1 0 2.5 -0.5t23 -12t39 -15.5t30.5 -4z" />
    <glyph glyph-name="acute" unicode="&#xb4;" horiz-adv-x="288" 
d="M226 641q-100 -63 -116 -72q-22 -10 -26 -10q-8 0 -21 10.5t-13 23.5q0 4 24 26q81 67 107 85q15 13 27 13q11 0 26.5 -19.5t15.5 -30.5q0 -3 -2.5 -8.5t-21.5 -17.5z" />
    <glyph glyph-name="paragraph" unicode="&#xb6;" horiz-adv-x="781" 
d="M611 626v-618q0 -12 -40 -12t-40 12v618h-119v-618q0 -12 -39 -12q-41 0 -41 12v293q-122 0 -189.5 51t-67.5 147q0 39 11 75.5t40.5 62t82.5 39.5t145 14h362q8 0 8 -32t-8 -32h-105z" />
    <glyph glyph-name="periodcentered" unicode="&#xb7;" horiz-adv-x="233" 
d="M55 314q0 28 14 38.5t48 10.5q31 0 45.5 -10.5t14.5 -38.5q0 -21 -10.5 -34.5t-49.5 -13.5q-34 0 -48 10t-14 38z" />
    <glyph glyph-name="cedilla" unicode="&#xb8;" horiz-adv-x="287" 
d="M123 16l45 6q46 -39 62 -64t16 -45q0 -45 -38 -70.5t-105 -25.5q-33 0 -47.5 2.5t-14.5 27.5q0 13 3.5 22.5t8.5 9.5l39 -2q39 0 56.5 15t17.5 35q0 30 -43 89z" />
    <glyph glyph-name="uni00B9" unicode="&#xb9;" horiz-adv-x="315" 
d="M71 377h66v243l-69 -22q-7 0 -7 22q0 18 12 24q13 8 35 18t37 15q37 10 41 10q20 0 20 -21v-289h49q4 0 7 -8t3 -16q0 -7 -3 -15.5t-7 -8.5h-184q-4 0 -7 8.5t-3 15.5t3 15.5t7 8.5z" />
    <glyph glyph-name="ordmasculine" unicode="&#xba;" horiz-adv-x="474" 
d="M237 688q93 0 143.5 -43.5t50.5 -126.5q0 -85 -50.5 -130t-143.5 -45q-91 0 -141.5 45.5t-50.5 129.5q0 83 50 126.5t142 43.5zM238 413q53 0 79 28.5t26 76.5q0 32 -13.5 56t-38 34t-53.5 10q-52 0 -78 -26t-26 -74q0 -55 26.5 -80t77.5 -25z" />
    <glyph glyph-name="guillemotright" unicode="&#xbb;" horiz-adv-x="622" 
d="M463 283q-20 23 -60.5 67t-57 63.5t-31.5 38t-15 24.5q0 7 13 12.5t35 5.5q39 0 48 -12l153 -176q4 -5 8 -12.5t4 -10.5q0 -8 -12 -24l-153 -176q-2 -3 -9 -7t-39 -4q-23 0 -35.5 5t-12.5 13t23 35t72 81t69 77zM228 283q-20 23 -60.5 67t-57 63.5t-31.5 38t-15 24.5
q0 7 13 12.5t35 5.5q39 0 48 -12l153 -176q4 -5 8 -12.5t4 -10.5q0 -8 -12 -24l-153 -176q-2 -3 -9 -7t-39 -4q-23 0 -35.5 5t-12.5 13t23 35t72 81t69 77z" />
    <glyph glyph-name="Agrave" unicode="&#xc0;" horiz-adv-x="576" 
d="M555 61v-44q0 -17 -22 -17h-41q-12 0 -19 2.5t-11 15.5l-65 207h-222l-64 -207q-4 -10 -8.5 -14t-12.5 -4h-53q-16 0 -16 15v47q0 4 1 10.5t11 37.5l196 568q3 7 12 11t46 4q31 0 44 -2.5t16 -11.5l199 -575q9 -28 9 -43zM380 299l-85 273q-2 8 -9 8q-6 0 -8 -8l-87 -273
h189zM179 840q-16 12 -20.5 16t-4.5 10q0 11 16 30.5t27 19.5q10 0 27 -13q45 -33 106 -85q25 -21 25 -26q0 -13 -13 -23.5t-21 -10.5q-4 0 -24 9q-80 46 -118 73z" />
    <glyph glyph-name="Aacute" unicode="&#xc1;" horiz-adv-x="576" 
d="M555 61v-44q0 -17 -22 -17h-41q-12 0 -19 2.5t-11 15.5l-65 207h-222l-64 -207q-4 -10 -8.5 -14t-12.5 -4h-53q-16 0 -16 15v47q0 4 1 10.5t11 37.5l196 568q3 7 12 11t46 4q31 0 44 -2.5t16 -11.5l199 -575q9 -28 9 -43zM380 299l-85 273q-2 8 -9 8q-6 0 -8 -8l-87 -273
h189zM416 839q-100 -63 -116 -72q-22 -10 -26 -10q-8 0 -21 10.5t-13 23.5q0 4 24 26q81 67 107 85q15 13 27 13q11 0 26.5 -19.5t15.5 -30.5q0 -3 -2.5 -8.5t-21.5 -17.5z" />
    <glyph glyph-name="Acircumflex" unicode="&#xc2;" horiz-adv-x="576" 
d="M555 61v-44q0 -17 -22 -17h-41q-12 0 -19 2.5t-11 15.5l-65 207h-222l-64 -207q-4 -10 -8.5 -14t-12.5 -4h-53q-16 0 -16 15v47q0 4 1 10.5t11 37.5l196 568q3 7 12 11t46 4q31 0 44 -2.5t16 -11.5l199 -575q9 -28 9 -43zM380 299l-85 273q-2 8 -9 8q-6 0 -8 -8l-87 -273
h189zM287 894q12 0 26 -3.5t39 -25.5q86 -74 86 -85q0 -12 -18.5 -20.5t-28.5 -8.5q-4 0 -10 2t-26 21l-68 65l-68 -66q-22 -22 -36 -22q-13 0 -29.5 9.5t-16.5 19.5q0 1 1.5 3.5t19.5 22.5t76 71q23 17 53 17z" />
    <glyph glyph-name="Atilde" unicode="&#xc3;" horiz-adv-x="576" 
d="M555 61v-44q0 -17 -22 -17h-41q-12 0 -19 2.5t-11 15.5l-65 207h-222l-64 -207q-4 -10 -8.5 -14t-12.5 -4h-53q-16 0 -16 15v47q0 4 1 10.5t11 37.5l196 568q3 7 12 11t46 4q31 0 44 -2.5t16 -11.5l199 -575q9 -28 9 -43zM380 299l-85 273q-2 8 -9 8q-6 0 -8 -8l-87 -273
h189zM215 864q26 0 74 -22.5t65 -22.5q16 0 32.5 7.5t30 23t15.5 15.5q8 0 20.5 -16.5t12.5 -24.5q0 -9 -12 -23.5t-40 -27.5t-57 -13q-24 0 -69.5 22.5t-68.5 22.5q-13 0 -25 -5.5t-25.5 -17t-17.5 -11.5q-11 0 -23 10q-13 12 -13 25q0 7 10.5 20.5t36.5 25.5t54 12z" />
    <glyph glyph-name="Adieresis" unicode="&#xc4;" horiz-adv-x="576" 
d="M555 61v-44q0 -17 -22 -17h-41q-12 0 -19 2.5t-11 15.5l-65 207h-222l-64 -207q-4 -10 -8.5 -14t-12.5 -4h-53q-16 0 -16 15v47q0 4 1 10.5t11 37.5l196 568q3 7 12 11t46 4q31 0 44 -2.5t16 -11.5l199 -575q9 -28 9 -43zM380 299l-85 273q-2 8 -9 8q-6 0 -8 -8l-87 -273
h189zM123 806q0 23 11.5 33t38.5 10q20 0 35.5 -7.5t15.5 -35.5q0 -18 -8.5 -30.5t-42.5 -12.5q-28 0 -39 9.5t-11 33.5zM348 806q0 23 11.5 33t40.5 10q26 0 37.5 -10t11.5 -33q0 -18 -8 -30.5t-41 -12.5q-22 0 -37 6.5t-15 36.5z" />
    <glyph glyph-name="Aring" unicode="&#xc5;" horiz-adv-x="576" 
d="M173 760q0 48 32.5 75t81.5 27q50 0 83 -27t33 -75q0 -24 -11 -49.5t-42 -42.5l196 -564q9 -28 9 -43v-44q0 -17 -22 -17h-41q-12 0 -19 2.5t-11 15.5l-65 207h-222l-64 -207q-4 -10 -8.5 -14t-12.5 -4h-53q-16 0 -16 15v47q0 4 1 10.5t11 37.5l192 558q-24 12 -38 36
t-14 56zM380 299l-85 273q-2 8 -9 8q-6 0 -8 -8l-87 -273h189zM221 760q0 -31 19 -48.5t48 -17.5t48 17.5t19 48.5q0 30 -19 46t-48 16t-48 -16t-19 -46z" />
    <glyph glyph-name="AE" unicode="&#xc6;" horiz-adv-x="762" 
d="M364 300l-80 263q-3 7 -8 7q-7 0 -10 -8l-80 -262h178zM779 0h-295q-14 0 -22.5 4t-13.5 20l-66 201h-214l-64 -207q-5 -19 -21 -19h-51q-15 0 -15 16v47q0 15 12 49l189 562q2 8 11 12t47 4h277q4 0 8.5 -9.5t4.5 -25.5q0 -9 -4 -26t-9 -17h-186q-8 0 -8 -8q0 -3 29 -94
t35 -109l157 -10q5 -1 9 -11.5t4 -20.5q0 -12 -3.5 -21.5t-8.5 -10.5l-130 -12l71 -223q5 -13 13 -13h243q6 0 10 -15.5t4 -24.5t-4 -23.5t-9 -14.5z" />
    <glyph glyph-name="Ccedilla" unicode="&#xc7;" horiz-adv-x="612" 
d="M345 697q104 0 185 -49q26 -16 26 -26q0 -4 -6.5 -18t-20 -29t-23.5 -15q-1 0 -3 1t-22 13t-43 20.5t-46 13t-48 4.5q-97 0 -146 -62t-49 -205q0 -100 23 -158t67 -84.5t105 -26.5q37 0 73.5 11t73.5 32.5t38.5 22t2.5 0.5q11 0 24 -27t13 -38q0 -19 -41.5 -40.5
t-90.5 -32.5t-81 -12q54 -50 54 -88q0 -45 -38 -70.5t-105 -25.5q-33 0 -47.5 2.5t-14.5 27.5q0 13 3.5 22.5t8.5 9.5l39 -2q39 0 56.5 15t17.5 35q0 26 -33 75q-124 13 -187 101t-63 250q0 353 298 353z" />
    <glyph glyph-name="Egrave" unicode="&#xc8;" horiz-adv-x="572" 
d="M433 327l-233 -14q-8 0 -8 -10v-216q0 -8 15 -8h323q4 0 8.5 -12t4.5 -29q0 -10 -3.5 -24t-9.5 -14h-409q-29 0 -29 26v636q0 27 28 27h374q5 0 9 -9.5t4 -25.5q0 -10 -3.5 -27t-9.5 -17h-288q-3 0 -8.5 -0.5t-5.5 -7.5v-186q0 -3 0.5 -7t8.5 -4l232 -14q5 -1 9 -12
t4 -20q0 -11 -4 -21t-9 -11zM203 840q-16 12 -20.5 16t-4.5 10q0 11 16 30.5t27 19.5q10 0 27 -13q45 -33 106 -85q25 -21 25 -26q0 -13 -13 -23.5t-21 -10.5q-4 0 -24 9q-80 46 -118 73z" />
    <glyph glyph-name="Eacute" unicode="&#xc9;" horiz-adv-x="572" 
d="M433 327l-233 -14q-8 0 -8 -10v-216q0 -8 15 -8h323q4 0 8.5 -12t4.5 -29q0 -10 -3.5 -24t-9.5 -14h-409q-29 0 -29 26v636q0 27 28 27h374q5 0 9 -9.5t4 -25.5q0 -10 -3.5 -27t-9.5 -17h-288q-3 0 -8.5 -0.5t-5.5 -7.5v-186q0 -3 0.5 -7t8.5 -4l232 -14q5 -1 9 -12
t4 -20q0 -11 -4 -21t-9 -11zM419 839q-100 -63 -116 -72q-22 -10 -26 -10q-8 0 -21 10.5t-13 23.5q0 4 24 26q81 67 107 85q15 13 27 13q11 0 26.5 -19.5t15.5 -30.5q0 -3 -2.5 -8.5t-21.5 -17.5z" />
    <glyph glyph-name="Ecircumflex" unicode="&#xca;" horiz-adv-x="572" 
d="M433 327l-233 -14q-8 0 -8 -10v-216q0 -8 15 -8h323q4 0 8.5 -12t4.5 -29q0 -10 -3.5 -24t-9.5 -14h-409q-29 0 -29 26v636q0 27 28 27h374q5 0 9 -9.5t4 -25.5q0 -10 -3.5 -27t-9.5 -17h-288q-3 0 -8.5 -0.5t-5.5 -7.5v-186q0 -3 0.5 -7t8.5 -4l232 -14q5 -1 9 -12
t4 -20q0 -11 -4 -21t-9 -11zM297 894q12 0 26 -3.5t39 -25.5q86 -74 86 -85q0 -12 -18.5 -20.5t-28.5 -8.5q-4 0 -10 2t-26 21l-68 65l-68 -66q-22 -22 -36 -22q-13 0 -29.5 9.5t-16.5 19.5q0 1 1.5 3.5t19.5 22.5t76 71q23 17 53 17z" />
    <glyph glyph-name="Edieresis" unicode="&#xcb;" horiz-adv-x="572" 
d="M433 327l-233 -14q-8 0 -8 -10v-216q0 -8 15 -8h323q4 0 8.5 -12t4.5 -29q0 -10 -3.5 -24t-9.5 -14h-409q-29 0 -29 26v636q0 27 28 27h374q5 0 9 -9.5t4 -25.5q0 -10 -3.5 -27t-9.5 -17h-288q-3 0 -8.5 -0.5t-5.5 -7.5v-186q0 -3 0.5 -7t8.5 -4l232 -14q5 -1 9 -12
t4 -20q0 -11 -4 -21t-9 -11zM136 807q0 23 11.5 33t38.5 10q20 0 35.5 -7.5t15.5 -35.5q0 -18 -8.5 -30.5t-42.5 -12.5q-28 0 -39 9.5t-11 33.5zM361 807q0 23 11.5 33t40.5 10q26 0 37.5 -10t11.5 -33q0 -18 -8 -30.5t-41 -12.5q-22 0 -37 6.5t-15 36.5z" />
    <glyph glyph-name="Igrave" unicode="&#xcc;" horiz-adv-x="285" 
d="M193 676v-664q0 -15 -50 -15q-51 0 -51 15v664q0 16 51 16q50 0 50 -16zM38 845q-16 12 -20.5 16t-4.5 10q0 11 16 30.5t27 19.5q10 0 27 -13q45 -33 106 -85q25 -21 25 -26q0 -13 -13 -23.5t-21 -10.5q-4 0 -24 9q-80 46 -118 73z" />
    <glyph glyph-name="Iacute" unicode="&#xcd;" horiz-adv-x="285" 
d="M193 676v-664q0 -15 -50 -15q-51 0 -51 15v664q0 16 51 16q50 0 50 -16zM269 840q-100 -63 -116 -72q-22 -10 -26 -10q-8 0 -21 10.5t-13 23.5q0 4 24 26q81 67 107 85q15 13 27 13q11 0 26.5 -19.5t15.5 -30.5q0 -3 -2.5 -8.5t-21.5 -17.5z" />
    <glyph glyph-name="Icircumflex" unicode="&#xce;" horiz-adv-x="285" 
d="M193 676v-664q0 -15 -50 -15q-51 0 -51 15v664q0 16 51 16q50 0 50 -16zM140 894q12 0 26 -3.5t39 -25.5q86 -74 86 -85q0 -12 -18.5 -20.5t-28.5 -8.5q-4 0 -10 2t-26 21l-68 65l-68 -66q-22 -22 -36 -22q-13 0 -29.5 9.5t-16.5 19.5q0 1 1.5 3.5t19.5 22.5t76 71
q23 17 53 17z" />
    <glyph glyph-name="Idieresis" unicode="&#xcf;" horiz-adv-x="285" 
d="M193 676v-664q0 -15 -50 -15q-51 0 -51 15v664q0 16 51 16q50 0 50 -16zM-21 805q0 23 11.5 33t38.5 10q20 0 35.5 -7.5t15.5 -35.5q0 -18 -8.5 -30.5t-42.5 -12.5q-28 0 -39 9.5t-11 33.5zM204 805q0 23 11.5 33t40.5 10q26 0 37.5 -10t11.5 -33q0 -18 -8 -30.5
t-41 -12.5q-22 0 -37 6.5t-15 36.5z" />
    <glyph glyph-name="Eth" unicode="&#xd0;" horiz-adv-x="676" 
d="M323 0h-195q-29 0 -29 25v286h-67q-10 0 -10 26q0 25 10 25h67v301q0 26 29 26h197q304 0 304 -343q0 -87 -20.5 -153t-59.5 -108.5t-96 -63.5t-130 -21zM324 616h-108q-17 0 -17 -7v-247h134q10 0 10 -25q0 -26 -10 -26h-134v-227q0 -7 17 -7h105q104 0 154.5 62
t50.5 209q0 105 -24 162t-69.5 81.5t-108.5 24.5z" />
    <glyph glyph-name="Ntilde" unicode="&#xd1;" horiz-adv-x="755" 
d="M662 678v-653q0 -13 -5 -19t-31 -6h-46q-18 0 -28.5 4.5t-18.5 16.5l-324 497q-6 10 -14 10q-6 0 -6 -8v-508q0 -15 -47 -15q-50 0 -50 15v653q0 12 5 18.5t30 6.5h53q16 0 26 -3.5t21 -19.5l318 -495q8 -11 13 -11q8 0 8 7v510q0 15 48 15t48 -15zM320 843
q26 0 74 -22.5t65 -22.5q16 0 32.5 7.5t30 23t15.5 15.5q8 0 20.5 -16.5t12.5 -24.5q0 -9 -12 -23.5t-40 -27.5t-57 -13q-24 0 -69.5 22.5t-68.5 22.5q-13 0 -25 -5.5t-25.5 -17t-17.5 -11.5q-11 0 -23 10q-13 12 -13 25q0 7 10.5 20.5t36.5 25.5t54 12z" />
    <glyph glyph-name="Ograve" unicode="&#xd2;" horiz-adv-x="686" 
d="M344 -9q-148 0 -223 89t-75 264t75 264t223 89q147 0 221.5 -89t74.5 -264t-74.5 -264t-221.5 -89zM343 612q-95 0 -144.5 -61.5t-49.5 -207.5q0 -98 23.5 -155.5t67.5 -83.5t104 -26q97 0 145 63t48 202q0 100 -23 158t-66.5 84.5t-104.5 26.5zM255 840q-16 12 -20.5 16
t-4.5 10q0 11 16 30.5t27 19.5q10 0 27 -13q45 -33 106 -85q25 -21 25 -26q0 -13 -13 -23.5t-21 -10.5q-4 0 -24 9q-80 46 -118 73z" />
    <glyph glyph-name="Oacute" unicode="&#xd3;" horiz-adv-x="686" 
d="M344 -9q-148 0 -223 89t-75 264t75 264t223 89q147 0 221.5 -89t74.5 -264t-74.5 -264t-221.5 -89zM343 612q-95 0 -144.5 -61.5t-49.5 -207.5q0 -98 23.5 -155.5t67.5 -83.5t104 -26q97 0 145 63t48 202q0 100 -23 158t-66.5 84.5t-104.5 26.5zM469 840
q-100 -63 -116 -72q-22 -10 -26 -10q-8 0 -21 10.5t-13 23.5q0 4 24 26q81 67 107 85q15 13 27 13q11 0 26.5 -19.5t15.5 -30.5q0 -3 -2.5 -8.5t-21.5 -17.5z" />
    <glyph glyph-name="Ocircumflex" unicode="&#xd4;" horiz-adv-x="686" 
d="M344 -9q-148 0 -223 89t-75 264t75 264t223 89q147 0 221.5 -89t74.5 -264t-74.5 -264t-221.5 -89zM343 612q-95 0 -144.5 -61.5t-49.5 -207.5q0 -98 23.5 -155.5t67.5 -83.5t104 -26q97 0 145 63t48 202q0 100 -23 158t-66.5 84.5t-104.5 26.5zM342 895q12 0 26 -3.5
t39 -25.5q86 -74 86 -85q0 -12 -18.5 -20.5t-28.5 -8.5q-4 0 -10 2t-26 21l-68 65l-68 -66q-22 -22 -36 -22q-13 0 -29.5 9.5t-16.5 19.5q0 1 1.5 3.5t19.5 22.5t76 71q23 17 53 17z" />
    <glyph glyph-name="Otilde" unicode="&#xd5;" horiz-adv-x="686" 
d="M344 -9q-148 0 -223 89t-75 264t75 264t223 89q147 0 221.5 -89t74.5 -264t-74.5 -264t-221.5 -89zM343 612q-95 0 -144.5 -61.5t-49.5 -207.5q0 -98 23.5 -155.5t67.5 -83.5t104 -26q97 0 145 63t48 202q0 100 -23 158t-66.5 84.5t-104.5 26.5zM273 864q26 0 74 -22.5
t65 -22.5q16 0 32.5 7.5t30 23t15.5 15.5q8 0 20.5 -16.5t12.5 -24.5q0 -9 -12 -23.5t-40 -27.5t-57 -13q-24 0 -69.5 22.5t-68.5 22.5q-13 0 -25 -5.5t-25.5 -17t-17.5 -11.5q-11 0 -23 10q-13 12 -13 25q0 7 10.5 20.5t36.5 25.5t54 12z" />
    <glyph glyph-name="Odieresis" unicode="&#xd6;" horiz-adv-x="686" 
d="M344 -9q-148 0 -223 89t-75 264t75 264t223 89q147 0 221.5 -89t74.5 -264t-74.5 -264t-221.5 -89zM343 612q-95 0 -144.5 -61.5t-49.5 -207.5q0 -98 23.5 -155.5t67.5 -83.5t104 -26q97 0 145 63t48 202q0 100 -23 158t-66.5 84.5t-104.5 26.5zM180 806q0 23 11.5 33
t38.5 10q20 0 35.5 -7.5t15.5 -35.5q0 -18 -8.5 -30.5t-42.5 -12.5q-28 0 -39 9.5t-11 33.5zM405 806q0 23 11.5 33t40.5 10q26 0 37.5 -10t11.5 -33q0 -18 -8 -30.5t-41 -12.5q-22 0 -37 6.5t-15 36.5z" />
    <glyph glyph-name="Oslash" unicode="&#xd8;" horiz-adv-x="686" 
d="M562 731q0 -8 -16 -38l-24 -45q118 -83 118 -304q0 -175 -74.5 -264t-221.5 -89q-94 0 -154 33l-24 -42q-2 -4 -7 -10t-27 -6q-23 0 -23 8q0 5 14 31l26 47q-49 43 -76 118t-27 174q0 175 75 264t223 89q36 0 72.5 -7t63.5 -18l29 53q2 3 7.5 9t23.5 6q22 0 22 -9z
M537 343q0 157 -61 220l-242 -456q41 -29 110 -29q97 0 145 63t48 202zM343 612q-95 0 -144.5 -61.5t-49.5 -207.5q0 -133 49 -201l239 450q-42 20 -94 20z" />
    <glyph glyph-name="Ugrave" unicode="&#xd9;" horiz-adv-x="670" 
d="M598 676v-339q0 -88 -14.5 -153.5t-45.5 -108t-81.5 -63.5t-121.5 -21t-121.5 21t-81.5 63t-45.5 107t-14.5 154v340q0 16 51 16q49 0 49 -16v-323q0 -116 18.5 -173.5t55.5 -82t90 -24.5q51 0 87.5 24.5t55.5 83.5t19 174v321q0 16 51 16q49 0 49 -16zM239 840
q-16 12 -20.5 16t-4.5 10q0 11 16 30.5t27 19.5q10 0 27 -13q45 -33 106 -85q25 -21 25 -26q0 -13 -13 -23.5t-21 -10.5q-4 0 -24 9q-80 46 -118 73z" />
    <glyph glyph-name="Uacute" unicode="&#xda;" horiz-adv-x="670" 
d="M598 676v-339q0 -88 -14.5 -153.5t-45.5 -108t-81.5 -63.5t-121.5 -21t-121.5 21t-81.5 63t-45.5 107t-14.5 154v340q0 16 51 16q49 0 49 -16v-323q0 -116 18.5 -173.5t55.5 -82t90 -24.5q51 0 87.5 24.5t55.5 83.5t19 174v321q0 16 51 16q49 0 49 -16zM464 840
q-100 -63 -116 -72q-22 -10 -26 -10q-8 0 -21 10.5t-13 23.5q0 4 24 26q81 67 107 85q15 13 27 13q11 0 26.5 -19.5t15.5 -30.5q0 -3 -2.5 -8.5t-21.5 -17.5z" />
    <glyph glyph-name="Ucircumflex" unicode="&#xdb;" horiz-adv-x="670" 
d="M598 676v-339q0 -88 -14.5 -153.5t-45.5 -108t-81.5 -63.5t-121.5 -21t-121.5 21t-81.5 63t-45.5 107t-14.5 154v340q0 16 51 16q49 0 49 -16v-323q0 -116 18.5 -173.5t55.5 -82t90 -24.5q51 0 87.5 24.5t55.5 83.5t19 174v321q0 16 51 16q49 0 49 -16zM335 894
q12 0 26 -3.5t39 -25.5q86 -74 86 -85q0 -12 -18.5 -20.5t-28.5 -8.5q-4 0 -10 2t-26 21l-68 65l-68 -66q-22 -22 -36 -22q-13 0 -29.5 9.5t-16.5 19.5q0 1 1.5 3.5t19.5 22.5t76 71q23 17 53 17z" />
    <glyph glyph-name="Udieresis" unicode="&#xdc;" horiz-adv-x="670" 
d="M598 676v-339q0 -88 -14.5 -153.5t-45.5 -108t-81.5 -63.5t-121.5 -21t-121.5 21t-81.5 63t-45.5 107t-14.5 154v340q0 16 51 16q49 0 49 -16v-323q0 -116 18.5 -173.5t55.5 -82t90 -24.5q51 0 87.5 24.5t55.5 83.5t19 174v321q0 16 51 16q49 0 49 -16zM174 806
q0 23 11.5 33t38.5 10q20 0 35.5 -7.5t15.5 -35.5q0 -18 -8.5 -30.5t-42.5 -12.5q-28 0 -39 9.5t-11 33.5zM399 806q0 23 11.5 33t40.5 10q26 0 37.5 -10t11.5 -33q0 -18 -8 -30.5t-41 -12.5q-22 0 -37 6.5t-15 36.5z" />
    <glyph glyph-name="Yacute" unicode="&#xdd;" horiz-adv-x="524" 
d="M311 309v-297q0 -15 -49 -15q-51 0 -51 15v297l-188 294q-9 15 -9 30v37q0 8 5.5 14t16.5 6h36q6 0 16 -2t19 -17l147 -259q3 -5 9 -5q4 0 8 5l146 258q2 4 8.5 12t26.5 8h36q22 0 22 -18v-38q0 -17 -11 -34zM402 838q-100 -63 -116 -72q-22 -10 -26 -10q-8 0 -21 10.5
t-13 23.5q0 4 24 26q81 67 107 85q15 13 27 13q11 0 26.5 -19.5t15.5 -30.5q0 -3 -2.5 -8.5t-21.5 -17.5z" />
    <glyph glyph-name="Thorn" unicode="&#xde;" horiz-adv-x="554" 
d="M264 506h-56q-16 0 -16 -8v-285l62 5q57 5 94.5 24t57 52t19.5 82q0 63 -42.5 96.5t-118.5 33.5zM192 677v-98l92 -1q54 -2 98.5 -14.5t76 -37t49 -62t17.5 -87.5q0 -43 -15.5 -85t-48.5 -76.5t-85 -55t-120 -20.5q-7 0 -30.5 2.5t-33.5 4.5v-135q0 -15 -49 -15
q-51 0 -51 15v665q0 15 51 15q49 0 49 -15z" />
    <glyph glyph-name="germandbls" unicode="&#xdf;" horiz-adv-x="609" 
d="M306 627q-63 0 -93 -40t-30 -117v-458q0 -15 -48 -15t-48 14v464q0 108 58.5 165.5t159.5 57.5q94 0 147.5 -46.5t53.5 -125.5q0 -28 -12.5 -58.5t-36 -52.5t-48.5 -33v-6q48 -8 81 -31.5t50 -59t17 -75.5q0 -45 -16.5 -84t-50.5 -68t-87 -45.5t-123 -16.5q-10 0 -10 39
q0 36 8 37q26 1 60 7t64 25.5t43.5 48t13.5 58.5q0 28 -15.5 56t-55 45t-96.5 18q-5 0 -8 11.5t-3 31.5q0 36 10 39q28 2 57 15t48 37t19 60q0 40 -27 71.5t-82 31.5z" />
    <glyph glyph-name="agrave" unicode="&#xe0;" horiz-adv-x="539" 
d="M245 69q23 0 49.5 15t47.5 50t21 77q-51 17 -93 17q-62 0 -93.5 -21.5t-31.5 -54.5q0 -37 25 -60t75 -23zM424 -6q-23 0 -26 10l-12 44q-3 10 -7 10q-5 0 -13 -8q-65 -59 -144 -59q-36 0 -70 9.5t-57 30t-35.5 49.5t-12.5 64q0 46 25.5 82.5t73 57.5t116.5 21
q19 0 49.5 -5t53.5 -11v32q0 54 -25.5 82.5t-90.5 28.5q-23 0 -49 -5.5t-53.5 -16.5t-29.5 -11q-10 0 -21 23.5t-11 34.5q0 13 12 21q30 14 77.5 23.5t85.5 9.5q200 0 200 -180v-322q0 -7 -6.5 -11t-29.5 -4zM169 665q-16 12 -20.5 16t-4.5 10q0 11 16 30.5t27 19.5
q10 0 27 -13q45 -33 106 -85q25 -21 25 -26q0 -13 -13 -23.5t-21 -10.5q-4 0 -24 9q-80 46 -118 73z" />
    <glyph glyph-name="aacute" unicode="&#xe1;" horiz-adv-x="539" 
d="M245 69q23 0 49.5 15t47.5 50t21 77q-51 17 -93 17q-62 0 -93.5 -21.5t-31.5 -54.5q0 -37 25 -60t75 -23zM424 -6q-23 0 -26 10l-12 44q-3 10 -7 10q-5 0 -13 -8q-65 -59 -144 -59q-36 0 -70 9.5t-57 30t-35.5 49.5t-12.5 64q0 46 25.5 82.5t73 57.5t116.5 21
q19 0 49.5 -5t53.5 -11v32q0 54 -25.5 82.5t-90.5 28.5q-23 0 -49 -5.5t-53.5 -16.5t-29.5 -11q-10 0 -21 23.5t-11 34.5q0 13 12 21q30 14 77.5 23.5t85.5 9.5q200 0 200 -180v-322q0 -7 -6.5 -11t-29.5 -4zM391 667q-100 -63 -116 -72q-22 -10 -26 -10q-8 0 -21 10.5
t-13 23.5q0 4 24 26q81 67 107 85q15 13 27 13q11 0 26.5 -19.5t15.5 -30.5q0 -3 -2.5 -8.5t-21.5 -17.5z" />
    <glyph glyph-name="acircumflex" unicode="&#xe2;" horiz-adv-x="539" 
d="M245 69q23 0 49.5 15t47.5 50t21 77q-51 17 -93 17q-62 0 -93.5 -21.5t-31.5 -54.5q0 -37 25 -60t75 -23zM424 -6q-23 0 -26 10l-12 44q-3 10 -7 10q-5 0 -13 -8q-65 -59 -144 -59q-36 0 -70 9.5t-57 30t-35.5 49.5t-12.5 64q0 46 25.5 82.5t73 57.5t116.5 21
q19 0 49.5 -5t53.5 -11v32q0 54 -25.5 82.5t-90.5 28.5q-23 0 -49 -5.5t-53.5 -16.5t-29.5 -11q-10 0 -21 23.5t-11 34.5q0 13 12 21q30 14 77.5 23.5t85.5 9.5q200 0 200 -180v-322q0 -7 -6.5 -11t-29.5 -4zM261 721q12 0 26 -3.5t39 -25.5q86 -74 86 -85
q0 -12 -18.5 -20.5t-28.5 -8.5q-4 0 -10 2t-26 21l-68 65l-68 -66q-22 -22 -36 -22q-13 0 -29.5 9.5t-16.5 19.5q0 1 1.5 3.5t19.5 22.5t76 71q23 17 53 17z" />
    <glyph glyph-name="atilde" unicode="&#xe3;" horiz-adv-x="539" 
d="M245 69q23 0 49.5 15t47.5 50t21 77q-51 17 -93 17q-62 0 -93.5 -21.5t-31.5 -54.5q0 -37 25 -60t75 -23zM424 -6q-23 0 -26 10l-12 44q-3 10 -7 10q-5 0 -13 -8q-65 -59 -144 -59q-36 0 -70 9.5t-57 30t-35.5 49.5t-12.5 64q0 46 25.5 82.5t73 57.5t116.5 21
q19 0 49.5 -5t53.5 -11v32q0 54 -25.5 82.5t-90.5 28.5q-23 0 -49 -5.5t-53.5 -16.5t-29.5 -11q-10 0 -21 23.5t-11 34.5q0 13 12 21q30 14 77.5 23.5t85.5 9.5q200 0 200 -180v-322q0 -7 -6.5 -11t-29.5 -4zM189 693q26 0 74 -22.5t65 -22.5q16 0 32.5 7.5t30 23t15.5 15.5
q8 0 20.5 -16.5t12.5 -24.5q0 -9 -12 -23.5t-40 -27.5t-57 -13q-24 0 -69.5 22.5t-68.5 22.5q-13 0 -25 -5.5t-25.5 -17t-17.5 -11.5q-11 0 -23 10q-13 12 -13 25q0 7 10.5 20.5t36.5 25.5t54 12z" />
    <glyph glyph-name="adieresis" unicode="&#xe4;" horiz-adv-x="539" 
d="M245 69q23 0 49.5 15t47.5 50t21 77q-51 17 -93 17q-62 0 -93.5 -21.5t-31.5 -54.5q0 -37 25 -60t75 -23zM424 -6q-23 0 -26 10l-12 44q-3 10 -7 10q-5 0 -13 -8q-65 -59 -144 -59q-36 0 -70 9.5t-57 30t-35.5 49.5t-12.5 64q0 46 25.5 82.5t73 57.5t116.5 21
q19 0 49.5 -5t53.5 -11v32q0 54 -25.5 82.5t-90.5 28.5q-23 0 -49 -5.5t-53.5 -16.5t-29.5 -11q-10 0 -21 23.5t-11 34.5q0 13 12 21q30 14 77.5 23.5t85.5 9.5q200 0 200 -180v-322q0 -7 -6.5 -11t-29.5 -4zM99 646q0 23 11.5 33t38.5 10q20 0 35.5 -7.5t15.5 -35.5
q0 -18 -8.5 -30.5t-42.5 -12.5q-28 0 -39 9.5t-11 33.5zM324 646q0 23 11.5 33t40.5 10q26 0 37.5 -10t11.5 -33q0 -18 -8 -30.5t-41 -12.5q-22 0 -37 6.5t-15 36.5z" />
    <glyph glyph-name="aring" unicode="&#xe5;" horiz-adv-x="539" 
d="M143 579q0 48 32.5 75t81.5 27q50 0 83 -27t33 -75q0 -23 -9 -44t-23 -34q54 -14 86.5 -55t32.5 -115v-322q0 -7 -6.5 -11t-29.5 -4t-26 10l-12 44q-3 10 -7 10q-5 0 -13 -8q-65 -59 -144 -59q-36 0 -70 9.5t-57 30t-35.5 49.5t-12.5 64q0 46 25.5 82.5t73 57.5t116.5 21
q19 0 49.5 -5t53.5 -11v32q0 54 -25.5 82.5t-90.5 28.5q-23 0 -49 -5.5t-53.5 -16.5t-29.5 -11q-10 0 -21 23.5t-11 34.5q0 13 12 21q30 15 77 23q-14 13 -22.5 34t-8.5 44zM245 69q23 0 49.5 15t47.5 50t21 77q-51 17 -93 17q-62 0 -93.5 -21.5t-31.5 -54.5q0 -37 25 -60
t75 -23zM191 579q0 -31 19 -48.5t48 -17.5t48 17.5t19 48.5q0 30 -19 46t-48 16t-48 -16t-19 -46z" />
    <glyph glyph-name="ae" unicode="&#xe6;" horiz-adv-x="788" 
d="M555 68q22 0 46.5 6.5t52.5 20.5t33 14q8 0 17 -22.5t9 -37.5t-52 -35.5t-100 -20.5q-66 0 -105 21.5t-71 76.5q-23 -48 -62 -73t-106 -25q-34 0 -66 9t-58.5 32t-36.5 54t-10 55q0 32 10 58.5t28 45t40.5 30.5t52.5 19t60 7q11 0 39.5 -3.5t61.5 -12.5q0 63 -9.5 89.5
t-29.5 40.5t-68 14q-19 0 -42 -5.5t-47 -17t-25 -11.5q-10 0 -22 24.5t-12 34.5q0 12 9 18q26 15 71 26t73 11q63 0 98.5 -17t61.5 -66q24 38 62 60.5t87 22.5q86 0 138 -57.5t52 -157.5q0 -70 -46 -70h-246q2 -67 30.5 -112.5t81.5 -45.5zM443 302h185q11 0 15.5 5t4.5 17
q0 55 -30 83.5t-70 28.5q-103 0 -105 -134zM230 69q27 0 53 17t43 55t17 71q-40 16 -86 16q-57 0 -85.5 -20.5t-28.5 -54.5q0 -27 12 -47.5t33 -28.5t42 -8z" />
    <glyph glyph-name="ccedilla" unicode="&#xe7;" horiz-adv-x="494" 
d="M303 433q-47 0 -80.5 -20t-52.5 -59t-19 -98q0 -84 40 -134.5t115 -50.5q19 0 42.5 6.5t49.5 20t28 13.5q9 0 20.5 -23.5t11.5 -38.5t-47 -34.5t-105 -22.5q45 -43 45 -79q0 -45 -38 -70.5t-105 -25.5q-33 0 -47.5 2.5t-14.5 27.5q0 13 3.5 22.5t8.5 9.5l39 -2
q39 0 56.5 15t17.5 35q0 25 -30 70q-62 12 -104 48t-63.5 88.5t-21.5 122.5q0 81 28 136.5t82 87t135 31.5q32 0 72 -8t67 -20q14 -6 14 -16q0 -3 -4 -16.5t-13 -29t-17 -15.5q-1 0 -3.5 0.5t-27.5 10t-46 13t-36 3.5z" />
    <glyph glyph-name="egrave" unicode="&#xe8;" horiz-adv-x="539" 
d="M153 302h217q10 0 15.5 4t5.5 21q0 51 -33 79t-75 28q-33 0 -62.5 -12.5t-48 -42t-19.5 -77.5zM302 67q25 0 51 7t53 21t33 14q8 0 17 -22.5t9 -37.5q0 -16 -54.5 -36.5t-114.5 -20.5q-52 0 -97 16t-78 48.5t-51 82t-18 113.5t18.5 113.5t50.5 82t74 48t89 15.5
q42 0 79 -13t65 -39.5t43.5 -66.5t15.5 -91q0 -34 -9.5 -54.5t-39.5 -20.5h-285q1 -40 17 -78t51 -59.5t81 -21.5zM180 665q-16 12 -20.5 16t-4.5 10q0 11 16 30.5t27 19.5q10 0 27 -13q45 -33 106 -85q25 -21 25 -26q0 -13 -13 -23.5t-21 -10.5q-4 0 -24 9q-80 46 -118 73z
" />
    <glyph glyph-name="eacute" unicode="&#xe9;" horiz-adv-x="539" 
d="M153 302h217q10 0 15.5 4t5.5 21q0 51 -33 79t-75 28q-33 0 -62.5 -12.5t-48 -42t-19.5 -77.5zM302 67q25 0 51 7t53 21t33 14q8 0 17 -22.5t9 -37.5q0 -16 -54.5 -36.5t-114.5 -20.5q-52 0 -97 16t-78 48.5t-51 82t-18 113.5t18.5 113.5t50.5 82t74 48t89 15.5
q42 0 79 -13t65 -39.5t43.5 -66.5t15.5 -91q0 -34 -9.5 -54.5t-39.5 -20.5h-285q1 -40 17 -78t51 -59.5t81 -21.5zM397 667q-100 -63 -116 -72q-22 -10 -26 -10q-8 0 -21 10.5t-13 23.5q0 4 24 26q81 67 107 85q15 13 27 13q11 0 26.5 -19.5t15.5 -30.5q0 -3 -2.5 -8.5
t-21.5 -17.5z" />
    <glyph glyph-name="ecircumflex" unicode="&#xea;" horiz-adv-x="539" 
d="M153 302h217q10 0 15.5 4t5.5 21q0 51 -33 79t-75 28q-33 0 -62.5 -12.5t-48 -42t-19.5 -77.5zM302 67q25 0 51 7t53 21t33 14q8 0 17 -22.5t9 -37.5q0 -16 -54.5 -36.5t-114.5 -20.5q-52 0 -97 16t-78 48.5t-51 82t-18 113.5t18.5 113.5t50.5 82t74 48t89 15.5
q42 0 79 -13t65 -39.5t43.5 -66.5t15.5 -91q0 -34 -9.5 -54.5t-39.5 -20.5h-285q1 -40 17 -78t51 -59.5t81 -21.5zM277 721q12 0 26 -3.5t39 -25.5q86 -74 86 -85q0 -12 -18.5 -20.5t-28.5 -8.5q-4 0 -10 2t-26 21l-68 65l-68 -66q-22 -22 -36 -22q-13 0 -29.5 9.5
t-16.5 19.5q0 1 1.5 3.5t19.5 22.5t76 71q23 17 53 17z" />
    <glyph glyph-name="edieresis" unicode="&#xeb;" horiz-adv-x="539" 
d="M153 302h217q10 0 15.5 4t5.5 21q0 51 -33 79t-75 28q-33 0 -62.5 -12.5t-48 -42t-19.5 -77.5zM302 67q25 0 51 7t53 21t33 14q8 0 17 -22.5t9 -37.5q0 -16 -54.5 -36.5t-114.5 -20.5q-52 0 -97 16t-78 48.5t-51 82t-18 113.5t18.5 113.5t50.5 82t74 48t89 15.5
q42 0 79 -13t65 -39.5t43.5 -66.5t15.5 -91q0 -34 -9.5 -54.5t-39.5 -20.5h-285q1 -40 17 -78t51 -59.5t81 -21.5zM116 626q0 23 11.5 33t38.5 10q20 0 35.5 -7.5t15.5 -35.5q0 -18 -8.5 -30.5t-42.5 -12.5q-28 0 -39 9.5t-11 33.5zM341 626q0 23 11.5 33t40.5 10
q26 0 37.5 -10t11.5 -33q0 -18 -8 -30.5t-41 -12.5q-22 0 -37 6.5t-15 36.5z" />
    <glyph glyph-name="igrave" unicode="&#xec;" horiz-adv-x="270" 
d="M30 666q-16 12 -20.5 16t-4.5 10q0 11 16 30.5t27 19.5q10 0 27 -13q45 -33 106 -85q25 -21 25 -26q0 -13 -13 -23.5t-21 -10.5q-4 0 -24 9q-80 46 -118 73zM179 494v-483q0 -15 -47 -15q-49 0 -49 15v483q0 14 48 14t48 -14z" />
    <glyph glyph-name="iacute" unicode="&#xed;" horiz-adv-x="270" 
d="M251 667q-100 -63 -116 -72q-22 -10 -26 -10q-8 0 -21 10.5t-13 23.5q0 4 24 26q81 67 107 85q15 13 27 13q11 0 26.5 -19.5t15.5 -30.5q0 -3 -2.5 -8.5t-21.5 -17.5zM179 494v-483q0 -15 -47 -15q-49 0 -49 15v483q0 14 48 14t48 -14z" />
    <glyph glyph-name="icircumflex" unicode="&#xee;" horiz-adv-x="272" 
d="M181 494v-483q0 -15 -47 -15q-49 0 -49 15v483q0 14 48 14t48 -14zM135 721q12 0 26 -3.5t39 -25.5q86 -74 86 -85q0 -12 -18.5 -20.5t-28.5 -8.5q-4 0 -10 2t-26 21l-68 65l-68 -66q-22 -22 -36 -22q-13 0 -29.5 9.5t-16.5 19.5q0 1 1.5 3.5t19.5 22.5t76 71
q23 17 53 17z" />
    <glyph glyph-name="idieresis" unicode="&#xef;" horiz-adv-x="274" 
d="M-22 643q0 23 11.5 33t38.5 10q20 0 35.5 -7.5t15.5 -35.5q0 -18 -8.5 -30.5t-42.5 -12.5q-28 0 -39 9.5t-11 33.5zM203 643q0 23 11.5 33t40.5 10q26 0 37.5 -10t11.5 -33q0 -18 -8 -30.5t-41 -12.5q-22 0 -37 6.5t-15 36.5zM183 494v-483q0 -15 -47 -15q-49 0 -49 15
v483q0 14 48 14t48 -14z" />
    <glyph glyph-name="eth" unicode="&#xf0;" horiz-adv-x="577" 
d="M216 598l81 31l-32 25q-2 1 -21 15t-19 19q0 10 21 18.5t41 8.5q24 0 48 -19q26 -18 44 -36l98 35q7 0 10.5 -9t3.5 -18q0 -11 -5 -13l-77 -27q58 -68 87 -162.5t29 -203.5q0 -57 -15.5 -106t-45.5 -85.5t-75 -56.5t-100 -20q-54 0 -99 19.5t-75.5 54.5t-46.5 81t-16 97
q0 53 15.5 100.5t45 83t73.5 55t98 19.5q11 0 38.5 -2.5t69.5 -22.5q-27 73 -65 120l-105 -38q-2 0 -6 5.5t-4 18.5q0 11 4 13zM151 246q0 -45 17 -85.5t48.5 -64t75.5 -23.5q27 0 49 10t39.5 30.5t30.5 59t13 84.5q0 41 -15 81.5t-49.5 65.5t-70.5 25q-43 0 -73 -21
t-47.5 -61.5t-17.5 -100.5z" />
    <glyph glyph-name="ntilde" unicode="&#xf1;" horiz-adv-x="602" 
d="M181 459q30 26 63 39t81 13q107 0 152.5 -54t45.5 -166v-280q0 -14 -47 -14q-49 0 -49 14v255q0 58 -12.5 96.5t-40 53.5t-66.5 15q-23 0 -43 -7t-37 -21t-31 -44.5t-14 -80.5v-267q0 -14 -48 -14t-48 14v484q0 5 4 9.5t32 4.5q21 0 25 -10l13 -38q4 -10 8 -10t12 8z
M236 693q26 0 74 -22.5t65 -22.5q16 0 32.5 7.5t30 23t15.5 15.5q8 0 20.5 -16.5t12.5 -24.5q0 -9 -12 -23.5t-40 -27.5t-57 -13q-24 0 -69.5 22.5t-68.5 22.5q-13 0 -25 -5.5t-25.5 -17t-17.5 -11.5q-11 0 -23 10q-13 12 -13 25q0 7 10.5 20.5t36.5 25.5t54 12z" />
    <glyph glyph-name="ograve" unicode="&#xf2;" horiz-adv-x="581" 
d="M290 -7q-50 0 -93.5 16t-76 48t-50.5 81.5t-18 113.5q0 48 12 95.5t41 84t75.5 58.5t109.5 22q51 0 94.5 -15.5t75.5 -48t50 -82t18 -114.5q0 -48 -12 -95t-44.5 -87.5t-81.5 -58.5t-100 -18zM290 79q140 0 140 175q0 171 -140 171q-72 0 -105.5 -43.5t-33.5 -127.5
q0 -60 16.5 -98t46.5 -57.5t76 -19.5zM203 666q-16 12 -20.5 16t-4.5 10q0 11 16 30.5t27 19.5q10 0 27 -13q45 -33 106 -85q25 -21 25 -26q0 -13 -13 -23.5t-21 -10.5q-4 0 -24 9q-80 46 -118 73z" />
    <glyph glyph-name="oacute" unicode="&#xf3;" horiz-adv-x="581" 
d="M290 -7q-50 0 -93.5 16t-76 48t-50.5 81.5t-18 113.5q0 48 12 95.5t41 84t75.5 58.5t109.5 22q51 0 94.5 -15.5t75.5 -48t50 -82t18 -114.5q0 -48 -12 -95t-44.5 -87.5t-81.5 -58.5t-100 -18zM290 79q140 0 140 175q0 171 -140 171q-72 0 -105.5 -43.5t-33.5 -127.5
q0 -60 16.5 -98t46.5 -57.5t76 -19.5zM423 666q-100 -63 -116 -72q-22 -10 -26 -10q-8 0 -21 10.5t-13 23.5q0 4 24 26q81 67 107 85q15 13 27 13q11 0 26.5 -19.5t15.5 -30.5q0 -3 -2.5 -8.5t-21.5 -17.5z" />
    <glyph glyph-name="ocircumflex" unicode="&#xf4;" horiz-adv-x="581" 
d="M290 -7q-50 0 -93.5 16t-76 48t-50.5 81.5t-18 113.5q0 48 12 95.5t41 84t75.5 58.5t109.5 22q51 0 94.5 -15.5t75.5 -48t50 -82t18 -114.5q0 -48 -12 -95t-44.5 -87.5t-81.5 -58.5t-100 -18zM290 79q140 0 140 175q0 171 -140 171q-72 0 -105.5 -43.5t-33.5 -127.5
q0 -60 16.5 -98t46.5 -57.5t76 -19.5zM290 722q12 0 26 -3.5t39 -25.5q86 -74 86 -85q0 -12 -18.5 -20.5t-28.5 -8.5q-4 0 -10 2t-26 21l-68 65l-68 -66q-22 -22 -36 -22q-13 0 -29.5 9.5t-16.5 19.5q0 1 1.5 3.5t19.5 22.5t76 71q23 17 53 17z" />
    <glyph glyph-name="otilde" unicode="&#xf5;" horiz-adv-x="581" 
d="M290 -7q-50 0 -93.5 16t-76 48t-50.5 81.5t-18 113.5q0 48 12 95.5t41 84t75.5 58.5t109.5 22q51 0 94.5 -15.5t75.5 -48t50 -82t18 -114.5q0 -48 -12 -95t-44.5 -87.5t-81.5 -58.5t-100 -18zM290 79q140 0 140 175q0 171 -140 171q-72 0 -105.5 -43.5t-33.5 -127.5
q0 -60 16.5 -98t46.5 -57.5t76 -19.5zM215 692q26 0 74 -22.5t65 -22.5q16 0 32.5 7.5t30 23t15.5 15.5q8 0 20.5 -16.5t12.5 -24.5q0 -9 -12 -23.5t-40 -27.5t-57 -13q-24 0 -69.5 22.5t-68.5 22.5q-13 0 -25 -5.5t-25.5 -17t-17.5 -11.5q-11 0 -23 10q-13 12 -13 25
q0 7 10.5 20.5t36.5 25.5t54 12z" />
    <glyph glyph-name="odieresis" unicode="&#xf6;" horiz-adv-x="581" 
d="M290 -7q-50 0 -93.5 16t-76 48t-50.5 81.5t-18 113.5q0 48 12 95.5t41 84t75.5 58.5t109.5 22q51 0 94.5 -15.5t75.5 -48t50 -82t18 -114.5q0 -48 -12 -95t-44.5 -87.5t-81.5 -58.5t-100 -18zM290 79q140 0 140 175q0 171 -140 171q-72 0 -105.5 -43.5t-33.5 -127.5
q0 -60 16.5 -98t46.5 -57.5t76 -19.5zM126 655q0 23 11.5 33t38.5 10q20 0 35.5 -7.5t15.5 -35.5q0 -18 -8.5 -30.5t-42.5 -12.5q-28 0 -39 9.5t-11 33.5zM351 655q0 23 11.5 33t40.5 10q26 0 37.5 -10t11.5 -33q0 -18 -8 -30.5t-41 -12.5q-22 0 -37 6.5t-15 36.5z" />
    <glyph glyph-name="oslash" unicode="&#xf8;" horiz-adv-x="576" 
d="M288 -7q-62 0 -110 22l-21 -38q-2 -4 -7 -9t-24 -5q-18 0 -18 9l6 16l27 49q-43 31 -67 85.5t-24 129.5q0 48 12 95.5t41 84t75.5 58.5t109.5 22q58 0 103 -19l25 45q1 3 5 7t19 4q25 0 25 -9q0 -6 -16 -38l-17 -31q44 -32 69 -87.5t25 -131.5q0 -48 -12 -95t-44.5 -87.5
t-81.5 -58.5t-100 -18zM288 79q140 0 140 175q0 94 -42 136l-165 -297q28 -14 67 -14zM149 254q0 -90 37 -134l162 294q-27 11 -60 11q-72 0 -105.5 -43.5t-33.5 -127.5z" />
    <glyph glyph-name="ugrave" unicode="&#xf9;" horiz-adv-x="593" 
d="M506 493v-484q0 -7 -6.5 -11t-29.5 -4q-22 0 -25 10l-13 37q-4 11 -8 11t-12 -8q-8 -7 -29.5 -22.5t-48 -23t-63.5 -7.5q-69 0 -109 21.5t-61.5 69.5t-21.5 130v281q0 15 47 15q49 0 49 -15v-255q0 -93 26.5 -129.5t89.5 -36.5q30 0 58.5 15t44.5 52t16 87v267
q0 15 48 15t48 -15zM201 666q-16 12 -20.5 16t-4.5 10q0 11 16 30.5t27 19.5q10 0 27 -13q45 -33 106 -85q25 -21 25 -26q0 -13 -13 -23.5t-21 -10.5q-4 0 -24 9q-80 46 -118 73z" />
    <glyph glyph-name="uacute" unicode="&#xfa;" horiz-adv-x="593" 
d="M506 493v-484q0 -7 -6.5 -11t-29.5 -4q-22 0 -25 10l-13 37q-4 11 -8 11t-12 -8q-8 -7 -29.5 -22.5t-48 -23t-63.5 -7.5q-69 0 -109 21.5t-61.5 69.5t-21.5 130v281q0 15 47 15q49 0 49 -15v-255q0 -93 26.5 -129.5t89.5 -36.5q30 0 58.5 15t44.5 52t16 87v267
q0 15 48 15t48 -15zM424 666q-100 -63 -116 -72q-22 -10 -26 -10q-8 0 -21 10.5t-13 23.5q0 4 24 26q81 67 107 85q15 13 27 13q11 0 26.5 -19.5t15.5 -30.5q0 -3 -2.5 -8.5t-21.5 -17.5z" />
    <glyph glyph-name="ucircumflex" unicode="&#xfb;" horiz-adv-x="593" 
d="M506 493v-484q0 -7 -6.5 -11t-29.5 -4q-22 0 -25 10l-13 37q-4 11 -8 11t-12 -8q-8 -7 -29.5 -22.5t-48 -23t-63.5 -7.5q-69 0 -109 21.5t-61.5 69.5t-21.5 130v281q0 15 47 15q49 0 49 -15v-255q0 -93 26.5 -129.5t89.5 -36.5q30 0 58.5 15t44.5 52t16 87v267
q0 15 48 15t48 -15zM296 722q12 0 26 -3.5t39 -25.5q86 -74 86 -85q0 -12 -18.5 -20.5t-28.5 -8.5q-4 0 -10 2t-26 21l-68 65l-68 -66q-22 -22 -36 -22q-13 0 -29.5 9.5t-16.5 19.5q0 1 1.5 3.5t19.5 22.5t76 71q23 17 53 17z" />
    <glyph glyph-name="udieresis" unicode="&#xfc;" horiz-adv-x="593" 
d="M506 493v-484q0 -7 -6.5 -11t-29.5 -4q-22 0 -25 10l-13 37q-4 11 -8 11t-12 -8q-8 -7 -29.5 -22.5t-48 -23t-63.5 -7.5q-69 0 -109 21.5t-61.5 69.5t-21.5 130v281q0 15 47 15q49 0 49 -15v-255q0 -93 26.5 -129.5t89.5 -36.5q30 0 58.5 15t44.5 52t16 87v267
q0 15 48 15t48 -15zM128 644q0 23 11.5 33t38.5 10q20 0 35.5 -7.5t15.5 -35.5q0 -18 -8.5 -30.5t-42.5 -12.5q-28 0 -39 9.5t-11 33.5zM353 644q0 23 11.5 33t40.5 10q26 0 37.5 -10t11.5 -33q0 -18 -8 -30.5t-41 -12.5q-22 0 -37 6.5t-15 36.5z" />
    <glyph glyph-name="yacute" unicode="&#xfd;" horiz-adv-x="491" 
d="M462 487v-46q0 -13 -13 -48l-217 -560q-3 -7 -14 -11.5t-45 -4.5q-47 0 -47 16q0 8 9 26q34 86 43 109.5t13 37.5l-150 391q-11 30 -11 44v43q0 21 21 21h41q24 0 29 -15l115 -358q3 -13 11 -13q6 0 11 14l113 357q4 15 28 15h43q20 0 20 -18zM377 666q-100 -63 -116 -72
q-22 -10 -26 -10q-8 0 -21 10.5t-13 23.5q0 4 24 26q81 67 107 85q15 13 27 13q11 0 26.5 -19.5t15.5 -30.5q0 -3 -2.5 -8.5t-21.5 -17.5z" />
    <glyph glyph-name="thorn" unicode="&#xfe;" horiz-adv-x="581" 
d="M428 251q0 100 -31 140t-97 40q-33 0 -65 -19t-45.5 -53.5t-13.5 -69.5v-168q13 -19 41.5 -33.5t58.5 -14.5q71 0 111.5 43.5t40.5 134.5zM327 511q104 0 153 -62.5t49 -196.5q0 -58 -15 -106.5t-44.5 -83t-73.5 -53t-99 -18.5q-29 0 -61 8.5t-53 20.5v-188
q0 -14 -47 -14q-49 0 -49 14v847q0 14 49 14q47 0 47 -14v-217q23 23 60 36t84 13z" />
    <glyph glyph-name="ydieresis" unicode="&#xff;" horiz-adv-x="491" 
d="M462 487v-46q0 -13 -13 -48l-217 -560q-3 -7 -14 -11.5t-45 -4.5q-47 0 -47 16q0 8 9 26q34 86 43 109.5t13 37.5l-150 391q-11 30 -11 44v43q0 21 21 21h41q24 0 29 -15l115 -358q3 -13 11 -13q6 0 11 14l113 357q4 15 28 15h43q20 0 20 -18zM85 643q0 23 11.5 33
t38.5 10q20 0 35.5 -7.5t15.5 -35.5q0 -18 -8.5 -30.5t-42.5 -12.5q-28 0 -39 9.5t-11 33.5zM310 643q0 23 11.5 33t40.5 10q26 0 37.5 -10t11.5 -33q0 -18 -8 -30.5t-41 -12.5q-22 0 -37 6.5t-15 36.5z" />
    <glyph glyph-name="Amacron" unicode="&#x100;" horiz-adv-x="576" 
d="M555 61v-44q0 -17 -22 -17h-41q-12 0 -19 2.5t-11 15.5l-65 207h-222l-64 -207q-4 -10 -8.5 -14t-12.5 -4h-53q-16 0 -16 15v47q0 4 1 10.5t11 37.5l196 568q3 7 12 11t46 4q31 0 44 -2.5t16 -11.5l199 -575q9 -28 9 -43zM380 299l-85 273q-2 8 -9 8q-6 0 -8 -8l-87 -273
h189zM138 843h295q6 0 9.5 -9t3.5 -19t-3.5 -20.5t-9.5 -10.5h-295q-5 0 -9 10.5t-4 20.5t4 19t9 9z" />
    <glyph glyph-name="amacron" unicode="&#x101;" horiz-adv-x="539" 
d="M245 69q23 0 49.5 15t47.5 50t21 77q-51 17 -93 17q-62 0 -93.5 -21.5t-31.5 -54.5q0 -37 25 -60t75 -23zM424 -6q-23 0 -26 10l-12 44q-3 10 -7 10q-5 0 -13 -8q-65 -59 -144 -59q-36 0 -70 9.5t-57 30t-35.5 49.5t-12.5 64q0 46 25.5 82.5t73 57.5t116.5 21
q19 0 49.5 -5t53.5 -11v32q0 54 -25.5 82.5t-90.5 28.5q-23 0 -49 -5.5t-53.5 -16.5t-29.5 -11q-10 0 -21 23.5t-11 34.5q0 13 12 21q30 14 77.5 23.5t85.5 9.5q200 0 200 -180v-322q0 -7 -6.5 -11t-29.5 -4zM122 664h295q6 0 9.5 -9t3.5 -19t-3.5 -20.5t-9.5 -10.5h-295
q-5 0 -9 10.5t-4 20.5t4 19t9 9z" />
    <glyph glyph-name="Aogonek" unicode="&#x104;" horiz-adv-x="576" 
d="M555 61v-44q0 -17 -22 -17h-27q-12 -22 -18 -43.5t-6 -35.5q0 -45 70 -45q13 0 30.5 3.5t18.5 3.5q8 0 8 -20q0 -22 -4 -31q-3 -4 -26.5 -10t-48.5 -6q-68 0 -100.5 21t-32.5 68q0 26 19 57.5t46 53.5v2l-65 207h-222l-64 -207q-4 -10 -8.5 -14t-12.5 -4h-53
q-16 0 -16 15v47q0 4 1 10.5t11 37.5l196 568q3 7 12 11t46 4q31 0 44 -2.5t16 -11.5l199 -575q9 -28 9 -43zM380 299l-85 273q-2 8 -9 8q-6 0 -8 -8l-87 -273h189z" />
    <glyph glyph-name="aogonek" unicode="&#x105;" horiz-adv-x="542" 
d="M460 331v-322q0 -4 -4 -9t-26 -6q-21 -42 -21 -73q0 -45 70 -45q13 0 30.5 3.5t18.5 3.5q8 0 8 -20q0 -22 -4 -31q-3 -4 -26.5 -10t-48.5 -6q-68 0 -100.5 21t-32.5 68q0 28 20.5 60t49.5 54l-8 29q-3 10 -7 10q-5 0 -13 -8q-65 -59 -144 -59q-36 0 -70 9.5t-57 30
t-35.5 49.5t-12.5 64q0 46 25.5 82.5t73 57.5t116.5 21q19 0 49.5 -5t53.5 -11v32q0 54 -25.5 82.5t-90.5 28.5q-23 0 -49 -5.5t-53.5 -16.5t-29.5 -11q-10 0 -21 23.5t-11 34.5q0 14 12 21q28 16 75 24.5t88 8.5q200 0 200 -180zM245 69q23 0 49.5 15t47.5 50t21 77
q-51 17 -93 17q-62 0 -93.5 -21.5t-31.5 -54.5q0 -37 25 -60t75 -23z" />
    <glyph glyph-name="Cacute" unicode="&#x106;" horiz-adv-x="612" 
d="M345 697q104 0 185 -49q26 -16 26 -26q0 -4 -6.5 -18t-20 -29t-23.5 -15q-1 0 -3 1t-22 13t-43 20.5t-46 13t-48 4.5q-97 0 -146 -62t-49 -205q0 -100 23 -158t67 -84.5t105 -26.5q37 0 73.5 11t73.5 32.5t38.5 22t2.5 0.5q11 0 24 -27t13 -38q0 -14 -27 -32.5t-89 -36
t-112 -17.5q-145 0 -219.5 89t-74.5 264q0 353 298 353zM465 846q-100 -63 -116 -72q-22 -10 -26 -10q-8 0 -21 10.5t-13 23.5q0 4 24 26q81 67 107 85q15 13 27 13q11 0 26.5 -19.5t15.5 -30.5q0 -3 -2.5 -8.5t-21.5 -17.5z" />
    <glyph glyph-name="cacute" unicode="&#x107;" horiz-adv-x="494" 
d="M303 433q-47 0 -80.5 -20t-52.5 -59t-19 -98q0 -84 40 -134.5t115 -50.5q19 0 42.5 6.5t49.5 20t28 13.5q9 0 20.5 -23.5t11.5 -38.5q0 -10 -20.5 -22.5t-59.5 -23.5t-84 -11q-50 0 -94 16.5t-77 49.5t-52 83.5t-19 114.5q0 81 28 136.5t82 87t135 31.5q32 0 72 -8
t67 -20q14 -6 14 -16q0 -3 -4 -16.5t-13 -29t-17 -15.5q-1 0 -3.5 0.5t-27.5 10t-46 13t-36 3.5zM408 667q-100 -63 -116 -72q-22 -10 -26 -10q-8 0 -21 10.5t-13 23.5q0 4 24 26q81 67 107 85q15 13 27 13q11 0 26.5 -19.5t15.5 -30.5q0 -3 -2.5 -8.5t-21.5 -17.5z" />
    <glyph glyph-name="Ccaron" unicode="&#x10c;" horiz-adv-x="612" 
d="M345 697q104 0 185 -49q26 -16 26 -26q0 -4 -6.5 -18t-20 -29t-23.5 -15q-1 0 -3 1t-22 13t-43 20.5t-46 13t-48 4.5q-97 0 -146 -62t-49 -205q0 -100 23 -158t67 -84.5t105 -26.5q37 0 73.5 11t73.5 32.5t38.5 22t2.5 0.5q11 0 24 -27t13 -38q0 -14 -27 -32.5t-89 -36
t-112 -17.5q-145 0 -219.5 89t-74.5 264q0 353 298 353zM332 758q-10 0 -27 3.5t-27 13.5q-34 30 -65.5 61t-31.5 37q0 9 18 19t28 10q13 0 36 -23l69 -66l68 67q12 12 19 17t17 5q12 0 29.5 -9t17.5 -20q0 -7 -29 -35.5t-57 -50.5q-18 -14 -28 -20t-21 -7.5t-16 -1.5z" />
    <glyph glyph-name="ccaron" unicode="&#x10d;" horiz-adv-x="494" 
d="M303 433q-47 0 -80.5 -20t-52.5 -59t-19 -98q0 -84 40 -134.5t115 -50.5q19 0 42.5 6.5t49.5 20t28 13.5q9 0 20.5 -23.5t11.5 -38.5q0 -10 -20.5 -22.5t-59.5 -23.5t-84 -11q-50 0 -94 16.5t-77 49.5t-52 83.5t-19 114.5q0 81 28 136.5t82 87t135 31.5q32 0 72 -8
t67 -20q14 -6 14 -16q0 -3 -4 -16.5t-13 -29t-17 -15.5q-1 0 -3.5 0.5t-27.5 10t-46 13t-36 3.5zM278 579q-10 0 -27 3.5t-27 13.5q-34 30 -65.5 61t-31.5 37q0 9 18 19t28 10q13 0 36 -23l69 -66l68 67q12 12 19 17t17 5q12 0 29.5 -9t17.5 -20q0 -7 -29 -35.5t-57 -50.5
q-18 -14 -28 -20t-21 -7.5t-16 -1.5z" />
    <glyph glyph-name="Dcaron" unicode="&#x10e;" horiz-adv-x="674" 
d="M322 616h-108q-17 0 -17 -7v-525q0 -7 17 -7h105q104 0 154.5 62t50.5 209q0 105 -24 162t-69.5 81.5t-108.5 24.5zM321 0h-195q-29 0 -29 25v638q0 26 29 26h197q304 0 304 -343q0 -87 -20.5 -153t-59.5 -108.5t-96 -63.5t-130 -21zM282 757q-10 0 -27 3.5t-27 13.5
q-34 30 -65.5 61t-31.5 37q0 9 18 19t28 10q13 0 36 -23l69 -66l68 67q12 12 19 17t17 5q12 0 29.5 -9t17.5 -20q0 -7 -29 -35.5t-57 -50.5q-18 -14 -28 -20t-21 -7.5t-16 -1.5z" />
    <glyph glyph-name="dcaron" unicode="&#x10f;" horiz-adv-x="733" 
d="M259 -9q-63 0 -108 29t-72 87t-27 146q0 133 52 195.5t158 62.5q33 0 71.5 -11t63.5 -37v214q0 15 49 15q48 0 48 -15v-668q0 -7 -7 -11t-29 -4t-26 10l-12 44q-3 10 -8 10q-4 0 -12 -8q-65 -59 -141 -59zM400 241v53q0 34 -13.5 66t-44 51.5t-59.5 19.5q-64 0 -98 -39.5
t-34 -134.5q0 -89 32 -138t92 -49q52 0 88.5 47.5t36.5 123.5zM577 454q0 19 14 97t22 112q4 15 8.5 22t17.5 7q20 0 41 -7q16 -5 26 -11.5t10 -18.5t-8 -36q0 -1 -2.5 -7t-32.5 -89t-35 -87q-3 -2 -9 -2q-12 0 -28.5 4.5t-20 9t-3.5 6.5z" />
    <glyph glyph-name="Dcroat" unicode="&#x110;" horiz-adv-x="676" 
d="M323 0h-195q-29 0 -29 25v286h-67q-10 0 -10 26q0 25 10 25h67v301q0 26 29 26h197q304 0 304 -343q0 -87 -20.5 -153t-59.5 -108.5t-96 -63.5t-130 -21zM324 616h-108q-17 0 -17 -7v-247h134q10 0 10 -25q0 -26 -10 -26h-134v-227q0 -7 17 -7h105q104 0 154.5 62
t50.5 209q0 105 -24 162t-69.5 81.5t-108.5 24.5z" />
    <glyph glyph-name="dcroat" unicode="&#x111;" horiz-adv-x="587" 
d="M259 -9q-63 0 -108 29t-72 87t-27 146q0 133 52 195.5t158 62.5q33 0 71.5 -11t63.5 -37v94h-87q-3 0 -6 7t-3 16t2.5 15t6.5 6h87v76q0 15 49 15q48 0 48 -15v-76h62q3 0 6 -6t3 -15q0 -8 -3 -15.5t-6 -7.5h-62v-548q0 -7 -7 -11t-29 -4t-26 10l-12 44q-3 10 -8 10
q-4 0 -12 -8q-65 -59 -141 -59zM400 241v53q0 34 -13.5 66t-44 51.5t-59.5 19.5q-64 0 -98 -39.5t-34 -134.5q0 -89 32 -138t92 -49q52 0 88.5 47.5t36.5 123.5z" />
    <glyph glyph-name="Emacron" unicode="&#x112;" horiz-adv-x="572" 
d="M433 327l-233 -14q-8 0 -8 -10v-216q0 -8 15 -8h323q4 0 8.5 -12t4.5 -29q0 -10 -3.5 -24t-9.5 -14h-409q-29 0 -29 26v636q0 27 28 27h374q5 0 9 -9.5t4 -25.5q0 -10 -3.5 -27t-9.5 -17h-288q-3 0 -8.5 -0.5t-5.5 -7.5v-186q0 -3 0.5 -7t8.5 -4l232 -14q5 -1 9 -12
t4 -20q0 -11 -4 -21t-9 -11zM149 843h295q6 0 9.5 -9t3.5 -19t-3.5 -20.5t-9.5 -10.5h-295q-5 0 -9 10.5t-4 20.5t4 19t9 9z" />
    <glyph glyph-name="emacron" unicode="&#x113;" horiz-adv-x="539" 
d="M153 302h217q10 0 15.5 4t5.5 21q0 51 -33 79t-75 28q-33 0 -62.5 -12.5t-48 -42t-19.5 -77.5zM302 67q25 0 51 7t53 21t33 14q8 0 17 -22.5t9 -37.5q0 -16 -54.5 -36.5t-114.5 -20.5q-52 0 -97 16t-78 48.5t-51 82t-18 113.5t18.5 113.5t50.5 82t74 48t89 15.5
q42 0 79 -13t65 -39.5t43.5 -66.5t15.5 -91q0 -34 -9.5 -54.5t-39.5 -20.5h-285q1 -40 17 -78t51 -59.5t81 -21.5zM138 665h295q6 0 9.5 -9t3.5 -19t-3.5 -20.5t-9.5 -10.5h-295q-5 0 -9 10.5t-4 20.5t4 19t9 9z" />
    <glyph glyph-name="Edotaccent" unicode="&#x116;" horiz-adv-x="572" 
d="M433 327l-233 -14q-8 0 -8 -10v-216q0 -8 15 -8h323q4 0 8.5 -12t4.5 -29q0 -10 -3.5 -24t-9.5 -14h-409q-29 0 -29 26v636q0 27 28 27h374q5 0 9 -9.5t4 -25.5q0 -10 -3.5 -27t-9.5 -17h-288q-3 0 -8.5 -0.5t-5.5 -7.5v-186q0 -3 0.5 -7t8.5 -4l232 -14q5 -1 9 -12
t4 -20q0 -11 -4 -21t-9 -11zM242 847q0 28 14 38.5t47 10.5q32 0 46 -10.5t14 -38.5q0 -21 -10 -34t-50 -13q-34 0 -47.5 9.5t-13.5 37.5z" />
    <glyph glyph-name="edotaccent" unicode="&#x117;" horiz-adv-x="539" 
d="M153 302h217q10 0 15.5 4t5.5 21q0 51 -33 79t-75 28q-33 0 -62.5 -12.5t-48 -42t-19.5 -77.5zM302 67q25 0 51 7t53 21t33 14q8 0 17 -22.5t9 -37.5q0 -16 -54.5 -36.5t-114.5 -20.5q-52 0 -97 16t-78 48.5t-51 82t-18 113.5t18.5 113.5t50.5 82t74 48t89 15.5
q42 0 79 -13t65 -39.5t43.5 -66.5t15.5 -91q0 -34 -9.5 -54.5t-39.5 -20.5h-285q1 -40 17 -78t51 -59.5t81 -21.5zM218 660q0 28 14 38.5t47 10.5q32 0 46 -10.5t14 -38.5q0 -21 -10 -34t-50 -13q-34 0 -47.5 9.5t-13.5 37.5z" />
    <glyph glyph-name="Eogonek" unicode="&#x118;" horiz-adv-x="572" 
d="M433 327l-233 -14q-8 0 -8 -10v-216q0 -8 15 -8h323q4 0 8.5 -12t4.5 -29q0 -10 -3.5 -24t-9.5 -14h-58q-12 -22 -18 -43.5t-6 -35.5q0 -45 70 -45q13 0 30.5 3.5t18.5 3.5q8 0 8 -20q0 -22 -4 -31q-3 -4 -26.5 -10t-48.5 -6q-68 0 -100.5 21t-32.5 68q0 23 14.5 49
t33.5 46h-290q-29 0 -29 26v636q0 27 28 27h374q5 0 9 -9.5t4 -25.5q0 -10 -3.5 -27t-9.5 -17h-288q-3 0 -8.5 -0.5t-5.5 -7.5v-186q0 -3 0.5 -7t8.5 -4l232 -14q5 -1 9 -12t4 -20q0 -11 -4 -21t-9 -11z" />
    <glyph glyph-name="eogonek" unicode="&#x119;" horiz-adv-x="546" 
d="M300 67q25 0 51 7t53 21t33 14q8 0 17 -22.5t9 -37.5q0 -5 -10 -14t-37 -20q-33 -52 -33 -94q0 -45 70 -45q13 0 30.5 3.5t18.5 3.5q8 0 8 -20q0 -22 -4 -31q-3 -4 -26.5 -10t-48.5 -6q-68 0 -100.5 21t-32.5 68q0 22 13 46.5t30 44.5q-30 -4 -47 -4q-52 0 -97 16
t-78 48.5t-51 82t-18 113.5t18.5 113.5t50.5 82t74 48t89 15.5q42 0 79 -13t65 -39.5t43.5 -66.5t15.5 -91q0 -34 -9.5 -54.5t-39.5 -20.5h-285q1 -40 17 -78t51 -59.5t81 -21.5zM151 302h217q10 0 15.5 4t5.5 21q0 51 -33 79t-75 28q-33 0 -62.5 -12.5t-48 -42t-19.5 -77.5
z" />
    <glyph glyph-name="Ecaron" unicode="&#x11a;" horiz-adv-x="572" 
d="M433 327l-233 -14q-8 0 -8 -10v-216q0 -8 15 -8h323q4 0 8.5 -12t4.5 -29q0 -10 -3.5 -24t-9.5 -14h-409q-29 0 -29 26v636q0 27 28 27h374q5 0 9 -9.5t4 -25.5q0 -10 -3.5 -27t-9.5 -17h-288q-3 0 -8.5 -0.5t-5.5 -7.5v-186q0 -3 0.5 -7t8.5 -4l232 -14q5 -1 9 -12
t4 -20q0 -11 -4 -21t-9 -11zM294 757q-10 0 -27 3.5t-27 13.5q-34 30 -65.5 61t-31.5 37q0 9 18 19t28 10q13 0 36 -23l69 -66l68 67q12 12 19 17t17 5q12 0 29.5 -9t17.5 -20q0 -7 -29 -35.5t-57 -50.5q-18 -14 -28 -20t-21 -7.5t-16 -1.5z" />
    <glyph glyph-name="ecaron" unicode="&#x11b;" horiz-adv-x="539" 
d="M153 302h217q10 0 15.5 4t5.5 21q0 51 -33 79t-75 28q-33 0 -62.5 -12.5t-48 -42t-19.5 -77.5zM302 67q25 0 51 7t53 21t33 14q8 0 17 -22.5t9 -37.5q0 -16 -54.5 -36.5t-114.5 -20.5q-52 0 -97 16t-78 48.5t-51 82t-18 113.5t18.5 113.5t50.5 82t74 48t89 15.5
q42 0 79 -13t65 -39.5t43.5 -66.5t15.5 -91q0 -34 -9.5 -54.5t-39.5 -20.5h-285q1 -40 17 -78t51 -59.5t81 -21.5zM285 579q-10 0 -27 3.5t-27 13.5q-34 30 -65.5 61t-31.5 37q0 9 18 19t28 10q13 0 36 -23l69 -66l68 67q12 12 19 17t17 5q12 0 29.5 -9t17.5 -20
q0 -7 -29 -35.5t-57 -50.5q-18 -14 -28 -20t-21 -7.5t-16 -1.5z" />
    <glyph glyph-name="Gcommaaccent" unicode="&#x122;" horiz-adv-x="644" 
d="M149 345q0 -100 23 -158t67 -84.5t105 -26.5q41 0 83 13t58 27v159h-146q-5 0 -8.5 10t-3.5 27q0 40 12 40h220q9 0 15.5 -5.5t6.5 -13.5v-252q0 -20 -41 -41q-101 -49 -196 -49q-147 0 -222 89t-75 265q0 352 302 352q100 0 181 -49q26 -16 26 -26q0 -11 -18 -36.5
t-31 -25.5q-1 0 -2.5 0.5t-30 17t-63 25.5t-66.5 9q-97 0 -146.5 -60t-49.5 -207zM256 -270q0 11 10.5 73.5t22.5 123.5q8 40 29 40q20 0 41 -7q16 -5 26 -11.5t10 -18.5q0 -6 -9 -33q0 -1 -2 -5.5t-31 -90t-36 -89.5q-4 -3 -9 -3q-11 0 -31.5 6t-20.5 15z" />
    <glyph glyph-name="gcommaaccent" unicode="&#x123;" horiz-adv-x="570" 
d="M560 474q0 -16 -4 -30.5t-9 -14.5l-93 7q-9 0 -9 -6q0 -1 8 -11q15 -18 22.5 -37t7.5 -54q0 -50 -27 -85.5t-72 -54t-107 -18.5q-8 0 -15.5 0.5t-16 1.5t-12.5 1q-16 -3 -36 -11.5t-29.5 -20.5t-9.5 -22q0 -16 16.5 -26t64.5 -10h123q87 0 130 -34.5t43 -93.5
q0 -45 -30.5 -75.5t-87 -46.5t-143.5 -16q-115 0 -177 29t-62 82q0 29 21 54t61 38q-29 7 -49 26.5t-20 47.5q0 27 20 53.5t73 54.5q-36 20 -58.5 58t-22.5 85q0 72 59.5 119.5t158.5 47.5q23 0 61.5 -4.5t60.5 -4.5l143 3q8 0 12.5 -8.5t4.5 -23.5zM438 -51q0 27 -29 41
t-77 14h-101q-14 -1 -34.5 -9t-37.5 -23.5t-17 -31.5q0 -20 19.5 -30t53 -12.5t69.5 -2.5q75 0 114.5 12t39.5 42zM162 346q0 -46 28 -74.5t86 -28.5q53 0 83 24.5t30 74.5q0 91 -109 91q-57 0 -87.5 -21.5t-30.5 -65.5zM164 665q-16 12 -20.5 16t-4.5 10q0 11 16 30.5
t27 19.5q10 0 27 -13q45 -33 106 -85q25 -21 25 -26q0 -13 -13 -23.5t-21 -10.5q-4 0 -24 9q-80 46 -118 73z" />
    <glyph glyph-name="Imacron" unicode="&#x12a;" horiz-adv-x="285" 
d="M193 676v-664q0 -15 -50 -15q-51 0 -51 15v664q0 16 51 16q50 0 50 -16zM-6 845h295q6 0 9.5 -9t3.5 -19t-3.5 -20.5t-9.5 -10.5h-295q-5 0 -9 10.5t-4 20.5t4 19t9 9z" />
    <glyph glyph-name="imacron" unicode="&#x12b;" horiz-adv-x="277" 
d="M183 494v-483q0 -15 -47 -15q-49 0 -49 15v483q0 14 48 14t48 -14zM-12 663h295q6 0 9.5 -9t3.5 -19t-3.5 -20.5t-9.5 -10.5h-295q-5 0 -9 10.5t-4 20.5t4 19t9 9z" />
    <glyph glyph-name="Iogonek" unicode="&#x12e;" horiz-adv-x="285" 
d="M193 676v-664q0 -13 -35 -15q-6 -12 -14.5 -33t-8.5 -43q0 -45 70 -45q13 0 30.5 3.5t18.5 3.5q8 0 8 -20q0 -22 -4 -31q-3 -4 -26.5 -10t-48.5 -6q-68 0 -100.5 21t-32.5 68q0 24 15 50.5t35 46.5q-8 3 -8 10v664q0 16 51 16q50 0 50 -16z" />
    <glyph glyph-name="iogonek" unicode="&#x12f;" horiz-adv-x="270" 
d="M179 494v-483q0 -12 -31 -14q-22 -43 -22 -76q0 -45 70 -45q13 0 30.5 3.5t18.5 3.5q8 0 8 -20q0 -22 -4 -31q-3 -4 -26.5 -10t-48.5 -6q-68 0 -100.5 21t-32.5 68q0 23 14.5 49.5t34.5 46.5q-7 4 -7 10v483q0 14 48 14t48 -14zM72 660q0 28 14 38.5t47 10.5
q32 0 46 -10.5t14 -38.5q0 -21 -10 -34t-50 -13q-34 0 -47.5 9.5t-13.5 37.5z" />
    <glyph glyph-name="dotlessi" unicode="&#x131;" horiz-adv-x="270" 
d="M183 494v-483q0 -15 -47 -15q-49 0 -49 15v483q0 14 48 14t48 -14z" />
    <glyph glyph-name="Kcommaaccent" unicode="&#x136;" horiz-adv-x="614" 
d="M332 356l249 -261q11 -12 11 -26v-51q0 -8 -5.5 -13.5t-15.5 -5.5h-35q-5 0 -14.5 1.5t-20.5 14.5l-231 277q-25 27 -78 29v-309q0 -15 -49 -15q-51 0 -51 15v665q0 15 51 15q49 0 49 -15v-278q57 5 81 35l194 240q8 9 13.5 12.5t17.5 3.5h38q20 0 20 -17v-35
q0 -8 -2 -19t-17 -26l-204 -212q-8 -11 -8 -13q0 -3 7 -12zM263 -270q0 11 10.5 73.5t22.5 123.5q8 40 29 40q20 0 41 -7q16 -5 26 -11.5t10 -18.5q0 -6 -9 -33q0 -1 -2 -5.5t-31 -90t-36 -89.5q-4 -3 -9 -3q-11 0 -31.5 6t-20.5 15z" />
    <glyph glyph-name="kcommaaccent" unicode="&#x137;" horiz-adv-x="528" 
d="M453 426l-162 -119q-9 -7 -9 -12q0 -7 9 -14l205 -199q10 -9 10 -23v-39q0 -21 -22 -21h-45q-12 0 -23 12l-181 221q-8 9 -22 17t-30 9v-246q0 -15 -47 -15q-49 0 -49 14v667q0 14 48 14t48 -14v-349q29 5 54 27l142 139q13 11 22 11h51q17 0 17 -17v-40q0 -10 -16 -23z
M206 -270q0 11 10.5 73.5t22.5 123.5q8 40 29 40q20 0 41 -7q16 -5 26 -11.5t10 -18.5q0 -6 -9 -33q0 -1 -2 -5.5t-31 -90t-36 -89.5q-4 -3 -9 -3q-11 0 -31.5 6t-20.5 15z" />
    <glyph glyph-name="Lacute" unicode="&#x139;" horiz-adv-x="514" 
d="M193 677v-592q0 -7 16 -7h290q5 0 8.5 -14.5t3.5 -25.5q0 -9 -3.5 -23.5t-8.5 -14.5h-377q-12 0 -20.5 4.5t-8.5 20.5v652q0 15 50 15t50 -15zM282 846q-100 -63 -116 -72q-22 -10 -26 -10q-8 0 -21 10.5t-13 23.5q0 4 24 26q81 67 107 85q15 13 27 13q11 0 26.5 -19.5
t15.5 -30.5q0 -3 -2.5 -8.5t-21.5 -17.5z" />
    <glyph glyph-name="lacute" unicode="&#x13a;" horiz-adv-x="281" 
d="M188 678v-666q0 -15 -47 -15q-49 0 -49 14v667q0 14 48 14t48 -14zM278 846q-100 -63 -116 -72q-22 -10 -26 -10q-8 0 -21 10.5t-13 23.5q0 4 24 26q81 67 107 85q15 13 27 13q11 0 26.5 -19.5t15.5 -30.5q0 -3 -2.5 -8.5t-21.5 -17.5z" />
    <glyph glyph-name="Lcommaaccent" unicode="&#x13b;" horiz-adv-x="514" 
d="M193 677v-592q0 -7 16 -7h290q5 0 8.5 -14.5t3.5 -25.5q0 -9 -3.5 -23.5t-8.5 -14.5h-377q-12 0 -20.5 4.5t-8.5 20.5v652q0 15 50 15t50 -15zM228 -270q0 11 10.5 73.5t22.5 123.5q8 40 29 40q20 0 41 -7q16 -5 26 -11.5t10 -18.5q0 -6 -9 -33q0 -1 -2 -5.5t-31 -90
t-36 -89.5q-4 -3 -9 -3q-11 0 -31.5 6t-20.5 15z" />
    <glyph glyph-name="lcommaaccent" unicode="&#x13c;" horiz-adv-x="270" 
d="M183 678v-666q0 -15 -47 -15q-49 0 -49 14v667q0 14 48 14t48 -14zM42 -270q0 11 10.5 73.5t22.5 123.5q8 40 29 40q20 0 41 -7q16 -5 26 -11.5t10 -18.5q0 -6 -9 -33q0 -1 -2 -5.5t-31 -90t-36 -89.5q-4 -3 -9 -3q-11 0 -31.5 6t-20.5 15z" />
    <glyph glyph-name="Lcaron" unicode="&#x13d;" horiz-adv-x="514" 
d="M193 677v-592q0 -7 16 -7h290q5 0 8.5 -14.5t3.5 -25.5q0 -9 -3.5 -23.5t-8.5 -14.5h-377q-12 0 -20.5 4.5t-8.5 20.5v652q0 15 50 15t50 -15zM337 458q0 19 14 97t22 112q4 15 8.5 22t17.5 7q20 0 41 -7q16 -5 26 -11.5t10 -18.5t-8 -36q0 -1 -2.5 -7t-32.5 -89t-35 -87
q-3 -2 -9 -2q-12 0 -28.5 4.5t-20 9t-3.5 6.5z" />
    <glyph glyph-name="lcaron" unicode="&#x13e;" horiz-adv-x="417" 
d="M183 678v-666q0 -15 -47 -15q-49 0 -49 14v667q0 14 48 14t48 -14zM261 454q0 19 14 97t22 112q4 15 8.5 22t17.5 7q20 0 41 -7q16 -5 26 -11.5t10 -18.5t-8 -36q0 -1 -2.5 -7t-32.5 -89t-35 -87q-3 -2 -9 -2q-12 0 -28.5 4.5t-20 9t-3.5 6.5z" />
    <glyph glyph-name="Lslash" unicode="&#x141;" horiz-adv-x="543" 
d="M216 677v-290q26 11 85 36t61 25q6 0 9 -9.5t3 -18.5q0 -7 -2 -14t-4 -7l-152 -65v-249q0 -7 16 -7h290q5 0 8.5 -14.5t3.5 -25.5q0 -9 -3.5 -23.5t-8.5 -14.5h-377q-12 0 -20.5 4.5t-8.5 20.5v267l-72 -30q-6 0 -9.5 10t-3.5 19q0 18 5 19l80 34v333q0 15 50 15t50 -15z
" />
    <glyph glyph-name="lslash" unicode="&#x142;" horiz-adv-x="328" 
d="M210 677v-277q93 43 99 43q3 0 7 -6t4 -22q0 -7 -1.5 -14t-3.5 -7l-105 -47v-336q0 -15 -47 -15q-49 0 -49 14v295l-98 -43q-5 0 -8.5 10.5t-3.5 18.5q0 18 5 19l105 47v320q0 14 48 14t48 -14z" />
    <glyph glyph-name="Nacute" unicode="&#x143;" horiz-adv-x="755" 
d="M662 678v-653q0 -13 -5 -19t-31 -6h-46q-18 0 -28.5 4.5t-18.5 16.5l-324 497q-6 10 -14 10q-6 0 -6 -8v-508q0 -15 -47 -15q-50 0 -50 15v653q0 12 5 18.5t30 6.5h53q16 0 26 -3.5t21 -19.5l318 -495q8 -11 13 -11q8 0 8 7v510q0 15 48 15t48 -15zM519 845
q-100 -63 -116 -72q-22 -10 -26 -10q-8 0 -21 10.5t-13 23.5q0 4 24 26q81 67 107 85q15 13 27 13q11 0 26.5 -19.5t15.5 -30.5q0 -3 -2.5 -8.5t-21.5 -17.5z" />
    <glyph glyph-name="nacute" unicode="&#x144;" horiz-adv-x="602" 
d="M181 459q30 26 63 39t81 13q107 0 152.5 -54t45.5 -166v-280q0 -14 -47 -14q-49 0 -49 14v255q0 58 -12.5 96.5t-40 53.5t-66.5 15q-23 0 -43 -7t-37 -21t-31 -44.5t-14 -80.5v-267q0 -14 -48 -14t-48 14v484q0 5 4 9.5t32 4.5q21 0 25 -10l13 -38q4 -10 8 -10t12 8z
M433 667q-100 -63 -116 -72q-22 -10 -26 -10q-8 0 -21 10.5t-13 23.5q0 4 24 26q81 67 107 85q15 13 27 13q11 0 26.5 -19.5t15.5 -30.5q0 -3 -2.5 -8.5t-21.5 -17.5z" />
    <glyph glyph-name="Ncommaaccent" unicode="&#x145;" horiz-adv-x="755" 
d="M662 678v-653q0 -13 -5 -19t-31 -6h-46q-18 0 -28.5 4.5t-18.5 16.5l-324 497q-6 10 -14 10q-6 0 -6 -8v-508q0 -15 -47 -15q-50 0 -50 15v653q0 12 5 18.5t30 6.5h53q16 0 26 -3.5t21 -19.5l318 -495q8 -11 13 -11q8 0 8 7v510q0 15 48 15t48 -15zM294 -270
q0 11 10.5 73.5t22.5 123.5q8 40 29 40q20 0 41 -7q16 -5 26 -11.5t10 -18.5q0 -6 -9 -33q0 -1 -2 -5.5t-31 -90t-36 -89.5q-4 -3 -9 -3q-11 0 -31.5 6t-20.5 15z" />
    <glyph glyph-name="ncommaaccent" unicode="&#x146;" horiz-adv-x="602" 
d="M181 459q30 26 63 39t81 13q107 0 152.5 -54t45.5 -166v-280q0 -14 -47 -14q-49 0 -49 14v255q0 58 -12.5 96.5t-40 53.5t-66.5 15q-23 0 -43 -7t-37 -21t-31 -44.5t-14 -80.5v-267q0 -14 -48 -14t-48 14v484q0 5 4 9.5t32 4.5q21 0 25 -10l13 -38q4 -10 8 -10t12 8z
M232 -270q0 11 10.5 73.5t22.5 123.5q8 40 29 40q20 0 41 -7q16 -5 26 -11.5t10 -18.5q0 -6 -9 -33q0 -1 -2 -5.5t-31 -90t-36 -89.5q-4 -3 -9 -3q-11 0 -31.5 6t-20.5 15z" />
    <glyph glyph-name="Ncaron" unicode="&#x147;" horiz-adv-x="755" 
d="M662 678v-653q0 -13 -5 -19t-31 -6h-46q-18 0 -28.5 4.5t-18.5 16.5l-324 497q-6 10 -14 10q-6 0 -6 -8v-508q0 -15 -47 -15q-50 0 -50 15v653q0 12 5 18.5t30 6.5h53q16 0 26 -3.5t21 -19.5l318 -495q8 -11 13 -11q8 0 8 7v510q0 15 48 15t48 -15zM391 757
q-10 0 -27 3.5t-27 13.5q-34 30 -65.5 61t-31.5 37q0 9 18 19t28 10q13 0 36 -23l69 -66l68 67q12 12 19 17t17 5q12 0 29.5 -9t17.5 -20q0 -7 -29 -35.5t-57 -50.5q-18 -14 -28 -20t-21 -7.5t-16 -1.5z" />
    <glyph glyph-name="ncaron" unicode="&#x148;" horiz-adv-x="602" 
d="M181 459q30 26 63 39t81 13q107 0 152.5 -54t45.5 -166v-280q0 -14 -47 -14q-49 0 -49 14v255q0 58 -12.5 96.5t-40 53.5t-66.5 15q-23 0 -43 -7t-37 -21t-31 -44.5t-14 -80.5v-267q0 -14 -48 -14t-48 14v484q0 5 4 9.5t32 4.5q21 0 25 -10l13 -38q4 -10 8 -10t12 8z
M314 578q-10 0 -27 3.5t-27 13.5q-34 30 -65.5 61t-31.5 37q0 9 18 19t28 10q13 0 36 -23l69 -66l68 67q12 12 19 17t17 5q12 0 29.5 -9t17.5 -20q0 -7 -29 -35.5t-57 -50.5q-18 -14 -28 -20t-21 -7.5t-16 -1.5z" />
    <glyph glyph-name="Omacron" unicode="&#x14c;" horiz-adv-x="686" 
d="M344 -9q-148 0 -223 89t-75 264t75 264t223 89q147 0 221.5 -89t74.5 -264t-74.5 -264t-221.5 -89zM343 612q-95 0 -144.5 -61.5t-49.5 -207.5q0 -98 23.5 -155.5t67.5 -83.5t104 -26q97 0 145 63t48 202q0 100 -23 158t-66.5 84.5t-104.5 26.5zM194 845h295q6 0 9.5 -9
t3.5 -19t-3.5 -20.5t-9.5 -10.5h-295q-5 0 -9 10.5t-4 20.5t4 19t9 9z" />
    <glyph glyph-name="omacron" unicode="&#x14d;" horiz-adv-x="581" 
d="M290 -7q-50 0 -93.5 16t-76 48t-50.5 81.5t-18 113.5q0 48 12 95.5t41 84t75.5 58.5t109.5 22q51 0 94.5 -15.5t75.5 -48t50 -82t18 -114.5q0 -48 -12 -95t-44.5 -87.5t-81.5 -58.5t-100 -18zM290 79q140 0 140 175q0 171 -140 171q-72 0 -105.5 -43.5t-33.5 -127.5
q0 -60 16.5 -98t46.5 -57.5t76 -19.5zM142 664h295q6 0 9.5 -9t3.5 -19t-3.5 -20.5t-9.5 -10.5h-295q-5 0 -9 10.5t-4 20.5t4 19t9 9z" />
    <glyph glyph-name="Ohungarumlaut" unicode="&#x150;" horiz-adv-x="686" 
d="M344 -9q-148 0 -223 89t-75 264t75 264t223 89q147 0 221.5 -89t74.5 -264t-74.5 -264t-221.5 -89zM343 612q-95 0 -144.5 -61.5t-49.5 -207.5q0 -98 23.5 -155.5t67.5 -83.5t104 -26q97 0 145 63t48 202q0 100 -23 158t-66.5 84.5t-104.5 26.5zM604 839
q-100 -63 -116 -72q-22 -10 -26 -10q-8 0 -21 10.5t-13 23.5q0 4 24 26q81 67 107 85q15 13 27 13q11 0 26.5 -19.5t15.5 -30.5q0 -3 -2.5 -8.5t-21.5 -17.5zM344 839q-100 -63 -116 -72q-22 -10 -26 -10q-8 0 -21 10.5t-13 23.5q0 4 24 26q81 67 107 85q15 13 27 13
q11 0 26.5 -19.5t15.5 -30.5q0 -3 -2.5 -8.5t-21.5 -17.5z" />
    <glyph glyph-name="ohungarumlaut" unicode="&#x151;" horiz-adv-x="581" 
d="M290 -7q-50 0 -93.5 16t-76 48t-50.5 81.5t-18 113.5q0 48 12 95.5t41 84t75.5 58.5t109.5 22q51 0 94.5 -15.5t75.5 -48t50 -82t18 -114.5q0 -48 -12 -95t-44.5 -87.5t-81.5 -58.5t-100 -18zM290 79q140 0 140 175q0 171 -140 171q-72 0 -105.5 -43.5t-33.5 -127.5
q0 -60 16.5 -98t46.5 -57.5t76 -19.5zM547 668q-100 -63 -116 -72q-22 -10 -26 -10q-8 0 -21 10.5t-13 23.5q0 4 24 26q81 67 107 85q15 13 27 13q11 0 26.5 -19.5t15.5 -30.5q0 -3 -2.5 -8.5t-21.5 -17.5zM304 668q-100 -63 -116 -72q-22 -10 -26 -10q-8 0 -21 10.5
t-13 23.5q0 4 24 26q81 67 107 85q15 13 27 13q11 0 26.5 -19.5t15.5 -30.5q0 -3 -2.5 -8.5t-21.5 -17.5z" />
    <glyph glyph-name="OE" unicode="&#x152;" horiz-adv-x="839" 
d="M408 613h-29q-50 0 -94 -12t-76 -42.5t-46 -78.5t-14 -135q0 -97 20.5 -152.5t72 -86t144.5 -30.5h22q16 0 16 7v522q0 8 -16 8zM796 0h-404q-85 0 -149.5 18t-108 58t-65.5 107t-22 161q0 70 15 135t53 111.5t103 72.5t169 26h374q4 0 8.5 -10t4.5 -24q0 -10 -4 -27
t-9 -17h-221q-16 0 -16 -8v-188q0 -3 0.5 -7t7.5 -4l168 -13q5 -1 8.5 -11.5t3.5 -20.5t-3.5 -20.5t-8.5 -11.5l-168 -13q-8 0 -8 -10v-220q0 -7 16 -7h256q5 0 9.5 -11.5t4.5 -28.5q0 -9 -4 -23t-10 -14z" />
    <glyph glyph-name="oe" unicode="&#x153;" horiz-adv-x="834" 
d="M263 -5q-44 0 -83 16t-67.5 48t-44.5 81t-16 113q0 83 26.5 140.5t72.5 87.5t112 30q60 0 101.5 -28t63.5 -81q57 109 169 109q38 0 72 -13.5t59 -41t39.5 -68.5t14.5 -92q0 -70 -46 -70h-248q1 -47 18 -87t43 -55.5t53 -15.5q23 0 47.5 6.5t52 20.5t32.5 14
q9 0 17.5 -22.5t8.5 -37.5q0 -7 -18 -19.5t-59 -24.5t-76 -12q-64 0 -110 27.5t-67 81.5q-48 -107 -167 -107zM263 77q114 0 114 178q0 82 -26.5 125.5t-87.5 43.5q-54 0 -84.5 -44.5t-30.5 -123.5q0 -61 14 -100t39 -59t62 -20zM488 302h182q11 0 15.5 5t4.5 17
q0 56 -28 84t-67 28q-50 0 -78 -33t-29 -101z" />
    <glyph glyph-name="Racute" unicode="&#x154;" horiz-adv-x="607" 
d="M475 12l-161 277q-19 0 -63.5 4t-58.5 5v-286q0 -16 -49 -16q-51 0 -51 16v652q0 25 29 25h159q132 0 193.5 -45t61.5 -142q0 -58 -30 -106.5t-104 -76.5l158 -224q11 -15 11 -28v-48q0 -20 -21 -20h-36q-31 0 -38 13zM286 614h-78q-16 0 -16 -8v-249l87 7q34 3 71 15
t60.5 41t23.5 76q0 63 -35.5 90.5t-112.5 27.5zM381 846q-100 -63 -116 -72q-22 -10 -26 -10q-8 0 -21 10.5t-13 23.5q0 4 24 26q81 67 107 85q15 13 27 13q11 0 26.5 -19.5t15.5 -30.5q0 -3 -2.5 -8.5t-21.5 -17.5z" />
    <glyph glyph-name="racute" unicode="&#x155;" horiz-adv-x="373" 
d="M301 511h22q11 0 11 -29q0 -22 -4 -39t-10 -17h-26q-27 0 -55 -20.5t-40 -54t-12 -68.5v-272q0 -14 -47 -14q-49 0 -49 14v484q0 5 4 9.5t32 4.5q23 0 25 -10l14 -50q3 -10 8 -10t11 8q12 17 30.5 32.5t41.5 23.5t44 8zM309 667q-100 -63 -116 -72q-22 -10 -26 -10
q-8 0 -21 10.5t-13 23.5q0 4 24 26q81 67 107 85q15 13 27 13q11 0 26.5 -19.5t15.5 -30.5q0 -3 -2.5 -8.5t-21.5 -17.5z" />
    <glyph glyph-name="Rcommaaccent" unicode="&#x156;" horiz-adv-x="607" 
d="M475 12l-161 277q-19 0 -63.5 4t-58.5 5v-286q0 -16 -49 -16q-51 0 -51 16v652q0 25 29 25h159q132 0 193.5 -45t61.5 -142q0 -58 -30 -106.5t-104 -76.5l158 -224q11 -15 11 -28v-48q0 -20 -21 -20h-36q-31 0 -38 13zM286 614h-78q-16 0 -16 -8v-249l87 7q34 3 71 15
t60.5 41t23.5 76q0 63 -35.5 90.5t-112.5 27.5zM256 -270q0 11 10.5 73.5t22.5 123.5q8 40 29 40q20 0 41 -7q16 -5 26 -11.5t10 -18.5q0 -6 -9 -33q0 -1 -2 -5.5t-31 -90t-36 -89.5q-4 -3 -9 -3q-11 0 -31.5 6t-20.5 15z" />
    <glyph glyph-name="rcommaaccent" unicode="&#x157;" horiz-adv-x="358" 
d="M297 511h22q11 0 11 -29q0 -22 -4 -39t-10 -17h-26q-27 0 -55 -20.5t-40 -54t-12 -68.5v-272q0 -14 -47 -14q-49 0 -49 14v484q0 5 4 9.5t32 4.5q23 0 25 -10l14 -50q3 -10 8 -10t11 8q12 17 30.5 32.5t41.5 23.5t44 8zM46 -270q0 11 10.5 73.5t22.5 123.5q8 40 29 40
q20 0 41 -7q16 -5 26 -11.5t10 -18.5q0 -6 -9 -33q0 -1 -2 -5.5t-31 -90t-36 -89.5q-4 -3 -9 -3q-11 0 -31.5 6t-20.5 15z" />
    <glyph glyph-name="Rcaron" unicode="&#x158;" horiz-adv-x="607" 
d="M475 12l-161 277q-19 0 -63.5 4t-58.5 5v-286q0 -16 -49 -16q-51 0 -51 16v652q0 25 29 25h159q132 0 193.5 -45t61.5 -142q0 -58 -30 -106.5t-104 -76.5l158 -224q11 -15 11 -28v-48q0 -20 -21 -20h-36q-31 0 -38 13zM286 614h-78q-16 0 -16 -8v-249l87 7q34 3 71 15
t60.5 41t23.5 76q0 63 -35.5 90.5t-112.5 27.5zM274 757q-10 0 -27 3.5t-27 13.5q-34 30 -65.5 61t-31.5 37q0 9 18 19t28 10q13 0 36 -23l69 -66l68 67q12 12 19 17t17 5q12 0 29.5 -9t17.5 -20q0 -7 -29 -35.5t-57 -50.5q-18 -14 -28 -20t-21 -7.5t-16 -1.5z" />
    <glyph glyph-name="rcaron" unicode="&#x159;" horiz-adv-x="358" 
d="M297 511h22q11 0 11 -29q0 -22 -4 -39t-10 -17h-26q-27 0 -55 -20.5t-40 -54t-12 -68.5v-272q0 -14 -47 -14q-49 0 -49 14v484q0 5 4 9.5t32 4.5q23 0 25 -10l14 -50q3 -10 8 -10t11 8q12 17 30.5 32.5t41.5 23.5t44 8zM197 579q-10 0 -27 3.5t-27 13.5q-34 30 -65.5 61
t-31.5 37q0 9 18 19t28 10q13 0 36 -23l69 -66l68 67q12 12 19 17t17 5q12 0 29.5 -9t17.5 -20q0 -7 -29 -35.5t-57 -50.5q-18 -14 -28 -20t-21 -7.5t-16 -1.5z" />
    <glyph glyph-name="Sacute" unicode="&#x15a;" horiz-adv-x="568" 
d="M281 696q45 0 95 -10t88.5 -30t38.5 -33q0 -4 -5 -18.5t-15 -31t-19 -16.5q-5 0 -35.5 14.5t-54 22.5t-47 12.5t-47.5 4.5q-36 0 -64 -12t-39.5 -32.5t-11.5 -44.5q0 -31 33.5 -59t130.5 -58q117 -35 157.5 -84t40.5 -116q0 -49 -19.5 -89.5t-54 -68.5t-82 -42.5
t-101.5 -14.5q-41 0 -86 8.5t-79 21.5t-54.5 28t-20.5 26q0 5 6 20.5t17.5 32.5t20.5 17q4 0 22.5 -11t30.5 -17q30 -15 70.5 -26.5t74.5 -11.5q65 0 107 31.5t42 84.5q0 36 -28.5 62.5t-98.5 49.5q-94 31 -140.5 58.5t-68.5 63.5t-22 89q0 82 55 130.5t163 48.5zM412 845
q-100 -63 -116 -72q-22 -10 -26 -10q-8 0 -21 10.5t-13 23.5q0 4 24 26q81 67 107 85q15 13 27 13q11 0 26.5 -19.5t15.5 -30.5q0 -3 -2.5 -8.5t-21.5 -17.5z" />
    <glyph glyph-name="sacute" unicode="&#x15b;" horiz-adv-x="453" 
d="M211 -8q-49 0 -98.5 13t-70 27t-20.5 24q0 6 4.5 20t14.5 29t20 15q1 0 3.5 -1t29 -15.5t59.5 -23t60 -8.5q22 0 48 7t44.5 26.5t18.5 45.5q0 23 -23.5 38.5t-100 39.5t-104.5 46.5t-39 44.5t-11 51q0 41 20.5 72t60.5 50t100 19q32 0 71.5 -5.5t64.5 -14.5
q35 -13 35 -27q0 -13 -9 -36.5t-18 -23.5q-2 0 -29.5 9.5t-54.5 14t-51 4.5q-45 0 -69.5 -13.5t-24.5 -40.5q0 -21 22 -33.5t79.5 -29.5t88.5 -32t50 -35.5t26.5 -44t7.5 -47.5q0 -28 -10.5 -57t-36 -53t-65.5 -39.5t-93 -15.5zM349 667q-100 -63 -116 -72q-22 -10 -26 -10
q-8 0 -21 10.5t-13 23.5q0 4 24 26q81 67 107 85q15 13 27 13q11 0 26.5 -19.5t15.5 -30.5q0 -3 -2.5 -8.5t-21.5 -17.5z" />
    <glyph glyph-name="Scaron" unicode="&#x160;" horiz-adv-x="568" 
d="M281 696q45 0 95 -10t88.5 -30t38.5 -33q0 -4 -5 -18.5t-15 -31t-19 -16.5q-5 0 -35.5 14.5t-54 22.5t-47 12.5t-47.5 4.5q-36 0 -64 -12t-39.5 -32.5t-11.5 -44.5q0 -31 33.5 -59t130.5 -58q117 -35 157.5 -84t40.5 -116q0 -49 -19.5 -89.5t-54 -68.5t-82 -42.5
t-101.5 -14.5q-41 0 -86 8.5t-79 21.5t-54.5 28t-20.5 26q0 5 6 20.5t17.5 32.5t20.5 17q4 0 22.5 -11t30.5 -17q30 -15 70.5 -26.5t74.5 -11.5q65 0 107 31.5t42 84.5q0 36 -28.5 62.5t-98.5 49.5q-94 31 -140.5 58.5t-68.5 63.5t-22 89q0 82 55 130.5t163 48.5zM286 752
q-10 0 -27 3.5t-27 13.5q-34 30 -65.5 61t-31.5 37q0 9 18 19t28 10q13 0 36 -23l69 -66l68 67q12 12 19 17t17 5q12 0 29.5 -9t17.5 -20q0 -7 -29 -35.5t-57 -50.5q-18 -14 -28 -20t-21 -7.5t-16 -1.5z" />
    <glyph glyph-name="scaron" unicode="&#x161;" horiz-adv-x="453" 
d="M211 -8q-49 0 -98.5 13t-70 27t-20.5 24q0 6 4.5 20t14.5 29t20 15q1 0 3.5 -1t29 -15.5t59.5 -23t60 -8.5q22 0 48 7t44.5 26.5t18.5 45.5q0 23 -23.5 38.5t-100 39.5t-104.5 46.5t-39 44.5t-11 51q0 41 20.5 72t60.5 50t100 19q32 0 71.5 -5.5t64.5 -14.5
q35 -13 35 -27q0 -13 -9 -36.5t-18 -23.5q-2 0 -29.5 9.5t-54.5 14t-51 4.5q-45 0 -69.5 -13.5t-24.5 -40.5q0 -21 22 -33.5t79.5 -29.5t88.5 -32t50 -35.5t26.5 -44t7.5 -47.5q0 -28 -10.5 -57t-36 -53t-65.5 -39.5t-93 -15.5zM217 579q-10 0 -27 3.5t-27 13.5
q-34 30 -65.5 61t-31.5 37q0 9 18 19t28 10q13 0 36 -23l69 -66l68 67q12 12 19 17t17 5q12 0 29.5 -9t17.5 -20q0 -7 -29 -35.5t-57 -50.5q-18 -14 -28 -20t-21 -7.5t-16 -1.5z" />
    <glyph glyph-name="Tcaron" unicode="&#x164;" horiz-adv-x="552" 
d="M26 689h501q4 0 8.5 -11t4.5 -26q0 -9 -4 -25.5t-9 -16.5h-192q-9 0 -9 -8v-590q0 -15 -49 -15q-51 0 -51 15v589q0 9 -10 9h-190q-4 0 -9 13t-5 29q0 10 4 23.5t10 13.5zM277 757q-10 0 -27 3.5t-27 13.5q-34 30 -65.5 61t-31.5 37q0 9 18 19t28 10q13 0 36 -23l69 -66
l68 67q12 12 19 17t17 5q12 0 29.5 -9t17.5 -20q0 -7 -29 -35.5t-57 -50.5q-18 -14 -28 -20t-21 -7.5t-16 -1.5z" />
    <glyph glyph-name="tcaron" unicode="&#x165;" horiz-adv-x="448" 
d="M405 648q-46 -49 -95 -95q-7 -6 -14 -6q-6 0 -16.5 9t-10.5 18q0 4 15 25t36.5 49.5t27.5 36.5q18 25 34 25q10 0 24 -13t14 -23q0 -11 -15 -26zM105 187v233l-80 16q-3 1 -7 7.5t-4 22.5q0 9 3 17.5t10 9.5l78 12v94q0 6 10.5 12.5t30.5 11t31 4.5q23 0 23 -12v-109
l193 -12q16 -2 16 -26q0 -10 -3.5 -19.5t-11.5 -10.5l-194 -19v-225q0 -67 23 -93.5t66 -26.5q22 0 42 4.5t37.5 14t20.5 9.5q9 0 22 -22t13 -36q0 -12 -21 -24t-65.5 -20.5t-74.5 -8.5q-158 0 -158 196z" />
    <glyph glyph-name="Umacron" unicode="&#x16a;" horiz-adv-x="670" 
d="M598 676v-339q0 -88 -14.5 -153.5t-45.5 -108t-81.5 -63.5t-121.5 -21t-121.5 21t-81.5 63t-45.5 107t-14.5 154v340q0 16 51 16q49 0 49 -16v-323q0 -116 18.5 -173.5t55.5 -82t90 -24.5q51 0 87.5 24.5t55.5 83.5t19 174v321q0 16 51 16q49 0 49 -16zM187 873h295
q6 0 9.5 -9t3.5 -19t-3.5 -20.5t-9.5 -10.5h-295q-5 0 -9 10.5t-4 20.5t4 19t9 9z" />
    <glyph glyph-name="umacron" unicode="&#x16b;" horiz-adv-x="593" 
d="M506 493v-484q0 -7 -6.5 -11t-29.5 -4q-22 0 -25 10l-13 37q-4 11 -8 11t-12 -8q-8 -7 -29.5 -22.5t-48 -23t-63.5 -7.5q-69 0 -109 21.5t-61.5 69.5t-21.5 130v281q0 15 47 15q49 0 49 -15v-255q0 -93 26.5 -129.5t89.5 -36.5q30 0 58.5 15t44.5 52t16 87v267
q0 15 48 15t48 -15zM144 665h295q6 0 9.5 -9t3.5 -19t-3.5 -20.5t-9.5 -10.5h-295q-5 0 -9 10.5t-4 20.5t4 19t9 9z" />
    <glyph glyph-name="Uring" unicode="&#x16e;" horiz-adv-x="670" 
d="M598 676v-339q0 -88 -14.5 -153.5t-45.5 -108t-81.5 -63.5t-121.5 -21t-121.5 21t-81.5 63t-45.5 107t-14.5 154v340q0 16 51 16q49 0 49 -16v-323q0 -116 18.5 -173.5t55.5 -82t90 -24.5q51 0 87.5 24.5t55.5 83.5t19 174v321q0 16 51 16q49 0 49 -16zM220 798
q0 48 32.5 75t81.5 27q50 0 83 -27t33 -75q0 -37 -19.5 -62.5t-46.5 -34.5t-50 -9q-35 0 -63 15.5t-39.5 40t-11.5 50.5zM268 798q0 -31 19 -48.5t48 -17.5t48 17.5t19 48.5q0 30 -19 46t-48 16t-48 -16t-19 -46z" />
    <glyph glyph-name="uring" unicode="&#x16f;" horiz-adv-x="593" 
d="M506 493v-484q0 -7 -6.5 -11t-29.5 -4q-22 0 -25 10l-13 37q-4 11 -8 11t-12 -8q-8 -7 -29.5 -22.5t-48 -23t-63.5 -7.5q-69 0 -109 21.5t-61.5 69.5t-21.5 130v281q0 15 47 15q49 0 49 -15v-255q0 -93 26.5 -129.5t89.5 -36.5q30 0 58.5 15t44.5 52t16 87v267
q0 15 48 15t48 -15zM179 643q0 48 32.5 75t81.5 27q50 0 83 -27t33 -75q0 -37 -19.5 -62.5t-46.5 -34.5t-50 -9q-35 0 -63 15.5t-39.5 40t-11.5 50.5zM227 643q0 -31 19 -48.5t48 -17.5t48 17.5t19 48.5q0 30 -19 46t-48 16t-48 -16t-19 -46z" />
    <glyph glyph-name="Uhungarumlaut" unicode="&#x170;" horiz-adv-x="670" 
d="M598 676v-339q0 -88 -14.5 -153.5t-45.5 -108t-81.5 -63.5t-121.5 -21t-121.5 21t-81.5 63t-45.5 107t-14.5 154v340q0 16 51 16q49 0 49 -16v-323q0 -116 18.5 -173.5t55.5 -82t90 -24.5q51 0 87.5 24.5t55.5 83.5t19 174v321q0 16 51 16q49 0 49 -16zM573 840
q-100 -63 -116 -72q-22 -10 -26 -10q-8 0 -21 10.5t-13 23.5q0 4 24 26q81 67 107 85q15 13 27 13q11 0 26.5 -19.5t15.5 -30.5q0 -3 -2.5 -8.5t-21.5 -17.5zM341 840q-100 -63 -116 -72q-22 -10 -26 -10q-8 0 -21 10.5t-13 23.5q0 4 24 26q81 67 107 85q15 13 27 13
q11 0 26.5 -19.5t15.5 -30.5q0 -3 -2.5 -8.5t-21.5 -17.5z" />
    <glyph glyph-name="uhungarumlaut" unicode="&#x171;" horiz-adv-x="593" 
d="M506 493v-484q0 -7 -6.5 -11t-29.5 -4q-22 0 -25 10l-13 37q-4 11 -8 11t-12 -8q-8 -7 -29.5 -22.5t-48 -23t-63.5 -7.5q-69 0 -109 21.5t-61.5 69.5t-21.5 130v281q0 15 47 15q49 0 49 -15v-255q0 -93 26.5 -129.5t89.5 -36.5q30 0 58.5 15t44.5 52t16 87v267
q0 15 48 15t48 -15zM518 668q-100 -63 -116 -72q-22 -10 -26 -10q-8 0 -21 10.5t-13 23.5q0 4 24 26q81 67 107 85q15 13 27 13q11 0 26.5 -19.5t15.5 -30.5q0 -3 -2.5 -8.5t-21.5 -17.5zM275 668q-100 -63 -116 -72q-22 -10 -26 -10q-8 0 -21 10.5t-13 23.5q0 4 24 26
q81 67 107 85q15 13 27 13q11 0 26.5 -19.5t15.5 -30.5q0 -3 -2.5 -8.5t-21.5 -17.5z" />
    <glyph glyph-name="Uogonek" unicode="&#x172;" horiz-adv-x="670" 
d="M598 676v-339q0 -127 -27 -198.5t-77.5 -106.5t-128.5 -40q-20 -41 -20 -71q0 -45 70 -45q13 0 30.5 3.5t18.5 3.5q8 0 8 -20q0 -22 -4 -31q-3 -4 -26.5 -10t-48.5 -6q-68 0 -100.5 21t-32.5 68q0 21 12 45t29 43q-123 9 -176 91t-53 252v340q0 16 51 16q49 0 49 -16
v-323q0 -116 18.5 -173.5t55.5 -82t90 -24.5q51 0 87.5 24.5t55.5 83.5t19 174v321q0 16 51 16q49 0 49 -16z" />
    <glyph glyph-name="uogonek" unicode="&#x173;" horiz-adv-x="593" 
d="M506 493v-484q0 -13 -30 -15q-10 -19 -15.5 -40t-5.5 -33q0 -45 70 -45q13 0 30.5 3.5t18.5 3.5q8 0 8 -20q0 -22 -4 -31q-3 -4 -26.5 -10t-48.5 -6q-68 0 -100.5 21t-32.5 68q0 26 21 58.5t49 55.5l-6 21q-3 12 -10 12q-2 0 -6.5 -3.5t-5.5 -4.5q-32 -26 -64.5 -39.5
t-76.5 -13.5q-69 0 -109 21.5t-61.5 69.5t-21.5 130v281q0 15 47 15q49 0 49 -15v-255q0 -93 26.5 -129.5t89.5 -36.5q30 0 58.5 15t44.5 52t16 87v267q0 15 48 15t48 -15z" />
    <glyph glyph-name="Ydieresis" unicode="&#x178;" horiz-adv-x="524" 
d="M311 309v-297q0 -15 -49 -15q-51 0 -51 15v297l-188 294q-9 15 -9 30v37q0 8 5.5 14t16.5 6h36q6 0 16 -2t19 -17l147 -259q3 -5 9 -5q4 0 8 5l146 258q2 4 8.5 12t26.5 8h36q22 0 22 -18v-38q0 -17 -11 -34zM99 807q0 23 11.5 33t38.5 10q20 0 35.5 -7.5t15.5 -35.5
q0 -18 -8.5 -30.5t-42.5 -12.5q-28 0 -39 9.5t-11 33.5zM324 807q0 23 11.5 33t40.5 10q26 0 37.5 -10t11.5 -33q0 -18 -8 -30.5t-41 -12.5q-22 0 -37 6.5t-15 36.5z" />
    <glyph glyph-name="Zacute" unicode="&#x179;" horiz-adv-x="549" 
d="M500 590l-359 -497q-3 -4 -3 -9q0 -4 7 -4h358q4 0 8.5 -12.5t4.5 -29.5q0 -10 -3.5 -24t-9.5 -14h-451q-15 0 -24 4.5t-9 29.5q0 32 1.5 45t8.5 21l356 496q3 3 3 8q0 6 -5 6h-318q-4 0 -8.5 13.5t-4.5 30.5q0 10 3.5 22.5t9.5 12.5h430q9 0 14 -6t5 -32q0 -22 -2 -35.5
t-12 -25.5zM417 846q-100 -63 -116 -72q-22 -10 -26 -10q-8 0 -21 10.5t-13 23.5q0 4 24 26q81 67 107 85q15 13 27 13q11 0 26.5 -19.5t15.5 -30.5q0 -3 -2.5 -8.5t-21.5 -17.5z" />
    <glyph glyph-name="zacute" unicode="&#x17a;" horiz-adv-x="474" 
d="M149 83h292q10 0 10 -42q0 -41 -11 -41h-393q-12 0 -19 5.5t-7 26.5q0 18 6.5 36t34.5 52l254 300h-254q-12 0 -12 42q0 18 3.5 30t8.5 12h357q12 0 17.5 -4.5t5.5 -25.5q0 -14 -4.5 -32t-38.5 -60zM354 667q-100 -63 -116 -72q-22 -10 -26 -10q-8 0 -21 10.5t-13 23.5
q0 4 24 26q81 67 107 85q15 13 27 13q11 0 26.5 -19.5t15.5 -30.5q0 -3 -2.5 -8.5t-21.5 -17.5z" />
    <glyph glyph-name="Zdotaccent" unicode="&#x17b;" horiz-adv-x="549" 
d="M500 590l-359 -497q-3 -4 -3 -9q0 -4 7 -4h358q4 0 8.5 -12.5t4.5 -29.5q0 -10 -3.5 -24t-9.5 -14h-451q-15 0 -24 4.5t-9 29.5q0 32 1.5 45t8.5 21l356 496q3 3 3 8q0 6 -5 6h-318q-4 0 -8.5 13.5t-4.5 30.5q0 10 3.5 22.5t9.5 12.5h430q9 0 14 -6t5 -32q0 -22 -2 -35.5
t-12 -25.5zM232 847q0 28 14 38.5t47 10.5q32 0 46 -10.5t14 -38.5q0 -21 -10 -34t-50 -13q-34 0 -47.5 9.5t-13.5 37.5z" />
    <glyph glyph-name="zdotaccent" unicode="&#x17c;" horiz-adv-x="474" 
d="M149 83h292q10 0 10 -42q0 -41 -11 -41h-393q-12 0 -19 5.5t-7 26.5q0 18 6.5 36t34.5 52l254 300h-254q-12 0 -12 42q0 18 3.5 30t8.5 12h357q12 0 17.5 -4.5t5.5 -25.5q0 -14 -4.5 -32t-38.5 -60zM185 660q0 28 14 38.5t47 10.5q32 0 46 -10.5t14 -38.5q0 -21 -10 -34
t-50 -13q-34 0 -47.5 9.5t-13.5 37.5z" />
    <glyph glyph-name="Zcaron" unicode="&#x17d;" horiz-adv-x="549" 
d="M500 590l-359 -497q-3 -4 -3 -9q0 -4 7 -4h358q4 0 8.5 -12.5t4.5 -29.5q0 -10 -3.5 -24t-9.5 -14h-451q-15 0 -24 4.5t-9 29.5q0 32 1.5 45t8.5 21l356 496q3 3 3 8q0 6 -5 6h-318q-4 0 -8.5 13.5t-4.5 30.5q0 10 3.5 22.5t9.5 12.5h430q9 0 14 -6t5 -32q0 -22 -2 -35.5
t-12 -25.5zM281 752q-10 0 -27 3.5t-27 13.5q-34 30 -65.5 61t-31.5 37q0 9 18 19t28 10q13 0 36 -23l69 -66l68 67q12 12 19 17t17 5q12 0 29.5 -9t17.5 -20q0 -7 -29 -35.5t-57 -50.5q-18 -14 -28 -20t-21 -7.5t-16 -1.5z" />
    <glyph glyph-name="zcaron" unicode="&#x17e;" horiz-adv-x="474" 
d="M149 83h292q10 0 10 -42q0 -41 -11 -41h-393q-12 0 -19 5.5t-7 26.5q0 18 6.5 36t34.5 52l254 300h-254q-12 0 -12 42q0 18 3.5 30t8.5 12h357q12 0 17.5 -4.5t5.5 -25.5q0 -14 -4.5 -32t-38.5 -60zM252 578q-10 0 -27 3.5t-27 13.5q-34 30 -65.5 61t-31.5 37q0 9 18 19
t28 10q13 0 36 -23l69 -66l68 67q12 12 19 17t17 5q12 0 29.5 -9t17.5 -20q0 -7 -29 -35.5t-57 -50.5q-18 -14 -28 -20t-21 -7.5t-16 -1.5z" />
    <glyph glyph-name="florin" unicode="&#x192;" 
d="M139 421l60 8l13 101q6 45 24 78t44.5 52.5t57.5 28t60 8.5q68 0 124 -22q17 -9 17 -19q-2 -22 -12 -38t-21 -16q-1 0 -3 0.5t-31.5 8.5t-67.5 8q-21 0 -42 -11t-35 -36.5t-18 -55.5l-12 -87l121 -6q14 -1 14 -17q0 -35 -20 -37l-125 -8l-62 -484q-2 -16 -49 -16
q-46 0 -46 14q0 15 61 486l-60 6q-2 0 -5.5 4t-3.5 16q0 16 5 24.5t12 9.5z" />
    <glyph glyph-name="circumflex" unicode="&#x2c6;" horiz-adv-x="384" 
d="M188 704q12 0 26 -3.5t39 -25.5q86 -74 86 -85q0 -12 -18.5 -20.5t-28.5 -8.5q-4 0 -10 2t-26 21l-68 65l-68 -66q-22 -22 -36 -22q-13 0 -29.5 9.5t-16.5 19.5q0 1 1.5 3.5t19.5 22.5t76 71q23 17 53 17z" />
    <glyph glyph-name="caron" unicode="&#x2c7;" horiz-adv-x="385" 
d="M193 567q-10 0 -27 3.5t-27 13.5q-34 30 -65.5 61t-31.5 37q0 9 18 19t28 10q13 0 36 -23l69 -66l68 67q12 12 19 17t17 5q12 0 29.5 -9t17.5 -20q0 -7 -29 -35.5t-57 -50.5q-18 -14 -28 -20t-21 -7.5t-16 -1.5z" />
    <glyph glyph-name="breve" unicode="&#x2d8;" horiz-adv-x="426" 
d="M213 535q-26 0 -55 8.5t-53.5 26.5t-41.5 43.5t-17 49.5q0 13 6.5 20t26.5 7q27 0 31 -16q7 -19 23.5 -38.5t38.5 -28.5t41 -9q18 0 39 9t37 28.5t24 39.5q2 8 8 11.5t19 3.5q39 0 39 -26q0 -31 -25.5 -62t-61 -49t-79.5 -18z" />
    <glyph glyph-name="dotaccent" unicode="&#x2d9;" horiz-adv-x="206" 
d="M40 648q0 28 14 38.5t47 10.5q32 0 46 -10.5t14 -38.5q0 -21 -10 -34t-50 -13q-34 0 -47.5 9.5t-13.5 37.5z" />
    <glyph glyph-name="ring" unicode="&#x2da;" horiz-adv-x="350" 
d="M60 595q0 48 32.5 75t81.5 27q50 0 83 -27t33 -75q0 -37 -19.5 -62.5t-46.5 -34.5t-50 -9q-35 0 -63 15.5t-39.5 40t-11.5 50.5zM108 595q0 -31 19 -48.5t48 -17.5t48 17.5t19 48.5q0 30 -19 46t-48 16t-48 -16t-19 -46z" />
    <glyph glyph-name="ogonek" unicode="&#x2db;" horiz-adv-x="294" 
d="M124 29l43 -3q-16 -23 -28.5 -52t-12.5 -53q0 -45 70 -45q13 0 30.5 3.5t18.5 3.5q8 0 8 -20q0 -22 -4 -31q-3 -4 -26.5 -10t-48.5 -6q-68 0 -100.5 21t-32.5 68q0 31 25.5 67t57.5 57z" />
    <glyph glyph-name="tilde" unicode="&#x2dc;" horiz-adv-x="429" 
d="M137 681q26 0 74 -22.5t65 -22.5q16 0 32.5 7.5t30 23t15.5 15.5q8 0 20.5 -16.5t12.5 -24.5q0 -9 -12 -23.5t-40 -27.5t-57 -13q-24 0 -69.5 22.5t-68.5 22.5q-13 0 -25 -5.5t-25.5 -17t-17.5 -11.5q-11 0 -23 10q-13 12 -13 25q0 7 10.5 20.5t36.5 25.5t54 12z" />
    <glyph glyph-name="hungarumlaut" unicode="&#x2dd;" horiz-adv-x="529" 
d="M461 641q-100 -63 -116 -72q-22 -10 -26 -10q-8 0 -21 10.5t-13 23.5q0 4 24 26q81 67 107 85q15 13 27 13q11 0 26.5 -19.5t15.5 -30.5q0 -3 -2.5 -8.5t-21.5 -17.5zM228 641q-100 -63 -116 -72q-22 -10 -26 -10q-8 0 -21 10.5t-13 23.5q0 4 24 26q81 67 107 85
q15 13 27 13q11 0 26.5 -19.5t15.5 -30.5q0 -3 -2.5 -8.5t-21.5 -17.5z" />
    <glyph glyph-name="endash" unicode="&#x2013;" horiz-adv-x="519" 
d="M20 341h479q4 0 8.5 -12t4.5 -29q0 -10 -3.5 -24t-9.5 -14h-479q-4 0 -8.5 11.5t-4.5 26.5q0 11 3.5 26t9.5 15z" />
    <glyph glyph-name="emdash" unicode="&#x2014;" horiz-adv-x="810" 
d="M21 341h768q5 0 9.5 -12t4.5 -29q0 -10 -4 -24t-10 -14h-768q-6 0 -10 14t-4 24q0 11 4 26t10 15z" />
    <glyph glyph-name="quoteleft" unicode="&#x2018;" horiz-adv-x="299" 
d="M219 458q0 -8 -19.5 -14t-32.5 -6q-6 0 -9 2q-5 4 -70 183q-8 24 -8 36q0 6 4.5 13.5t31.5 16.5q21 7 41 7q9 0 15 -4.5t11 -24.5q8 -34 22 -112t14 -97z" />
    <glyph glyph-name="quoteright" unicode="&#x2019;" horiz-adv-x="299" 
d="M80 458q0 19 14 97t22 112q4 15 8.5 22t17.5 7q20 0 41 -7q16 -5 26 -11.5t10 -18.5t-8 -36q0 -1 -2.5 -7t-32.5 -89t-35 -87q-3 -2 -9 -2q-12 0 -28.5 4.5t-20 9t-3.5 6.5z" />
    <glyph glyph-name="quotesinglbase" unicode="&#x201a;" horiz-adv-x="242" 
d="M54 -126q0 32 33 197q8 40 29 40q20 0 41 -7q16 -5 26 -11.5t10 -18.5q0 -6 -9 -33q-63 -178 -69 -185q-2 -3 -9 -3q-11 0 -31.5 6t-20.5 15z" />
    <glyph glyph-name="quotedblleft" unicode="&#x201c;" horiz-adv-x="530" 
d="M450 458q0 -8 -19.5 -14t-32.5 -6q-6 0 -9 2q-5 4 -70 183q-8 24 -8 36q0 6 4.5 13.5t31.5 16.5q21 7 41 7q9 0 15 -4.5t11 -24.5q8 -34 22 -112t14 -97zM219 458q0 -8 -19.5 -14t-32.5 -6q-6 0 -9 2q-5 4 -70 183q-8 24 -8 36q0 6 4.5 13.5t31.5 16.5q21 7 41 7
q9 0 15 -4.5t11 -24.5q8 -34 22 -112t14 -97z" />
    <glyph glyph-name="quotedblright" unicode="&#x201d;" horiz-adv-x="531" 
d="M312 458q0 19 14 97t22 112q4 15 8.5 22t17.5 7q20 0 41 -7q16 -5 26 -11.5t10 -18.5t-8 -36q0 -1 -2.5 -7t-32.5 -89t-35 -87q-3 -2 -9 -2q-12 0 -28.5 4.5t-20 9t-3.5 6.5zM80 458q0 19 14 97t22 112q4 15 8.5 22t17.5 7q20 0 41 -7q16 -5 26 -11.5t10 -18.5t-8 -36
q0 -1 -2.5 -7t-32.5 -89t-35 -87q-3 -2 -9 -2q-12 0 -28.5 4.5t-20 9t-3.5 6.5z" />
    <glyph glyph-name="quotedblbase" unicode="&#x201e;" horiz-adv-x="471" 
d="M285 -126q0 32 33 197q8 40 29 40q20 0 41 -7q16 -5 26 -11.5t10 -18.5q0 -6 -9 -33q-63 -178 -69 -185q-2 -3 -9 -3q-11 0 -31.5 6t-20.5 15zM48 -126q0 32 33 197q8 40 29 40q20 0 41 -7q16 -5 26 -11.5t10 -18.5q0 -6 -9 -33q-63 -178 -69 -185q-2 -3 -9 -3
q-11 0 -31.5 6t-20.5 15z" />
    <glyph glyph-name="dagger" unicode="&#x2020;" horiz-adv-x="541" 
d="M266 697q44 0 44 -21l-11 -154l157 9q20 0 20 -42q0 -15 -5.5 -29.5t-14.5 -14.5l-158 13l20 -96l-25 -409q-1 -6 -5 -11.5t-22 -5.5q-13 0 -20.5 2.5t-8.5 14.5l-24 409l19 96l-158 -13q-7 1 -13 11.5t-6 32.5q0 42 19 42l158 -9q-2 25 -6.5 85.5t-4.5 68.5q1 21 45 21z
" />
    <glyph glyph-name="daggerdbl" unicode="&#x2021;" horiz-adv-x="544" 
d="M298 317l20 -83l-25 -281q-1 -6 -5 -11.5t-22 -5.5q-13 0 -20 3.5t-9 13.5l-24 281l19 83l-158 -11q-7 0 -13 9t-6 30q0 39 19 39l160 -10v91l-160 -13q-10 1 -14.5 13.5t-4.5 26.5q0 39 19 39l158 -9q-2 25 -6.5 85.5t-4.5 68.5q1 21 45 21t44 -21l-11 -154l157 9
q20 0 20 -39q0 -14 -5.5 -27t-14.5 -13l-159 13v-91q13 0 82.5 5t76.5 5q20 -1 20 -40q0 -13 -5.5 -25.5t-14.5 -12.5z" />
    <glyph glyph-name="bullet" unicode="&#x2022;" horiz-adv-x="422" 
d="M81 317q0 54 33 83t99 29q29 0 59 -9.5t49 -36.5t19 -66q0 -52 -33 -81t-94 -29q-66 0 -99 28t-33 82z" />
    <glyph glyph-name="ellipsis" unicode="&#x2026;" horiz-adv-x="756" 
d="M66 40q0 28 14 38.5t48 10.5q31 0 45.5 -10.5t14.5 -38.5q0 -21 -10.5 -34.5t-49.5 -13.5q-34 0 -48 10t-14 38zM317 40q0 28 14 38.5t48 10.5q31 0 45.5 -10.5t14.5 -38.5q0 -21 -10.5 -34.5t-49.5 -13.5q-34 0 -48 10t-14 38zM569 40q0 28 14 38.5t48 10.5
q31 0 45.5 -10.5t14.5 -38.5q0 -21 -10.5 -34.5t-49.5 -13.5q-34 0 -48 10t-14 38z" />
    <glyph glyph-name="perthousand" unicode="&#x2030;" horiz-adv-x="1378" 
d="M1127 335q63 0 107 -22.5t66.5 -59.5t22.5 -88q0 -52 -22.5 -90t-66.5 -61.5t-107 -23.5q-104 0 -148 57q-22 -27 -63 -42t-90 -15q-41 0 -76.5 11.5t-62 34t-41.5 56t-15 74.5q0 30 10 61t33.5 55t61.5 39.5t90 15.5q48 0 88 -14.5t65 -40.5q47 53 148 53zM785 680
q0 -13 -15 -37l-376 -627q-4 -9 -14 -14.5t-39 -5.5q-49 0 -49 18q0 4 9 22l384 642q4 8 13.5 12.5t38.5 4.5q48 0 48 -15zM250 696q41 0 77.5 -11t63 -32.5t41.5 -53.5t15 -73q0 -31 -10 -62t-34 -56.5t-62.5 -41.5t-90.5 -16q-41 0 -76.5 11.5t-62 34t-41.5 56t-15 74.5
q0 30 10 60.5t33.5 55t61.5 39.5t90 15zM251 421q34 0 59.5 14.5t35 40.5t9.5 51q0 24 -9.5 48t-35 38.5t-59.5 14.5q-47 0 -76 -25.5t-29 -75.5q0 -25 9.5 -50.5t35 -40.5t60.5 -15zM1128 60q34 0 59 15t34.5 40.5t9.5 50.5q0 50 -27.5 75.5t-75.5 25.5q-22 0 -47 -7.5
t-39 -27t-17 -36.5t-3 -30q0 -49 27 -77.5t79 -28.5zM827 61q34 0 59.5 14.5t35 40t9.5 50.5q0 24 -9.5 48.5t-34.5 38.5t-60 14q-48 0 -76.5 -24.5t-28.5 -75.5q0 -25 9.5 -50t35 -40.5t60.5 -15.5z" />
    <glyph glyph-name="guilsinglleft" unicode="&#x2039;" horiz-adv-x="387" 
d="M154 283q20 -23 60.5 -67t57 -63.5t31.5 -38t15 -24.5q0 -8 -13 -13t-35 -5q-17 0 -29.5 1.5t-19.5 9.5l-153 176q-12 13 -12 24q0 3 4 10.5t8 12.5q11 12 54.5 61t65.5 75t33 40q9 12 49 12q16 0 32 -4.5t16 -13.5q0 -8 -23 -35t-72 -81t-69 -77z" />
    <glyph glyph-name="guilsinglright" unicode="&#x203a;" horiz-adv-x="387" 
d="M228 283q-20 23 -60.5 67t-57 63.5t-31.5 38t-15 24.5q0 7 13 12.5t35 5.5q39 0 48 -12l153 -176q4 -5 8 -12.5t4 -10.5q0 -8 -12 -24l-153 -176q-2 -3 -9 -7t-39 -4q-23 0 -35.5 5t-12.5 13t23 35t72 81t69 77z" />
    <glyph glyph-name="fraction" unicode="&#x2044;" horiz-adv-x="563" 
d="M566 708q0 -6 -13 -26l-490 -702q-8 -12 -43 -12q-13 0 -21 1t-8 8q0 3 13 26l488 701q5 9 10.5 11t27.5 2q36 0 36 -9z" />
    <glyph glyph-name="uni2070" unicode="&#x2070;" horiz-adv-x="398" 
d="M200 325q-31 0 -59.5 7.5t-49 27t-32 54t-11.5 91.5q0 92 35 136.5t117 44.5t116 -44.5t34 -136.5q0 -93 -34 -136.5t-116 -43.5zM200 376q40 0 60 25t20 105q0 79 -20.5 104t-59.5 25q-40 0 -61 -25.5t-21 -103.5q0 -80 20.5 -105t61.5 -25z" />
    <glyph glyph-name="uni2074" unicode="&#x2074;" horiz-adv-x="395" 
d="M229 475v136l-3 4l-6 -4l-98 -136h107zM296 422v-85q0 -10 -33 -10q-36 0 -36 10v85h-167q-10 0 -14 4t-4 13t15 32l142 196q6 9 16 13t34 4q47 0 47 -15v-193h58q4 0 6.5 -11t2.5 -18q0 -8 -2.5 -16.5t-6.5 -8.5h-58z" />
    <glyph glyph-name="uni2075" unicode="&#x2075;" horiz-adv-x="375" 
d="M119 682h186q4 0 6.5 -8t2.5 -15q0 -6 -2.5 -16t-6.5 -10h-160l-13 -75q22 7 55 7q42 0 72.5 -13.5t47.5 -40.5t17 -63q0 -38 -19 -66t-55.5 -44t-84.5 -16q-22 0 -49 6t-47.5 18t-20.5 20q0 3 3.5 15t10 18.5t11.5 6.5q1 0 3 -0.5t14.5 -8t24.5 -12.5t25.5 -7.5
t28.5 -2.5q37 0 61.5 20t24.5 50q0 19 -10 35t-30.5 23t-42.5 7q-32 0 -56 -6l-13 -4q-7 0 -23 10.5t-16 15.5l23 138q4 18 32 18z" />
    <glyph glyph-name="uni2076" unicode="&#x2076;" horiz-adv-x="393" 
d="M292 637l-22 -4q-39 -8 -73.5 -29t-53.5 -53q36 12 76 12q41 0 71 -19t41 -45.5t11 -48.5q0 -24 -12 -50t-35.5 -42.5t-49 -23t-49.5 -6.5q-30 0 -58.5 8t-48.5 25t-31 41.5t-11 55.5q0 78 51 141t142 85q28 7 41 7q6 0 11 -14t5 -23q0 -16 -5 -17zM273 443q0 65 -71 65
q-20 0 -42.5 -8.5t-33 -24t-10.5 -32.5q0 -28 20.5 -46.5t58.5 -18.5q37 0 57.5 18.5t20.5 46.5z" />
    <glyph glyph-name="uni2077" unicode="&#x2077;" horiz-adv-x="356" 
d="M314 666q0 -15 -8 -31q-2 -4 -10 -18t-72 -131t-80 -148q-2 -3 -7.5 -7.5t-28.5 -4.5q-16 0 -26 3.5t-10 9.5q0 5 10 22l156 270h-183q-4 0 -6.5 10.5t-2.5 17.5t2.5 15t6.5 8h233q12 0 19 -4t7 -12z" />
    <glyph glyph-name="uni2078" unicode="&#x2078;" horiz-adv-x="391" 
d="M196 323q-34 0 -68 11t-57 40t-23 65q0 22 11.5 43.5t31.5 34.5t41 18q-28 9 -43 27.5t-15 41.5q0 36 33 59t89 23q27 0 56 -7.5t47.5 -27.5t18.5 -47q0 -21 -16 -41t-44 -28q21 -4 41.5 -17t32 -35t11.5 -44q0 -23 -13 -50.5t-48 -46.5t-86 -19zM196 505
q-37 0 -58.5 -17t-21.5 -48t22 -49.5t58 -18.5t58 18t22 50q0 31 -22 48t-58 17zM139 604q0 -20 16.5 -30.5t40.5 -10.5t40.5 10.5t16.5 30.5q0 18 -16 29t-41 11q-26 0 -41.5 -11t-15.5 -29z" />
    <glyph glyph-name="uni2079" unicode="&#x2079;" horiz-adv-x="393" 
d="M98 377l22 4q39 8 73.5 29t53.5 53q-36 -12 -76 -12q-41 0 -71 19t-41 45.5t-11 48.5q0 24 12 50t35.5 42.5t49 23t49.5 6.5q30 0 58.5 -8t48.5 -25t31 -41.5t11 -55.5q0 -78 -51 -141t-142 -85q-28 -7 -41 -7q-6 0 -11 14t-5 23q0 16 5 17zM117 571q0 -65 71 -65
q20 0 42.5 8.5t33 24t10.5 32.5q0 28 -20.5 46.5t-58.5 18.5q-37 0 -57.5 -18.5t-20.5 -46.5z" />
    <glyph glyph-name="uni2080" unicode="&#x2080;" horiz-adv-x="427" 
d="M214 -6q-56 0 -91.5 20t-54 63t-18.5 120q0 103 37.5 153t126.5 50q88 0 125.5 -49.5t37.5 -153.5q0 -77 -18.5 -120t-53.5 -63t-91 -20zM214 54q23 0 45 9t33.5 38t11.5 96q0 50 -6.5 79.5t-26.5 46.5t-57 17q-51 0 -71.5 -32t-20.5 -111q0 -87 23.5 -115t68.5 -28z" />
    <glyph glyph-name="uni2081" unicode="&#x2081;" horiz-adv-x="319" 
d="M57 51h76v275l-78 -25q-2 0 -5 6.5t-3 20.5q0 19 12 26t38 18.5t44 17.5q36 11 42 11q10 0 15.5 -4t5.5 -17v-329h71q4 0 7 -9.5t3 -16.5q0 -6 -3 -15.5t-7 -9.5h-218q-3 0 -6 9.5t-3 15.5q0 8 2.5 17t6.5 9z" />
    <glyph glyph-name="uni2082" unicode="&#x2082;" horiz-adv-x="399" 
d="M199 401q35 0 70 -10.5t56 -38.5t21 -63q0 -43 -22 -77t-64 -72.5t-110 -85.5h196q4 0 7 -10.5t3 -18.5q0 -6 -3 -15.5t-7 -9.5h-275q-24 0 -24 20v13q0 10 15 22q11 8 39 29t73 58.5t73 74.5t28 70q0 28 -22.5 43t-54.5 15q-16 0 -35.5 -5t-40 -14.5t-21.5 -9.5
q-10 0 -20.5 17.5t-10.5 25.5q0 5 11 13q46 29 118 29z" />
    <glyph glyph-name="uni2083" unicode="&#x2083;" horiz-adv-x="396" 
d="M179 49q26 0 47.5 8.5t32.5 26.5t11 40q0 27 -16 43t-43.5 23.5t-61.5 7.5q-8 0 -8 27q0 26 7 26q26 0 51.5 8t36.5 22t11 28q0 21 -17.5 32t-46.5 11q-15 0 -33.5 -4.5t-39 -14t-22.5 -9.5q-11 0 -18 14t-7 21q0 12 43 27t85 15q53 0 89.5 -22.5t36.5 -67.5
q0 -16 -7.5 -33.5t-22.5 -29t-30 -17.5v-5q27 -7 47 -22t28.5 -37t8.5 -42q0 -35 -20 -66.5t-59 -48t-83 -16.5q-23 0 -53 6t-54 18.5t-24 22.5q0 9 8 26.5t19 17.5q2 0 22.5 -12t41.5 -18t40 -6z" />
    <glyph glyph-name="uni2084" unicode="&#x2084;" horiz-adv-x="423" 
d="M248 156v167q0 3 -3 4q-4 -1 -6 -5l-116 -166h125zM317 106v-98q0 -10 -35 -10q-36 0 -36 10v98h-183q-4 0 -11.5 1.5t-7.5 15.5q0 8 16 35l155 222q3 4 12 11t41 7q49 0 49 -16v-225h64q4 0 7 -9t3 -17q0 -6 -3 -15.5t-7 -9.5h-64z" />
    <glyph glyph-name="uni2085" unicode="&#x2085;" horiz-adv-x="402" 
d="M126 396h202q4 0 6.5 -8.5t2.5 -15.5t-2.5 -17.5t-6.5 -10.5h-175l-16 -91q11 3 30 5.5t30 2.5q72 0 111.5 -35t39.5 -94q0 -41 -22 -74t-63 -48.5t-85 -15.5q-48 0 -88 17.5t-40 29.5q0 9 7.5 26.5t18.5 17.5q2 0 22 -12t41 -18t41 -6q42 0 69.5 22.5t27.5 58.5
q0 32 -22 54t-71 22q-29 0 -62 -9l-14 -3q-7 0 -23.5 11.5t-16.5 15.5l25 156q2 19 33 19z" />
    <glyph glyph-name="uni2086" unicode="&#x2086;" horiz-adv-x="421" 
d="M315 350l-21 -5q-28 -5 -60.5 -20.5t-56.5 -42.5t-29 -52q11 10 37 17t48 7q63 0 99.5 -33.5t36.5 -88.5q0 -58 -42.5 -98t-114.5 -40t-115.5 39t-43.5 111q0 87 56 158.5t151 93.5q33 7 45 7q6 0 11.5 -15t5.5 -24q0 -12 -7 -14zM299 132q0 34 -22 53.5t-58 19.5
q-40 0 -67.5 -21.5t-27.5 -55.5q0 -33 22.5 -56.5t64.5 -23.5q41 0 64.5 24.5t23.5 59.5z" />
    <glyph glyph-name="uni2087" unicode="&#x2087;" horiz-adv-x="381" 
d="M335 379q0 -18 -8 -32l-176 -337q-2 -3 -7 -7.5t-29 -4.5q-37 0 -37 13q0 7 10 24l170 307h-200q-3 0 -5.5 11t-2.5 18t2.5 16t5.5 9h251q26 0 26 -17z" />
    <glyph glyph-name="uni2088" unicode="&#x2088;" horiz-adv-x="420" 
d="M210 -7q-74 0 -116.5 37t-42.5 93q0 25 12 49t34.5 38.5t45.5 20.5q-30 11 -47 32t-17 46q0 40 35 66.5t96 26.5q60 0 95.5 -26.5t35.5 -66.5q0 -23 -17 -45.5t-48 -32.5q23 -5 45.5 -19.5t35.5 -39t13 -49.5q0 -56 -42.5 -93t-117.5 -37zM210 199q-41 0 -65 -19t-24 -56
q0 -36 24.5 -57.5t64.5 -21.5q41 0 65.5 21t24.5 57q0 37 -24.5 56.5t-65.5 19.5zM147 310q0 -24 18.5 -37t45.5 -13t45 13t18 37q0 21 -18 34t-46 13t-45.5 -13t-17.5 -34z" />
    <glyph glyph-name="uni2089" unicode="&#x2089;" horiz-adv-x="421" 
d="M106 46l20 6q60 10 98.5 42t43.5 68q-8 -4 -26.5 -11.5t-57.5 -7.5q-45 0 -77 19.5t-43.5 48t-11.5 53.5q0 58 42 98t113 40q73 0 116.5 -37t43.5 -106q0 -42 -13 -83t-39.5 -76t-66 -61.5t-88.5 -38.5q-28 -7 -44 -7q-7 0 -12 15t-5 24q0 12 7 14zM122 266
q0 -37 20.5 -56t58.5 -19q23 0 46.5 9t35.5 27t12 40q0 37 -21.5 59t-64.5 22q-19 0 -40 -8.5t-34 -29t-13 -44.5z" />
    <glyph glyph-name="Euro" unicode="&#x20ac;" 
d="M47 283h67q-2 19 -2 60v6h-64q-11 0 -11 23q0 21 11 21h65q9 150 74.5 226.5t185.5 76.5q35 0 74.5 -8t65 -20.5t35 -22.5t9.5 -17q0 -4 -5.5 -16t-17 -26t-20.5 -14q-1 0 -2.5 0.5t-17.5 10.5t-35 17t-39.5 10.5t-42.5 3.5q-84 0 -124.5 -57.5t-46.5 -163.5h258
q10 0 10 -21q0 -23 -10 -23h-259v-5q0 -34 3 -61h255q11 0 11 -21q0 -8 -3 -15.5t-8 -7.5h-249q16 -84 59.5 -125t106.5 -41q28 0 61 9.5t65 28.5t33 19.5t2 0.5q12 0 21.5 -22.5t10.5 -36.5q0 -14 -28.5 -31.5t-78 -32.5t-93.5 -15q-220 0 -254 246h-72q-11 0 -11 23
q0 21 11 21z" />
    <glyph glyph-name="trademark" unicode="&#x2122;" horiz-adv-x="764" 
d="M33 689h284q2 0 4.5 -5.5t2.5 -16.5q0 -6 -2 -14.5t-5 -8.5h-106q-4 0 -5 -4v-296q0 -9 -30 -9q-31 0 -31 9v295q0 2 -1.5 3.5t-3.5 1.5h-107q-2 0 -4.5 5.5t-2.5 17.5q0 6 2 14t5 8zM420 602v-258q0 -9 -29 -9t-29 9v332q0 3 2 8t18 5h41q5 0 13.5 -1t13.5 -10l84 -149
q2 -3 7 -4q4 0 7 4l87 150q6 10 25 10h40q4 0 11.5 -1t7.5 -12v-332q0 -9 -29 -9q-30 0 -30 9v258l-3 3l-5 -5l-86 -142q-3 -7 -26 -7q-21 0 -25 7l-86 142l-5 5q-4 0 -4 -3z" />
    <glyph glyph-name="glyph9" horiz-adv-x="922" 
 />
    <glyph glyph-name="glyph100" horiz-adv-x="0" 
 />
    <glyph glyph-name="zero.oldstyle" horiz-adv-x="638" 
d="M320 -7q-58 0 -109 17t-89.5 51t-60 86t-21.5 118q0 83 32.5 141.5t95 92t152.5 33.5q58 0 109 -16t88.5 -49t59 -84t21.5 -118q0 -66 -21.5 -118t-59.5 -86t-88.5 -51t-108.5 -17zM320 75q88 0 133.5 51.5t45.5 140.5q0 85 -45 134.5t-134 49.5q-90 0 -135.5 -48.5
t-45.5 -135.5q0 -41 11 -76t33.5 -61t57 -40.5t79.5 -14.5z" />
    <glyph glyph-name="one.oldstyle" horiz-adv-x="460" 
d="M70 79h129v341q-2 -1 -8.5 -3.5t-64 -24.5t-60.5 -22q-4 0 -7.5 12t-3.5 28q0 9 4 20.5t13 17.5q37 25 104.5 57t90.5 32q14 0 21.5 -6.5t7.5 -31.5v-420h109q4 0 8.5 -11t4.5 -27q0 -15 -4.5 -28t-8.5 -13h-335q-4 0 -8.5 12.5t-4.5 28.5q0 11 3.5 24.5t9.5 13.5z" />
    <glyph glyph-name="two.oldstyle" horiz-adv-x="581" 
d="M417 362q0 42 -39 67t-97 25q-27 0 -59.5 -7t-65 -21.5t-33.5 -14.5q-8 0 -17 8.5t-16 24.5t-7 23q0 8 10 16q29 21 79.5 35.5t106.5 14.5q43 0 85.5 -8.5t76 -29t54.5 -53.5t21 -78t-21 -82.5t-82.5 -84t-200.5 -118.5h319q4 0 8.5 -12t4.5 -29q0 -10 -3.5 -24t-9.5 -14
h-459q-35 0 -35 29v26q0 21 30 37q160 83 209.5 114t78.5 56t45.5 50.5t16.5 49.5z" />
    <glyph glyph-name="three.oldstyle" horiz-adv-x="552" 
d="M253 -94q55 0 91 22t53 56.5t17 67.5q0 68 -54 102t-150 34q-5 0 -9 11t-4 29q0 19 3.5 30t8.5 11q45 0 87.5 16.5t60 42t17.5 51.5q0 77 -111 77q-25 0 -55 -8t-61 -24t-34 -16q-15 0 -29.5 22.5t-14.5 32.5q0 9 24 24.5t79 30.5t101 15q63 0 107 -18.5t68 -52t24 -82.5
q0 -29 -14 -58t-39.5 -48.5t-51.5 -30.5v-9q54 -14 87 -44.5t46.5 -67.5t13.5 -71q0 -47 -19 -88.5t-53.5 -71.5t-83 -47t-104.5 -17q-32 0 -80 10.5t-89 32t-41 37.5q0 8 8 25.5t18 26.5t18 9q3 0 24 -14t39 -23t39 -15.5t37.5 -8t25.5 -1.5z" />
    <glyph glyph-name="four.oldstyle" horiz-adv-x="603" 
d="M372 84v323q0 5 -7 5q-4 0 -9 -7l-214 -321h230zM468 6v-175q0 -15 -49 -15t-49 15v175h-310q-12 0 -20 4.5t-8 22.5q0 9 8.5 25.5t40.5 66.5l254 387q6 10 20 15t45 5q68 0 68 -24v-423h113q4 0 8.5 -13t4.5 -30q0 -9 -3.5 -22.5t-9.5 -13.5h-113z" />
    <glyph glyph-name="five.oldstyle" horiz-adv-x="565" 
d="M158 523h327q5 0 9 -9.5t4 -25.5q0 -10 -3.5 -27.5t-9.5 -17.5h-289l-28 -172q48 15 107 15q57 0 102.5 -16.5t76.5 -46t46.5 -71t15.5 -90.5q0 -56 -20.5 -101t-57.5 -74.5t-86 -44.5t-105 -15q-38 0 -86 10.5t-84 32t-36 35.5q0 9 6.5 26.5t14.5 26.5t15 9q1 0 4.5 -1
t25.5 -15.5t44 -24.5t47 -15.5t52 -5.5q75 0 121 42.5t46 110.5q0 26 -7.5 52t-26.5 46.5t-51 32.5t-77 12q-54 0 -104 -15q-3 -1 -11.5 -4t-11.5 -3q-11 0 -34.5 17t-23.5 24l41 274q2 13 12 21t35 8z" />
    <glyph glyph-name="six.oldstyle" horiz-adv-x="577" 
d="M456 621l-39 -7q-64 -14 -111.5 -44t-78.5 -72t-45 -92q53 31 122 31q56 0 101 -15.5t75.5 -43.5t46 -66.5t15.5 -83.5q0 -48 -16.5 -91t-48.5 -76t-79.5 -51.5t-105.5 -18.5q-56 0 -102.5 16.5t-80 49t-51.5 81t-18 109.5q0 72 22 143t64 131t105 103.5t140 62.5
q14 3 38 7t33 4t16.5 -21t7.5 -34q0 -19 -10 -22zM444 227q0 25 -12.5 54t-45.5 51.5t-80 22.5t-85 -14.5t-60 -44.5t-22 -74q0 -26 9 -54t28 -50.5t48 -35.5t67 -13q46 0 79.5 19t53.5 54.5t20 84.5z" />
    <glyph glyph-name="seven.oldstyle" horiz-adv-x="534" 
d="M497 498q0 -27 -12 -51q-2 -4 -7.5 -16.5t-33 -69t-134.5 -275.5t-116 -237q-5 -10 -13 -15t-38 -5q-52 0 -52 20q0 7 17 39l280 550h-334q-4 0 -8.5 13.5t-4.5 30.5q0 11 3.5 25.5t9.5 14.5h406q37 0 37 -24z" />
    <glyph glyph-name="eight.oldstyle" horiz-adv-x="590" 
d="M295 -9q-59 0 -107.5 16.5t-81 46.5t-49.5 71t-17 87q0 45 15.5 84t48 67t82.5 40q-48 18 -73 54t-25 84q0 32 13 61t39 50t65.5 33t88.5 12q62 0 111.5 -20t73 -57.5t23.5 -78.5q0 -44 -25.5 -82.5t-75.5 -55.5q50 -11 83 -38.5t49.5 -67.5t16.5 -85q0 -46 -17 -87
t-49.5 -71t-80.5 -46.5t-108 -16.5zM295 353q-73 0 -115 -35.5t-42 -103.5t43 -106t114 -38q72 0 114 37t42 106t-41.5 104.5t-114.5 35.5zM183 542q0 -45 32.5 -68.5t80.5 -23.5t80 23.5t32 68.5q0 30 -18 50.5t-45 27.5t-51 7t-50.5 -7.5t-43.5 -28t-17 -49.5z" />
    <glyph glyph-name="nine.oldstyle" horiz-adv-x="577" 
d="M121 -98l39 7q64 14 111.5 44t78.5 72t45 92q-53 -31 -122 -31q-56 0 -101 15.5t-75.5 43.5t-46 66.5t-15.5 83.5q0 48 16.5 91t48.5 76t79.5 51.5t105.5 18.5q56 0 102.5 -16.5t80 -49t51.5 -81t18 -109.5q0 -72 -22 -143t-64 -131t-105 -103.5t-140 -62.5
q-14 -3 -38 -7t-33 -4t-16.5 21t-7.5 34q0 19 10 22zM133 296q0 -25 12.5 -54t45.5 -51.5t80 -22.5t85 14.5t60 44.5t22 74q0 26 -9 54t-28 50.5t-48 35.5t-67 13q-46 0 -79.5 -19t-53.5 -54.5t-20 -84.5z" />
    <glyph glyph-name="i.ss01" horiz-adv-x="298" 
d="M89 660q0 28 14 38.5t47 10.5q32 0 46 -10.5t14 -38.5q0 -21 -10 -34t-50 -13q-34 0 -47.5 9.5t-13.5 37.5zM111 428h-61q-4 0 -8 11.5t-4 28.5q0 10 3 23t9 13h133q10 0 17 -5t7 -13v-475q0 -14 -47 -14q-49 0 -49 14v417z" />
    <glyph glyph-name="j.ss01" horiz-adv-x="314" 
d="M65 504h133q10 0 17.5 -5t7.5 -13v-505q0 -85 -46.5 -127t-167.5 -42q-7 0 -12 17t-5 46q0 20 16 22q39 2 65.5 10.5t39.5 29.5t13 75v416h-61q-4 0 -8 11.5t-4 28.5q0 10 3 23t9 13zM103 661q0 28 14 38.5t47 10.5q32 0 46 -10.5t14 -38.5q0 -21 -10 -34t-50 -13
q-34 0 -47.5 9.5t-13.5 37.5z" />
    <glyph glyph-name="l.ss01" horiz-adv-x="330" 
d="M87 115v563q0 15 48 15q49 0 49 -15v-538q0 -63 54 -63q14 0 30 2t31 5.5t16 3.5q5 0 9 -12t4 -36q0 -14 -2 -19q-5 -10 -35.5 -19t-80.5 -9q-65 0 -94 28.5t-29 93.5z" />
    <glyph glyph-name="glyph294" horiz-adv-x="298" 
d="M111 428h-61q-4 0 -8 11.5t-4 28.5q0 10 3 23t9 13h133q10 0 17 -5t7 -13v-475q0 -14 -47 -14q-49 0 -49 14v417z" />
    <glyph glyph-name="iacute.ss01" horiz-adv-x="298" 
d="M266 666q-100 -63 -116 -72q-22 -10 -26 -10q-8 0 -21 10.5t-13 23.5q0 4 24 26q81 67 107 85q15 13 27 13q11 0 26.5 -19.5t15.5 -30.5q0 -3 -2.5 -8.5t-21.5 -17.5zM111 428h-61q-4 0 -8 11.5t-4 28.5q0 10 3 23t9 13h133q10 0 17 -5t7 -13v-475q0 -14 -47 -14
q-49 0 -49 14v417z" />
    <glyph glyph-name="igrave.ss01" horiz-adv-x="298" 
d="M30 667q-16 12 -20.5 16t-4.5 10q0 11 16 30.5t27 19.5q10 0 27 -13q45 -33 106 -85q25 -21 25 -26q0 -13 -13 -23.5t-21 -10.5q-4 0 -24 9q-80 46 -118 73zM111 428h-61q-4 0 -8 11.5t-4 28.5q0 10 3 23t9 13h133q10 0 17 -5t7 -13v-475q0 -14 -47 -14q-49 0 -49 14v417
z" />
    <glyph glyph-name="icircumflex.ss01" horiz-adv-x="298" 
d="M137 721q12 0 26 -3.5t39 -25.5q86 -74 86 -85q0 -12 -18.5 -20.5t-28.5 -8.5q-4 0 -10 2t-26 21l-68 65l-68 -66q-22 -22 -36 -22q-13 0 -29.5 9.5t-16.5 19.5q0 1 1.5 3.5t19.5 22.5t76 71q23 17 53 17zM111 428h-61q-4 0 -8 11.5t-4 28.5q0 10 3 23t9 13h133
q10 0 17 -5t7 -13v-475q0 -14 -47 -14q-49 0 -49 14v417z" />
    <glyph glyph-name="idieresis.ss01" horiz-adv-x="298" 
d="M-27 644q0 23 11.5 33t38.5 10q20 0 35.5 -7.5t15.5 -35.5q0 -18 -8.5 -30.5t-42.5 -12.5q-28 0 -39 9.5t-11 33.5zM198 644q0 23 11.5 33t40.5 10q26 0 37.5 -10t11.5 -33q0 -18 -8 -30.5t-41 -12.5q-22 0 -37 6.5t-15 36.5zM111 428h-61q-4 0 -8 11.5t-4 28.5
q0 10 3 23t9 13h133q10 0 17 -5t7 -13v-475q0 -14 -47 -14q-49 0 -49 14v417z" />
    <glyph glyph-name="iogonek.ss01" horiz-adv-x="298" 
d="M111 428h-61q-4 0 -8 11.5t-4 28.5q0 10 3 23t9 13h133q10 0 17 -5t7 -13v-475q0 -14 -47 -14h-1q-6 -12 -14.5 -33t-8.5 -43q0 -45 70 -45q13 0 30.5 3.5t18.5 3.5q8 0 8 -20q0 -22 -4 -31q-3 -4 -26.5 -10t-48.5 -6q-68 0 -100.5 21t-32.5 68q0 25 17.5 55t42.5 51v417
zM86 660q0 28 14 38.5t47 10.5q32 0 46 -10.5t14 -38.5q0 -21 -10 -34t-50 -13q-34 0 -47.5 9.5t-13.5 37.5z" />
    <glyph glyph-name="imacron.ss01" horiz-adv-x="298" 
d="M111 428h-61q-4 0 -8 11.5t-4 28.5q0 10 3 23t9 13h133q10 0 17 -5t7 -13v-475q0 -14 -47 -14q-49 0 -49 14v417zM-15 664h295q6 0 9.5 -9t3.5 -19t-3.5 -20.5t-9.5 -10.5h-295q-5 0 -9 10.5t-4 20.5t4 19t9 9z" />
    <glyph glyph-name="lcommaaccent.ss01" horiz-adv-x="334" 
d="M87 115v563q0 15 48 15q49 0 49 -15v-538q0 -63 54 -63q14 0 30 2t31 5.5t16 3.5q5 0 9 -12t4 -36q0 -14 -2 -19q-5 -10 -35.5 -19t-80.5 -9q-65 0 -94 28.5t-29 93.5zM105 -268q0 11 10.5 73.5t22.5 123.5q8 40 29 40q20 0 41 -7q16 -5 26 -11.5t10 -18.5q0 -6 -9 -33
q0 -1 -2 -5.5t-31 -90t-36 -89.5q-4 -3 -9 -3q-11 0 -31.5 6t-20.5 15z" />
    <glyph glyph-name="lcaron.ss01" horiz-adv-x="391" 
d="M87 115v563q0 15 48 15q49 0 49 -15v-538q0 -63 54 -63q14 0 30 2t31 5.5t16 3.5q5 0 9 -12t4 -36q0 -14 -2 -19q-5 -10 -35.5 -19t-80.5 -9q-65 0 -94 28.5t-29 93.5zM259 458q0 19 14 97t22 112q4 15 8.5 22t17.5 7q20 0 41 -7q16 -5 26 -11.5t10 -18.5t-8 -36
q0 -1 -2.5 -7t-32.5 -89t-35 -87q-3 -2 -9 -2q-12 0 -28.5 4.5t-20 9t-3.5 6.5z" />
    <glyph glyph-name="lacute.ss01" horiz-adv-x="334" 
d="M87 115v563q0 15 48 15q49 0 49 -15v-538q0 -63 54 -63q14 0 30 2t31 5.5t16 3.5q5 0 9 -12t4 -36q0 -14 -2 -19q-5 -10 -35.5 -19t-80.5 -9q-65 0 -94 28.5t-29 93.5zM282 846q-100 -63 -116 -72q-22 -10 -26 -10q-8 0 -21 10.5t-13 23.5q0 4 24 26q81 67 107 85
q15 13 27 13q11 0 26.5 -19.5t15.5 -30.5q0 -3 -2.5 -8.5t-21.5 -17.5z" />
    <glyph glyph-name="f_l.ss01.ss01" horiz-adv-x="734" 
d="M584 678v-537q0 -64 55 -64q9 0 24.5 1.5t33 5.5t18.5 4q4 0 8.5 -13t4.5 -35l-2 -19q-5 -10 -36.5 -19t-79.5 -9q-65 0 -94 28.5t-29 93.5v489q-26 6 -68 9.5t-74 3.5q-69 0 -99 -25.5t-30 -78.5l122 -10q16 -1 16 -27q0 -10 -3 -20t-11 -11l-126 -15v-418
q0 -15 -47 -15q-49 0 -49 15v418l-61 14q-3 1 -7 7.5t-4 21.5q0 26 13 28l59 11q0 184 226 184q76 0 151.5 -5t88.5 -13z" />
    <glyph glyph-name="perthousand.pnum" 
d="M446 683q0 -9 -15 -39l-307 -628q-3 -7 -10 -13t-30 -6q-22 0 -30.5 3.5t-8.5 13.5l5 14l318 650q2 4 9 11t36 7q15 0 24 -3.5t9 -9.5zM469 189q46 0 72.5 -25.5t26.5 -71.5q0 -47 -26.5 -73t-72.5 -26q-25 0 -44.5 10.5t-31.5 25.5q-23 -36 -75 -36q-45 0 -71 26t-26 73
q0 46 26 71.5t71 25.5q50 0 75 -35q25 35 76 35zM169 695q47 0 73.5 -25t26.5 -71t-27 -72.5t-73 -26.5q-45 0 -72 26.5t-27 72.5t26.5 71t72.5 25zM170 540q50 0 50 60q0 30 -12 43.5t-38 13.5q-27 0 -38.5 -13t-11.5 -44t11.5 -45.5t38.5 -14.5zM319 33q26 0 38 14.5
t12 44.5q0 31 -12 44.5t-38 13.5t-38.5 -13.5t-12.5 -44.5q0 -30 12.5 -44.5t38.5 -14.5zM469 33q26 0 38 14.5t12 44.5q0 31 -11.5 44.5t-38.5 13.5q-26 0 -38 -13.5t-12 -44.5t12 -45t38 -14z" />
    <glyph glyph-name="percent.pnum" 
d="M164 695q58 0 90.5 -31t32.5 -88q0 -59 -33 -91t-90 -32t-90 32t-33 91q0 57 32.5 88t90.5 31zM164 501q32 0 47.5 18.5t15.5 56.5q0 74 -63 74q-32 0 -47 -18t-15 -56t15 -56.5t47 -18.5zM524 680q0 -6 -16 -36l-332 -631q-2 -4 -8 -10t-35 -6q-23 0 -33 3.5t-10 13.5
q0 6 8 20l340 645q3 5 9.5 11.5t34.5 6.5q42 0 42 -17zM440 235q58 0 90.5 -31t32.5 -89t-33 -90.5t-90 -32.5q-27 0 -56 10.5t-48 40t-19 72.5q0 57 33 88.5t90 31.5zM441 40q63 0 63 76q0 37 -15.5 54.5t-47.5 17.5q-33 0 -48 -17t-15 -55t15 -57t48 -19z" />
    <glyph glyph-name="zero.pnum" 
d="M302 -9q-72 0 -122.5 22.5t-80.5 66.5t-43.5 110t-13.5 154t13.5 153.5t43.5 110t80.5 67t122.5 22.5q90 0 146 -35t84.5 -109.5t28.5 -208.5q0 -88 -13.5 -154t-43 -110t-80 -66.5t-122.5 -22.5zM302 71q54 0 90.5 25t53 80t16.5 168t-17 168.5t-53.5 80.5t-89.5 25
t-89.5 -25t-53 -80.5t-16.5 -168.5q0 -78 7 -125t26 -82t52.5 -50.5t73.5 -15.5z" />
    <glyph glyph-name="one.pnum" 
d="M143 79h158v503q-2 -1 -8.5 -3t-77 -27.5t-76.5 -25.5q-4 0 -8 12.5t-4 28.5q0 8 4 20t13 18q20 14 76.5 39.5t92.5 38.5q39 13 58 13q13 0 20.5 -5.5t7.5 -25.5v-586h142q5 0 9 -11t4 -28q0 -10 -3.5 -25t-9.5 -15h-398q-4 0 -8.5 12t-4.5 28q0 11 3.5 25t9.5 14z" />
    <glyph glyph-name="two.pnum" 
d="M300 696q41 0 82.5 -9t75 -30.5t55 -56.5t21.5 -83q0 -54 -18.5 -99t-54 -92t-99 -108.5t-166.5 -139.5h340q5 0 9.5 -12.5t4.5 -29.5q0 -9 -4 -22.5t-10 -13.5h-448q-14 0 -24 5t-10 24v20q0 15 21 32q198 158 280.5 255.5t82.5 178.5q0 49 -41.5 77.5t-98.5 28.5
q-28 0 -60.5 -8t-64 -24t-33 -16.5t-3.5 -0.5q-14 0 -28 22t-14 32t16 21q74 49 189 49z" />
    <glyph glyph-name="three.pnum" 
d="M275 70q55 0 91 22t53 56.5t17 67.5q0 68 -54 102t-150 34q-5 0 -9 11t-4 29q0 19 3.5 30t8.5 11q45 0 87.5 16.5t60 42t17.5 51.5q0 77 -111 77q-25 0 -55 -8t-61 -24t-34 -16q-15 0 -29.5 22.5t-14.5 32.5q0 9 24 24.5t79 30.5t101 15q63 0 107 -18.5t68 -52t24 -82.5
q0 -29 -14 -58t-39.5 -48.5t-51.5 -30.5v-9q54 -14 87 -44.5t46.5 -67.5t13.5 -71q0 -47 -19 -88.5t-53.5 -71.5t-83 -47t-104.5 -17q-32 0 -80 10.5t-89 32t-41 37.5q0 8 8 25.5t18 26.5t18 9q3 0 24 -14t39 -23t39 -15.5t37.5 -8t25.5 -1.5z" />
    <glyph glyph-name="four.pnum" 
d="M370 269v296q0 7 -5 7q-4 0 -9 -7l-202 -296h216zM465 189v-177q0 -16 -47 -16q-50 0 -50 16v177h-307q-12 0 -19.5 4.5t-7.5 22.5q0 15 26 56l262 389q11 18 27.5 25t48.5 7q67 0 67 -23v-401h108q5 0 9.5 -12.5t4.5 -29.5q0 -9 -4 -23.5t-10 -14.5h-108z" />
    <glyph glyph-name="five.pnum" 
d="M177 689h327q5 0 9 -9.5t4 -25.5q0 -10 -3.5 -27.5t-9.5 -17.5h-289l-28 -172q48 15 107 15q57 0 102.5 -16.5t76.5 -46t46.5 -71t15.5 -90.5q0 -56 -20.5 -101t-57.5 -74.5t-86 -44.5t-105 -15q-38 0 -86 10.5t-84 32t-36 35.5q0 9 6.5 26.5t14.5 26.5t15 9q1 0 4.5 -1
t25.5 -15.5t44 -24.5t47 -15.5t52 -5.5q75 0 121 42.5t46 110.5q0 26 -7.5 52t-26.5 46.5t-51 32.5t-77 12q-54 0 -104 -15q-3 -1 -11.5 -4t-11.5 -3q-11 0 -34.5 17t-23.5 24l41 274q2 13 12 21t35 8z" />
    <glyph glyph-name="six.pnum" 
d="M470 621l-39 -7q-64 -14 -111.5 -44t-78.5 -72t-45 -92q53 31 122 31q56 0 101 -15.5t75.5 -43.5t46 -66.5t15.5 -83.5q0 -48 -16.5 -91t-48.5 -76t-79.5 -51.5t-105.5 -18.5q-56 0 -102.5 16.5t-80 49t-51.5 81t-18 109.5q0 72 22 143t64 131t105 103.5t140 62.5
q14 3 38 7t33 4t16.5 -21t7.5 -34q0 -19 -10 -22zM458 227q0 25 -12.5 54t-45.5 51.5t-80 22.5t-85 -14.5t-60 -44.5t-22 -74q0 -26 9 -54t28 -50.5t48 -35.5t67 -13q46 0 79.5 19t53.5 54.5t20 84.5z" />
    <glyph glyph-name="nine.pnum" 
d="M128 66l39 7q64 14 111.5 44t78.5 72t45 92q-53 -31 -122 -31q-56 0 -101 15.5t-75.5 43.5t-46 66.5t-15.5 83.5q0 48 16.5 91t48.5 76t79.5 51.5t105.5 18.5q56 0 102.5 -16.5t80 -49t51.5 -81t18 -109.5q0 -72 -22 -143t-64 -131t-105 -103.5t-140 -62.5q-14 -3 -38 -7
t-33 -4t-16.5 21t-7.5 34q0 19 10 22zM140 460q0 -25 12.5 -54t45.5 -51.5t80 -22.5t85 14.5t60 44.5t22 74q0 26 -9 54t-28 50.5t-48 35.5t-67 13q-46 0 -79.5 -19t-53.5 -54.5t-20 -84.5z" />
    <glyph glyph-name="seven.pnum" 
d="M532 664q0 -27 -12 -51q-2 -4 -7.5 -16.5t-33 -69t-134.5 -275.5t-116 -237q-5 -10 -13 -15t-38 -5q-52 0 -52 20q0 7 17 39l280 550h-334q-4 0 -8.5 13.5t-4.5 30.5q0 11 3.5 25.5t9.5 14.5h406q37 0 37 -24z" />
    <glyph glyph-name="eight.pnum" 
d="M304 -9q-59 0 -107.5 16.5t-81 46.5t-49.5 71t-17 87q0 45 15.5 84t48 67t82.5 40q-48 18 -73 54t-25 84q0 32 13 61t39 50t65.5 33t88.5 12q62 0 111.5 -20t73 -57.5t23.5 -78.5q0 -44 -25.5 -82.5t-75.5 -55.5q50 -11 83 -38.5t49.5 -67.5t16.5 -85q0 -46 -17 -87
t-49.5 -71t-80.5 -46.5t-108 -16.5zM304 353q-73 0 -115 -35.5t-42 -103.5t43 -106t114 -38q72 0 114 37t42 106t-41.5 104.5t-114.5 35.5zM192 542q0 -45 32.5 -68.5t80.5 -23.5t80 23.5t32 68.5q0 30 -18 50.5t-45 27.5t-51 7t-50.5 -7.5t-43.5 -28t-17 -49.5z" />
    <glyph glyph-name="b.sc" horiz-adv-x="592" 
d="M263 0h-134q-27 0 -27 24v537q0 24 28 24h149q113 0 165.5 -32t52.5 -100q0 -26 -10.5 -50t-33 -43t-60.5 -30q73 -12 109 -52t36 -100q0 -38 -14.5 -70.5t-47 -56.5t-86 -37.5t-127.5 -13.5zM278 285l-81 3v-212q0 -2 2 -4.5t16 -2.5h32q114 0 154 29t40 81
q0 54 -36.5 78t-126.5 28zM277 520h-65q-15 0 -15 -6v-165l75 6q46 3 75.5 15.5t41 32.5t11.5 44q0 73 -123 73z" />
    <glyph glyph-name="a.sc" horiz-adv-x="567" 
d="M535 56v-40q0 -17 -23 -17h-40q-11 0 -17.5 2.5t-10.5 14.5l-61 170h-202l-60 -170q-3 -9 -7.5 -13t-12.5 -4h-53q-6 0 -11 4t-5 12v45q0 4 1 9t10 31l182 475q3 7 12 10.5t46 3.5q29 0 42.5 -2.5t17.5 -10.5l185 -486q7 -16 7 -34zM367 259l-77 215q-3 8 -8 8t-8 -8
l-78 -215h171z" />
    <glyph glyph-name="o.sc" horiz-adv-x="677" 
d="M339 -7q-138 0 -208.5 75.5t-70.5 224.5q0 299 279 299q278 0 278 -299q0 -300 -278 -300zM339 504q-51 0 -90 -16t-63.5 -60t-24.5 -136q0 -67 15.5 -111.5t55 -71t107.5 -26.5q89 0 133 48t44 161q0 81 -21 126.5t-61 65.5t-95 20z" />
    <glyph glyph-name="c.sc" horiz-adv-x="608" 
d="M340 592q101 0 173 -41q11 -6 18.5 -12.5t7.5 -11.5q0 -11 -17.5 -38.5t-30.5 -27.5q-1 0 -30.5 14.5t-60.5 22t-60 7.5q-90 0 -134 -48t-44 -163q0 -69 15.5 -114t54.5 -72.5t108 -27.5q31 0 66.5 9.5t69.5 29t35.5 20t3.5 0.5q11 0 23.5 -30t12.5 -41q0 -12 -25.5 -29
t-83.5 -32t-105 -15q-136 0 -206.5 76t-70.5 225q0 299 280 299z" />
    <glyph glyph-name="h.sc" horiz-adv-x="708" 
d="M607 574v-561q0 -16 -49 -16q-50 0 -50 16v257l-137 -15l-17 -2l-18 2l-136 16v-258q0 -16 -48 -16q-50 0 -50 16v561q0 14 49 14t49 -14v-234l142 16l14 1l12 -1l140 -14v232q0 14 50 14q49 0 49 -14z" />
    <glyph glyph-name="i.sc" horiz-adv-x="302" 
d="M201 574v-561q0 -16 -49 -16q-51 0 -51 16v561q0 14 50 14t50 -14z" />
    <glyph glyph-name="m.sc" horiz-adv-x="793" 
d="M197 435v-422q0 -16 -47 -16q-48 0 -48 16v551q0 11 5 16.5t30 5.5h54q18 0 28.5 -2.5t18.5 -15.5l148 -232q3 -6 10 -6t12 6l149 232q10 18 45 18h54q20 0 27.5 -3.5t7.5 -18.5v-551q0 -16 -47 -16q-48 0 -48 16v422q0 4 -8 4q-2 0 -5 -2t-4 -4l-133 -210
q-6 -13 -49 -13t-49 12l-135 212q-2 5 -9 5q-7 -1 -7 -4z" />
    <glyph glyph-name="d.sc" horiz-adv-x="661" 
d="M313 513h-97q-15 0 -15 -6v-425q0 -7 15 -7h94q97 0 143 50t46 172q0 72 -16.5 117.5t-57 72t-112.5 26.5zM313 0h-183q-29 0 -29 24v538q0 8 4.5 15.5t24.5 7.5h185q140 0 213 -72.5t73 -217.5q0 -149 -74.5 -222t-213.5 -73z" />
    <glyph glyph-name="e.sc" horiz-adv-x="570" 
d="M424 274l-216 -13q-7 0 -7 -8v-167q0 -6 15 -6h296q5 0 9 -10.5t4 -27.5q0 -10 -3.5 -26t-9.5 -16h-383q-28 0 -28 24v537q0 24 28 24h351q4 0 8.5 -11.5t4.5 -26.5q0 -8 -4 -24t-9 -16h-264q-15 0 -15 -7v-143q0 -2 0.5 -5.5t6.5 -3.5l216 -13q5 -1 8 -11t3 -20t-3 -20
t-8 -10z" />
    <glyph glyph-name="f.sc" horiz-adv-x="519" 
d="M424 266l-217 -12q-6 0 -6 -9v-233q0 -15 -49 -15q-51 0 -51 15v549q0 24 29 24h350q4 0 8.5 -11.5t4.5 -27.5q0 -9 -4 -24.5t-9 -15.5h-264q-15 0 -15 -7v-150q0 -2 0.5 -5.5t6.5 -3.5l216 -14q5 0 8 -10t3 -20t-3 -20t-8 -10z" />
    <glyph glyph-name="l.sc" horiz-adv-x="518" 
d="M202 573v-487q0 -6 15 -6h267q4 0 8.5 -11t4.5 -27q0 -9 -4 -25.5t-9 -16.5h-354q-28 0 -28 24v549q0 15 50 15t50 -15z" />
    <glyph glyph-name="k.sc" horiz-adv-x="610" 
d="M338 302l224 -208q10 -9 10 -24v-53q0 -8 -5 -13t-15 -5h-35q-19 0 -34 15l-211 228q-7 8 -21 14.5t-51 7.5v-252q0 -15 -48 -15q-51 0 -51 15v561q0 15 50 15q49 0 49 -15v-224q57 5 75 26l175 196q2 3 7.5 8.5t23.5 5.5h38q21 0 21 -16v-37q0 -15 -4 -24.5t-15 -16.5
l-182 -169q-8 -5 -8 -11z" />
    <glyph glyph-name="g.sc" horiz-adv-x="636" 
d="M162 294q0 -83 21 -131.5t61.5 -70.5t95.5 -22q36 0 75.5 11.5t52.5 22.5v127h-134q-5 0 -8.5 9t-3.5 24q0 13 2.5 29t9.5 16h207q10 0 16 -4.5t6 -12.5v-221q0 -19 -40 -37q-93 -42 -183 -42q-139 0 -209.5 76t-70.5 226q0 149 70.5 223.5t214.5 74.5q36 0 81.5 -9
t86.5 -30q10 -5 18 -12t8 -12q0 -4 -6.5 -18.5t-19.5 -30.5t-23 -16q-1 0 -30 13.5t-60 20.5t-60 7q-89 0 -133.5 -46t-44.5 -165z" />
    <glyph glyph-name="j.sc" horiz-adv-x="386" 
d="M112 585h149q24 0 24 -24v-451q0 -57 -21.5 -99.5t-68.5 -66t-117 -23.5q-5 0 -9 9t-4 26q0 20 3.5 30t9.5 10q53 1 79.5 26t26.5 85v404h-72q-4 0 -8.5 12.5t-4.5 27.5q0 10 4 22t9 12z" />
    <glyph glyph-name="p.sc" horiz-adv-x="555" 
d="M273 516h-57q-15 0 -15 -7v-247l59 4q77 5 114 34t37 94q0 63 -36.5 92.5t-101.5 29.5zM130 586h137q244 0 244 -188q0 -40 -14.5 -76.5t-45 -66t-79 -46.5t-112.5 -17l-59 3v-182q0 -16 -49 -16q-50 0 -50 16v548q0 25 28 25z" />
    <glyph glyph-name="r.sc" horiz-adv-x="604" 
d="M454 12l-146 227l-107 5v-232q0 -15 -49 -15q-50 0 -50 15v549q0 25 28 25h149q125 0 183 -38.5t58 -122.5q0 -52 -29 -93.5t-94 -62.5l139 -178q12 -16 12 -26v-47q0 -18 -21 -18h-36q-30 0 -37 12zM285 516h-69q-15 0 -15 -7v-203l78 6q71 7 106.5 31t35.5 75
q0 52 -32.5 75t-103.5 23z" />
    <glyph glyph-name="s.sc" horiz-adv-x="566" 
d="M281 592q39 0 87 -8t84.5 -25.5t36.5 -28.5q0 -10 -12 -35t-23 -25q-2 0 -39.5 15.5t-73 23t-65.5 7.5q-31 0 -56.5 -10.5t-35.5 -28.5t-10 -35t10.5 -33.5t41 -30t100.5 -32.5q110 -28 147.5 -70t37.5 -100q0 -53 -27.5 -93.5t-82 -66t-132.5 -25.5q-57 0 -111 14
t-83.5 30.5t-29.5 29.5q0 12 14.5 37t26.5 25q4 0 20.5 -9t27.5 -14q69 -32 151 -32q24 0 53.5 8.5t51 31.5t21.5 54q0 30 -28 53.5t-93 41.5q-87 22 -130 43t-64 52.5t-21 80.5q0 72 52 113.5t154 41.5z" />
    <glyph glyph-name="q.sc" horiz-adv-x="673" 
d="M337 -7q-138 0 -208.5 75.5t-70.5 224.5q0 299 279 299q278 0 278 -299q0 -95 -29.5 -161.5t-85.5 -100.5l100 -60q16 -14 16 -26q0 -10 -21 -28t-41 -18q-3 0 -16 9t-57.5 47t-55.5 47q-40 -9 -88 -9zM337 504q-51 0 -90 -16t-63.5 -60t-24.5 -136q0 -67 15.5 -111.5
t55 -71t107.5 -26.5q89 0 133 48t44 161q0 81 -21 126.5t-61 65.5t-95 20z" />
    <glyph glyph-name="n.sc" horiz-adv-x="740" 
d="M638 574v-551q0 -12 -5.5 -17.5t-31.5 -5.5h-44q-18 0 -29 4t-18 14l-293 404q-7 10 -14 10q-6 0 -6 -9v-411q0 -15 -47 -15q-49 0 -49 15v551q0 11 5.5 17t29.5 6h52q15 0 25.5 -3t21.5 -18l288 -401q8 -10 13 -10q2 0 4.5 2.5t2.5 6.5v411q0 15 48 15q47 0 47 -15z" />
    <glyph glyph-name="t.sc" horiz-adv-x="553" 
d="M42 586h469q5 0 9 -11.5t4 -27.5q0 -9 -3.5 -24.5t-9.5 -15.5h-177q-7 0 -7 -6v-488q0 -16 -49 -16q-51 0 -51 16v486q0 8 -9 8h-176q-4 0 -8.5 12t-4.5 28q0 10 3.5 24.5t9.5 14.5z" />
    <glyph glyph-name="u.sc" horiz-adv-x="661" 
d="M577 573v-287q0 -76 -13.5 -131t-42.5 -91t-76.5 -54t-114.5 -18q-132 0 -189.5 70t-57.5 223v288q0 16 50 16q49 0 49 -16v-272q0 -96 16.5 -142.5t50.5 -66.5t82 -20q46 0 79 20t50.5 68t17.5 143v270q0 16 50 16q49 0 49 -16z" />
    <glyph glyph-name="x.sc" horiz-adv-x="568" 
d="M41 70l182 241l-153 189q-13 16 -13 28v39q0 8 5.5 13.5t16.5 5.5h46q12 0 19.5 -4.5t14.5 -13.5l119 -183l5 -4q5 0 8 4l117 183q6 9 14.5 13.5t23.5 4.5h39q22 0 22 -17v-34q0 -11 -13 -30l-145 -194l176 -230q9 -13 9 -22v-41q0 -18 -21 -18h-48q-11 0 -18.5 4
t-13.5 14l-145 219q-3 5 -6 5t-6 -4l-141 -220q-13 -18 -31 -18h-52q-7 0 -13.5 5t-6.5 13v24q0 17 9 28z" />
    <glyph glyph-name="v.sc" horiz-adv-x="561" 
d="M290 125l150 445q6 16 28 16h41q22 0 22 -17v-41q0 -19 -6 -33l-186 -485q-3 -6 -13 -9.5t-47 -3.5q-29 0 -41.5 2.5t-15.5 11.5l-181 475q-10 27 -10 40v41q0 19 21 19h47q8 0 12.5 -4t7.5 -13l153 -445q2 -7 9 -7q8 0 9 8z" />
    <glyph glyph-name="w.sc" horiz-adv-x="869" 
d="M627 136l124 433q1 9 6 13t14 4h46q22 0 22 -17v-42q0 -15 -9 -42l-153 -473q-2 -7 -11.5 -11t-45.5 -4q-28 0 -42.5 2.5t-16.5 10.5l-124 396l-123 -394q-4 -15 -59 -15q-28 0 -41.5 3t-16.5 11l-155 472q-11 31 -11 42v42q0 19 22 19h47q15 0 20 -17l127 -434
q3 -7 9 -7q7 0 10 7l129 435q6 17 24 17h41q8 0 14 -5.5t8 -11.5l127 -435q4 -7 8 -7q8 0 10 8z" />
    <glyph glyph-name="y.sc" horiz-adv-x="527" 
d="M312 260v-247q0 -16 -49 -16q-50 0 -50 16v248l-172 240q-11 14 -11 34v33q0 18 21 18h37q8 0 16.5 -2t18.5 -17l133 -207q1 -2 3.5 -4t4.5 -2t8 6l132 208q3 4 9.5 11t24.5 7h38q20 0 20 -16v-35q0 -21 -10 -34z" />
    <glyph glyph-name="z.sc" horiz-adv-x="549" 
d="M485 492l-329 -402l-3 -7q0 -4 6 -4h330q4 0 8.5 -11.5t4.5 -27.5q0 -8 -4 -24t-9 -16h-421q-15 0 -24 4.5t-9 26.5q0 30 2 42.5t8 20.5l326 400q3 5 3 8q-1 5 -4 5h-292q-4 0 -8.5 12t-4.5 28q0 10 3.5 24t9.5 14h402q9 0 14 -5.5t5 -28.5q0 -21 -2 -33.5t-12 -25.5z
" />
    <glyph glyph-name="zcaron.sc" horiz-adv-x="549" 
d="M485 492l-329 -402l-3 -7q0 -4 6 -4h330q4 0 8.5 -11.5t4.5 -27.5q0 -8 -4 -24t-9 -16h-421q-15 0 -24 4.5t-9 26.5q0 30 2 42.5t8 20.5l326 400q3 5 3 8q-1 5 -4 5h-292q-4 0 -8.5 12t-4.5 28q0 10 3.5 24t9.5 14h402q9 0 14 -5.5t5 -28.5q0 -21 -2 -33.5t-12 -25.5z
M284 634q-10 0 -27 3.5t-27 13.5q-34 30 -65.5 61t-31.5 37q0 9 18 19t28 10q13 0 36 -23l69 -66l68 67q12 12 19 17t17 5q12 0 29.5 -9t17.5 -20q0 -7 -29 -35.5t-57 -50.5q-18 -14 -28 -20t-21 -7.5t-16 -1.5z" />
    <glyph glyph-name="agrave.sc" horiz-adv-x="567" 
d="M535 56v-40q0 -17 -23 -17h-40q-11 0 -17.5 2.5t-10.5 14.5l-61 170h-202l-60 -170q-3 -9 -7.5 -13t-12.5 -4h-53q-6 0 -11 4t-5 12v45q0 4 1 9t10 31l182 475q3 7 12 10.5t46 3.5q29 0 42.5 -2.5t17.5 -10.5l185 -486q7 -16 7 -34zM367 259l-77 215q-3 8 -8 8t-8 -8
l-78 -215h171zM173 720q-16 12 -20.5 16t-4.5 10q0 11 16 30.5t27 19.5q10 0 27 -13q45 -33 106 -85q25 -21 25 -26q0 -13 -13 -23.5t-21 -10.5q-4 0 -24 9q-80 46 -118 73z" />
    <glyph glyph-name="aacute.sc" horiz-adv-x="567" 
d="M535 56v-40q0 -17 -23 -17h-40q-11 0 -17.5 2.5t-10.5 14.5l-61 170h-202l-60 -170q-3 -9 -7.5 -13t-12.5 -4h-53q-6 0 -11 4t-5 12v45q0 4 1 9t10 31l182 475q3 7 12 10.5t46 3.5q29 0 42.5 -2.5t17.5 -10.5l185 -486q7 -16 7 -34zM367 259l-77 215q-3 8 -8 8t-8 -8
l-78 -215h171zM408 721q-100 -63 -116 -72q-22 -10 -26 -10q-8 0 -21 10.5t-13 23.5q0 4 24 26q81 67 107 85q15 13 27 13q11 0 26.5 -19.5t15.5 -30.5q0 -3 -2.5 -8.5t-21.5 -17.5z" />
    <glyph glyph-name="acircumflex.sc" horiz-adv-x="567" 
d="M535 56v-40q0 -17 -23 -17h-40q-11 0 -17.5 2.5t-10.5 14.5l-61 170h-202l-60 -170q-3 -9 -7.5 -13t-12.5 -4h-53q-6 0 -11 4t-5 12v45q0 4 1 9t10 31l182 475q3 7 12 10.5t46 3.5q29 0 42.5 -2.5t17.5 -10.5l185 -486q7 -16 7 -34zM367 259l-77 215q-3 8 -8 8t-8 -8
l-78 -215h171zM281 776q12 0 26 -3.5t39 -25.5q86 -74 86 -85q0 -12 -18.5 -20.5t-28.5 -8.5q-4 0 -10 2t-26 21l-68 65l-68 -66q-22 -22 -36 -22q-13 0 -29.5 9.5t-16.5 19.5q0 1 1.5 3.5t19.5 22.5t76 71q23 17 53 17z" />
    <glyph glyph-name="atilde.sc" horiz-adv-x="567" 
d="M535 56v-40q0 -17 -23 -17h-40q-11 0 -17.5 2.5t-10.5 14.5l-61 170h-202l-60 -170q-3 -9 -7.5 -13t-12.5 -4h-53q-6 0 -11 4t-5 12v45q0 4 1 9t10 31l182 475q3 7 12 10.5t46 3.5q29 0 42.5 -2.5t17.5 -10.5l185 -486q7 -16 7 -34zM367 259l-77 215q-3 8 -8 8t-8 -8
l-78 -215h171zM211 743q26 0 74 -22.5t65 -22.5q16 0 32.5 7.5t30 23t15.5 15.5q8 0 20.5 -16.5t12.5 -24.5q0 -9 -12 -23.5t-40 -27.5t-57 -13q-24 0 -69.5 22.5t-68.5 22.5q-13 0 -25 -5.5t-25.5 -17t-17.5 -11.5q-11 0 -23 10q-13 12 -13 25q0 7 10.5 20.5t36.5 25.5
t54 12z" />
    <glyph glyph-name="adieresis.sc" horiz-adv-x="567" 
d="M535 56v-40q0 -17 -23 -17h-40q-11 0 -17.5 2.5t-10.5 14.5l-61 170h-202l-60 -170q-3 -9 -7.5 -13t-12.5 -4h-53q-6 0 -11 4t-5 12v45q0 4 1 9t10 31l182 475q3 7 12 10.5t46 3.5q29 0 42.5 -2.5t17.5 -10.5l185 -486q7 -16 7 -34zM367 259l-77 215q-3 8 -8 8t-8 -8
l-78 -215h171zM118 688q0 23 11.5 33t38.5 10q20 0 35.5 -7.5t15.5 -35.5q0 -18 -8.5 -30.5t-42.5 -12.5q-28 0 -39 9.5t-11 33.5zM343 688q0 23 11.5 33t40.5 10q26 0 37.5 -10t11.5 -33q0 -18 -8 -30.5t-41 -12.5q-22 0 -37 6.5t-15 36.5z" />
    <glyph glyph-name="aring.sc" horiz-adv-x="567" 
d="M169 655q0 48 32.5 75t81.5 27q50 0 83 -27t33 -75q0 -23 -11 -49t-41 -42l181 -474q7 -16 7 -34v-40q0 -17 -23 -17h-40q-11 0 -17.5 2.5t-10.5 14.5l-61 170h-202l-60 -170q-3 -9 -7.5 -13t-12.5 -4h-53q-6 0 -11 4t-5 12v45q0 4 1 9t10 31l177 463q-51 28 -51 92z
M367 259l-77 215q-3 8 -8 8t-8 -8l-78 -215h171zM217 655q0 -31 19 -48.5t48 -17.5t48 17.5t19 48.5q0 30 -19 46t-48 16t-48 -16t-19 -46z" />
    <glyph glyph-name="ccedilla.sc" horiz-adv-x="608" 
d="M340 592q101 0 173 -41q11 -6 18.5 -12.5t7.5 -11.5q0 -11 -17.5 -38.5t-30.5 -27.5q-1 0 -30.5 14.5t-60.5 22t-60 7.5q-90 0 -134 -48t-44 -163q0 -69 15.5 -114t54.5 -72.5t108 -27.5q31 0 66.5 9.5t69.5 29t35.5 20t3.5 0.5q11 0 23.5 -30t12.5 -41q0 -17 -37 -35
t-81.5 -28t-74.5 -12q50 -48 50 -84q0 -45 -38 -70.5t-105 -25.5q-33 0 -47.5 2.5t-14.5 27.5q0 13 3.5 22.5t8.5 9.5l39 -2q39 0 56.5 15t17.5 35q0 26 -30 71q-117 10 -177.5 85.5t-60.5 213.5q0 299 280 299z" />
    <glyph glyph-name="egrave.sc" horiz-adv-x="570" 
d="M424 274l-216 -13q-7 0 -7 -8v-167q0 -6 15 -6h296q5 0 9 -10.5t4 -27.5q0 -10 -3.5 -26t-9.5 -16h-383q-28 0 -28 24v537q0 24 28 24h351q4 0 8.5 -11.5t4.5 -26.5q0 -8 -4 -24t-9 -16h-264q-15 0 -15 -7v-143q0 -2 0.5 -5.5t6.5 -3.5l216 -13q5 -1 8 -11t3 -20t-3 -20
t-8 -10zM201 720q-16 12 -20.5 16t-4.5 10q0 11 16 30.5t27 19.5q10 0 27 -13q45 -33 106 -85q25 -21 25 -26q0 -13 -13 -23.5t-21 -10.5q-4 0 -24 9q-80 46 -118 73z" />
    <glyph glyph-name="eacute.sc" horiz-adv-x="570" 
d="M424 274l-216 -13q-7 0 -7 -8v-167q0 -6 15 -6h296q5 0 9 -10.5t4 -27.5q0 -10 -3.5 -26t-9.5 -16h-383q-28 0 -28 24v537q0 24 28 24h351q4 0 8.5 -11.5t4.5 -26.5q0 -8 -4 -24t-9 -16h-264q-15 0 -15 -7v-143q0 -2 0.5 -5.5t6.5 -3.5l216 -13q5 -1 8 -11t3 -20t-3 -20
t-8 -10zM413 719q-100 -63 -116 -72q-22 -10 -26 -10q-8 0 -21 10.5t-13 23.5q0 4 24 26q81 67 107 85q15 13 27 13q11 0 26.5 -19.5t15.5 -30.5q0 -3 -2.5 -8.5t-21.5 -17.5z" />
    <glyph glyph-name="ecircumflex.sc" horiz-adv-x="570" 
d="M424 274l-216 -13q-7 0 -7 -8v-167q0 -6 15 -6h296q5 0 9 -10.5t4 -27.5q0 -10 -3.5 -26t-9.5 -16h-383q-28 0 -28 24v537q0 24 28 24h351q4 0 8.5 -11.5t4.5 -26.5q0 -8 -4 -24t-9 -16h-264q-15 0 -15 -7v-143q0 -2 0.5 -5.5t6.5 -3.5l216 -13q5 -1 8 -11t3 -20t-3 -20
t-8 -10zM294 776q12 0 26 -3.5t39 -25.5q86 -74 86 -85q0 -12 -18.5 -20.5t-28.5 -8.5q-4 0 -10 2t-26 21l-68 65l-68 -66q-22 -22 -36 -22q-13 0 -29.5 9.5t-16.5 19.5q0 1 1.5 3.5t19.5 22.5t76 71q23 17 53 17z" />
    <glyph glyph-name="edieresis.sc" horiz-adv-x="570" 
d="M424 274l-216 -13q-7 0 -7 -8v-167q0 -6 15 -6h296q5 0 9 -10.5t4 -27.5q0 -10 -3.5 -26t-9.5 -16h-383q-28 0 -28 24v537q0 24 28 24h351q4 0 8.5 -11.5t4.5 -26.5q0 -8 -4 -24t-9 -16h-264q-15 0 -15 -7v-143q0 -2 0.5 -5.5t6.5 -3.5l216 -13q5 -1 8 -11t3 -20t-3 -20
t-8 -10zM133 705q0 23 11.5 33t38.5 10q20 0 35.5 -7.5t15.5 -35.5q0 -18 -8.5 -30.5t-42.5 -12.5q-28 0 -39 9.5t-11 33.5zM358 705q0 23 11.5 33t40.5 10q26 0 37.5 -10t11.5 -33q0 -18 -8 -30.5t-41 -12.5q-22 0 -37 6.5t-15 36.5z" />
    <glyph glyph-name="iacute.sc" horiz-adv-x="302" 
d="M201 574v-561q0 -16 -49 -16q-51 0 -51 16v561q0 14 50 14t50 -14zM275 719q-100 -63 -116 -72q-22 -10 -26 -10q-8 0 -21 10.5t-13 23.5q0 4 24 26q81 67 107 85q15 13 27 13q11 0 26.5 -19.5t15.5 -30.5q0 -3 -2.5 -8.5t-21.5 -17.5z" />
    <glyph glyph-name="icircumflex.sc" horiz-adv-x="302" 
d="M201 574v-561q0 -16 -49 -16q-51 0 -51 16v561q0 14 50 14t50 -14zM150 776q12 0 26 -3.5t39 -25.5q86 -74 86 -85q0 -12 -18.5 -20.5t-28.5 -8.5q-4 0 -10 2t-26 21l-68 65l-68 -66q-22 -22 -36 -22q-13 0 -29.5 9.5t-16.5 19.5q0 1 1.5 3.5t19.5 22.5t76 71
q23 17 53 17z" />
    <glyph glyph-name="idieresis.sc" horiz-adv-x="302" 
d="M201 574v-561q0 -16 -49 -16q-51 0 -51 16v561q0 14 50 14t50 -14zM-12 705q0 23 11.5 33t38.5 10q20 0 35.5 -7.5t15.5 -35.5q0 -18 -8.5 -30.5t-42.5 -12.5q-28 0 -39 9.5t-11 33.5zM213 705q0 23 11.5 33t40.5 10q26 0 37.5 -10t11.5 -33q0 -18 -8 -30.5t-41 -12.5
q-22 0 -37 6.5t-15 36.5z" />
    <glyph glyph-name="ntilde.sc" horiz-adv-x="740" 
d="M638 574v-551q0 -12 -5.5 -17.5t-31.5 -5.5h-44q-18 0 -29 4t-18 14l-293 404q-7 10 -14 10q-6 0 -6 -9v-411q0 -15 -47 -15q-49 0 -49 15v551q0 11 5.5 17t29.5 6h52q15 0 25.5 -3t21.5 -18l288 -401q8 -10 13 -10q2 0 4.5 2.5t2.5 6.5v411q0 15 48 15q47 0 47 -15z
M312 728q26 0 74 -22.5t65 -22.5q16 0 32.5 7.5t30 23t15.5 15.5q8 0 20.5 -16.5t12.5 -24.5q0 -9 -12 -23.5t-40 -27.5t-57 -13q-24 0 -69.5 22.5t-68.5 22.5q-13 0 -25 -5.5t-25.5 -17t-17.5 -11.5q-11 0 -23 10q-13 12 -13 25q0 7 10.5 20.5t36.5 25.5t54 12z" />
    <glyph glyph-name="ograve.sc" horiz-adv-x="677" 
d="M339 -7q-138 0 -208.5 75.5t-70.5 224.5q0 299 279 299q278 0 278 -299q0 -300 -278 -300zM339 504q-51 0 -90 -16t-63.5 -60t-24.5 -136q0 -67 15.5 -111.5t55 -71t107.5 -26.5q89 0 133 48t44 161q0 81 -21 126.5t-61 65.5t-95 20zM251 720q-16 12 -20.5 16t-4.5 10
q0 11 16 30.5t27 19.5q10 0 27 -13q45 -33 106 -85q25 -21 25 -26q0 -13 -13 -23.5t-21 -10.5q-4 0 -24 9q-80 46 -118 73z" />
    <glyph glyph-name="oacute.sc" horiz-adv-x="677" 
d="M339 -7q-138 0 -208.5 75.5t-70.5 224.5q0 299 279 299q278 0 278 -299q0 -300 -278 -300zM339 504q-51 0 -90 -16t-63.5 -60t-24.5 -136q0 -67 15.5 -111.5t55 -71t107.5 -26.5q89 0 133 48t44 161q0 81 -21 126.5t-61 65.5t-95 20zM463 720q-100 -63 -116 -72
q-22 -10 -26 -10q-8 0 -21 10.5t-13 23.5q0 4 24 26q81 67 107 85q15 13 27 13q11 0 26.5 -19.5t15.5 -30.5q0 -3 -2.5 -8.5t-21.5 -17.5z" />
    <glyph glyph-name="ocircumflex.sc" horiz-adv-x="677" 
d="M339 -7q-138 0 -208.5 75.5t-70.5 224.5q0 299 279 299q278 0 278 -299q0 -300 -278 -300zM339 504q-51 0 -90 -16t-63.5 -60t-24.5 -136q0 -67 15.5 -111.5t55 -71t107.5 -26.5q89 0 133 48t44 161q0 81 -21 126.5t-61 65.5t-95 20zM338 776q12 0 26 -3.5t39 -25.5
q86 -74 86 -85q0 -12 -18.5 -20.5t-28.5 -8.5q-4 0 -10 2t-26 21l-68 65l-68 -66q-22 -22 -36 -22q-13 0 -29.5 9.5t-16.5 19.5q0 1 1.5 3.5t19.5 22.5t76 71q23 17 53 17z" />
    <glyph glyph-name="otilde.sc" horiz-adv-x="677" 
d="M339 -7q-138 0 -208.5 75.5t-70.5 224.5q0 299 279 299q278 0 278 -299q0 -300 -278 -300zM339 504q-51 0 -90 -16t-63.5 -60t-24.5 -136q0 -67 15.5 -111.5t55 -71t107.5 -26.5q89 0 133 48t44 161q0 81 -21 126.5t-61 65.5t-95 20zM268 744q26 0 74 -22.5t65 -22.5
q16 0 32.5 7.5t30 23t15.5 15.5q8 0 20.5 -16.5t12.5 -24.5q0 -9 -12 -23.5t-40 -27.5t-57 -13q-24 0 -69.5 22.5t-68.5 22.5q-13 0 -25 -5.5t-25.5 -17t-17.5 -11.5q-11 0 -23 10q-13 12 -13 25q0 7 10.5 20.5t36.5 25.5t54 12z" />
    <glyph glyph-name="odieresis.sc" horiz-adv-x="677" 
d="M339 -7q-138 0 -208.5 75.5t-70.5 224.5q0 299 279 299q278 0 278 -299q0 -300 -278 -300zM339 504q-51 0 -90 -16t-63.5 -60t-24.5 -136q0 -67 15.5 -111.5t55 -71t107.5 -26.5q89 0 133 48t44 161q0 81 -21 126.5t-61 65.5t-95 20zM180 688q0 23 11.5 33t38.5 10
q20 0 35.5 -7.5t15.5 -35.5q0 -18 -8.5 -30.5t-42.5 -12.5q-28 0 -39 9.5t-11 33.5zM405 688q0 23 11.5 33t40.5 10q26 0 37.5 -10t11.5 -33q0 -18 -8 -30.5t-41 -12.5q-22 0 -37 6.5t-15 36.5z" />
    <glyph glyph-name="ugrave.sc" horiz-adv-x="661" 
d="M577 573v-287q0 -76 -13.5 -131t-42.5 -91t-76.5 -54t-114.5 -18q-132 0 -189.5 70t-57.5 223v288q0 16 50 16q49 0 49 -16v-272q0 -96 16.5 -142.5t50.5 -66.5t82 -20q46 0 79 20t50.5 68t17.5 143v270q0 16 50 16q49 0 49 -16zM237 720q-16 12 -20.5 16t-4.5 10
q0 11 16 30.5t27 19.5q10 0 27 -13q45 -33 106 -85q25 -21 25 -26q0 -13 -13 -23.5t-21 -10.5q-4 0 -24 9q-80 46 -118 73z" />
    <glyph glyph-name="uacute.sc" horiz-adv-x="661" 
d="M577 573v-287q0 -76 -13.5 -131t-42.5 -91t-76.5 -54t-114.5 -18q-132 0 -189.5 70t-57.5 223v288q0 16 50 16q49 0 49 -16v-272q0 -96 16.5 -142.5t50.5 -66.5t82 -20q46 0 79 20t50.5 68t17.5 143v270q0 16 50 16q49 0 49 -16zM456 720q-100 -63 -116 -72
q-22 -10 -26 -10q-8 0 -21 10.5t-13 23.5q0 4 24 26q81 67 107 85q15 13 27 13q11 0 26.5 -19.5t15.5 -30.5q0 -3 -2.5 -8.5t-21.5 -17.5z" />
    <glyph glyph-name="ucircumflex.sc" horiz-adv-x="661" 
d="M577 573v-287q0 -76 -13.5 -131t-42.5 -91t-76.5 -54t-114.5 -18q-132 0 -189.5 70t-57.5 223v288q0 16 50 16q49 0 49 -16v-272q0 -96 16.5 -142.5t50.5 -66.5t82 -20q46 0 79 20t50.5 68t17.5 143v270q0 16 50 16q49 0 49 -16zM330 776q12 0 26 -3.5t39 -25.5
q86 -74 86 -85q0 -12 -18.5 -20.5t-28.5 -8.5q-4 0 -10 2t-26 21l-68 65l-68 -66q-22 -22 -36 -22q-13 0 -29.5 9.5t-16.5 19.5q0 1 1.5 3.5t19.5 22.5t76 71q23 17 53 17z" />
    <glyph glyph-name="udieresis.sc" horiz-adv-x="661" 
d="M577 573v-287q0 -76 -13.5 -131t-42.5 -91t-76.5 -54t-114.5 -18q-132 0 -189.5 70t-57.5 223v288q0 16 50 16q49 0 49 -16v-272q0 -96 16.5 -142.5t50.5 -66.5t82 -20q46 0 79 20t50.5 68t17.5 143v270q0 16 50 16q49 0 49 -16zM170 688q0 23 11.5 33t38.5 10
q20 0 35.5 -7.5t15.5 -35.5q0 -18 -8.5 -30.5t-42.5 -12.5q-28 0 -39 9.5t-11 33.5zM395 688q0 23 11.5 33t40.5 10q26 0 37.5 -10t11.5 -33q0 -18 -8 -30.5t-41 -12.5q-22 0 -37 6.5t-15 36.5z" />
    <glyph glyph-name="yacute.sc" horiz-adv-x="527" 
d="M312 260v-247q0 -16 -49 -16q-50 0 -50 16v248l-172 240q-11 14 -11 34v33q0 18 21 18h37q8 0 16.5 -2t18.5 -17l133 -207q1 -2 3.5 -4t4.5 -2t8 6l132 208q3 4 9.5 11t24.5 7h38q20 0 20 -16v-35q0 -21 -10 -34zM399 717q-100 -63 -116 -72q-22 -10 -26 -10
q-8 0 -21 10.5t-13 23.5q0 4 24 26q81 67 107 85q15 13 27 13q11 0 26.5 -19.5t15.5 -30.5q0 -3 -2.5 -8.5t-21.5 -17.5z" />
    <glyph glyph-name="scaron.sc" horiz-adv-x="566" 
d="M281 592q39 0 87 -8t84.5 -25.5t36.5 -28.5q0 -10 -12 -35t-23 -25q-2 0 -39.5 15.5t-73 23t-65.5 7.5q-31 0 -56.5 -10.5t-35.5 -28.5t-10 -35t10.5 -33.5t41 -30t100.5 -32.5q110 -28 147.5 -70t37.5 -100q0 -53 -27.5 -93.5t-82 -66t-132.5 -25.5q-57 0 -111 14
t-83.5 30.5t-29.5 29.5q0 12 14.5 37t26.5 25q4 0 20.5 -9t27.5 -14q69 -32 151 -32q24 0 53.5 8.5t51 31.5t21.5 54q0 30 -28 53.5t-93 41.5q-87 22 -130 43t-64 52.5t-21 80.5q0 72 52 113.5t154 41.5zM285 634q-10 0 -27 3.5t-27 13.5q-34 30 -65.5 61t-31.5 37
q0 9 18 19t28 10q13 0 36 -23l69 -66l68 67q12 12 19 17t17 5q12 0 29.5 -9t17.5 -20q0 -7 -29 -35.5t-57 -50.5q-18 -14 -28 -20t-21 -7.5t-16 -1.5z" />
    <glyph glyph-name="igrave.sc" horiz-adv-x="302" 
d="M201 574v-561q0 -16 -49 -16q-51 0 -51 16v561q0 14 50 14t50 -14zM50 723q-16 12 -20.5 16t-4.5 10q0 11 16 30.5t27 19.5q10 0 27 -13q45 -33 106 -85q25 -21 25 -26q0 -13 -13 -23.5t-21 -10.5q-4 0 -24 9q-80 46 -118 73z" />
    <glyph glyph-name="eth.sc" horiz-adv-x="680" 
d="M332 0h-183q-29 0 -29 24v236h-54q-5 0 -8 8.5t-3 17.5q0 10 3 17.5t8 7.5h54v251q0 8 4.5 15.5t24.5 7.5h185q140 0 213 -72.5t73 -217.5q0 -149 -74.5 -222t-213.5 -73zM332 513h-97q-15 0 -15 -6v-196h121q10 0 10 -25q0 -10 -2.5 -18t-7.5 -8h-121v-178q0 -7 15 -7
h94q97 0 143 50t46 172q0 72 -16.5 117.5t-57 72t-112.5 26.5z" />
    <glyph glyph-name="lslash.sc" horiz-adv-x="545" 
d="M224 573v-238q128 51 134 51q3 0 7 -6t4 -21q0 -6 -2 -12t-4 -7l-139 -54v-200q0 -6 15 -6h267q4 0 8.5 -11t4.5 -27q0 -9 -4 -25.5t-9 -16.5h-354q-28 0 -28 24v224l-65 -24q-6 0 -9.5 9.5t-3.5 18.5q0 4 1.5 9.5t3.5 6.5l73 29v276q0 15 50 15t50 -15z" />
    <glyph glyph-name="thorn.sc" horiz-adv-x="555" 
d="M265 424h-49q-15 0 -15 -7v-232l59 4q151 11 151 129q0 52 -38 79t-108 27zM201 573v-79l84 -1q106 -3 166 -46t60 -128q0 -37 -13.5 -73t-43 -65.5t-79 -47.5t-115.5 -18l-59 3v-106q0 -15 -49 -15q-50 0 -50 15v561q0 15 49 15q50 0 50 -15z" />
    <glyph glyph-name="ae.sc" horiz-adv-x="734" 
d="M355 259l-72 205q-3 8 -8 8q-6 0 -9 -8l-71 -205h160zM744 0h-275q-14 0 -22 3.5t-14 18.5l-61 165h-195l-58 -170q-5 -17 -21 -17h-51q-15 0 -15 14v46q0 11 11 40l175 471q2 5 9 9.5t49 4.5h259q5 0 9 -11t4 -22q0 -8 -4 -24.5t-9 -16.5h-170q-8 0 -8 -6
q0 -3 26.5 -77.5t30.5 -83.5l147 -10q5 -1 9 -11.5t4 -19.5q0 -10 -3.5 -19.5t-8.5 -10.5l-120 -11l65 -176q3 -12 11 -12h225q5 0 9.5 -11.5t4.5 -27.5q0 -8 -3.5 -21.5t-9.5 -13.5z" />
    <glyph glyph-name="oslash.sc" horiz-adv-x="677" 
d="M339 -7q-79 0 -136 24l-19 -33q-3 -5 -8.5 -11.5t-30.5 -6.5q-26 0 -26 9q0 10 14 33l22 37q-95 74 -95 248q0 299 279 299q69 0 123 -20l26 44q2 4 8.5 9.5t27.5 5.5q27 0 27 -9q0 -10 -18 -42l-20 -34q51 -35 77.5 -99.5t26.5 -153.5q0 -300 -278 -300zM516 292
q0 121 -52 171l-213 -364q37 -16 88 -16q89 0 133 48t44 161zM339 504q-51 0 -90 -16t-63.5 -60t-24.5 -136q0 -112 44 -161l210 361q-36 12 -76 12z" />
    <glyph glyph-name="oe.sc" horiz-adv-x="819" 
d="M398 514h-26q-54 0 -92.5 -11.5t-65 -34.5t-39.5 -62t-13 -112q0 -94 25 -139.5t73.5 -64t117.5 -18.5h20q13 0 13 7v428q0 7 -13 7zM762 0h-379q-121 0 -189.5 33t-101 96.5t-32.5 163.5q0 79 21 135.5t61.5 91t99.5 50t135 15.5h351q6 0 10 -11t4 -21q0 -16 -4.5 -29
t-9.5 -13h-202q-15 0 -15 -6v-149q0 -2 0.5 -5.5t6.5 -3.5l155 -12q5 -1 8 -11t3 -19q0 -10 -3.5 -20t-8.5 -11l-154 -12q-7 -1 -7 -8v-174q0 -6 15 -6h236q4 0 8.5 -11.5t4.5 -27.5q0 -8 -3.5 -21.5t-9.5 -13.5z" />
    <glyph glyph-name="amacron.sc" horiz-adv-x="567" 
d="M535 56v-40q0 -17 -23 -17h-40q-11 0 -17.5 2.5t-10.5 14.5l-61 170h-202l-60 -170q-3 -9 -7.5 -13t-12.5 -4h-53q-6 0 -11 4t-5 12v45q0 4 1 9t10 31l182 475q3 7 12 10.5t46 3.5q29 0 42.5 -2.5t17.5 -10.5l185 -486q7 -16 7 -34zM367 259l-77 215q-3 8 -8 8t-8 -8
l-78 -215h171zM134 721h295q6 0 9.5 -9t3.5 -19t-3.5 -20.5t-9.5 -10.5h-295q-5 0 -9 10.5t-4 20.5t4 19t9 9z" />
    <glyph glyph-name="aogonek.sc" horiz-adv-x="567" 
d="M535 56v-40q0 -17 -23 -17h-30q-21 -42 -21 -73q0 -45 70 -45q13 0 30.5 3.5t18.5 3.5q8 0 8 -20q0 -22 -4 -31q-3 -4 -26.5 -10t-48.5 -6q-68 0 -100.5 21t-32.5 68q0 27 19.5 58.5t46.5 52.5l-59 165h-202l-60 -170q-3 -9 -7.5 -13t-12.5 -4h-53q-6 0 -11 4t-5 12v45
q0 4 1 9t10 31l182 475q3 7 12 10.5t46 3.5q29 0 42.5 -2.5t17.5 -10.5l185 -486q7 -16 7 -34zM367 259l-77 215q-3 8 -8 8t-8 -8l-78 -215h171z" />
    <glyph glyph-name="ccaron.sc" horiz-adv-x="608" 
d="M340 592q101 0 173 -41q11 -6 18.5 -12.5t7.5 -11.5q0 -11 -17.5 -38.5t-30.5 -27.5q-1 0 -30.5 14.5t-60.5 22t-60 7.5q-90 0 -134 -48t-44 -163q0 -69 15.5 -114t54.5 -72.5t108 -27.5q31 0 66.5 9.5t69.5 29t35.5 20t3.5 0.5q11 0 23.5 -30t12.5 -41q0 -12 -25.5 -29
t-83.5 -32t-105 -15q-136 0 -206.5 76t-70.5 225q0 299 280 299zM329 638q-10 0 -27 3.5t-27 13.5q-34 30 -65.5 61t-31.5 37q0 9 18 19t28 10q13 0 36 -23l69 -66l68 67q12 12 19 17t17 5q12 0 29.5 -9t17.5 -20q0 -7 -29 -35.5t-57 -50.5q-18 -14 -28 -20t-21 -7.5
t-16 -1.5z" />
    <glyph glyph-name="cacute.sc" horiz-adv-x="608" 
d="M340 592q101 0 173 -41q11 -6 18.5 -12.5t7.5 -11.5q0 -11 -17.5 -38.5t-30.5 -27.5q-1 0 -30.5 14.5t-60.5 22t-60 7.5q-90 0 -134 -48t-44 -163q0 -69 15.5 -114t54.5 -72.5t108 -27.5q31 0 66.5 9.5t69.5 29t35.5 20t3.5 0.5q11 0 23.5 -30t12.5 -41q0 -12 -25.5 -29
t-83.5 -32t-105 -15q-136 0 -206.5 76t-70.5 225q0 299 280 299zM458 724q-100 -63 -116 -72q-22 -10 -26 -10q-8 0 -21 10.5t-13 23.5q0 4 24 26q81 67 107 85q15 13 27 13q11 0 26.5 -19.5t15.5 -30.5q0 -3 -2.5 -8.5t-21.5 -17.5z" />
    <glyph glyph-name="emacron.sc" horiz-adv-x="570" 
d="M424 274l-216 -13q-7 0 -7 -8v-167q0 -6 15 -6h296q5 0 9 -10.5t4 -27.5q0 -10 -3.5 -26t-9.5 -16h-383q-28 0 -28 24v537q0 24 28 24h351q4 0 8.5 -11.5t4.5 -26.5q0 -8 -4 -24t-9 -16h-264q-15 0 -15 -7v-143q0 -2 0.5 -5.5t6.5 -3.5l216 -13q5 -1 8 -11t3 -20t-3 -20
t-8 -10zM146 721h295q6 0 9.5 -9t3.5 -19t-3.5 -20.5t-9.5 -10.5h-295q-5 0 -9 10.5t-4 20.5t4 19t9 9z" />
    <glyph glyph-name="edotaccent.sc" horiz-adv-x="570" 
d="M424 274l-216 -13q-7 0 -7 -8v-167q0 -6 15 -6h296q5 0 9 -10.5t4 -27.5q0 -10 -3.5 -26t-9.5 -16h-383q-28 0 -28 24v537q0 24 28 24h351q4 0 8.5 -11.5t4.5 -26.5q0 -8 -4 -24t-9 -16h-264q-15 0 -15 -7v-143q0 -2 0.5 -5.5t6.5 -3.5l216 -13q5 -1 8 -11t3 -20t-3 -20
t-8 -10zM239 720q0 28 14 38.5t47 10.5q32 0 46 -10.5t14 -38.5q0 -21 -10 -34t-50 -13q-34 0 -47.5 9.5t-13.5 37.5z" />
    <glyph glyph-name="ecaron.sc" horiz-adv-x="570" 
d="M424 274l-216 -13q-7 0 -7 -8v-167q0 -6 15 -6h296q5 0 9 -10.5t4 -27.5q0 -10 -3.5 -26t-9.5 -16h-383q-28 0 -28 24v537q0 24 28 24h351q4 0 8.5 -11.5t4.5 -26.5q0 -8 -4 -24t-9 -16h-264q-15 0 -15 -7v-143q0 -2 0.5 -5.5t6.5 -3.5l216 -13q5 -1 8 -11t3 -20t-3 -20
t-8 -10zM292 637q-10 0 -27 3.5t-27 13.5q-34 30 -65.5 61t-31.5 37q0 9 18 19t28 10q13 0 36 -23l69 -66l68 67q12 12 19 17t17 5q12 0 29.5 -9t17.5 -20q0 -7 -29 -35.5t-57 -50.5q-18 -14 -28 -20t-21 -7.5t-16 -1.5z" />
    <glyph glyph-name="eogonek.sc" horiz-adv-x="569" 
d="M423 274l-216 -13q-7 0 -7 -8v-167q0 -6 15 -6h296q5 0 9 -10.5t4 -27.5q0 -10 -3.5 -26t-9.5 -16h-56q-11 -21 -16.5 -41t-5.5 -33q0 -45 70 -45q13 0 30.5 3.5t18.5 3.5q8 0 8 -20q0 -22 -4 -31q-3 -4 -26.5 -10t-48.5 -6q-68 0 -100.5 21t-32.5 68q0 22 13 46.5
t30 43.5h-263q-28 0 -28 24v537q0 24 28 24h351q4 0 8.5 -11.5t4.5 -26.5q0 -8 -4 -24t-9 -16h-264q-15 0 -15 -7v-143q0 -2 0.5 -5.5t6.5 -3.5l216 -13q5 -1 8 -11t3 -20t-3 -20t-8 -10z" />
    <glyph glyph-name="iogonek.sc" horiz-adv-x="302" 
d="M201 574v-561q0 -14 -38 -16q-20 -41 -20 -71q0 -45 70 -45q13 0 30.5 3.5t18.5 3.5q8 0 8 -20q0 -22 -4 -31q-3 -4 -26.5 -10t-48.5 -6q-68 0 -100.5 21t-32.5 68q0 23 14 49t33 45q-4 3 -4 9v561q0 14 50 14t50 -14z" />
    <glyph glyph-name="nacute.sc" horiz-adv-x="740" 
d="M638 574v-551q0 -12 -5.5 -17.5t-31.5 -5.5h-44q-18 0 -29 4t-18 14l-293 404q-7 10 -14 10q-6 0 -6 -9v-411q0 -15 -47 -15q-49 0 -49 15v551q0 11 5.5 17t29.5 6h52q15 0 25.5 -3t21.5 -18l288 -401q8 -10 13 -10q2 0 4.5 2.5t2.5 6.5v411q0 15 48 15q47 0 47 -15z
M509 723q-100 -63 -116 -72q-22 -10 -26 -10q-8 0 -21 10.5t-13 23.5q0 4 24 26q81 67 107 85q15 13 27 13q11 0 26.5 -19.5t15.5 -30.5q0 -3 -2.5 -8.5t-21.5 -17.5z" />
    <glyph glyph-name="ncaron.sc" horiz-adv-x="740" 
d="M638 574v-551q0 -12 -5.5 -17.5t-31.5 -5.5h-44q-18 0 -29 4t-18 14l-293 404q-7 10 -14 10q-6 0 -6 -9v-411q0 -15 -47 -15q-49 0 -49 15v551q0 11 5.5 17t29.5 6h52q15 0 25.5 -3t21.5 -18l288 -401q8 -10 13 -10q2 0 4.5 2.5t2.5 6.5v411q0 15 48 15q47 0 47 -15z
M383 637q-10 0 -27 3.5t-27 13.5q-34 30 -65.5 61t-31.5 37q0 9 18 19t28 10q13 0 36 -23l69 -66l68 67q12 12 19 17t17 5q12 0 29.5 -9t17.5 -20q0 -7 -29 -35.5t-57 -50.5q-18 -14 -28 -20t-21 -7.5t-16 -1.5z" />
    <glyph glyph-name="ncommaaccent.sc" horiz-adv-x="740" 
d="M638 574v-551q0 -12 -5.5 -17.5t-31.5 -5.5h-44q-18 0 -29 4t-18 14l-293 404q-7 10 -14 10q-6 0 -6 -9v-411q0 -15 -47 -15q-49 0 -49 15v551q0 11 5.5 17t29.5 6h52q15 0 25.5 -3t21.5 -18l288 -401q8 -10 13 -10q2 0 4.5 2.5t2.5 6.5v411q0 15 48 15q47 0 47 -15z
M279 -270q0 11 10.5 73.5t22.5 123.5q8 40 29 40q20 0 41 -7q16 -5 26 -11.5t10 -18.5q0 -6 -9 -33q0 -1 -2 -5.5t-31 -90t-36 -89.5q-4 -3 -9 -3q-11 0 -31.5 6t-20.5 15z" />
    <glyph glyph-name="ohungarumlaut.sc" horiz-adv-x="677" 
d="M339 -7q-138 0 -208.5 75.5t-70.5 224.5q0 299 279 299q278 0 278 -299q0 -300 -278 -300zM339 504q-51 0 -90 -16t-63.5 -60t-24.5 -136q0 -67 15.5 -111.5t55 -71t107.5 -26.5q89 0 133 48t44 161q0 81 -21 126.5t-61 65.5t-95 20zM587 719q-100 -63 -116 -72
q-22 -10 -26 -10q-8 0 -21 10.5t-13 23.5q0 4 24 26q81 67 107 85q15 13 27 13q11 0 26.5 -19.5t15.5 -30.5q0 -3 -2.5 -8.5t-21.5 -17.5zM343 719q-100 -63 -116 -72q-22 -10 -26 -10q-8 0 -21 10.5t-13 23.5q0 4 24 26q81 67 107 85q15 13 27 13q11 0 26.5 -19.5
t15.5 -30.5q0 -3 -2.5 -8.5t-21.5 -17.5z" />
    <glyph glyph-name="omacron.sc" horiz-adv-x="677" 
d="M339 -7q-138 0 -208.5 75.5t-70.5 224.5q0 299 279 299q278 0 278 -299q0 -300 -278 -300zM339 504q-51 0 -90 -16t-63.5 -60t-24.5 -136q0 -67 15.5 -111.5t55 -71t107.5 -26.5q89 0 133 48t44 161q0 81 -21 126.5t-61 65.5t-95 20zM190 723h295q6 0 9.5 -9t3.5 -19
t-3.5 -20.5t-9.5 -10.5h-295q-5 0 -9 10.5t-4 20.5t4 19t9 9z" />
    <glyph glyph-name="sacute.sc" horiz-adv-x="566" 
d="M281 592q39 0 87 -8t84.5 -25.5t36.5 -28.5q0 -10 -12 -35t-23 -25q-2 0 -39.5 15.5t-73 23t-65.5 7.5q-31 0 -56.5 -10.5t-35.5 -28.5t-10 -35t10.5 -33.5t41 -30t100.5 -32.5q110 -28 147.5 -70t37.5 -100q0 -53 -27.5 -93.5t-82 -66t-132.5 -25.5q-57 0 -111 14
t-83.5 30.5t-29.5 29.5q0 12 14.5 37t26.5 25q4 0 20.5 -9t27.5 -14q69 -32 151 -32q24 0 53.5 8.5t51 31.5t21.5 54q0 30 -28 53.5t-93 41.5q-87 22 -130 43t-64 52.5t-21 80.5q0 72 52 113.5t154 41.5zM408 723q-100 -63 -116 -72q-22 -10 -26 -10q-8 0 -21 10.5t-13 23.5
q0 4 24 26q81 67 107 85q15 13 27 13q11 0 26.5 -19.5t15.5 -30.5q0 -3 -2.5 -8.5t-21.5 -17.5z" />
    <glyph glyph-name="umacron.sc" horiz-adv-x="661" 
d="M577 573v-287q0 -76 -13.5 -131t-42.5 -91t-76.5 -54t-114.5 -18q-132 0 -189.5 70t-57.5 223v288q0 16 50 16q49 0 49 -16v-272q0 -96 16.5 -142.5t50.5 -66.5t82 -20q46 0 79 20t50.5 68t17.5 143v270q0 16 50 16q49 0 49 -16zM183 744h295q6 0 9.5 -9t3.5 -19
t-3.5 -20.5t-9.5 -10.5h-295q-5 0 -9 10.5t-4 20.5t4 19t9 9z" />
    <glyph glyph-name="uring.sc" horiz-adv-x="661" 
d="M577 573v-287q0 -76 -13.5 -131t-42.5 -91t-76.5 -54t-114.5 -18q-132 0 -189.5 70t-57.5 223v288q0 16 50 16q49 0 49 -16v-272q0 -96 16.5 -142.5t50.5 -66.5t82 -20q46 0 79 20t50.5 68t17.5 143v270q0 16 50 16q49 0 49 -16zM215 690q0 48 32.5 75t81.5 27
q50 0 83 -27t33 -75q0 -37 -19.5 -62.5t-46.5 -34.5t-50 -9q-35 0 -63 15.5t-39.5 40t-11.5 50.5zM263 690q0 -31 19 -48.5t48 -17.5t48 17.5t19 48.5q0 30 -19 46t-48 16t-48 -16t-19 -46z" />
    <glyph glyph-name="uhungarumlaut.sc" horiz-adv-x="661" 
d="M577 573v-287q0 -76 -13.5 -131t-42.5 -91t-76.5 -54t-114.5 -18q-132 0 -189.5 70t-57.5 223v288q0 16 50 16q49 0 49 -16v-272q0 -96 16.5 -142.5t50.5 -66.5t82 -20q46 0 79 20t50.5 68t17.5 143v270q0 16 50 16q49 0 49 -16zM559 720q-100 -63 -116 -72
q-22 -10 -26 -10q-8 0 -21 10.5t-13 23.5q0 4 24 26q81 67 107 85q15 13 27 13q11 0 26.5 -19.5t15.5 -30.5q0 -3 -2.5 -8.5t-21.5 -17.5zM339 720q-100 -63 -116 -72q-22 -10 -26 -10q-8 0 -21 10.5t-13 23.5q0 4 24 26q81 67 107 85q15 13 27 13q11 0 26.5 -19.5
t15.5 -30.5q0 -3 -2.5 -8.5t-21.5 -17.5z" />
    <glyph glyph-name="uogonek.sc" horiz-adv-x="661" 
d="M577 573v-287q0 -146 -51.5 -216.5t-170.5 -76.5q-18 -37 -18 -67q0 -45 70 -45q13 0 30.5 3.5t18.5 3.5q8 0 8 -20q0 -22 -4 -31q-3 -4 -26.5 -10t-48.5 -6q-68 0 -100.5 21t-32.5 68q0 18 11 41.5t27 42.5q-83 7 -127 45t-62 98t-18 148v288q0 16 50 16q49 0 49 -16
v-272q0 -96 16.5 -142.5t50.5 -66.5t82 -20q46 0 79 20t50.5 68t17.5 143v270q0 16 50 16q49 0 49 -16z" />
    <glyph glyph-name="zdotaccent.sc" horiz-adv-x="549" 
d="M485 492l-329 -402l-3 -7q0 -4 6 -4h330q4 0 8.5 -11.5t4.5 -27.5q0 -8 -4 -24t-9 -16h-421q-15 0 -24 4.5t-9 26.5q0 30 2 42.5t8 20.5l326 400q3 5 3 8q-1 5 -4 5h-292q-4 0 -8.5 12t-4.5 28q0 10 3.5 24t9.5 14h402q9 0 14 -5.5t5 -28.5q0 -21 -2 -33.5t-12 -25.5z
M225 720q0 28 14 38.5t47 10.5q32 0 46 -10.5t14 -38.5q0 -21 -10 -34t-50 -13q-34 0 -47.5 9.5t-13.5 37.5z" />
    <glyph glyph-name="zacute.sc" horiz-adv-x="549" 
d="M485 492l-329 -402l-3 -7q0 -4 6 -4h330q4 0 8.5 -11.5t4.5 -27.5q0 -8 -4 -24t-9 -16h-421q-15 0 -24 4.5t-9 26.5q0 30 2 42.5t8 20.5l326 400q3 5 3 8q-1 5 -4 5h-292q-4 0 -8.5 12t-4.5 28q0 10 3.5 24t9.5 14h402q9 0 14 -5.5t5 -28.5q0 -21 -2 -33.5t-12 -25.5z
M416 724q-100 -63 -116 -72q-22 -10 -26 -10q-8 0 -21 10.5t-13 23.5q0 4 24 26q81 67 107 85q15 13 27 13q11 0 26.5 -19.5t15.5 -30.5q0 -3 -2.5 -8.5t-21.5 -17.5z" />
    <glyph glyph-name="dcaron.sc" horiz-adv-x="661" 
d="M313 513h-97q-15 0 -15 -6v-425q0 -7 15 -7h94q97 0 143 50t46 172q0 72 -16.5 117.5t-57 72t-112.5 26.5zM313 0h-183q-29 0 -29 24v538q0 8 4.5 15.5t24.5 7.5h185q140 0 213 -72.5t73 -217.5q0 -149 -74.5 -222t-213.5 -73zM275 637q-10 0 -27 3.5t-27 13.5
q-34 30 -65.5 61t-31.5 37q0 9 18 19t28 10q13 0 36 -23l69 -66l68 67q12 12 19 17t17 5q12 0 29.5 -9t17.5 -20q0 -7 -29 -35.5t-57 -50.5q-18 -14 -28 -20t-21 -7.5t-16 -1.5z" />
    <glyph glyph-name="dcroat.sc" horiz-adv-x="680" 
d="M332 0h-183q-29 0 -29 24v236h-54q-5 0 -8 8.5t-3 17.5q0 10 3 17.5t8 7.5h54v251q0 8 4.5 15.5t24.5 7.5h185q140 0 213 -72.5t73 -217.5q0 -149 -74.5 -222t-213.5 -73zM332 513h-97q-15 0 -15 -6v-196h121q10 0 10 -25q0 -10 -2.5 -18t-7.5 -8h-121v-178q0 -7 15 -7
h94q97 0 143 50t46 172q0 72 -16.5 117.5t-57 72t-112.5 26.5z" />
    <glyph glyph-name="racute.sc" horiz-adv-x="604" 
d="M454 12l-146 227l-107 5v-232q0 -15 -49 -15q-50 0 -50 15v549q0 25 28 25h149q125 0 183 -38.5t58 -122.5q0 -52 -29 -93.5t-94 -62.5l139 -178q12 -16 12 -26v-47q0 -18 -21 -18h-36q-30 0 -37 12zM285 516h-69q-15 0 -15 -7v-203l78 6q71 7 106.5 31t35.5 75
q0 52 -32.5 75t-103.5 23zM378 724q-100 -63 -116 -72q-22 -10 -26 -10q-8 0 -21 10.5t-13 23.5q0 4 24 26q81 67 107 85q15 13 27 13q11 0 26.5 -19.5t15.5 -30.5q0 -3 -2.5 -8.5t-21.5 -17.5z" />
    <glyph glyph-name="rcaron.sc" horiz-adv-x="604" 
d="M454 12l-146 227l-107 5v-232q0 -15 -49 -15q-50 0 -50 15v549q0 25 28 25h149q125 0 183 -38.5t58 -122.5q0 -52 -29 -93.5t-94 -62.5l139 -178q12 -16 12 -26v-47q0 -18 -21 -18h-36q-30 0 -37 12zM285 516h-69q-15 0 -15 -7v-203l78 6q71 7 106.5 31t35.5 75
q0 52 -32.5 75t-103.5 23zM273 637q-10 0 -27 3.5t-27 13.5q-34 30 -65.5 61t-31.5 37q0 9 18 19t28 10q13 0 36 -23l69 -66l68 67q12 12 19 17t17 5q12 0 29.5 -9t17.5 -20q0 -7 -29 -35.5t-57 -50.5q-18 -14 -28 -20t-21 -7.5t-16 -1.5z" />
    <glyph glyph-name="rcommaaccent.sc" horiz-adv-x="604" 
d="M454 12l-146 227l-107 5v-232q0 -15 -49 -15q-50 0 -50 15v549q0 25 28 25h149q125 0 183 -38.5t58 -122.5q0 -52 -29 -93.5t-94 -62.5l139 -178q12 -16 12 -26v-47q0 -18 -21 -18h-36q-30 0 -37 12zM285 516h-69q-15 0 -15 -7v-203l78 6q71 7 106.5 31t35.5 75
q0 52 -32.5 75t-103.5 23zM239 -270q0 11 10.5 73.5t22.5 123.5q8 40 29 40q20 0 41 -7q16 -5 26 -11.5t10 -18.5q0 -6 -9 -33q0 -1 -2 -5.5t-31 -90t-36 -89.5q-4 -3 -9 -3q-11 0 -31.5 6t-20.5 15z" />
    <glyph glyph-name="imacron.sc" horiz-adv-x="302" 
d="M201 574v-561q0 -16 -49 -16q-51 0 -51 16v561q0 14 50 14t50 -14zM2 724h295q6 0 9.5 -9t3.5 -19t-3.5 -20.5t-9.5 -10.5h-295q-5 0 -9 10.5t-4 20.5t4 19t9 9z" />
    <glyph glyph-name="gcommaaccent.sc" horiz-adv-x="636" 
d="M162 294q0 -83 21 -131.5t61.5 -70.5t95.5 -22q36 0 75.5 11.5t52.5 22.5v127h-134q-5 0 -8.5 9t-3.5 24q0 13 2.5 29t9.5 16h207q10 0 16 -4.5t6 -12.5v-221q0 -19 -40 -37q-93 -42 -183 -42q-139 0 -209.5 76t-70.5 226q0 149 70.5 223.5t214.5 74.5q36 0 81.5 -9
t86.5 -30q10 -5 18 -12t8 -12q0 -4 -6.5 -18.5t-19.5 -30.5t-23 -16q-1 0 -30 13.5t-60 20.5t-60 7q-89 0 -133.5 -46t-44.5 -165zM263 -270q0 11 10.5 73.5t22.5 123.5q8 40 29 40q20 0 41 -7q16 -5 26 -11.5t10 -18.5q0 -6 -9 -33q0 -1 -2 -5.5t-31 -90t-36 -89.5
q-4 -3 -9 -3q-11 0 -31.5 6t-20.5 15z" />
    <glyph glyph-name="kcommaaccent.sc" horiz-adv-x="610" 
d="M338 302l224 -208q10 -9 10 -24v-53q0 -8 -5 -13t-15 -5h-35q-19 0 -34 15l-211 228q-7 8 -21 14.5t-51 7.5v-252q0 -15 -48 -15q-51 0 -51 15v561q0 15 50 15q49 0 49 -15v-224q57 5 75 26l175 196q2 3 7.5 8.5t23.5 5.5h38q21 0 21 -16v-37q0 -15 -4 -24.5t-15 -16.5
l-182 -169q-8 -5 -8 -11zM252 -270q0 11 10.5 73.5t22.5 123.5q8 40 29 40q20 0 41 -7q16 -5 26 -11.5t10 -18.5q0 -6 -9 -33q0 -1 -2 -5.5t-31 -90t-36 -89.5q-4 -3 -9 -3q-11 0 -31.5 6t-20.5 15z" />
    <glyph glyph-name="lcommaaccent.sc" horiz-adv-x="518" 
d="M202 573v-487q0 -6 15 -6h267q4 0 8.5 -11t4.5 -27q0 -9 -4 -25.5t-9 -16.5h-354q-28 0 -28 24v549q0 15 50 15t50 -15zM216 -270q0 11 10.5 73.5t22.5 123.5q8 40 29 40q20 0 41 -7q16 -5 26 -11.5t10 -18.5q0 -6 -9 -33q0 -1 -2 -5.5t-31 -90t-36 -89.5q-4 -3 -9 -3
q-11 0 -31.5 6t-20.5 15z" />
    <glyph glyph-name="lcaron.sc" horiz-adv-x="518" 
d="M202 573v-487q0 -6 15 -6h267q4 0 8.5 -11t4.5 -27q0 -9 -4 -25.5t-9 -16.5h-354q-28 0 -28 24v549q0 15 50 15t50 -15zM330 379q0 19 14 97t22 112q4 15 8.5 22t17.5 7q20 0 41 -7q16 -5 26 -11.5t10 -18.5t-8 -36q0 -1 -2.5 -7t-32.5 -89t-35 -87q-3 -2 -9 -2
q-12 0 -28.5 4.5t-20 9t-3.5 6.5z" />
    <glyph glyph-name="lacute.sc" horiz-adv-x="518" 
d="M202 573v-487q0 -6 15 -6h267q4 0 8.5 -11t4.5 -27q0 -9 -4 -25.5t-9 -16.5h-354q-28 0 -28 24v549q0 15 50 15t50 -15zM287 724q-100 -63 -116 -72q-22 -10 -26 -10q-8 0 -21 10.5t-13 23.5q0 4 24 26q81 67 107 85q15 13 27 13q11 0 26.5 -19.5t15.5 -30.5
q0 -3 -2.5 -8.5t-21.5 -17.5z" />
    <glyph glyph-name="tcaron.sc" horiz-adv-x="553" 
d="M42 586h469q5 0 9 -11.5t4 -27.5q0 -9 -3.5 -24.5t-9.5 -15.5h-177q-7 0 -7 -6v-488q0 -16 -49 -16q-51 0 -51 16v486q0 8 -9 8h-176q-4 0 -8.5 12t-4.5 28q0 10 3.5 24.5t9.5 14.5zM278 637q-10 0 -27 3.5t-27 13.5q-34 30 -65.5 61t-31.5 37q0 9 18 19t28 10
q13 0 36 -23l69 -66l68 67q12 12 19 17t17 5q12 0 29.5 -9t17.5 -20q0 -7 -29 -35.5t-57 -50.5q-18 -14 -28 -20t-21 -7.5t-16 -1.5z" />
    <glyph glyph-name="ydieresis.sc" horiz-adv-x="527" 
d="M312 260v-247q0 -16 -49 -16q-50 0 -50 16v248l-172 240q-11 14 -11 34v33q0 18 21 18h37q8 0 16.5 -2t18.5 -17l133 -207q1 -2 3.5 -4t4.5 -2t8 6l132 208q3 4 9.5 11t24.5 7h38q20 0 20 -16v-35q0 -21 -10 -34zM100 705q0 23 11.5 33t38.5 10q20 0 35.5 -7.5
t15.5 -35.5q0 -18 -8.5 -30.5t-42.5 -12.5q-28 0 -39 9.5t-11 33.5zM325 705q0 23 11.5 33t40.5 10q26 0 37.5 -10t11.5 -33q0 -18 -8 -30.5t-41 -12.5q-22 0 -37 6.5t-15 36.5z" />
    <glyph glyph-name="I.ss01" horiz-adv-x="372" 
d="M315 0h-258q-5 0 -9 10t-4 28q0 37 13 37h78v539h-67q-5 0 -9 10.5t-4 27.5q0 38 13 38h236q5 0 9 -10.5t4 -27.5q0 -11 -3 -24.5t-10 -13.5h-68v-539h79q13 0 13 -37q0 -10 -3 -24t-10 -14z" />
    <glyph glyph-name="Iacute.ss01" horiz-adv-x="372" 
d="M315 0h-258q-5 0 -9 10t-4 28q0 37 13 37h78v539h-67q-5 0 -9 10.5t-4 27.5q0 38 13 38h236q5 0 9 -10.5t4 -27.5q0 -11 -3 -24.5t-10 -13.5h-68v-539h79q13 0 13 -37q0 -10 -3 -24t-10 -14zM311 840q-100 -63 -116 -72q-22 -10 -26 -10q-8 0 -21 10.5t-13 23.5
q0 4 24 26q81 67 107 85q15 13 27 13q11 0 26.5 -19.5t15.5 -30.5q0 -3 -2.5 -8.5t-21.5 -17.5z" />
    <glyph glyph-name="Icircumflex.ss01" horiz-adv-x="372" 
d="M315 0h-258q-5 0 -9 10t-4 28q0 37 13 37h78v539h-67q-5 0 -9 10.5t-4 27.5q0 38 13 38h236q5 0 9 -10.5t4 -27.5q0 -11 -3 -24.5t-10 -13.5h-68v-539h79q13 0 13 -37q0 -10 -3 -24t-10 -14zM187 894q12 0 26 -3.5t39 -25.5q86 -74 86 -85q0 -12 -18.5 -20.5t-28.5 -8.5
q-4 0 -10 2t-26 21l-68 65l-68 -66q-22 -22 -36 -22q-13 0 -29.5 9.5t-16.5 19.5q0 1 1.5 3.5t19.5 22.5t76 71q23 17 53 17z" />
    <glyph glyph-name="Idieresis.ss01" horiz-adv-x="372" 
d="M315 0h-258q-5 0 -9 10t-4 28q0 37 13 37h78v539h-67q-5 0 -9 10.5t-4 27.5q0 38 13 38h236q5 0 9 -10.5t4 -27.5q0 -11 -3 -24.5t-10 -13.5h-68v-539h79q13 0 13 -37q0 -10 -3 -24t-10 -14zM25 829q0 23 11.5 33t38.5 10q20 0 35.5 -7.5t15.5 -35.5q0 -18 -8.5 -30.5
t-42.5 -12.5q-28 0 -39 9.5t-11 33.5zM250 829q0 23 11.5 33t40.5 10q26 0 37.5 -10t11.5 -33q0 -18 -8 -30.5t-41 -12.5q-22 0 -37 6.5t-15 36.5z" />
    <glyph glyph-name="Igrave.ss01" horiz-adv-x="372" 
d="M315 0h-258q-5 0 -9 10t-4 28q0 37 13 37h78v539h-67q-5 0 -9 10.5t-4 27.5q0 38 13 38h236q5 0 9 -10.5t4 -27.5q0 -11 -3 -24.5t-10 -13.5h-68v-539h79q13 0 13 -37q0 -10 -3 -24t-10 -14zM95 845q-16 12 -20.5 16t-4.5 10q0 11 16 30.5t27 19.5q10 0 27 -13
q45 -33 106 -85q25 -21 25 -26q0 -13 -13 -23.5t-21 -10.5q-4 0 -24 9q-80 46 -118 73z" />
    <glyph glyph-name="Iogonek.ss01" horiz-adv-x="372" 
d="M315 0h-110q-12 -22 -18 -43.5t-6 -35.5q0 -45 70 -45q13 0 30.5 3.5t18.5 3.5q8 0 8 -20q0 -22 -4 -31q-3 -4 -26.5 -10t-48.5 -6q-68 0 -100.5 21t-32.5 68q0 23 14.5 49t33.5 46h-87q-5 0 -9 10t-4 28q0 37 13 37h78v539h-67q-5 0 -9 10.5t-4 27.5q0 38 13 38h236
q5 0 9 -10.5t4 -27.5q0 -11 -3 -24.5t-10 -13.5h-68v-539h79q13 0 13 -37q0 -10 -3 -24t-10 -14z" />
    <glyph glyph-name="Imacron.ss01" horiz-adv-x="372" 
d="M315 0h-258q-5 0 -9 10t-4 28q0 37 13 37h78v539h-67q-5 0 -9 10.5t-4 27.5q0 38 13 38h236q5 0 9 -10.5t4 -27.5q0 -11 -3 -24.5t-10 -13.5h-68v-539h79q13 0 13 -37q0 -10 -3 -24t-10 -14zM38 845h295q6 0 9.5 -9t3.5 -19t-3.5 -20.5t-9.5 -10.5h-295q-5 0 -9 10.5
t-4 20.5t4 19t9 9z" />
    <glyph glyph-name="lslash.ss01" horiz-adv-x="348" 
d="M202 347v-207q0 -63 54 -63q14 0 30 2t31 5.5t16 3.5q5 0 9 -12t4 -36q0 -14 -2 -19q-5 -10 -35.5 -19t-80.5 -9q-65 0 -93.5 28t-28.5 94v190l-90 -38q-5 0 -8.5 10.5t-3.5 18.5q0 17 5 19l97 42v320q0 14 48 14t48 -14v-277q93 43 99 43q3 0 7 -6t4 -22q0 -18 -5 -21z
" />
    </font>
</defs>
</svg>
